<svg width="150" height="32" viewBox="0 0 150 32" fill="none" xmlns="http://www.w3.org/2000/svg">
<g clip-path="url(#clip0)">
<path d="M45.9994 24.3171H40.3577L39.0029 28.3175H36.6133L41.957 13.516H44.4397L49.7834 28.3175H47.3531L45.9994 24.3171ZM40.9421 22.4711H45.4141L43.2096 15.9785H43.1478L40.9421 22.4711Z" fill="black"/>
<path d="M61.325 22.9227C61.325 26.3377 59.5301 28.5026 56.8216 28.5026C55.2736 28.5026 54.0421 27.7426 53.4264 26.5426H53.3752V31.8875H51.1602V17.5265H53.3041V19.383H53.3449C53.9804 18.1422 55.2224 17.3519 56.7809 17.3519C59.5196 17.352 61.325 19.5065 61.325 22.9227ZM59.0482 22.9227C59.0482 20.6657 57.9506 19.219 56.1965 19.219C54.5041 19.219 53.3658 20.6961 53.3658 22.9227C53.3658 25.1692 54.4936 26.6252 56.1965 26.6252C57.9506 26.6252 59.0482 25.1888 59.0482 22.9227Z" fill="black"/>
<path d="M73.2019 22.9227C73.2019 26.3377 71.407 28.5026 68.6986 28.5026C67.1506 28.5026 65.9191 27.7426 65.3034 26.5426H65.2521V31.8875H63.0371V17.5265H65.1811V19.383H65.2218C65.8574 18.1422 67.0993 17.3519 68.6578 17.3519C71.3967 17.352 73.2019 19.5065 73.2019 22.9227ZM70.9253 22.9227C70.9253 20.6657 69.8277 19.219 68.0736 19.219C66.3812 19.219 65.2428 20.6961 65.2428 22.9227C65.2428 25.1692 66.3707 26.6252 68.0736 26.6252C69.8277 26.6252 70.9253 25.1888 70.9253 22.9227Z" fill="black"/>
<path d="M74.9941 13.5162H77.2103V28.3176H74.9941V13.5162V13.5162Z" fill="black"/>
<path d="M88.7439 25.1482C88.4355 27.1175 86.5697 28.5225 84.0975 28.5225C80.928 28.5225 79.0098 26.3786 79.0098 22.9739C79.0098 19.5892 80.9583 17.3322 84.0043 17.3322C87.0003 17.3322 88.8673 19.4449 88.8673 22.7167V23.4756H81.2458V23.6094C81.2458 25.4869 82.3736 26.7277 84.1486 26.7277C85.4103 26.7277 86.3438 26.0921 86.6406 25.1482H88.7439ZM81.2561 21.9274H86.6511C86.5998 20.2758 85.5535 19.1165 84.0043 19.1165C82.4562 19.1165 81.3691 20.2968 81.2561 21.9274Z" fill="black"/>
<path d="M95.1152 28.3175V13.5162H101.023C103.649 13.5162 105.373 14.9729 105.373 17.2088C105.373 18.7778 104.214 20.1838 102.737 20.4294V20.512C104.747 20.7378 106.101 22.1625 106.101 24.1319C106.101 26.7379 104.203 28.3174 101.055 28.3174H95.1152V28.3175ZM97.4128 19.8138H99.9876C101.978 19.8138 103.076 18.9931 103.076 17.5266C103.076 16.1532 102.132 15.3931 100.469 15.3931H97.4128V19.8138V19.8138ZM100.582 26.4402C102.654 26.4402 103.752 25.5893 103.752 23.9889C103.752 22.3886 102.624 21.568 100.45 21.568H97.4128V26.4403H100.582V26.4402Z" fill="black"/>
<path d="M107.553 22.9227C107.553 19.4552 109.593 17.3322 112.671 17.3322C115.748 17.3322 117.79 19.4552 117.79 22.9227C117.79 26.3994 115.759 28.5224 112.671 28.5224C109.584 28.5224 107.553 26.3994 107.553 22.9227ZM115.533 22.9227C115.533 20.5319 114.405 19.1573 112.671 19.1573C110.937 19.1573 109.81 20.5319 109.81 22.9227C109.81 25.3228 110.937 26.6974 112.671 26.6974C114.414 26.6974 115.533 25.3228 115.533 22.9227Z" fill="black"/>
<path d="M119.346 22.9227C119.346 19.4552 121.386 17.3322 124.464 17.3322C127.542 17.3322 129.583 19.4552 129.583 22.9227C129.583 26.3994 127.552 28.5224 124.464 28.5224C121.377 28.5224 119.346 26.3994 119.346 22.9227ZM127.326 22.9227C127.326 20.5319 126.197 19.1573 124.464 19.1573C122.73 19.1573 121.601 20.5319 121.601 22.9227C121.601 25.3228 122.73 26.6974 124.464 26.6974C126.208 26.6974 127.326 25.3228 127.326 22.9227Z" fill="black"/>
<path d="M137.981 17.5265H140.586L136.114 22.173L140.761 28.3175H138.186L134.524 23.5278L133.601 24.4403V28.3174H131.385V13.5162H133.601V22.1533H133.622L137.981 17.5265Z" fill="black"/>
<path d="M145.538 17.3322C148.051 17.3322 149.683 18.7266 149.754 20.717H147.672C147.549 19.6706 146.78 19.0141 145.538 19.0141C144.338 19.0141 143.538 19.5984 143.538 20.4609C143.538 21.1372 144.031 21.5993 145.201 21.8658L146.955 22.2662C149.159 22.7783 150.001 23.6408 150.001 25.1993C150.001 27.1687 148.164 28.5224 145.621 28.5224C142.923 28.5224 141.303 27.1989 141.098 25.1481H143.292C143.498 26.2759 144.267 26.8299 145.621 26.8299C146.955 26.8299 147.774 26.2759 147.774 25.3936C147.774 24.6963 147.375 24.2867 146.195 24.0202L144.44 23.6093C142.39 23.1379 141.375 22.1532 141.375 20.583C141.375 18.6556 143.057 17.3322 145.538 17.3322Z" fill="black"/>
<path d="M40.7226 8.71892C38.6775 8.71892 37.3867 7.26338 37.3867 4.93252C37.3867 2.63193 38.6921 1.15137 40.7127 1.15137C42.3533 1.15137 43.5434 2.082 43.7885 3.54218H42.6636C42.3836 2.6721 41.698 2.19725 40.7128 2.19725C39.3778 2.19725 38.5321 3.25243 38.5321 4.92263C38.5321 6.62322 39.3824 7.67363 40.7378 7.67363C41.918 7.67363 42.7288 6.95313 42.7387 5.88293V5.72811H40.8781V4.78759H43.8387V5.68794C43.8384 7.53346 42.6134 8.71892 40.7226 8.71892Z" fill="black"/>
<path d="M50.0009 7.07303C49.7663 8.04383 48.8859 8.64848 47.6404 8.64848C46.0801 8.64848 45.125 7.57828 45.125 5.83812C45.125 4.09748 46.0998 2.99224 47.6356 2.99224C49.1511 2.99224 50.066 4.02764 50.066 5.738V6.11285H46.2202V6.1734C46.2551 7.12846 46.8103 7.7337 47.6705 7.7337C48.3206 7.7337 48.7657 7.49854 48.966 7.07315H50.0009V7.07303ZM46.2205 5.31786H48.9709C48.9458 4.46291 48.4256 3.90773 47.6306 3.90773C46.8356 3.90773 46.2804 4.46756 46.2205 5.31786Z" fill="black"/>
<path d="M52.956 1.74159V3.12204H54.1368V4.02763H52.956V6.8281C52.956 7.39842 53.1912 7.64872 53.7266 7.64872C53.8913 7.64872 53.9868 7.63882 54.1368 7.62369V8.5188C53.9616 8.54907 53.7615 8.5741 53.5514 8.5741C52.356 8.5741 51.8811 8.15396 51.8811 7.10343V4.02763H51.0156V3.12204H51.8811V1.74159H52.956Z" fill="black"/>
<path d="M58.373 1.45172C58.373 1.06185 58.6781 0.746361 59.0534 0.746361C59.4282 0.746361 59.7331 1.06174 59.7331 1.45172C59.7331 1.83694 59.4281 2.15184 59.0534 2.15184C58.6779 2.15184 58.373 1.83706 58.373 1.45172ZM58.518 3.09701H59.5882V8.54371H58.518V3.09701Z" fill="black"/>
<path d="M62.7744 1.74159V3.12204H63.9552V4.02763H62.7744V6.8281C62.7744 7.39842 63.0095 7.64872 63.5449 7.64872C63.7097 7.64872 63.8051 7.63882 63.9552 7.62369V8.5188C63.78 8.54907 63.5799 8.5741 63.3697 8.5741C62.1744 8.5741 61.6994 8.15396 61.6994 7.10343V4.02763H60.834V3.12204H61.6994V1.74159H62.7744Z" fill="black"/>
<path d="M68.0469 5.81774C68.0469 4.06244 69.027 2.99224 70.6174 2.99224C72.2028 2.99224 73.1827 4.06244 73.1827 5.81774C73.1827 7.5834 72.2079 8.64848 70.6174 8.64848C69.0217 8.64848 68.0469 7.58352 68.0469 5.81774ZM72.0776 5.81774C72.0776 4.63753 71.5474 3.9473 70.6174 3.9473C69.6821 3.9473 69.1566 4.63753 69.1566 5.81774C69.1566 7.00843 69.6821 7.69341 70.6174 7.69341C71.5474 7.69341 72.0776 7.00319 72.0776 5.81774Z" fill="black"/>
<path d="M74.6172 3.09701H75.6526V3.96244H75.7323C75.9972 3.3572 76.5378 2.99224 77.3578 2.99224C78.5729 2.99224 79.2434 3.72263 79.2434 5.0175V8.54371H78.1679V5.28758C78.1679 4.41286 77.788 3.97758 76.993 3.97758C76.1974 3.97758 75.6923 4.50773 75.6923 5.35802V8.54383H74.6173V3.09701H74.6172Z" fill="black"/>
<path d="M29.9917 9.38185C29.9917 9.02368 29.9918 8.6654 29.9896 8.30724C29.9878 8.00545 29.9843 7.70378 29.9762 7.40212C29.9584 6.74503 29.9197 6.08222 29.803 5.43252C29.6844 4.77269 29.4909 4.15863 29.1857 3.55922C28.8859 2.97043 28.4944 2.4317 28.0272 1.96447C27.56 1.49725 27.0211 1.1056 26.4322 0.805838C25.833 0.500834 25.2193 0.30739 24.5599 0.188797C23.9098 0.0719914 23.2468 0.0332549 22.5895 0.0154958C22.2879 0.00739091 21.9862 0.00381524 21.6844 0.00202741C21.3264 -0.000117997 20.9681 1.19189e-06 20.6099 1.19189e-06H9.38185C9.02356 1.19189e-06 8.6654 -0.000117997 8.30712 0.00202741C8.00545 0.00381524 7.70378 0.00739091 7.40212 0.0154958C6.74479 0.0332549 6.08174 0.0719914 5.4318 0.188797C4.77233 0.30739 4.15863 0.500834 3.55946 0.805838C2.97055 1.1056 2.4317 1.49725 1.96447 1.96447C1.49737 2.4317 1.10572 2.97043 0.805957 3.55922C0.500833 4.15863 0.307271 4.77269 0.188677 5.43252C0.0719914 6.08222 0.0332549 6.74503 0.0154958 7.40212C0.00739091 7.70378 0.00381524 8.00545 0.00202741 8.30712C-0.000117997 8.6654 1.19189e-06 9.02356 1.19189e-06 9.38185V20.6099C1.19189e-06 20.9681 -0.000117997 21.3264 0.00202741 21.6845C0.00381524 21.9863 0.00739091 22.288 0.0154958 22.5895C0.0332549 23.2466 0.0719914 23.9094 0.188677 24.5591C0.307271 25.219 0.500714 25.833 0.805957 26.4324C1.10572 27.0212 1.49725 27.56 1.96447 28.0272C2.4317 28.4944 2.97055 28.8861 3.55946 29.1858C4.15863 29.4908 4.77233 29.6843 5.4318 29.8029C6.08186 29.9197 6.74491 29.9584 7.40212 29.9762C7.70378 29.9843 8.00545 29.9878 8.30724 29.9896C8.6654 29.9918 9.02368 29.9917 9.38185 29.9917H20.6099C20.9681 29.9917 21.3264 29.9918 21.6845 29.9896C21.9863 29.9878 22.288 29.9843 22.5897 29.9762C23.247 29.9584 23.91 29.9197 24.56 29.8029C25.2194 29.6844 25.8332 29.4908 26.4323 29.1858C27.0212 28.8861 27.5601 28.4944 28.0273 28.0272C28.4945 27.56 28.8861 27.0212 29.1858 26.4324C29.4911 25.833 29.6845 25.219 29.8031 24.5591C29.9198 23.9093 29.9585 23.2465 29.9763 22.5895C29.9844 22.2879 29.988 21.9862 29.9898 21.6845C29.9919 21.3264 29.9918 20.9681 29.9918 20.6099V9.38185H29.9917Z" fill="url(#paint0_linear)"/>
<path d="M13.8884 8.44788C14.381 9.20092 14.6829 9.42452 14.6829 11.6181C14.6829 14.3245 14.6829 21.0719 14.6829 23.7782C14.6829 24.2811 14.6824 22.5779 12.9397 21.2878C11.1543 19.9083 8.09988 19.8161 5.60537 21.6263C5.14566 21.9664 4.81062 21.9037 4.81062 21.4009C4.81085 18.6944 4.81038 12.3058 4.81062 9.59937C4.81062 9.09651 4.86044 8.5486 5.60537 8.00331C8.09964 6.19318 11.936 6.16184 13.8884 8.44788ZM25.18 9.59925C25.18 9.09639 25.1302 8.54848 24.3853 8.00319C21.891 6.19318 18.0547 6.16184 16.1021 8.44788C15.6095 9.20092 15.3076 9.42452 15.3076 11.6181C15.3076 14.3245 15.3076 21.0719 15.3076 23.7782C15.3076 24.2811 15.3081 22.5779 17.0509 21.2878C18.8362 19.9083 21.8908 19.8161 24.3851 21.6263C24.8449 21.9664 25.1799 21.9037 25.1799 21.4009C25.1798 18.6943 25.1803 12.3057 25.18 9.59925Z" fill="white"/>
</g>
<defs>
<linearGradient id="paint0_linear" x1="14.9959" y1="1.514e-06" x2="14.9959" y2="29.9917" gradientUnits="userSpaceOnUse">
<stop stop-color="#FFA80B"/>
<stop offset="1" stop-color="#F27218"/>
</linearGradient>
<clipPath id="clip0">
<rect width="150" height="31.8875" fill="white"/>
</clipPath>
</defs>
</svg>
