<svg width="784" height="754" viewBox="0 0 784 754" fill="none" xmlns="http://www.w3.org/2000/svg">
<g opacity="0.725374">
<path fill-rule="evenodd" clip-rule="evenodd" d="M941.14 337.649L840.218 397.785L649.096 286.177L749.106 226.744L941.14 337.649Z" fill="#D1D1D3"/>
<path fill-rule="evenodd" clip-rule="evenodd" d="M0 373.337L220.728 500.689L397.747 398.357L177.019 271.003L0 373.337Z" fill="#D1D1D3"/>
<path fill-rule="evenodd" clip-rule="evenodd" d="M397.552 348.208L382.7 356.769V391.501L397.552 382.941C402.894 379.862 407.224 369.591 407.224 359.999C407.224 350.409 402.894 345.129 397.552 348.208Z" fill="#78332E"/>
<path fill-rule="evenodd" clip-rule="evenodd" d="M394.53 383.009L228.28 478.835C223.819 481.405 216.027 481.082 210.876 478.114L12.0442 363.508C6.89332 360.539 6.33366 356.048 10.7953 353.476L177.044 257.651L394.53 383.009Z" fill="#B79374"/>
<path fill-rule="evenodd" clip-rule="evenodd" d="M393.443 345.285C397.837 342.744 401.573 342.39 404.299 343.899L187.394 218.898C184.893 217.187 181.467 217.13 177.167 219.241L10.7946 315.071C6.3338 317.642 6.89347 322.134 12.0443 325.103L210.876 439.709C216.027 442.678 223.819 443.001 228.28 440.429L393.443 345.285Z" fill="#D6B798"/>
<path fill-rule="evenodd" clip-rule="evenodd" d="M10.3096 330.471C10.8127 330.889 11.3915 331.29 12.0442 331.666L210.876 446.272C216.028 449.241 223.819 449.563 228.28 446.992L391.04 353.178V380.998L228.28 474.812C223.819 477.383 216.028 477.06 210.876 474.092L14.5618 361.408C11.7531 359.789 10.32 357.718 10.3122 355.751V330.47L10.3096 330.471Z" fill="#E1E1E1"/>
<path fill-rule="evenodd" clip-rule="evenodd" d="M10.3115 354.013C10.3202 355.979 11.7524 358.05 14.5612 359.669L210.876 472.353C216.027 475.322 223.819 475.645 228.28 473.073L391.041 379.258V380.997L228.28 474.812C223.819 477.384 216.027 477.061 210.876 474.092L14.5612 361.407C11.7524 359.788 10.3202 357.717 10.3115 355.751V354.013Z" fill="#D1D1D3"/>
<path fill-rule="evenodd" clip-rule="evenodd" d="M10.3115 350.549C10.3202 352.515 11.7524 354.586 14.5612 356.205L210.876 468.89C216.027 471.859 223.819 472.181 228.28 469.61L391.041 375.795V377.534L228.28 471.349C223.819 473.92 216.027 473.597 210.876 470.628L14.5612 357.944C11.7524 356.325 10.3202 354.254 10.3115 352.288V350.549Z" fill="#D1D1D3"/>
<path fill-rule="evenodd" clip-rule="evenodd" d="M10.3115 347.086C10.3202 349.052 11.7524 351.123 14.5612 352.742L210.876 465.426C216.027 468.395 223.819 468.718 228.28 466.146L391.041 372.332V374.07L228.28 467.885C223.819 470.457 216.027 470.134 210.876 467.165L14.5612 354.481C11.7524 352.862 10.3202 350.791 10.3115 348.825V347.086Z" fill="#D1D1D3"/>
<path fill-rule="evenodd" clip-rule="evenodd" d="M10.3115 343.622C10.3202 345.588 11.7524 347.659 14.5612 349.278L210.876 461.963C216.027 464.931 223.819 465.254 228.28 462.683L391.041 368.868V370.607L228.28 464.421C223.819 466.993 216.027 466.67 210.876 463.701L14.5612 351.017C11.7524 349.398 10.3202 347.327 10.3115 345.361V343.622Z" fill="#D1D1D3"/>
<path fill-rule="evenodd" clip-rule="evenodd" d="M10.3115 340.159C10.3202 342.125 11.7524 344.196 14.5612 345.815L210.876 458.499C216.027 461.468 223.819 461.791 228.28 459.219L391.041 365.404V367.143L228.28 460.958C223.819 463.53 216.027 463.207 210.876 460.238L14.5612 347.553C11.7524 345.934 10.3202 343.863 10.3115 341.897V340.159Z" fill="#D1D1D3"/>
<path fill-rule="evenodd" clip-rule="evenodd" d="M10.3115 336.695C10.3202 338.661 11.7524 340.732 14.5612 342.351L210.876 455.035C216.027 458.004 223.819 458.327 228.28 455.755L391.041 361.941V363.679L228.28 457.494C223.819 460.066 216.027 459.743 210.876 456.774L14.5612 344.089C11.7524 342.471 10.3202 340.4 10.3115 338.434V336.695Z" fill="#D1D1D3"/>
<path fill-rule="evenodd" clip-rule="evenodd" d="M10.3115 333.231C10.3202 335.197 11.7524 337.268 14.5612 338.887L210.876 451.572C216.027 454.541 223.819 454.864 228.28 452.292L391.041 358.477V360.216L228.28 454.031C223.819 456.602 216.027 456.28 210.876 453.311L14.5612 340.626C11.7524 339.007 10.3202 336.936 10.3115 334.97V333.231Z" fill="#D1D1D3"/>
<path fill-rule="evenodd" clip-rule="evenodd" d="M10.3115 329.768C10.3202 331.734 11.7524 333.805 14.5612 335.424L210.876 448.109C216.027 451.077 223.819 451.4 228.28 448.829L391.041 355.014V356.753L228.28 450.567C223.819 453.139 216.027 452.816 210.876 449.847L14.5612 337.163C11.7524 335.544 10.3202 333.473 10.3115 331.507V329.768Z" fill="#D1D1D3"/>
<path fill-rule="evenodd" clip-rule="evenodd" d="M409.84 358.263C409.84 346.352 404.529 339.672 394.53 344.66L228.281 440.429C223.82 443.001 216.027 442.678 210.877 439.709L12.045 325.103C9.14934 323.434 7.70499 321.283 7.78755 319.264H7.7832V326.01H7.79537C7.80319 327.976 9.23625 330.047 12.045 331.666L210.877 446.272C216.027 449.241 223.82 449.563 228.281 446.993L393.23 351.915C400.906 347.491 404.112 352.772 404.112 361.565C404.112 370.358 400.906 379.334 393.23 383.758L228.281 478.834C223.82 481.405 216.027 481.083 210.877 478.114L12.045 363.508C9.14934 361.839 7.70499 359.688 7.78755 357.669H7.7832V364.415H7.79537C7.80319 366.381 9.23625 368.452 12.045 370.071L210.877 484.677C216.027 487.646 223.82 487.969 228.281 485.397L394.53 389.495C404.522 382.954 409.84 370.169 409.84 358.263Z" fill="#87705C"/>
<path fill-rule="evenodd" clip-rule="evenodd" d="M210.886 439.696C210.886 439.696 198.432 432.581 179.75 421.907C161.093 411.191 136.218 396.902 111.343 382.613C86.5102 368.251 61.6772 353.888 43.0536 343.116C24.4542 332.301 12.0547 325.09 12.0547 325.09C12.0547 325.09 24.509 332.205 43.1909 342.878C61.8475 353.595 86.7231 367.884 111.598 382.173C136.431 396.535 161.263 410.898 179.887 421.671C198.487 432.485 210.886 439.696 210.886 439.696Z" fill="#F2847D"/>
<path fill-rule="evenodd" clip-rule="evenodd" d="M394.53 344.659C394.53 344.659 384.167 350.692 368.624 359.74C353.055 368.745 332.297 380.752 311.538 392.758C290.737 404.691 269.936 416.623 254.335 425.573C238.708 434.479 228.291 440.416 228.291 440.416C228.291 440.416 238.654 434.383 254.197 425.335C269.766 416.33 290.524 404.323 311.283 392.317C332.085 380.385 352.885 368.452 368.486 359.502C384.113 350.596 394.53 344.659 394.53 344.659Z" fill="#F2847D"/>
<path fill-rule="evenodd" clip-rule="evenodd" d="M210.851 478.096C210.851 478.096 198.397 470.981 179.715 460.308C161.058 449.591 136.183 435.302 111.308 421.014C86.475 406.651 61.6421 392.289 43.0184 381.517C24.4191 370.701 12.0195 363.49 12.0195 363.49C12.0195 363.49 24.4738 370.606 43.1557 381.279C61.8124 391.996 86.6871 406.284 111.563 420.573C136.396 434.935 161.228 449.299 179.852 460.07C198.452 470.886 210.851 478.096 210.851 478.096Z" fill="#F2847D"/>
<path fill-rule="evenodd" clip-rule="evenodd" d="M393.23 383.757C393.23 383.757 382.947 389.746 367.521 398.729C352.071 407.669 331.471 419.588 310.87 431.507C290.227 443.353 269.584 455.198 254.101 464.083C238.594 472.923 228.255 478.816 228.255 478.816C228.255 478.816 238.538 472.827 253.964 463.844C269.414 454.905 290.015 442.986 310.615 431.066C331.259 419.221 351.902 407.375 367.384 398.492C382.892 389.651 393.23 383.757 393.23 383.757Z" fill="#F2847D"/>
<path fill-rule="evenodd" clip-rule="evenodd" d="M176.623 219.69C176.623 219.69 174.046 221.203 169.536 223.852C165.018 226.489 158.597 230.312 150.833 234.797C135.316 243.787 114.627 255.774 93.9372 267.76C73.1757 279.621 52.4133 291.482 36.8418 300.378C29.0612 304.833 22.5286 308.464 17.9791 311.045C13.4218 313.613 10.8182 315.081 10.8182 315.081L10.793 315.036L176.598 219.646L176.623 219.69Z" fill="#F2847D"/>
<path fill-rule="evenodd" clip-rule="evenodd" d="M865.876 155.103L711.669 243.176L520.548 131.568L674.754 43.4951L865.876 155.103Z" fill="#D1D1D3"/>
<path fill-rule="evenodd" clip-rule="evenodd" d="M847.52 136.059L711.613 214.395C707.967 216.497 701.597 216.234 697.385 213.807L534.843 120.118C530.632 117.69 530.175 114.019 533.821 111.917L669.728 33.5806L847.52 136.059Z" fill="#394D57"/>
<path fill-rule="evenodd" clip-rule="evenodd" d="M846.632 105.221C850.223 103.143 853.277 102.854 855.506 104.088L678.189 1.90144C676.145 0.501987 673.344 0.455136 669.829 2.18168L669.728 2.18515L533.821 80.5209C530.175 82.6231 530.632 86.2949 534.843 88.7224L697.385 182.411C701.596 184.838 707.967 185.102 711.613 183L846.632 105.221Z" fill="#394D57"/>
<path fill-rule="evenodd" clip-rule="evenodd" d="M533.425 93.1102C533.837 93.4521 534.309 93.7792 534.843 94.0872L697.385 187.776C701.596 190.204 707.967 190.467 711.613 188.365L844.668 111.673V134.415L711.613 211.107C707.967 213.209 701.596 212.946 697.385 210.519L536.901 118.401C534.604 117.077 533.433 115.384 533.427 113.777V93.1094L533.425 93.1102Z" fill="#E1E1E1"/>
<path fill-rule="evenodd" clip-rule="evenodd" d="M533.427 112.356C533.434 113.964 534.604 115.656 536.901 116.979L697.385 209.097C701.597 211.525 707.967 211.789 711.613 209.686L844.668 132.994V134.416L711.613 211.107C707.967 213.21 701.597 212.946 697.385 210.519L536.901 118.401C534.604 117.077 533.434 115.385 533.427 113.777V112.356Z" fill="#D1D1D3"/>
<path fill-rule="evenodd" clip-rule="evenodd" d="M533.427 109.524C533.434 111.132 534.604 112.825 536.901 114.148L697.385 206.266C701.597 208.693 707.967 208.957 711.613 206.855L844.668 130.162V131.584L711.613 208.276C707.967 210.378 701.597 210.114 697.385 207.688L536.901 115.57C534.604 114.246 533.434 112.553 533.427 110.946V109.524Z" fill="#D1D1D3"/>
<path fill-rule="evenodd" clip-rule="evenodd" d="M533.427 106.693C533.434 108.301 534.604 109.993 536.901 111.316L697.385 203.435C701.597 205.862 707.967 206.125 711.613 204.023L844.668 127.331V128.753L711.613 205.444C707.967 207.547 701.597 207.283 697.385 204.856L536.901 112.738C534.604 111.414 533.434 109.722 533.427 108.114V106.693Z" fill="#D1D1D3"/>
<path fill-rule="evenodd" clip-rule="evenodd" d="M533.427 103.861C533.434 105.469 534.604 107.162 536.901 108.485L697.385 200.603C701.597 203.03 707.967 203.294 711.613 201.192L844.668 124.499V125.921L711.613 202.613C707.967 204.715 701.597 204.451 697.385 202.025L536.901 109.907C534.604 108.583 533.434 106.89 533.427 105.282V103.861Z" fill="#D1D1D3"/>
<path fill-rule="evenodd" clip-rule="evenodd" d="M533.427 101.03C533.434 102.638 534.604 104.331 536.901 105.654L697.385 197.772C701.597 200.199 707.967 200.463 711.613 198.361L844.668 121.668V123.09L711.613 199.782C707.967 201.884 701.597 201.62 697.385 199.194L536.901 107.076C534.604 105.752 533.434 104.059 533.427 102.451V101.03Z" fill="#D1D1D3"/>
<path fill-rule="evenodd" clip-rule="evenodd" d="M533.427 98.1987C533.434 99.8064 534.604 101.499 536.901 102.822L697.385 194.941C701.597 197.368 707.967 197.631 711.613 195.529L844.668 118.837V120.259L711.613 196.95C707.967 199.052 701.597 198.789 697.385 196.362L536.901 104.244C534.604 102.92 533.434 101.228 533.427 99.6199V98.1987Z" fill="#D1D1D3"/>
<path fill-rule="evenodd" clip-rule="evenodd" d="M533.427 95.3672C533.434 96.9749 534.604 98.6676 536.901 99.9907L697.385 192.109C701.597 194.536 707.967 194.8 711.613 192.698L844.668 116.005V117.427L711.613 194.119C707.967 196.221 701.597 195.957 697.385 193.53L536.901 101.413C534.604 100.089 533.434 98.396 533.427 96.7883V95.3672Z" fill="#D1D1D3"/>
<path fill-rule="evenodd" clip-rule="evenodd" d="M533.427 92.5356C533.434 94.1433 534.604 95.836 536.901 97.1591L697.385 189.277C701.597 191.704 707.967 191.968 711.613 189.866L844.668 113.174V114.596L711.613 191.287C707.967 193.389 701.597 193.126 697.385 190.699L536.901 98.5812C534.604 97.2572 533.434 95.5645 533.427 93.9568V92.5356Z" fill="#D1D1D3"/>
<path fill-rule="evenodd" clip-rule="evenodd" d="M860.036 115.83C860.036 106.093 855.693 100.633 847.52 104.709L711.613 183C707.967 185.102 701.597 184.838 697.385 182.411L534.843 88.7223C532.476 87.3576 531.295 85.5998 531.363 83.9487H531.359V89.4633H531.369C531.376 91.071 532.546 92.7637 534.843 94.0876L697.385 187.777C701.597 190.203 707.967 190.467 711.613 188.365L846.458 110.641C852.733 107.025 855.353 111.341 855.353 118.529C855.353 125.717 852.733 133.055 846.458 136.672L711.613 214.396C707.967 216.497 701.597 216.234 697.385 213.807L534.843 120.118C532.476 118.753 531.295 116.995 531.363 115.344H531.359V120.86H531.369C531.376 122.466 532.546 124.159 534.843 125.483L697.385 219.172C701.597 221.6 707.967 221.862 711.613 219.761L847.52 141.362C855.688 136.015 860.036 125.564 860.036 115.83Z" fill="#344C58"/>
<path fill-rule="evenodd" clip-rule="evenodd" d="M697.393 182.4C697.393 182.4 687.212 176.584 671.94 167.858C656.688 159.098 636.353 147.417 616.018 135.736C595.718 123.995 575.418 112.253 560.192 103.448C544.987 94.606 534.851 88.7114 534.851 88.7114C534.851 88.7114 545.032 94.5279 560.305 103.253C575.556 112.014 595.892 123.694 616.226 135.376C636.527 147.117 656.827 158.859 672.052 167.664C687.257 176.506 697.393 182.4 697.393 182.4Z" fill="#795F7D"/>
<path fill-rule="evenodd" clip-rule="evenodd" d="M847.52 104.709C847.52 104.709 839.049 109.641 826.342 117.037C813.615 124.399 796.645 134.214 779.675 144.03C762.671 153.785 745.665 163.54 732.912 170.855C720.138 178.136 711.622 182.99 711.622 182.99C711.622 182.99 720.093 178.058 732.8 170.661C745.527 163.299 762.497 153.484 779.467 143.669C796.471 133.914 813.476 124.16 826.23 116.844C839.004 109.563 847.52 104.709 847.52 104.709Z" fill="#795F7D"/>
<path fill-rule="evenodd" clip-rule="evenodd" d="M697.365 213.793C697.365 213.793 687.183 207.976 671.912 199.25C656.66 190.49 636.325 178.81 615.989 167.128C595.689 155.387 575.389 143.646 560.164 134.84C544.959 125.998 534.822 120.104 534.822 120.104C534.822 120.104 545.004 125.92 560.277 134.646C575.528 143.406 595.863 155.086 616.198 166.768C636.498 178.509 656.799 190.251 672.024 199.057C687.229 207.898 697.365 213.793 697.365 213.793Z" fill="#795F7D"/>
<path fill-rule="evenodd" clip-rule="evenodd" d="M846.458 136.671C846.458 136.671 838.052 141.567 825.442 148.911C812.811 156.219 795.971 165.963 779.13 175.707C762.255 185.39 745.379 195.074 732.722 202.337C720.045 209.563 711.593 214.381 711.593 214.381L732.61 202.141C745.24 194.833 762.081 185.089 778.921 175.346C795.797 165.663 812.672 155.979 825.329 148.716C838.007 141.489 846.458 136.671 846.458 136.671Z" fill="#795F7D"/>
<path fill-rule="evenodd" clip-rule="evenodd" d="M669.747 2.19269C669.747 2.19269 667.634 3.43511 663.937 5.61021C660.234 7.7749 654.971 10.9148 648.607 14.5978C635.888 21.9803 618.929 31.8242 601.971 41.6673C584.952 51.4079 567.935 61.1486 555.171 68.4539C548.773 72.0788 543.441 75.0998 539.71 77.2142C535.975 79.3233 533.84 80.5285 533.84 80.5285L533.819 80.4929L669.726 2.15625L669.747 2.19269Z" fill="#795F7D"/>
<path fill-rule="evenodd" clip-rule="evenodd" d="M720.423 272.641L542.87 374.048L322.812 245.543L500.366 144.137L720.423 272.641Z" fill="#D1D1D3"/>
<path fill-rule="evenodd" clip-rule="evenodd" d="M514.784 301.795C507.425 306.036 501.459 316.31 501.459 324.74C501.459 333.171 507.425 336.567 514.784 332.325L563.676 304.144V273.614L514.784 301.795Z" fill="#84384C"/>
<path fill-rule="evenodd" clip-rule="evenodd" d="M340.954 232.345L468.159 159.025C470.693 157.564 475.119 157.747 478.045 159.433L638.407 251.865C641.333 253.552 641.651 256.103 639.117 257.564L511.912 330.884L340.954 232.345Z" fill="#84384C"/>
<path fill-rule="evenodd" clip-rule="evenodd" d="M510.521 326.022L635.218 254.146V228.434L510.521 300.309V326.022Z" fill="#E1E1E1"/>
<path fill-rule="evenodd" clip-rule="evenodd" d="M510.521 326.022L635.218 254.146V253.26L510.521 325.135V326.022Z" fill="#D1D1D3"/>
<path fill-rule="evenodd" clip-rule="evenodd" d="M510.521 324.249L635.218 252.373V251.486L510.521 323.362V324.249Z" fill="#D1D1D3"/>
<path fill-rule="evenodd" clip-rule="evenodd" d="M510.521 322.475L635.218 250.6V249.713L510.521 321.588V322.475Z" fill="#D1D1D3"/>
<path fill-rule="evenodd" clip-rule="evenodd" d="M510.521 320.702L635.218 248.827V247.94L510.521 319.815V320.702Z" fill="#D1D1D3"/>
<path fill-rule="evenodd" clip-rule="evenodd" d="M510.521 318.929L635.218 247.053V246.167L510.521 318.042V318.929Z" fill="#D1D1D3"/>
<path fill-rule="evenodd" clip-rule="evenodd" d="M510.521 317.155L635.218 245.28V244.393L510.521 316.269V317.155Z" fill="#D1D1D3"/>
<path fill-rule="evenodd" clip-rule="evenodd" d="M510.521 315.382L635.218 243.507V242.62L510.521 314.496V315.382Z" fill="#D1D1D3"/>
<path fill-rule="evenodd" clip-rule="evenodd" d="M510.521 313.609L635.218 241.733V240.847L510.521 312.722V313.609Z" fill="#D1D1D3"/>
<path fill-rule="evenodd" clip-rule="evenodd" d="M510.521 311.835L635.218 239.96V239.073L510.521 310.949V311.835Z" fill="#D1D1D3"/>
<path fill-rule="evenodd" clip-rule="evenodd" d="M510.521 310.063L635.218 238.187V237.3L510.521 309.176V310.063Z" fill="#D1D1D3"/>
<path fill-rule="evenodd" clip-rule="evenodd" d="M510.521 308.289L635.218 236.414V235.527L510.521 307.402V308.289Z" fill="#D1D1D3"/>
<path fill-rule="evenodd" clip-rule="evenodd" d="M510.521 306.516L635.218 234.64V233.753L510.521 305.629V306.516Z" fill="#D1D1D3"/>
<path fill-rule="evenodd" clip-rule="evenodd" d="M510.521 304.743L635.218 232.867V231.98L510.521 303.856V304.743Z" fill="#D1D1D3"/>
<path fill-rule="evenodd" clip-rule="evenodd" d="M510.521 302.969L635.218 231.094V230.207L510.521 302.083V302.969Z" fill="#D1D1D3"/>
<path fill-rule="evenodd" clip-rule="evenodd" d="M510.521 301.196L635.218 229.32V228.434L510.521 300.309V301.196Z" fill="#D1D1D3"/>
<path fill-rule="evenodd" clip-rule="evenodd" d="M510.521 326.022L385.823 254.146V228.434L510.521 300.309V326.022Z" fill="#D1D1D3"/>
<path fill-rule="evenodd" clip-rule="evenodd" d="M510.521 326.022L385.823 254.146V253.26L510.521 325.135V326.022Z" fill="#C2C2C4"/>
<path fill-rule="evenodd" clip-rule="evenodd" d="M510.521 324.249L385.823 252.373V251.486L510.521 323.362V324.249Z" fill="#C2C2C4"/>
<path fill-rule="evenodd" clip-rule="evenodd" d="M510.521 322.475L385.823 250.6V249.713L510.521 321.588V322.475Z" fill="#C2C2C4"/>
<path fill-rule="evenodd" clip-rule="evenodd" d="M510.521 320.702L385.823 248.827V247.94L510.521 319.815V320.702Z" fill="#C2C2C4"/>
<path fill-rule="evenodd" clip-rule="evenodd" d="M510.521 318.929L385.823 247.053V246.167L510.521 318.042V318.929Z" fill="#C2C2C4"/>
<path fill-rule="evenodd" clip-rule="evenodd" d="M510.521 317.155L385.823 245.28V244.393L510.521 316.269V317.155Z" fill="#C2C2C4"/>
<path fill-rule="evenodd" clip-rule="evenodd" d="M510.521 315.382L385.823 243.507V242.62L510.521 314.496V315.382Z" fill="#C2C2C4"/>
<path fill-rule="evenodd" clip-rule="evenodd" d="M510.521 313.609L385.823 241.733V240.847L510.521 312.722V313.609Z" fill="#C2C2C4"/>
<path fill-rule="evenodd" clip-rule="evenodd" d="M510.521 311.835L385.823 239.96V239.073L510.521 310.949V311.835Z" fill="#C2C2C4"/>
<path fill-rule="evenodd" clip-rule="evenodd" d="M510.521 310.063L385.823 238.187V237.3L510.521 309.176V310.063Z" fill="#C2C2C4"/>
<path fill-rule="evenodd" clip-rule="evenodd" d="M510.521 308.289L385.823 236.414V235.527L510.521 307.402V308.289Z" fill="#C2C2C4"/>
<path fill-rule="evenodd" clip-rule="evenodd" d="M510.521 306.516L385.823 234.64V233.753L510.521 305.629V306.516Z" fill="#C2C2C4"/>
<path fill-rule="evenodd" clip-rule="evenodd" d="M510.521 304.743L385.823 232.867V231.98L510.521 303.856V304.743Z" fill="#D1D1D3"/>
<path fill-rule="evenodd" clip-rule="evenodd" d="M510.521 302.969L385.823 231.094V230.207L510.521 302.083V302.969Z" fill="#D1D1D3"/>
<path fill-rule="evenodd" clip-rule="evenodd" d="M510.521 301.196L385.823 229.32V228.434L510.521 300.309V301.196Z" fill="#D1D1D3"/>
<path fill-rule="evenodd" clip-rule="evenodd" d="M511.912 336.128L639.117 262.808C640.267 262.145 640.823 261.257 640.821 260.327H640.825V255.189C640.786 256.08 640.223 256.926 639.117 257.563L511.912 330.884V336.128Z" fill="#A54460"/>
<path fill-rule="evenodd" clip-rule="evenodd" d="M639.117 226.879L511.913 300.199L340.955 201.66C332.294 206.651 327.684 217.352 327.684 227.273C327.684 232.934 329.187 237.115 332.085 238.737C332.085 238.737 503.044 337.279 503.043 337.276C505.224 338.498 508.194 338.272 511.913 336.128V330.884C505.781 334.419 503.22 330.2 503.22 323.175C503.22 316.15 505.781 308.978 511.913 305.443L639.117 232.122C640.267 231.46 640.824 230.572 640.822 229.643H640.825V224.505C640.786 225.395 640.224 226.241 639.117 226.879Z" fill="#84384C"/>
<path fill-rule="evenodd" clip-rule="evenodd" d="M340.954 201.659L468.159 128.339C470.693 126.878 475.119 127.061 478.045 128.748L638.407 221.179C641.333 222.866 641.651 225.418 639.117 226.879L511.912 300.199L340.954 201.659Z" fill="#B04B65"/>
<path fill-rule="evenodd" clip-rule="evenodd" d="M500.022 173.695L424.231 217.38L398.215 202.385L474.006 158.699L500.022 173.695Z" fill="#F9F9FB"/>
<path fill-rule="evenodd" clip-rule="evenodd" d="M568.046 248.263C572.01 250.548 571.989 254.264 568.001 256.563C564.013 258.861 557.566 258.873 553.602 256.589C549.639 254.304 549.659 250.589 553.647 248.29C557.636 245.99 564.082 245.979 568.046 248.263Z" fill="#FDCDC5"/>
<path fill-rule="evenodd" clip-rule="evenodd" d="M511.912 305.443L639.117 232.123C640.267 231.46 640.823 230.572 640.821 229.642H640.825V224.504C640.786 225.395 640.223 226.24 639.117 226.878L511.912 300.199V305.443Z" fill="#A54460"/>
<path fill-rule="evenodd" clip-rule="evenodd" d="M511.913 305.443V300.199C503.252 305.191 498.642 315.892 498.642 325.813C498.642 335.735 503.252 341.12 511.913 336.128V330.884C505.78 334.419 503.219 330.2 503.219 323.174C503.219 316.149 505.78 308.978 511.913 305.443Z" fill="#A54460"/>
<path fill-rule="evenodd" clip-rule="evenodd" d="M639.117 226.878C639.117 226.878 631.189 231.499 619.296 238.43C607.384 245.326 591.5 254.521 575.617 263.715C559.699 272.851 543.781 281.986 531.843 288.838C519.885 295.655 511.912 300.199 511.912 300.199C511.912 300.199 519.84 295.578 531.733 288.647C543.645 281.751 559.529 272.557 575.412 263.362C591.331 254.227 607.248 245.091 619.186 238.24L639.117 226.878Z" fill="#C06F84"/>
<path fill-rule="evenodd" clip-rule="evenodd" d="M478.046 128.748C478.046 128.748 488.09 134.487 503.157 143.096C518.204 151.739 538.266 163.263 558.328 174.788C578.356 186.371 598.385 197.955 613.406 206.642C628.406 215.365 638.407 221.18 638.407 221.18C638.407 221.18 628.363 215.441 613.296 206.832C598.249 198.189 578.187 186.665 558.125 175.14C538.097 163.557 518.069 151.973 503.047 143.286C488.047 134.563 478.046 128.748 478.046 128.748Z" fill="#C06F84"/>
<path fill-rule="evenodd" clip-rule="evenodd" d="M340.944 201.642L468.149 128.322L468.169 128.356C468.169 128.356 466.192 129.521 462.732 131.557C459.27 133.589 454.324 136.491 448.387 139.975C436.484 146.886 420.612 156.101 404.74 165.317C388.811 174.432 372.881 183.546 360.934 190.383C354.965 193.808 349.951 196.595 346.46 198.577C342.963 200.55 340.964 201.677 340.964 201.677L340.944 201.642Z" fill="#C06F84"/>
<path fill-rule="evenodd" clip-rule="evenodd" d="M639.117 257.564C639.117 257.564 631.189 262.185 619.296 269.115C607.384 276.011 591.5 285.206 575.617 294.4C559.699 303.536 543.781 312.671 531.843 319.524L511.912 330.884C511.912 330.884 519.84 326.264 531.733 319.333C543.645 312.437 559.529 303.243 575.412 294.048C591.331 284.913 607.248 275.777 619.186 268.925L639.117 257.564Z" fill="#C06F84"/>
<path fill-rule="evenodd" clip-rule="evenodd" d="M948.099 380.828L802.554 464.72C798.648 466.972 791.826 466.689 787.317 464.089L613.246 363.756C608.737 361.157 608.247 357.225 612.152 354.973L757.698 271.082L948.099 380.828Z" fill="#78332E"/>
<path fill-rule="evenodd" clip-rule="evenodd" d="M947.148 347.803C950.995 345.578 954.266 345.268 956.653 346.589L766.76 237.155C764.57 235.657 761.571 235.607 757.806 237.455L757.698 237.459L612.152 321.351C608.247 323.602 608.737 327.534 613.246 330.134L787.317 430.468C791.826 433.067 798.648 433.349 802.554 431.098L947.148 347.803Z" fill="#EF655C"/>
<path fill-rule="evenodd" clip-rule="evenodd" d="M611.728 334.833C612.168 335.2 612.675 335.55 613.247 335.88L787.317 436.214C791.826 438.813 798.648 439.095 802.554 436.844L945.045 354.712V379.068L802.554 461.199C798.648 463.451 791.826 463.168 787.317 460.569L615.45 361.918C612.991 360.5 611.737 358.687 611.729 356.966V334.833L611.728 334.833Z" fill="#E1E1E1"/>
<path fill-rule="evenodd" clip-rule="evenodd" d="M611.729 355.443C611.737 357.165 612.991 358.978 615.45 360.395L787.317 459.047C791.826 461.646 798.648 461.928 802.554 459.677L945.045 377.546V379.068L802.554 461.199C798.648 463.451 791.826 463.168 787.317 460.568L615.45 361.917C612.991 360.5 611.737 358.687 611.729 356.965V355.443Z" fill="#D1D1D3"/>
<path fill-rule="evenodd" clip-rule="evenodd" d="M611.729 352.411C611.737 354.132 612.991 355.946 615.45 357.363L787.317 456.014C791.826 458.614 798.648 458.896 802.554 456.644L945.045 374.514V376.035L802.554 458.167C798.648 460.418 791.826 460.135 787.317 457.536L615.45 358.885C612.991 357.468 611.737 355.654 611.729 353.933V352.411Z" fill="#D1D1D3"/>
<path fill-rule="evenodd" clip-rule="evenodd" d="M611.729 349.379C611.737 351.1 612.991 352.914 615.45 354.33L787.317 452.982C791.826 455.581 798.648 455.863 802.554 453.612L945.045 371.48V373.003L802.554 455.135C798.648 457.386 791.826 457.103 787.317 454.504L615.45 355.853C612.991 354.435 611.737 352.622 611.729 350.901V349.379Z" fill="#D1D1D3"/>
<path fill-rule="evenodd" clip-rule="evenodd" d="M611.729 346.347C611.737 348.069 612.991 349.882 615.45 351.299L787.317 449.95C791.826 452.55 798.648 452.832 802.554 450.58L945.045 368.45V369.971L802.554 452.103C798.648 454.354 791.826 454.072 787.317 451.472L615.45 352.821C612.991 351.404 611.737 349.59 611.729 347.87V346.347Z" fill="#D1D1D3"/>
<path fill-rule="evenodd" clip-rule="evenodd" d="M611.729 343.314C611.737 345.036 612.991 346.849 615.45 348.266L787.317 446.918C791.826 449.517 798.648 449.799 802.554 447.548L945.045 365.417V366.939L802.554 449.07C798.648 451.322 791.826 451.039 787.317 448.439L615.45 349.789C612.991 348.371 611.737 346.558 611.729 344.836V343.314Z" fill="#D1D1D3"/>
<path fill-rule="evenodd" clip-rule="evenodd" d="M611.729 340.282C611.737 342.004 612.991 343.817 615.45 345.234L787.317 443.885C791.826 446.485 798.648 446.767 802.554 444.515L945.045 362.385V363.906L802.554 446.038C798.648 448.289 791.826 448.007 787.317 445.407L615.45 346.756C612.991 345.339 611.737 343.526 611.729 341.805V340.282Z" fill="#D1D1D3"/>
<path fill-rule="evenodd" clip-rule="evenodd" d="M611.729 337.25C611.737 338.971 612.991 340.785 615.45 342.201L787.317 440.853C791.826 443.453 798.648 443.735 802.554 441.484L945.045 359.352V360.874L802.554 443.006C798.648 445.257 791.826 444.974 787.317 442.375L615.45 343.724C612.991 342.306 611.737 340.493 611.729 338.773V337.25Z" fill="#D1D1D3"/>
<path fill-rule="evenodd" clip-rule="evenodd" d="M611.729 334.218C611.737 335.939 612.991 337.752 615.45 339.169L787.317 437.821C791.826 440.42 798.648 440.702 802.554 438.452L945.045 356.32V357.842L802.554 439.974C798.648 442.225 791.826 441.942 787.317 439.343L615.45 340.692C612.991 339.274 611.737 337.461 611.729 335.74V334.218Z" fill="#D1D1D3"/>
<path fill-rule="evenodd" clip-rule="evenodd" d="M961.503 359.164C961.503 348.737 956.853 342.889 948.099 347.255L802.554 431.098C798.648 433.349 791.826 433.067 787.317 430.468L613.246 330.134C610.711 328.673 609.446 326.79 609.519 325.022H609.516V330.928H609.525C609.533 332.649 610.787 334.462 613.246 335.88L787.317 436.213C791.826 438.813 798.648 439.096 802.554 436.844L946.962 353.607C953.682 349.734 956.488 354.358 956.488 362.055C956.488 369.753 953.682 377.611 946.962 381.484L802.554 464.72C798.648 466.972 791.826 466.689 787.317 464.09L613.246 363.756C610.711 362.295 609.446 360.413 609.519 358.645H609.516V364.55H609.525C609.533 366.272 610.787 368.084 613.246 369.502L787.317 469.836C791.826 472.435 798.648 472.717 802.554 470.467L948.099 386.507C956.847 380.781 961.503 369.588 961.503 359.164Z" fill="#B34C45"/>
<path fill-rule="evenodd" clip-rule="evenodd" d="M787.327 430.456C787.327 430.456 776.424 424.227 760.068 414.882C743.734 405.501 721.957 392.992 700.18 380.483C678.44 367.908 656.699 355.334 640.394 345.904C624.111 336.435 613.256 330.122 613.256 330.122C613.256 330.122 624.16 336.352 640.515 345.696C656.848 355.077 678.625 367.586 700.403 380.096C722.143 392.67 743.883 405.244 760.188 414.675C776.471 424.143 787.327 430.456 787.327 430.456Z" fill="#F2847D"/>
<path fill-rule="evenodd" clip-rule="evenodd" d="M787.295 464.074C787.295 464.074 776.391 457.845 760.037 448.502C743.703 439.119 721.926 426.61 700.148 414.101C678.408 401.526 656.668 388.952 640.363 379.522C624.08 370.053 613.225 363.74 613.225 363.74C613.225 363.74 624.129 369.97 640.484 379.314C656.817 388.695 678.594 401.205 700.372 413.715C722.112 426.288 743.852 438.862 760.157 448.293C776.44 457.762 787.295 464.074 787.295 464.074Z" fill="#F2847D"/>
<path fill-rule="evenodd" clip-rule="evenodd" d="M753.83 239.63C753.83 239.63 751.629 240.927 747.775 243.197C743.916 245.456 738.431 248.734 731.799 252.578C718.542 260.281 700.867 270.552 683.191 280.823C665.452 290.984 647.713 301.145 634.409 308.766C627.761 312.583 622.179 315.692 618.291 317.903C614.398 320.102 612.173 321.359 612.173 321.359L612.15 321.32L753.807 239.591L753.83 239.63Z" fill="#F2847D"/>
<path fill-rule="evenodd" clip-rule="evenodd" d="M817.352 185.561L767.035 214.302L953.732 321.913L986.567 340.685C984.331 338.722 983.179 334.896 983.179 329.935C983.179 320.014 987.789 309.313 996.45 304.321L1009.39 296.466L817.352 185.561Z" fill="#D1D1D3"/>
<path fill-rule="evenodd" clip-rule="evenodd" d="M633.033 254.899L791.933 163.31C795.099 161.485 800.628 161.714 804.284 163.821L1004.6 279.283C1008.26 281.391 1008.65 284.578 1005.49 286.402L846.589 377.992L633.033 254.899Z" fill="#B38680"/>
<path fill-rule="evenodd" clip-rule="evenodd" d="M844.851 371.918L689.083 282.133V250.014L844.851 339.799V371.918Z" fill="#D1D1D3"/>
<path fill-rule="evenodd" clip-rule="evenodd" d="M844.851 371.918L689.083 282.134V281.026L844.851 370.81V371.918Z" fill="#C2C2C4"/>
<path fill-rule="evenodd" clip-rule="evenodd" d="M844.851 369.703L689.083 279.918V278.811L844.851 368.595V369.703Z" fill="#C2C2C4"/>
<path fill-rule="evenodd" clip-rule="evenodd" d="M844.851 367.488L689.083 277.704V276.596L844.851 366.38V367.488Z" fill="#C2C2C4"/>
<path fill-rule="evenodd" clip-rule="evenodd" d="M844.851 365.273L689.083 275.489V274.381L844.851 364.165V365.273Z" fill="#C2C2C4"/>
<path fill-rule="evenodd" clip-rule="evenodd" d="M844.851 363.057L689.083 273.273V272.166L844.851 361.949V363.057Z" fill="#C2C2C4"/>
<path fill-rule="evenodd" clip-rule="evenodd" d="M844.851 360.843L689.083 271.058V269.951L844.851 359.735V360.843Z" fill="#C2C2C4"/>
<path fill-rule="evenodd" clip-rule="evenodd" d="M844.851 358.627L689.083 268.842V267.735L844.851 357.519V358.627Z" fill="#C2C2C4"/>
<path fill-rule="evenodd" clip-rule="evenodd" d="M844.851 356.412L689.083 266.628V265.521L844.851 355.304V356.412Z" fill="#C2C2C4"/>
<path fill-rule="evenodd" clip-rule="evenodd" d="M844.851 354.197L689.083 264.413V263.305L844.851 353.089V354.197Z" fill="#C2C2C4"/>
<path fill-rule="evenodd" clip-rule="evenodd" d="M844.851 351.982L689.083 262.198V261.09L844.851 350.874V351.982Z" fill="#C2C2C4"/>
<path fill-rule="evenodd" clip-rule="evenodd" d="M844.851 349.767L689.083 259.982V258.875L844.851 348.659V349.767Z" fill="#C2C2C4"/>
<path fill-rule="evenodd" clip-rule="evenodd" d="M844.851 347.551L689.083 257.768V256.66L844.851 346.444V347.551Z" fill="#C2C2C4"/>
<path fill-rule="evenodd" clip-rule="evenodd" d="M844.851 345.337L689.083 255.553V254.445L844.851 344.229V345.337Z" fill="#D1D1D3"/>
<path fill-rule="evenodd" clip-rule="evenodd" d="M844.851 343.121L689.083 253.337V252.229L844.851 342.013V343.121Z" fill="#D1D1D3"/>
<path fill-rule="evenodd" clip-rule="evenodd" d="M844.851 340.906L689.083 251.123V250.015L844.851 339.799V340.906Z" fill="#D1D1D3"/>
<path fill-rule="evenodd" clip-rule="evenodd" d="M1005.49 248.071L846.589 339.661L633.033 216.568C622.214 222.804 616.455 236.171 616.455 248.564C616.455 255.636 618.333 260.857 621.954 262.884C621.954 262.884 835.509 385.979 835.509 385.977C838.233 387.502 841.943 387.221 846.589 384.542V377.992C838.928 382.408 835.728 377.137 835.728 368.361C835.728 359.585 838.928 350.627 846.589 346.212L1005.49 254.622C1006.93 253.794 1007.62 252.685 1007.62 251.524H1007.62V245.106C1007.57 246.218 1006.87 247.275 1005.49 248.071Z" fill="#A76E4A"/>
<path fill-rule="evenodd" clip-rule="evenodd" d="M633.033 216.568L791.933 124.979C795.099 123.154 800.628 123.382 804.284 125.49L1004.6 240.952C1008.26 243.06 1008.65 246.246 1005.49 248.071L846.589 339.661L633.033 216.568Z" fill="#BC8867"/>
<path fill-rule="evenodd" clip-rule="evenodd" d="M831.735 181.635L737.059 236.206L704.561 217.474L799.236 162.903L831.735 181.635Z" fill="#F9F9FB"/>
<path fill-rule="evenodd" clip-rule="evenodd" d="M633.021 216.546L791.92 124.957L791.946 125.001C791.946 125.001 789.477 126.454 785.155 128.999C780.826 131.531 774.674 135.204 767.234 139.512C752.365 148.146 732.538 159.658 712.713 171.17C692.813 182.556 672.915 193.941 657.991 202.481C650.534 206.76 644.271 210.241 639.91 212.718C635.542 215.182 633.046 216.59 633.046 216.59L633.021 216.546Z" fill="#FDCDC5"/>
<path fill-rule="evenodd" clip-rule="evenodd" d="M237.942 708.544C228.749 713.842 221.296 726.675 221.296 737.207C221.296 747.738 228.749 751.981 237.942 746.681L299.016 711.479V673.34L237.942 708.544Z" fill="#B38680"/>
<path fill-rule="evenodd" clip-rule="evenodd" d="M20.7998 621.789L179.7 530.199C182.866 528.375 188.395 528.603 192.051 530.71L392.369 646.173C396.024 648.28 396.421 651.467 393.255 653.292L234.356 744.882L20.7998 621.789Z" fill="#B38680"/>
<path fill-rule="evenodd" clip-rule="evenodd" d="M232.617 738.808L388.385 649.023V616.904L232.617 706.689V738.808Z" fill="#E1E1E1"/>
<path fill-rule="evenodd" clip-rule="evenodd" d="M232.617 738.807L388.385 649.023V647.916L232.617 737.699V738.807Z" fill="#D1D1D3"/>
<path fill-rule="evenodd" clip-rule="evenodd" d="M232.617 736.593L388.385 646.808V645.701L232.617 735.485V736.593Z" fill="#D1D1D3"/>
<path fill-rule="evenodd" clip-rule="evenodd" d="M232.617 734.377L388.385 644.593V643.485L232.617 733.269V734.377Z" fill="#D1D1D3"/>
<path fill-rule="evenodd" clip-rule="evenodd" d="M232.617 732.162L388.385 642.378V641.271L232.617 731.054V732.162Z" fill="#D1D1D3"/>
<path fill-rule="evenodd" clip-rule="evenodd" d="M232.617 729.947L388.385 640.163V639.055L232.617 728.839V729.947Z" fill="#D1D1D3"/>
<path fill-rule="evenodd" clip-rule="evenodd" d="M232.617 727.732L388.385 637.948V636.84L232.617 726.624V727.732Z" fill="#D1D1D3"/>
<path fill-rule="evenodd" clip-rule="evenodd" d="M232.617 725.517L388.385 635.732V634.625L232.617 724.409V725.517Z" fill="#D1D1D3"/>
<path fill-rule="evenodd" clip-rule="evenodd" d="M232.617 723.301L388.385 633.518V632.41L232.617 722.194V723.301Z" fill="#D1D1D3"/>
<path fill-rule="evenodd" clip-rule="evenodd" d="M232.617 721.087L388.385 631.303V630.195L232.617 719.979V721.087Z" fill="#D1D1D3"/>
<path fill-rule="evenodd" clip-rule="evenodd" d="M232.617 718.871L388.385 629.087V627.979L232.617 717.763V718.871Z" fill="#D1D1D3"/>
<path fill-rule="evenodd" clip-rule="evenodd" d="M232.617 716.656L388.385 626.872V625.765L232.617 715.549V716.656Z" fill="#D1D1D3"/>
<path fill-rule="evenodd" clip-rule="evenodd" d="M232.617 714.441L388.385 624.657V623.549L232.617 713.334V714.441Z" fill="#D1D1D3"/>
<path fill-rule="evenodd" clip-rule="evenodd" d="M232.617 712.226L388.385 622.442V621.334L232.617 711.118V712.226Z" fill="#D1D1D3"/>
<path fill-rule="evenodd" clip-rule="evenodd" d="M232.617 710.011L388.385 620.226V619.119L232.617 708.903V710.011Z" fill="#D1D1D3"/>
<path fill-rule="evenodd" clip-rule="evenodd" d="M232.617 707.796L388.385 618.012V616.904L232.617 706.688V707.796Z" fill="#D1D1D3"/>
<path fill-rule="evenodd" clip-rule="evenodd" d="M232.617 738.808L76.8486 649.023V616.904L232.617 706.689V738.808Z" fill="#D1D1D3"/>
<path fill-rule="evenodd" clip-rule="evenodd" d="M232.616 738.807L76.8486 649.023V647.916L232.616 737.699V738.807Z" fill="#C2C2C4"/>
<path fill-rule="evenodd" clip-rule="evenodd" d="M232.616 736.593L76.8486 646.808V645.701L232.616 735.485V736.593Z" fill="#C2C2C4"/>
<path fill-rule="evenodd" clip-rule="evenodd" d="M232.616 734.377L76.8486 644.593V643.485L232.616 733.269V734.377Z" fill="#C2C2C4"/>
<path fill-rule="evenodd" clip-rule="evenodd" d="M232.616 732.162L76.8486 642.378V641.271L232.616 731.054V732.162Z" fill="#C2C2C4"/>
<path fill-rule="evenodd" clip-rule="evenodd" d="M232.616 729.947L76.8486 640.163V639.055L232.616 728.839V729.947Z" fill="#C2C2C4"/>
<path fill-rule="evenodd" clip-rule="evenodd" d="M232.616 727.732L76.8486 637.948V636.84L232.616 726.624V727.732Z" fill="#C2C2C4"/>
<path fill-rule="evenodd" clip-rule="evenodd" d="M232.616 725.517L76.8486 635.732V634.625L232.616 724.409V725.517Z" fill="#C2C2C4"/>
<path fill-rule="evenodd" clip-rule="evenodd" d="M232.616 723.301L76.8486 633.518V632.41L232.616 722.194V723.301Z" fill="#C2C2C4"/>
<path fill-rule="evenodd" clip-rule="evenodd" d="M232.616 721.087L76.8486 631.303V630.195L232.616 719.979V721.087Z" fill="#C2C2C4"/>
<path fill-rule="evenodd" clip-rule="evenodd" d="M232.616 718.871L76.8486 629.087V627.979L232.616 717.763V718.871Z" fill="#C2C2C4"/>
<path fill-rule="evenodd" clip-rule="evenodd" d="M232.616 716.656L76.8486 626.872V625.765L232.616 715.549V716.656Z" fill="#C2C2C4"/>
<path fill-rule="evenodd" clip-rule="evenodd" d="M232.616 714.441L76.8486 624.657V623.549L232.616 713.334V714.441Z" fill="#C2C2C4"/>
<path fill-rule="evenodd" clip-rule="evenodd" d="M232.616 712.226L76.8486 622.442V621.334L232.616 711.118V712.226Z" fill="#D1D1D3"/>
<path fill-rule="evenodd" clip-rule="evenodd" d="M232.616 710.011L76.8486 620.226V619.119L232.616 708.903V710.011Z" fill="#D1D1D3"/>
<path fill-rule="evenodd" clip-rule="evenodd" d="M232.616 707.796L76.8486 618.012V616.904L232.616 706.688V707.796Z" fill="#D1D1D3"/>
<path fill-rule="evenodd" clip-rule="evenodd" d="M234.355 751.432L393.255 659.843C394.692 659.014 395.387 657.905 395.384 656.744H395.389V650.326C395.34 651.439 394.638 652.495 393.255 653.292L234.355 744.881V751.432Z" fill="#F2B9B1"/>
<path fill-rule="evenodd" clip-rule="evenodd" d="M393.255 614.961L234.355 706.55L20.7996 583.458C9.98085 589.694 4.22168 603.061 4.22168 615.454C4.22168 622.526 6.09969 627.747 9.72013 629.774C9.72013 629.774 223.276 752.869 223.275 752.867C226 754.391 229.71 754.11 234.355 751.432V744.881C226.695 749.298 223.495 744.027 223.495 735.251C223.495 726.475 226.695 717.517 234.355 713.101L393.255 621.511C394.692 620.684 395.387 619.575 395.384 618.414H395.389V611.995C395.34 613.108 394.638 614.165 393.255 614.961Z" fill="#EFB3AB"/>
<path fill-rule="evenodd" clip-rule="evenodd" d="M20.7998 583.458L179.7 491.868C182.866 490.044 188.395 490.273 192.051 492.379L392.369 607.842C396.024 609.949 396.421 613.136 393.255 614.961L234.356 706.55L20.7998 583.458Z" fill="#FCC0B6"/>
<path fill-rule="evenodd" clip-rule="evenodd" d="M291.59 598.443L207.836 646.718L124.604 598.744L208.358 550.468L291.59 598.443Z" fill="#B04B65"/>
<path fill-rule="evenodd" clip-rule="evenodd" d="M234.355 713.101L393.255 621.511C394.692 620.683 395.387 619.574 395.384 618.413H395.389V611.995C395.34 613.108 394.638 614.164 393.255 614.961L234.355 706.55V713.101Z" fill="#F2B9B1"/>
<path fill-rule="evenodd" clip-rule="evenodd" d="M234.355 713.101V706.551C223.537 712.786 217.777 726.154 217.777 738.547C217.777 750.94 223.537 757.668 234.355 751.432V744.882C226.695 749.297 223.496 744.027 223.496 735.251C223.496 726.475 226.695 717.517 234.355 713.101Z" fill="#F2B9B1"/>
<path fill-rule="evenodd" clip-rule="evenodd" d="M393.255 614.961L368.495 629.39C353.615 638.005 333.773 649.49 313.932 660.976C294.048 672.388 274.165 683.8 259.252 692.359C244.314 700.874 234.355 706.55 234.355 706.55C234.355 706.55 244.259 700.779 259.115 692.121C273.995 683.507 293.836 672.021 313.678 660.536C333.562 649.124 353.446 637.712 368.359 629.153C383.297 620.638 393.255 614.961 393.255 614.961Z" fill="#FDCDC5"/>
<path fill-rule="evenodd" clip-rule="evenodd" d="M192.05 492.379L223.418 510.301C242.214 521.099 267.275 535.494 292.337 549.89C317.355 564.36 342.373 578.829 361.137 589.682C379.876 600.578 392.368 607.842 392.368 607.842C392.368 607.842 379.821 600.673 361 589.919C342.204 579.123 317.143 564.726 292.081 550.331C267.063 535.861 242.045 521.391 223.281 510.539C204.542 499.643 192.05 492.379 192.05 492.379Z" fill="#FDCDC5"/>
<path fill-rule="evenodd" clip-rule="evenodd" d="M20.7871 583.436L179.687 491.846L179.713 491.89C179.713 491.89 177.243 493.344 172.921 495.888C168.593 498.421 162.441 502.094 155.001 506.402C140.131 515.036 120.305 526.548 100.479 538.06C80.5801 549.445 60.6815 560.831 45.7574 569.371C38.301 573.65 32.0378 577.131 27.6769 579.608C23.3091 582.072 20.8123 583.48 20.8123 583.48L20.7871 583.436Z" fill="#FDCDC5"/>
<path fill-rule="evenodd" clip-rule="evenodd" d="M393.255 653.292L368.495 667.721C353.615 676.335 333.773 687.821 313.932 699.306C294.048 710.719 274.165 722.13 259.252 730.689C244.314 739.204 234.355 744.881 234.355 744.881C234.355 744.881 244.259 739.11 259.115 730.452C273.995 721.837 293.836 710.352 313.678 698.866C333.562 687.455 353.446 676.043 368.359 667.484C383.297 658.968 393.255 653.292 393.255 653.292Z" fill="#FDCDC5"/>
<path fill-rule="evenodd" clip-rule="evenodd" d="M628.581 532.31L451.561 634.643L230.833 507.29L407.852 404.957L628.581 532.31Z" fill="#D1D1D3"/>
<path fill-rule="evenodd" clip-rule="evenodd" d="M628.721 483.389L613.897 491.933V526.598L628.721 518.053C634.052 514.981 638.374 504.729 638.374 495.157C638.374 485.585 634.052 480.316 628.721 483.389Z" fill="#446644"/>
<path fill-rule="evenodd" clip-rule="evenodd" d="M625.704 518.122L459.776 613.763C455.323 616.329 447.546 616.008 442.404 613.044L243.956 498.659C238.815 495.696 238.257 491.213 242.709 488.647L408.638 393.005L625.704 518.122Z" fill="#304730"/>
<path fill-rule="evenodd" clip-rule="evenodd" d="M624.62 480.471C629.005 477.935 632.734 477.582 635.455 479.087L418.968 354.328C416.472 352.62 413.052 352.563 408.76 354.67L408.638 354.675L242.709 450.316C238.257 452.882 238.815 457.364 243.956 460.328L442.404 574.713C447.546 577.677 455.323 577.999 459.775 575.432L624.62 480.471Z" fill="#446644"/>
<path fill-rule="evenodd" clip-rule="evenodd" d="M242.225 465.685C242.727 466.103 243.305 466.503 243.956 466.878L442.405 581.263C447.545 584.227 455.323 584.549 459.775 581.983L622.222 488.348V516.114L459.775 609.749C455.323 612.315 447.545 611.993 442.405 609.03L246.468 496.563C243.665 494.946 242.235 492.88 242.227 490.917V465.685L242.225 465.685Z" fill="#E1E1E1"/>
<path fill-rule="evenodd" clip-rule="evenodd" d="M242.227 489.182C242.235 491.145 243.665 493.211 246.468 494.828L442.404 607.294C447.546 610.257 455.323 610.579 459.775 608.013L622.222 514.379V516.115L459.775 609.749C455.323 612.315 447.546 611.993 442.404 609.03L246.468 496.563C243.665 494.947 242.235 492.88 242.227 490.917V489.182Z" fill="#D1D1D3"/>
<path fill-rule="evenodd" clip-rule="evenodd" d="M242.227 485.725C242.235 487.688 243.665 489.754 246.468 491.371L442.404 603.837C447.546 606.8 455.323 607.122 459.775 604.557L622.222 510.922V512.657L459.775 606.292C455.323 608.858 447.546 608.536 442.404 605.573L246.468 493.106C243.665 491.49 242.235 489.423 242.227 487.46V485.725Z" fill="#D1D1D3"/>
<path fill-rule="evenodd" clip-rule="evenodd" d="M242.227 482.269C242.235 484.231 243.665 486.298 246.468 487.914L442.404 600.381C447.546 603.345 455.323 603.666 459.775 601.1L622.222 507.466V509.201L459.775 602.835C455.323 605.402 447.546 605.08 442.404 602.116L246.468 489.649C243.665 488.033 242.235 485.966 242.227 484.004V482.269Z" fill="#D1D1D3"/>
<path fill-rule="evenodd" clip-rule="evenodd" d="M242.227 478.812C242.235 480.774 243.665 482.841 246.468 484.457L442.404 596.924C447.546 599.887 455.323 600.209 459.775 597.642L622.222 504.009V505.744L459.775 599.378C455.323 601.945 447.546 601.623 442.404 598.659L246.468 486.192C243.665 484.576 242.235 482.509 242.227 480.547V478.812Z" fill="#D1D1D3"/>
<path fill-rule="evenodd" clip-rule="evenodd" d="M242.227 475.354C242.235 477.317 243.665 479.384 246.468 481L442.404 593.467C447.546 596.43 455.323 596.752 459.775 594.185L622.222 500.552V502.287L459.775 595.921C455.323 598.488 447.546 598.166 442.404 595.202L246.468 482.735C243.665 481.119 242.235 479.052 242.227 477.09V475.354Z" fill="#D1D1D3"/>
<path fill-rule="evenodd" clip-rule="evenodd" d="M242.227 471.897C242.235 473.86 243.665 475.927 246.468 477.543L442.404 590.01C447.546 592.973 455.323 593.295 459.775 590.729L622.222 497.095V498.83L459.775 592.464C455.323 595.031 447.546 594.709 442.404 591.745L246.468 479.278C243.665 477.663 242.235 475.595 242.227 473.633V471.897Z" fill="#D1D1D3"/>
<path fill-rule="evenodd" clip-rule="evenodd" d="M242.227 468.441C242.235 470.403 243.665 472.47 246.468 474.086L442.404 586.553C447.546 589.517 455.323 589.838 459.775 587.272L622.222 493.638V495.373L459.775 589.008C455.323 591.574 447.546 591.252 442.404 588.288L246.468 475.822C243.665 474.205 242.235 472.139 242.227 470.176V468.441Z" fill="#D1D1D3"/>
<path fill-rule="evenodd" clip-rule="evenodd" d="M242.227 464.984C242.235 466.946 243.665 469.013 246.468 470.629L442.404 583.096C447.546 586.059 455.323 586.381 459.775 583.815L622.222 490.181V491.916L459.775 585.551C455.323 588.117 447.546 587.795 442.404 584.831L246.468 472.365C243.665 470.748 242.235 468.682 242.227 466.719V464.984Z" fill="#D1D1D3"/>
<path fill-rule="evenodd" clip-rule="evenodd" d="M640.985 493.424C640.985 481.536 635.683 474.869 625.705 479.846L459.775 575.432C455.323 577.998 447.546 577.677 442.405 574.713L243.956 460.328C241.066 458.662 239.624 456.515 239.707 454.5H239.703V461.233H239.714C239.723 463.195 241.153 465.262 243.956 466.878L442.405 581.263C447.546 584.227 455.323 584.549 459.775 581.982L624.407 487.089C632.068 482.673 635.267 487.944 635.267 496.72C635.267 505.496 632.068 514.454 624.407 518.869L459.775 613.763C455.323 616.329 447.546 616.008 442.405 613.044L243.956 498.659C241.066 496.993 239.624 494.847 239.707 492.831H239.703V499.564H239.714C239.723 501.526 241.153 503.593 243.956 505.209L442.405 619.594C447.546 622.558 455.323 622.88 459.775 620.314L625.705 524.596C635.677 518.067 640.985 505.307 640.985 493.424Z" fill="#3D573D"/>
<path fill-rule="evenodd" clip-rule="evenodd" d="M442.415 574.7C442.415 574.7 429.984 567.599 411.339 556.946C392.719 546.25 367.891 531.988 343.063 517.727C318.279 503.393 293.494 489.057 274.906 478.307C256.342 467.512 243.967 460.315 243.967 460.315C243.967 460.315 256.397 467.416 275.043 478.069C293.663 488.765 318.491 503.026 343.318 517.288C368.103 531.622 392.887 545.958 411.476 556.708C430.04 567.503 442.415 574.7 442.415 574.7Z" fill="#795F7D"/>
<path fill-rule="evenodd" clip-rule="evenodd" d="M625.704 479.847C625.704 479.847 615.362 485.867 599.848 494.898C584.309 503.886 563.591 515.87 542.872 527.853C522.111 539.763 501.35 551.673 485.779 560.605C470.183 569.493 459.785 575.419 459.785 575.419C459.785 575.419 470.128 569.398 485.642 560.367C501.18 551.379 521.899 539.396 542.617 527.413C563.379 515.503 584.14 503.593 599.711 494.661C615.307 485.772 625.704 479.847 625.704 479.847Z" fill="#795F7D"/>
<path fill-rule="evenodd" clip-rule="evenodd" d="M442.379 613.026C442.379 613.026 429.949 605.925 411.303 595.272C392.683 584.576 367.855 570.314 343.027 556.054C318.243 541.719 293.458 527.383 274.87 516.633C256.306 505.838 243.931 498.641 243.931 498.641C243.931 498.641 256.361 505.743 275.007 516.395C293.627 527.091 318.455 541.352 343.282 555.614C368.067 569.948 392.851 584.284 411.44 595.035C430.004 605.829 442.379 613.026 442.379 613.026Z" fill="#795F7D"/>
<path fill-rule="evenodd" clip-rule="evenodd" d="M624.407 518.869C624.407 518.869 614.144 524.846 598.748 533.812C583.327 542.735 562.767 554.631 542.206 566.527C521.603 578.35 500.999 590.173 485.546 599.04C470.068 607.863 459.75 613.745 459.75 613.745C459.75 613.745 470.013 607.768 485.409 598.802C500.83 589.88 521.391 577.983 541.951 566.087C562.555 554.264 583.158 542.442 598.611 533.575C614.089 524.752 624.407 518.869 624.407 518.869Z" fill="#795F7D"/>
<path fill-rule="evenodd" clip-rule="evenodd" d="M408.661 354.683C408.661 354.683 406.081 356.201 401.568 358.856C397.047 361.499 390.621 365.332 382.851 369.829C367.323 378.843 346.618 390.86 325.913 402.878C305.136 414.771 284.358 426.662 268.775 435.582C260.988 440.049 254.451 443.69 249.898 446.277C245.338 448.852 242.732 450.325 242.732 450.325L242.706 450.28L408.636 354.639L408.661 354.683Z" fill="#795F7D"/>
<path fill-rule="evenodd" clip-rule="evenodd" d="M595.724 456.195L459.274 534.321L279.339 429.182L414.877 351.758L595.724 456.195Z" fill="#D1D1D3"/>
<path fill-rule="evenodd" clip-rule="evenodd" d="M742.54 354.367V354.201H742.519C742.522 354.256 742.54 354.311 742.54 354.367Z" fill="#84384C"/>
<path fill-rule="evenodd" clip-rule="evenodd" d="M740.733 357.509L602.642 437.103L602.655 437.11L464.038 517.007C460.973 518.773 457.197 518.773 454.132 517.006L245.349 396.663C244.105 395.946 243.487 394.705 243.467 393.458H243.459V398.516H243.465C243.473 399.776 244.093 401.034 245.349 401.759L454.132 522.102C457.197 523.869 460.973 523.869 464.038 522.102L591.259 448.774L591.26 448.775C591.26 448.775 598.757 447.905 605.038 444.286C611.317 440.666 614.003 435.666 614.003 435.666L613.989 435.658L740.733 362.604C741.936 361.911 742.536 360.7 742.539 359.487H742.541V359.471C742.541 359.469 742.541 359.465 742.541 359.463V354.375C742.543 355.593 741.941 356.812 740.733 357.509Z" fill="#A76E4A"/>
<path fill-rule="evenodd" clip-rule="evenodd" d="M740.713 351.245L728.567 344.344V354.359L459.088 509.686V509.671L256.979 393.176V384.194L245.52 390.034C242.851 391.394 242.753 395.167 245.349 396.664L454.132 517.007C457.197 518.773 460.973 518.773 464.039 517.007L602.654 437.111L602.641 437.103L740.733 357.509C743.152 356.114 743.141 352.625 740.713 351.245Z" fill="#6B4731"/>
<path fill-rule="evenodd" clip-rule="evenodd" d="M245.35 396.664C245.35 396.664 258.426 404.138 278.041 415.348C297.63 426.603 323.749 441.609 349.868 456.616C375.945 471.695 402.021 486.775 421.579 498.085C441.111 509.438 454.133 517.007 454.133 517.007L421.442 498.322C401.852 487.068 375.733 472.062 349.613 457.055C323.538 441.975 297.461 426.895 277.903 415.586C258.371 404.233 245.35 396.664 245.35 396.664Z" fill="#C06F84"/>
<path fill-rule="evenodd" clip-rule="evenodd" d="M464.038 517.007C464.038 517.007 471.962 512.376 483.848 505.431C495.759 498.528 511.64 489.325 527.522 480.123C543.445 470.994 559.37 461.865 571.312 455.018C583.281 448.215 591.259 443.679 591.259 443.679C591.259 443.679 583.335 448.309 571.45 455.255C559.539 462.157 543.657 471.36 527.777 480.563C511.852 489.692 495.928 498.821 483.985 505.668C472.017 512.471 464.038 517.007 464.038 517.007Z" fill="#C06F84"/>
<path fill-rule="evenodd" clip-rule="evenodd" d="M614.002 430.57C614.002 430.57 621.895 425.956 633.735 419.036C645.6 412.159 661.42 402.989 677.24 393.819C693.103 384.724 708.965 375.628 720.862 368.806C732.784 362.027 740.732 357.509 740.732 357.509C740.732 357.509 732.84 362.123 721 369.044C709.135 375.92 693.315 385.09 677.494 394.26C661.632 403.355 645.769 412.451 633.872 419.273C621.95 426.052 614.002 430.57 614.002 430.57Z" fill="#C06F84"/>
<path fill-rule="evenodd" clip-rule="evenodd" d="M582.495 438.554L591.259 443.679C591.259 443.679 598.757 442.81 605.037 439.19C611.317 435.57 614.002 430.57 614.002 430.57C614.002 430.57 605.94 425.857 605.238 425.445L582.495 438.554Z" fill="#6B4731"/>
<path fill-rule="evenodd" clip-rule="evenodd" d="M459.087 509.686L256.979 393.191V394.628L459.087 511.123L728.566 355.251V354.359L459.087 509.686Z" fill="#84384C"/>
<path fill-rule="evenodd" clip-rule="evenodd" d="M256.979 351.502L414.174 302.584L593.827 406.135L459.087 467.997L256.979 351.502Z" fill="#E1E1E1"/>
<path fill-rule="evenodd" clip-rule="evenodd" d="M459.088 509.686L593.827 432.023V406.135L459.088 467.996V509.686Z" fill="#F4F4F4"/>
<path fill-rule="evenodd" clip-rule="evenodd" d="M459.087 509.671L256.979 393.176V351.501L459.087 467.997V509.671Z" fill="#E1E1E1"/>
<path fill-rule="evenodd" clip-rule="evenodd" d="M459.087 509.671L256.979 393.176V391.739L459.087 508.234V509.671Z" fill="#D1D1D3"/>
<path fill-rule="evenodd" clip-rule="evenodd" d="M459.087 506.797L256.979 390.302V388.865L459.087 505.36V506.797Z" fill="#D1D1D3"/>
<path fill-rule="evenodd" clip-rule="evenodd" d="M459.087 503.923L256.979 387.428V385.991L459.087 502.486V503.923Z" fill="#D1D1D3"/>
<path fill-rule="evenodd" clip-rule="evenodd" d="M459.087 501.049L256.979 384.553V383.117L459.087 499.612V501.049Z" fill="#D1D1D3"/>
<path fill-rule="evenodd" clip-rule="evenodd" d="M459.087 498.174L256.979 381.679V380.243L459.087 496.738V498.174Z" fill="#D1D1D3"/>
<path fill-rule="evenodd" clip-rule="evenodd" d="M459.087 495.3L256.979 378.805V377.369L459.087 493.864V495.3Z" fill="#D1D1D3"/>
<path fill-rule="evenodd" clip-rule="evenodd" d="M459.087 492.426L256.979 375.931V374.495L459.087 490.99V492.426Z" fill="#D1D1D3"/>
<path fill-rule="evenodd" clip-rule="evenodd" d="M459.087 489.552L256.979 373.057V371.621L459.087 488.116V489.552Z" fill="#D1D1D3"/>
<path fill-rule="evenodd" clip-rule="evenodd" d="M459.087 486.678L256.979 370.183V368.746L459.087 485.241V486.678Z" fill="#D1D1D3"/>
<path fill-rule="evenodd" clip-rule="evenodd" d="M459.087 483.804L256.979 367.309V365.872L459.087 482.367V483.804Z" fill="#D1D1D3"/>
<path fill-rule="evenodd" clip-rule="evenodd" d="M459.087 480.93L256.979 364.435V362.998L459.087 479.493V480.93Z" fill="#D1D1D3"/>
<path fill-rule="evenodd" clip-rule="evenodd" d="M459.087 478.056L256.979 361.561V360.124L459.087 476.619V478.056Z" fill="#D1D1D3"/>
<path fill-rule="evenodd" clip-rule="evenodd" d="M459.087 475.182L256.979 358.687V357.25L459.087 473.745V475.182Z" fill="#D1D1D3"/>
<path fill-rule="evenodd" clip-rule="evenodd" d="M459.087 472.308L256.979 355.813V354.376L459.087 470.871V472.308Z" fill="#D1D1D3"/>
<path fill-rule="evenodd" clip-rule="evenodd" d="M459.087 469.433L256.979 352.938V351.501L459.087 467.997V469.433Z" fill="#D1D1D3"/>
<path fill-rule="evenodd" clip-rule="evenodd" d="M459.088 509.671L593.827 432.023V431.131L459.088 508.235V509.671Z" fill="#E1E1E1"/>
<path fill-rule="evenodd" clip-rule="evenodd" d="M459.088 506.797L593.827 430.238V429.346L459.088 505.36V506.797Z" fill="#E1E1E1"/>
<path fill-rule="evenodd" clip-rule="evenodd" d="M459.088 503.923L593.827 428.454V427.562L459.088 502.486V503.923Z" fill="#E1E1E1"/>
<path fill-rule="evenodd" clip-rule="evenodd" d="M459.088 501.049L593.827 426.671V425.779L459.088 499.612V501.049Z" fill="#E1E1E1"/>
<path fill-rule="evenodd" clip-rule="evenodd" d="M459.088 498.175L593.827 424.887V423.995L459.088 496.738V498.175Z" fill="#E1E1E1"/>
<path fill-rule="evenodd" clip-rule="evenodd" d="M459.088 495.301L593.827 423.103V422.211L459.088 493.864V495.301Z" fill="#E1E1E1"/>
<path fill-rule="evenodd" clip-rule="evenodd" d="M459.088 492.426L593.827 421.319V420.427L459.088 490.99V492.426Z" fill="#E1E1E1"/>
<path fill-rule="evenodd" clip-rule="evenodd" d="M459.088 489.552L593.827 419.535V418.643L459.088 488.115V489.552Z" fill="#E1E1E1"/>
<path fill-rule="evenodd" clip-rule="evenodd" d="M459.088 486.678L593.827 417.751V416.859L459.088 485.241V486.678Z" fill="#E1E1E1"/>
<path fill-rule="evenodd" clip-rule="evenodd" d="M459.088 483.804L593.827 415.967V415.075L459.088 482.367V483.804Z" fill="#E1E1E1"/>
<path fill-rule="evenodd" clip-rule="evenodd" d="M459.088 480.93L593.827 414.183V413.291L459.088 479.493V480.93Z" fill="#E1E1E1"/>
<path fill-rule="evenodd" clip-rule="evenodd" d="M459.088 478.056L593.827 412.399V411.507L459.088 476.619V478.056Z" fill="#E1E1E1"/>
<path fill-rule="evenodd" clip-rule="evenodd" d="M459.088 475.182L593.827 410.615V409.723L459.088 473.745V475.182Z" fill="#E1E1E1"/>
<path fill-rule="evenodd" clip-rule="evenodd" d="M459.088 472.308L593.827 408.831V407.939L459.088 470.871V472.308Z" fill="#E1E1E1"/>
<path fill-rule="evenodd" clip-rule="evenodd" d="M459.088 469.434L593.827 407.048V406.155L459.088 467.997V469.434Z" fill="#E1E1E1"/>
<path fill-rule="evenodd" clip-rule="evenodd" d="M593.827 406.135V432.023L728.567 354.359V312.598L593.827 406.135Z" fill="#F4F4F4"/>
<path fill-rule="evenodd" clip-rule="evenodd" d="M593.827 406.156L728.567 312.598L548.914 209.295L414.175 302.584L593.827 406.156Z" fill="#E1E1E1"/>
<path fill-rule="evenodd" clip-rule="evenodd" d="M728.567 354.359L593.827 432.022V431.131L728.567 352.922V354.359Z" fill="#E1E1E1"/>
<path fill-rule="evenodd" clip-rule="evenodd" d="M728.567 351.398L593.827 430.238V429.347L728.567 349.961V351.398Z" fill="#E1E1E1"/>
<path fill-rule="evenodd" clip-rule="evenodd" d="M728.567 348.524L593.827 428.455V427.562L728.567 347.087V348.524Z" fill="#E1E1E1"/>
<path fill-rule="evenodd" clip-rule="evenodd" d="M728.567 345.65L593.827 426.671V425.779L728.567 344.213V345.65Z" fill="#E1E1E1"/>
<path fill-rule="evenodd" clip-rule="evenodd" d="M728.567 342.776L593.827 424.887V423.994L728.567 341.339V342.776Z" fill="#E1E1E1"/>
<path fill-rule="evenodd" clip-rule="evenodd" d="M728.567 339.902L593.827 423.103V422.211L728.567 338.465V339.902Z" fill="#E1E1E1"/>
<path fill-rule="evenodd" clip-rule="evenodd" d="M728.567 337.027L593.827 421.319V420.427L728.567 335.59V337.027Z" fill="#E1E1E1"/>
<path fill-rule="evenodd" clip-rule="evenodd" d="M728.567 334.153L593.827 419.535V418.643L728.567 332.716V334.153Z" fill="#E1E1E1"/>
<path fill-rule="evenodd" clip-rule="evenodd" d="M728.567 331.279L593.827 417.751V416.859L728.567 329.842V331.279Z" fill="#E1E1E1"/>
<path fill-rule="evenodd" clip-rule="evenodd" d="M728.567 328.405L593.827 415.967V415.075L728.567 326.968V328.405Z" fill="#E1E1E1"/>
<path fill-rule="evenodd" clip-rule="evenodd" d="M728.567 325.531L593.827 414.184V413.292L728.567 324.094V325.531Z" fill="#E1E1E1"/>
<path fill-rule="evenodd" clip-rule="evenodd" d="M728.567 322.656L593.827 412.399V411.507L728.567 321.22V322.656Z" fill="#E1E1E1"/>
<path fill-rule="evenodd" clip-rule="evenodd" d="M728.567 319.782L593.827 410.615V409.723L728.567 318.346V319.782Z" fill="#E1E1E1"/>
<path fill-rule="evenodd" clip-rule="evenodd" d="M728.567 316.908L593.827 408.831V407.939L728.567 315.472V316.908Z" fill="#E1E1E1"/>
<path fill-rule="evenodd" clip-rule="evenodd" d="M728.567 314.034L593.827 407.048V406.156L728.567 312.598V314.034Z" fill="#E1E1E1"/>
<path fill-rule="evenodd" clip-rule="evenodd" d="M593.827 406.135L459.087 457.91L256.979 341.415L414.174 302.583L593.827 406.135Z" fill="#F9F9FB"/>
<path fill-rule="evenodd" clip-rule="evenodd" d="M459.087 459.347L256.979 342.852V341.416L459.087 457.911V459.347Z" fill="#E1E1E1"/>
<path fill-rule="evenodd" clip-rule="evenodd" d="M459.088 459.347L593.827 406.135L459.088 457.91V459.347Z" fill="#F4F4F4"/>
<path fill-rule="evenodd" clip-rule="evenodd" d="M414.175 302.583L548.749 199.032L728.566 302.489L593.827 406.135L414.175 302.583Z" fill="#FBFBFD"/>
<path fill-rule="evenodd" clip-rule="evenodd" d="M728.567 303.926L593.827 406.135L728.567 302.489V303.926Z" fill="#F4F4F4"/>
<path fill-rule="evenodd" clip-rule="evenodd" d="M687.232 304.623L591.038 378.635L593.835 380.247L690.029 306.235L687.232 304.623Z" fill="#E1E1E1"/>
<path fill-rule="evenodd" clip-rule="evenodd" d="M682.277 301.767L586.083 375.779L588.88 377.391L685.073 303.379L682.277 301.767Z" fill="#E1E1E1"/>
<path fill-rule="evenodd" clip-rule="evenodd" d="M677.322 298.911L581.128 372.923L583.925 374.535L680.118 300.523L677.322 298.911Z" fill="#E1E1E1"/>
<path fill-rule="evenodd" clip-rule="evenodd" d="M672.367 296.055L576.173 370.066L578.969 371.678L675.163 297.667L672.367 296.055Z" fill="#E1E1E1"/>
<path fill-rule="evenodd" clip-rule="evenodd" d="M667.412 293.199L571.218 367.21L574.014 368.822L670.208 294.811L667.412 293.199Z" fill="#E1E1E1"/>
<path fill-rule="evenodd" clip-rule="evenodd" d="M662.457 290.342L566.263 364.354L569.059 365.966L665.253 291.954L662.457 290.342Z" fill="#E1E1E1"/>
<path fill-rule="evenodd" clip-rule="evenodd" d="M657.5 287.486L561.307 361.498L564.103 363.11L660.297 289.098L657.5 287.486Z" fill="#E1E1E1"/>
<path fill-rule="evenodd" clip-rule="evenodd" d="M652.545 284.63L556.352 358.641L559.148 360.253L655.342 286.242L652.545 284.63Z" fill="#E1E1E1"/>
<path fill-rule="evenodd" clip-rule="evenodd" d="M647.59 281.774L551.396 355.786L554.193 357.398L650.387 283.386L647.59 281.774Z" fill="#E1E1E1"/>
<path fill-rule="evenodd" clip-rule="evenodd" d="M642.635 278.917L546.441 352.929L549.238 354.541L645.432 280.53L642.635 278.917Z" fill="#E1E1E1"/>
<path fill-rule="evenodd" clip-rule="evenodd" d="M627.77 270.349L531.576 344.361L534.373 345.973L630.567 271.961L627.77 270.349Z" fill="#E1E1E1"/>
<path fill-rule="evenodd" clip-rule="evenodd" d="M622.814 267.493L526.62 341.504L529.417 343.116L625.611 269.105L622.814 267.493Z" fill="#E1E1E1"/>
<path fill-rule="evenodd" clip-rule="evenodd" d="M617.859 264.637L521.665 338.648L524.462 340.26L620.655 266.249L617.859 264.637Z" fill="#E1E1E1"/>
<path fill-rule="evenodd" clip-rule="evenodd" d="M514.452 279.958L531.36 289.247L530.628 289.813L503.867 288.776L519.305 297.259L521.697 295.412L522.341 295.766L516.778 300.06L516.134 299.706L518.525 297.861L502.597 289.109L500.206 290.955L499.615 290.63L505.86 285.809L524.259 286.376L513.672 280.56L511.33 282.368L510.739 282.043L516.277 277.769L516.868 278.093L514.452 279.958Z" fill="#E1E1E1"/>
<path fill-rule="evenodd" clip-rule="evenodd" d="M522.658 273.862C521.75 273.363 520.95 273.052 520.258 272.93C519.567 272.829 518.944 272.993 518.392 273.419C517.839 273.846 517.705 274.267 517.989 274.681C518.24 275.098 518.837 275.566 519.779 276.084L521.783 277.185C522.708 277.693 523.509 278.004 524.183 278.116C524.874 278.217 525.496 278.053 526.049 277.626C526.601 277.2 526.737 276.779 526.452 276.365C526.201 275.948 525.604 275.481 524.662 274.963L522.658 273.862ZM527.466 275.311C527.604 276.29 527.236 277.119 526.357 277.796C525.463 278.487 524.278 278.857 522.806 278.908C521.301 278.983 519.992 278.715 518.879 278.102C517.782 277.5 517.148 276.712 516.975 275.736C516.835 274.757 517.206 273.928 518.084 273.25C518.962 272.572 520.145 272.202 521.634 272.139C523.139 272.064 524.449 272.332 525.562 272.944C526.659 273.546 527.293 274.335 527.466 275.311Z" fill="#E1E1E1"/>
<path fill-rule="evenodd" clip-rule="evenodd" d="M543.417 279.498L542.826 279.173L545.73 276.932L531.854 269.308C531.391 269.054 531.026 268.929 530.758 268.932C530.507 268.945 530.178 269.109 529.771 269.422L527.673 271.042L527.031 270.689C528.478 269.572 529.54 268.717 530.219 268.126L532.384 266.183L548.315 274.936L551.145 272.751L551.736 273.077L543.417 279.498Z" fill="#E1E1E1"/>
<path fill-rule="evenodd" clip-rule="evenodd" d="M550.534 259.167C549.095 258.377 547.751 257.886 546.504 257.695C545.257 257.525 544.244 257.742 543.462 258.345C542.682 258.947 542.533 259.628 543.016 260.387C543.515 261.156 544.484 261.936 545.923 262.726L552.218 266.185C553.657 266.976 555.001 267.467 556.249 267.659C557.479 267.84 558.493 267.624 559.289 267.008C560.053 266.419 560.194 265.744 559.713 264.984C559.263 264.222 558.302 263.436 556.829 262.626L550.534 259.167ZM561.02 263.092C561.643 264.852 561.254 266.272 559.856 267.352C558.44 268.445 556.365 268.926 553.628 268.798C550.859 268.673 548.353 267.994 546.108 266.76C543.847 265.518 542.387 264.019 541.731 262.261C541.11 260.501 541.497 259.081 542.897 258C544.278 256.934 546.346 256.459 549.099 256.574C551.868 256.677 554.392 257.355 556.67 258.607C558.914 259.84 560.364 261.335 561.02 263.092Z" fill="#E1E1E1"/>
<path fill-rule="evenodd" clip-rule="evenodd" d="M414.175 302.583C414.175 302.583 425.431 309.008 442.315 318.645C459.172 328.325 481.65 341.232 504.128 354.139C526.563 367.12 548.999 380.1 565.825 389.836C582.626 399.615 593.827 406.135 593.827 406.135C593.827 406.135 582.572 399.71 565.688 390.073C548.829 380.393 526.351 367.486 503.873 354.579C481.439 341.598 459.004 328.618 442.177 318.882C425.376 309.103 414.175 302.583 414.175 302.583Z" fill="#E1E1E1"/>
</g>
</svg>
