<svg width="98" height="163" viewBox="0 0 98 163" fill="none" xmlns="http://www.w3.org/2000/svg">
<path d="M69.2815 155.126C69.2815 152.816 70.683 150.771 72.8316 149.503C71.9406 148.689 70.6505 148.168 69.2026 148.168H65.1653C64.1026 148.168 63.1281 148.453 62.3299 148.914H46.9741V161.353H62.5805C63.3322 161.736 64.214 161.968 65.1699 161.968H69.2072C70.6226 161.968 71.8802 161.477 72.7712 160.704C70.6551 159.44 69.2815 157.415 69.2815 155.126Z" fill="#E7DFB5"/>
<path d="M74.6866 159.871H58.7554C57.3354 158.633 56.4629 156.979 56.4629 155.156C56.4629 153.28 57.3864 151.581 58.876 150.328H74.6866C75.4105 150.328 75.9999 149.855 75.9999 149.266C75.9999 148.678 75.4105 148.201 74.6866 148.201H65.0666H18.2058H9.26802C6.57647 148.201 7.40713 149.964 7.40713 152.147V158.059C7.40713 160.235 6.57647 162.002 9.26802 162.002H18.2058H63.5677H74.6866C75.4105 162.002 75.9999 161.525 75.9999 160.936C75.9999 160.351 75.4105 159.871 74.6866 159.871Z" fill="#86A586"/>
<path d="M65.105 155.1C65.105 157.737 62.4599 159.875 59.2022 159.875C55.9445 159.875 53.2993 157.737 53.2993 155.1C53.2993 152.466 55.9445 150.328 59.2022 150.328C62.4599 150.328 65.105 152.466 65.105 155.1Z" fill="#E7DFB5"/>
<path d="M17.2929 155.089C17.2929 158.878 13.4923 161.95 8.80529 161.95C4.11828 161.95 0.312988 158.878 0.312988 155.089C0.312988 151.297 4.11364 148.225 8.80529 148.225C13.4877 148.225 17.2929 151.297 17.2929 155.089Z" fill="#86A586"/>
<path d="M7.03149 141.245C7.03149 143.559 5.63003 145.604 3.48143 146.868C4.37243 147.682 5.66252 148.203 7.11039 148.203H11.1477C12.2104 148.203 13.1849 147.922 13.9831 147.457H29.3389V135.018H13.7325C12.9807 134.635 12.099 134.406 11.1431 134.406H7.10574C5.69036 134.406 4.43276 134.898 3.54177 135.671C5.65788 136.935 7.03149 138.957 7.03149 141.245Z" fill="#E7DFB5"/>
<path d="M1.62641 136.5H17.5576C18.9776 137.738 19.8501 139.392 19.8501 141.215C19.8501 143.091 18.9266 144.79 17.4369 146.043H1.62641C0.902473 146.043 0.313118 146.516 0.313118 147.105C0.313118 147.694 0.902473 148.17 1.62641 148.17H11.2464H58.1072H67.045C69.7365 148.17 68.9059 146.403 68.9059 144.227V138.312C68.9059 136.136 69.7365 134.369 67.045 134.369H58.1072H12.7453H1.62641C0.902473 134.369 0.313118 134.846 0.313118 135.431C0.313118 136.024 0.902473 136.5 1.62641 136.5Z" fill="#A9453D"/>
<path d="M11.2085 141.268C11.2085 138.631 13.8536 136.496 17.1113 136.496C20.369 136.496 23.0142 138.634 23.0142 141.268C23.0142 143.901 20.369 146.039 17.1113 146.039C13.8536 146.039 11.2085 143.901 11.2085 141.268Z" fill="#E7DFB5"/>
<path d="M59.02 141.237C59.02 137.448 62.8207 134.376 67.5077 134.376C72.1947 134.376 76 137.448 76 141.237C76 145.026 72.1993 148.102 67.5077 148.102C62.8253 148.102 59.02 145.026 59.02 141.237Z" fill="#A9453D"/>
<path d="M69.2815 127.915C69.2815 125.601 70.683 123.557 72.8316 122.292C71.9406 121.478 70.6505 120.957 69.2026 120.957H65.1653C64.1026 120.957 63.1281 121.238 62.3299 121.704H46.9741V134.142H62.5805C63.3322 134.525 64.214 134.754 65.1699 134.754H69.2072C70.6226 134.754 71.8802 134.262 72.7712 133.49C70.6551 132.225 69.2815 130.2 69.2815 127.915Z" fill="#E7DFB5"/>
<path d="M74.6866 132.662H58.7554C57.3354 131.424 56.4629 129.77 56.4629 127.947C56.4629 126.071 57.3864 124.372 58.876 123.123H74.6866C75.4105 123.123 75.9999 122.646 75.9999 122.058C75.9999 121.469 75.4105 120.992 74.6866 120.992H65.0666H18.2058H9.26802C6.57647 120.992 7.40713 122.759 7.40713 124.935V130.85C7.40713 133.026 6.57647 134.789 9.26802 134.789H18.2058H63.5677H74.6866C75.4105 134.789 75.9999 134.312 75.9999 133.724C75.9999 133.138 75.4105 132.662 74.6866 132.662Z" fill="#E5AF4D"/>
<path d="M65.105 127.893C65.105 130.526 62.4599 132.664 59.2022 132.664C55.9445 132.664 53.2993 130.526 53.2993 127.893C53.2993 125.255 55.9445 123.121 59.2022 123.121C62.4599 123.121 65.105 125.259 65.105 127.893Z" fill="#E7DFB5"/>
<path d="M17.2929 127.929C17.2929 131.722 13.4923 134.79 8.80529 134.79C4.11828 134.79 0.312988 131.718 0.312988 127.929C0.312988 124.141 4.11364 121.068 8.80529 121.068C13.4877 121.065 17.2929 124.137 17.2929 127.929Z" fill="#E5AF4D"/>
<path d="M28.3732 101.028L15.5514 116.636L17.5862 118.924C17.5862 118.924 19.659 120.655 19.6716 120.965C19.6906 121.275 15.7852 120.264 13.9653 118.949C12.7836 118.096 12 117.249 12 117.249L13.3081 116.207C13.801 115.815 14.1928 115.322 14.4645 114.76C15.8295 111.897 21.7759 100.737 24.1014 98.1777L28.3732 101.028Z" fill="#EFD7BA"/>
<path d="M17.5862 118.922L16.3287 117.507L14.9637 117.873L13.4092 116.123C13.3776 116.148 13.346 116.18 13.3144 116.212L12 117.248C12 117.248 12.7836 118.095 13.9653 118.948C15.7852 120.262 19.6906 121.273 19.6716 120.964C19.659 120.654 17.5862 118.922 17.5862 118.922Z" fill="#3C4145"/>
<path d="M61.4289 100.561L64.203 118.166H67.2679C67.2679 118.166 69.9346 117.768 70.181 117.964C70.4212 118.16 67.072 120.403 64.8855 120.89C63.4573 121.206 62.3072 121.231 62.3072 121.231L62.402 119.563C62.4399 118.937 62.3325 118.318 62.0861 117.736C60.8538 114.811 56.9359 105.313 56.5693 101.869L61.4289 100.561Z" fill="#EFD7BA"/>
<path d="M67.2682 118.172H65.3725L64.7405 119.436H62.4024C62.4024 119.481 62.4024 119.525 62.4024 119.569L62.3076 121.237C62.3076 121.237 63.4577 121.212 64.8859 120.896C67.0723 120.409 70.4279 118.166 70.1814 117.97C69.9413 117.774 67.2682 118.172 67.2682 118.172Z" fill="#3C4145"/>
<path d="M51.9947 44.0332C51.9947 44.0332 59.2492 72.7732 62.0992 101.52C62.0992 101.52 56.8226 103.27 53.1132 103.27L52.3549 84.2427C52.3549 84.2427 39.2993 58.2452 40.1777 44.0332H51.9947Z" fill="#3C4145"/>
<path d="M51.1163 44.0332C51.1163 44.0332 45.2836 82.3217 28.942 101.873C28.942 101.873 23.9814 99.8324 21.3525 97.4942L32.07 81.26C32.07 81.26 31.8615 53.7586 38.5726 44.0332H51.1163Z" fill="#3C4145"/>
<path opacity="0.4" d="M52.7595 47.2055C52.2792 45.1644 51.9948 44.0332 51.9948 44.0332H51.1165H40.1778H38.5727C37.0435 46.2513 35.8681 49.3983 34.9771 52.9244C42.8698 52.5453 50.415 48.5578 52.7595 47.2055Z" fill="#3C4145"/>
<path d="M52.8032 23.721L66.377 26.1413L79.5906 18.1095C79.5906 18.1095 80.1846 16.0115 81.6507 15.2089C83.1168 14.4064 84.4817 13.9514 84.5828 14.1979C84.6903 14.4443 82.9777 15.3859 82.9777 15.3859C82.9777 15.3859 83.6033 15.4933 83.5338 16.0873C83.4643 16.6813 83.8498 17.7998 83.0789 18.5329C82.3079 19.2659 81.2652 19.4429 80.6333 19.4429C80.6333 19.4429 71.167 30.2678 66.6298 31.4179C63.0594 32.3279 53.2961 30.8239 53.2961 30.8239L52.8032 23.721Z" fill="#EFD7BA"/>
<path d="M52.8032 23.7207L53.2961 30.8236C53.2961 30.8236 54.5979 31.0258 56.4178 31.2343C60.0451 26.1536 66.3707 26.1473 66.3707 26.1473L52.8032 23.7207Z" fill="#EFD7BA"/>
<path d="M52.8029 23.7155C52.8029 23.7155 54.9768 27.8799 54.9831 29.3713C54.9894 32.8848 53.4538 32.7521 53.1315 34.888C52.8092 37.0176 52.0636 40.8218 52.2531 41.934C52.4364 43.0462 53.6434 44.2026 52.487 45.0368C51.3305 45.8709 37.7062 45.8267 37.6556 44.2026C37.6051 42.5786 39.8358 41.5169 39.9748 39.5706C40.1138 37.6242 38.9764 28.613 38.9764 28.613C38.9764 28.613 44.2593 29.0995 43.4251 22.7992C43.4188 22.7929 49.9782 22.7424 52.8029 23.7155Z" fill="#5A7F5B"/>
<path d="M19.8733 54.6168L23.2984 42.25C23.905 40.0635 24.9604 38.0351 26.4012 36.2846C27.9051 34.452 29.9968 31.937 32.0569 29.5546C35.9243 25.0869 39.5452 22.9699 43.4253 22.793C43.4253 22.793 45.9467 29.7252 43.4253 31.6968C40.9039 33.6684 40.253 30.9448 40.253 30.9448L39.64 29.5925L28.2464 41.1252L21.4532 54.7622C21.4532 54.7622 22.7929 57.1508 22.0156 58.4463C21.8702 58.6927 21.7691 56.2029 20.758 56.2282C19.747 56.2535 19.0834 58.6675 19.0329 59.7291C18.9823 60.7907 18.6158 60.2726 18.6158 60.2726C18.6158 60.2726 18.0976 60.7655 17.9965 60.0514C17.9965 60.0514 17.5731 60.4811 17.4531 60.0008C17.3267 59.5079 17.1624 58.3768 17.8006 57.1382C17.8006 57.1382 17.017 57.6437 16.7832 59.2994C16.7453 59.5458 16.5178 59.3184 16.6252 58.6169C16.8148 57.3847 17.9396 54.8254 19.8733 54.6168Z" fill="#EFD7BA"/>
<path d="M53.9664 13.3213L53.5367 16.8158C53.4609 17.4415 52.93 17.9091 52.2981 17.9091H51.5777C51.1922 17.9091 50.87 18.1998 50.832 18.5789C50.7436 19.5521 50.7057 21.5427 51.4324 24.2347C51.4324 24.2347 49.3723 26.4401 45.29 24.2347L48.1463 10.9642L53.404 10.0605L53.9664 13.3213Z" fill="#EFD7BA"/>
<path d="M51.6656 17.7468C50.288 17.3487 47.5138 15.9205 47.1284 15.7246L46.0288 20.8306L50.901 21.5004C50.7493 20.1923 50.7809 19.1939 50.8378 18.5936C50.8757 18.2081 51.198 17.9237 51.5834 17.9237H51.6846L51.6656 17.7468Z" fill="url(#paint0_linear)"/>
<path d="M52.6141 10.9913C52.6141 10.9913 50.4718 12.4005 48.437 12.5268C48.437 12.5268 49.2648 15.598 47.1921 18.3848C47.1921 18.3848 47.982 20.2111 47.1921 22.0816C46.6044 23.4718 45.9915 24.8873 45.7576 26.069C45.7134 26.2839 45.4417 26.3534 45.29 26.1954C43.6597 24.5335 43.7418 23.0484 41.2583 23.4276L39.6343 23.6298C39.6343 23.6298 40.2157 20.9188 42.004 19.3832C42.004 19.3832 41.0056 16.0783 42.459 13.3294C43.9124 10.5805 44.6139 9.91698 45.5997 8.36244C47.2364 5.79049 53.5872 4.46977 54.3771 8.91853C54.3771 8.91853 57.2018 9.67684 56.2034 14.9408C55.7484 17.3484 57.3725 19.4654 55.3756 20.8809C55.3756 20.8809 56.216 23.377 54.434 25.3929C54.1244 25.7468 53.5809 25.7657 53.2523 25.4308C52.8731 25.0516 52.2791 24.5777 51.4387 24.2491C51.4387 24.2491 50.0674 19.4907 51.0722 18.1194C51.881 17.0135 52.5825 19.042 53.5367 16.8239L53.9664 13.3294L52.6141 10.9913Z" fill="#3A4D58"/>
<path d="M54.6109 17.6525C54.4466 15.0173 53.9727 13.3301 53.9727 13.3301L53.543 16.8246C52.614 19.068 51.8873 17.0142 51.0784 18.1201C50.0737 19.4914 51.445 24.2498 51.445 24.2498C51.8557 24.4141 52.2033 24.61 52.5003 24.8122C52.4434 23.3524 52.4497 21.463 52.8099 20.7047C53.4292 19.3839 54.7689 20.2876 54.6109 17.6525Z" fill="#2C3E47"/>
<path d="M48.5822 13.5382C48.5569 13.1465 48.5064 12.8494 48.4685 12.6788L48.4306 12.5272C46.3705 12.8621 43.4067 11.6172 43.4067 11.6172C43.4131 11.6172 44.6137 13.7973 48.5822 13.5382Z" fill="#2C3E47"/>
<path d="M43.7291 23.7637C43.7228 23.8142 43.7102 23.8585 43.7039 23.9153C43.3816 27.195 41.5174 27.9218 39.6279 29.5964L40.2409 30.9487C40.2409 30.9487 40.8918 33.6723 43.4132 31.7007C45.3532 30.184 44.3105 25.7353 43.7291 23.7637Z" fill="#EFD7BA"/>
<path d="M74.4861 14.25H58.7744V16.6651H74.4861V14.25Z" fill="#C13030"/>
<path d="M85.2451 17.9043H63.5373C63.3239 17.9004 63.146 17.7304 63.146 17.513V13.4655C63.146 13.2481 63.3239 13.0742 63.5373 13.0742H85.2451V17.9043Z" fill="#D83F3F"/>
<path d="M95.1707 19.0182H70.7751C70.5577 19.0182 70.3838 18.8443 70.3838 18.6269V12.362C70.3838 12.1486 70.5617 11.9707 70.7751 11.9707H95.1707V19.0182Z" fill="#E94D4C"/>
<path d="M94.1348 19.0251C94.1348 19.5034 94.5261 19.8987 95.0083 19.8987C95.4905 19.8987 95.8818 19.5073 95.8818 19.0251V11.9302C95.8818 11.448 95.4945 11.0566 95.0122 11.0566C94.53 11.0566 94.1387 11.448 94.1387 11.9302V19.0251H94.1348Z" fill="#457071"/>
<path d="M95.8975 11.9395C97.1544 12.6588 98.0002 14.0106 98.0002 15.564C98.0002 17.1174 97.1544 18.4692 95.8975 19.1886V11.9395Z" fill="#E7DFB5"/>
<path d="M59.4548 16.5691C59.4548 16.7588 59.3007 16.909 59.111 16.909C58.9212 16.909 58.7671 16.7549 58.7671 16.5691V14.3517C58.7671 14.162 58.9212 14.0078 59.111 14.0078C59.3007 14.0078 59.4548 14.158 59.4548 14.3517V16.5691Z" fill="#457071"/>
<path opacity="0.16" d="M95.9674 15.3105V19.145C95.9674 19.6646 95.5751 20.094 95.0917 20.094C94.6084 20.094 94.2161 19.6689 94.2161 19.145V19.1365H70.8037C70.5858 19.1365 70.4114 18.9475 70.4114 18.7114V17.9299H63.545C63.3311 17.9256 63.1528 17.7409 63.1528 17.5048V16.5816H59.4323C59.3887 16.7361 59.2659 16.8478 59.1074 16.8478C58.9529 16.8478 58.8261 16.7361 58.7825 16.5816H58.7706V16.5086C58.7706 16.4957 58.7627 16.4871 58.7627 16.4785V15.3105H95.9674Z" fill="black"/>
<path d="M97.9923 15.4609C97.9923 15.4965 98.0002 15.5321 98.0002 15.5677C98.0002 17.121 97.1544 18.4728 95.8975 19.1922V15.4609H97.9923Z" fill="#D1C8A1"/>
<g clip-path="url(#clip0)">
<path d="M26.4912 49.1703C26.4912 49.1703 27.7147 49.0312 28.2925 49.0629C28.8684 49.0946 31.4254 50.5418 32.2876 50.5013C33.1481 50.459 38.9043 48.5629 39.1713 48.4097C39.4384 48.2583 39.0998 47.8428 39.0998 47.8428L26.3656 46.584L26.4912 49.1703Z" fill="#BD734A"/>
<path d="M16.2546 28.4668L14.9403 41.9969C14.9403 41.9969 14.3661 43.6695 18.1221 44.2839C21.9567 44.9124 27.9468 46.2258 27.9468 46.2258C27.9468 46.2258 27.8473 50.7382 27.3429 50.7646C25.882 50.8439 14.9996 48.9847 10.6903 48.0657C7.27114 47.3368 9.41271 28.8893 9.41271 28.8893L16.2546 28.4668Z" fill="#5A7F5B"/>
<path d="M26.676 44.6281C26.676 44.6281 27.8664 44.9485 28.4406 45.0049C29.0148 45.0595 31.7568 44.0101 32.6015 44.1809C33.4463 44.3517 38.8604 47.0894 39.1013 47.2796C39.3421 47.4697 38.9477 47.8289 38.9477 47.8289L26.1681 47.1686L26.676 44.6281Z" fill="#BD734A"/>
<path d="M12.5543 116.163C12.5543 116.163 15.2038 117.786 16.4046 118.393C17.6054 118.999 22.2987 119.226 22.7578 119.677C23.2168 120.128 23.03 121.541 22.2499 121.675C21.4697 121.811 15.7571 122.261 13.8599 121.79C11.9609 121.318 8.39165 122.031 7.60623 121.751C6.82081 121.471 7.38108 117.189 7.69699 116.23C8.01115 115.27 12.5543 116.163 12.5543 116.163Z" fill="#3C4145"/>
<path d="M12.7969 114.411L12.5543 116.161C12.5543 116.161 8.97802 116.792 7.90462 116.223L8.19435 114.404L12.7969 114.411Z" fill="#BD734A"/>
<path d="M19.8501 53.0666C19.9513 54.2779 20.0298 56.9205 20.0909 59.6988C20.1049 60.3167 20.1153 60.94 20.1258 61.5579C20.1939 65.2974 20.2271 68.7605 20.2271 68.7605C20.0525 73.463 19.3142 83.6428 17.9249 85.9298C16.0521 89.0143 13.8774 114.693 13.8774 114.693L6.99718 115.437C6.99718 115.437 6.57131 98.2715 7.59933 93.789C8.74604 88.7819 10.9522 81.9579 9.69202 77.4032C8.90137 74.5458 7.25375 65.3467 7.25375 65.3467C7.25375 65.3467 5.49267 55.0015 7.32007 47.0613C7.77736 45.0753 19.8501 53.0666 19.8501 53.0666Z" fill="#3C4145"/>
<path d="M24.3742 116.163C24.3742 116.163 27.0236 117.786 28.2245 118.393C29.4253 118.999 34.1186 119.226 34.5776 119.677C35.0366 120.128 34.8499 121.541 34.0697 121.675C33.2895 121.811 27.5769 122.261 25.678 121.79C23.779 121.318 20.2097 122.031 19.4243 121.751C18.6389 121.471 19.1992 117.189 19.5151 116.23C19.8327 115.27 24.3742 116.163 24.3742 116.163Z" fill="#3C4145"/>
<path d="M24.6167 114.411L24.3741 116.161C24.3741 116.161 20.7978 116.792 19.7244 116.223L20.0142 114.404L24.6167 114.411Z" fill="#BD734A"/>
<path d="M26.0967 115.21H19.0402C19.0402 115.21 16.6717 101.447 16.478 95.3821C16.4553 94.7236 16.4605 94.1549 16.4972 93.706C16.6001 92.4208 16.752 91.0105 16.8916 89.5527C16.8934 89.5422 16.8934 89.5316 16.8951 89.5211C17.3105 85.1812 17.6159 80.4153 16.1917 77.1881C14.9944 74.4786 12.0308 65.6211 12.0308 65.6211C12.0308 65.6211 8.78788 55.6473 9.44414 47.5222C9.6082 45.4922 22.1452 50.5944 22.1452 50.5944C22.4192 51.7775 23.2587 55.5012 23.5554 58.2618C25.2537 74.0384 24.6184 84.3168 24.6184 84.3168C23.6479 87.801 26.0967 115.21 26.0967 115.21Z" fill="#3C4145"/>
<path d="M21.0492 16.9558C21.0492 16.9558 23.4997 22.8256 24.0023 25.9683C24.5068 29.1127 22.4402 37.7184 22.3477 39.4966C22.058 45.0143 21.9254 51.1165 21.9254 51.1165L9.98181 56.4863C9.98181 56.4863 8.71293 51.5813 7.86119 45.583C7.00945 39.5846 7.64302 34.3979 8.17362 30.9472C9.83695 20.1249 16.5514 14.8906 16.5514 14.8906L21.0492 16.9558Z" fill="#CFBEB6"/>
<path d="M30.1094 6.39346C30.1094 6.39346 30.9385 9.6259 30.0728 9.88118C29.3589 10.0925 30.0309 13.2298 30.0972 13.7316C30.1635 14.2334 28.7725 14.2404 28.4234 14.4658C28.0743 14.6911 26.3639 18.1084 25.2591 17.95C24.1543 17.7915 19.7123 14.8795 18.7279 13.1629C17.7435 11.4463 18.1903 4.90928 19.7193 2.48495C21.2465 0.0606189 28.6346 0.740206 30.1094 6.39346Z" fill="#BD734A"/>
<path d="M23.3706 14.3557C23.3706 14.3557 23.2851 14.6726 23.1612 15.1621C23.1088 15.3681 23.0512 15.6022 22.9884 15.8575C22.9412 16.0529 22.8924 16.2589 22.8418 16.472C22.8243 16.5477 22.8051 16.6251 22.7877 16.7026C22.7074 17.0618 22.6253 17.435 22.552 17.803C22.36 18.7572 22.2187 19.6762 22.2431 20.2026C22.3094 21.6463 17.2042 14.824 17.2042 14.824C17.2042 14.824 18.3946 10.3134 18.9164 5.11792C19.4366 -0.0758142 23.3706 14.3557 23.3706 14.3557Z" fill="#BD734A"/>
<path d="M30.2632 7.08624C30.2632 7.08624 32.5741 4.39254 30.3033 1.40306C28.0326 -1.58642 21.8366 1.13017 21.2117 1.13545C20.5869 1.14249 17.2585 0.542131 17.4347 6.86969C17.5918 12.5036 17.7943 12.2606 17.7943 12.2606C17.7943 12.2606 19.5885 9.89438 20.3094 9.5986C21.4351 9.13732 23.4894 9.82572 23.4894 9.82572C23.4894 9.82572 23.1438 6.9049 24.7967 6.9137C26.4478 6.92603 28.8285 6.10207 30.2632 7.08624Z" fill="#3A4D58"/>
<path d="M22.201 7.88302C22.1539 7.48161 22.0928 5.79672 20.5272 6.38828C18.9616 6.97984 20.4103 10.4905 20.6354 10.5873C20.8588 10.6824 22.6042 11.2545 22.201 7.88302Z" fill="#BD734A"/>
<path d="M22.688 53.0774C22.688 53.0774 22.1399 50.477 22.0335 50.0879L5.91675 52.7922L6.08256 54.8943C6.08256 54.8943 17.6945 54.1918 22.688 53.0774Z" fill="#23263D"/>
<path d="M5.8699 40.0723C5.8699 40.0723 6.73037 51.3823 1.03174 63.5374C0.335341 65.0216 11.7012 64.9441 11.7012 64.9441L5.8699 40.0723Z" fill="#5A7F5B"/>
<path d="M22.4736 30.0109C22.2624 31.2592 22.0792 32.5198 21.9238 33.7804C21.6097 36.2927 21.3967 38.8156 21.2571 41.2752C21.2414 41.5322 21.2292 41.7875 21.217 42.0428C21.196 42.4565 21.1768 42.8668 21.1594 43.277C21.1367 43.8228 21.1175 44.3633 21.1035 44.8985C20.7806 56.0853 16.679 64.8988 16.679 64.8988C16.679 64.8988 8.53162 65.4622 6.43369 64.3107C6.43369 64.3107 4.97107 51.7137 5.63606 39.2593C5.68667 38.298 5.75125 37.3368 5.82979 36.3843C5.83154 36.3825 5.83154 36.3825 5.83154 36.3825C6.65884 26.2961 10.5685 16.5442 16.5516 14.8945C16.6912 15.0283 23.5819 23.4492 22.4736 30.0109Z" fill="#5A7F5B"/>
<path d="M48.7999 49.9317L27.5356 49.0645L27.6144 47.0994L48.8786 47.9667L48.7999 49.9317Z" fill="#E5AF4D"/>
<path d="M55.9987 29.727L48.8057 49.9316L46.9707 49.2669L54.1638 29.0623L55.9987 29.727Z" fill="#E5AF4D"/>
<path d="M19.7245 83.1104C19.1258 87.0225 16.5357 95.2021 16.4781 95.3835C16.4554 94.725 16.4606 94.1564 16.4973 93.7074C16.6003 92.4222 16.7521 91.0119 16.8917 89.5542C16.8935 89.5436 16.8935 89.5331 16.8952 89.5225C17.0296 88.2531 17.932 85.9168 18.5306 84.327C19.1363 82.7249 19.7245 76.3691 19.7245 76.3691C19.7245 76.3691 20.3301 79.1526 19.7245 83.1104Z" fill="#383C3F"/>
<path d="M22.7891 16.7049C22.7088 17.0641 22.6267 17.4373 22.5534 17.8053C21.0524 16.7648 19.328 14.0007 19.2215 13.8281C19.8307 14.7243 22.7437 16.6732 22.7891 16.7049Z" fill="#B9673A"/>
<path d="M21.2168 40.6394C21.2011 40.8894 21.1889 41.1394 21.1767 41.3876C21.1557 41.7908 21.1365 42.1922 21.1191 42.5919C19.2899 42.2151 15.8166 41.2749 14.7729 39.4087C13.3487 36.8629 16.9005 30.9139 16.9773 30.7871C16.9441 30.9456 15.4571 38.2696 16.979 38.9985C17.9634 39.4686 20.0107 40.1147 21.2168 40.6394Z" fill="#3C4145"/>
<path d="M22.4454 21.9549C22.4454 21.9549 23.6881 28.2156 22.5955 35.6911C21.681 41.9464 21.3284 46.4359 21.3284 46.4359L21.7857 48.2L22.62 46.8444C22.62 46.8444 24.0599 38.8319 24.3287 35.4991C24.5992 32.1399 24.8855 27.6276 22.9568 21.918L22.4454 21.9549Z" fill="#C44140"/>
<path d="M22.3636 21.9602C22.3636 21.9602 22.5172 22.1592 22.7633 22.2367C23.0112 22.3124 23.4336 21.9602 22.3968 20.043L22.3636 21.9602Z" fill="#E94D4C"/>
<path d="M17.3803 14.1094C17.3803 14.1094 20.5272 18.1464 22.5938 19.2468L22.5135 22.6447L16.5495 14.8928L17.3803 14.1094Z" fill="#EDDAD3"/>
<path d="M10.5473 25.1962C10.7899 23.6521 12.5754 17.0851 16.2547 18.0517C19.9339 19.0183 18.8954 23.4849 18.0943 26.8511C17.2548 30.3741 14.2475 38.8812 14.7729 39.4112C15.2965 39.9411 19.5552 41.8883 20.4819 42.2105C21.4105 42.5327 27.3098 44.4218 27.7654 44.619C28.2104 44.8109 25.4824 49.6789 25.4824 49.6789C25.4824 49.6789 10.7777 44.6207 8.28357 42.9851C5.78944 41.3478 10.5473 25.1962 10.5473 25.1962Z" fill="#5A7F5B"/>
</g>
<defs>
<linearGradient id="paint0_linear" x1="51.2381" y1="13.1081" x2="48.8495" y2="19.0187" gradientUnits="userSpaceOnUse">
<stop stop-color="#B19E94"/>
<stop offset="0.9396" stop-color="#EFD7BA"/>
</linearGradient>
<clipPath id="clip0">
<rect width="55" height="122" fill="white" transform="matrix(-1 0 0 1 56 0)"/>
</clipPath>
</defs>
</svg>
