<svg width="192" height="165" viewBox="0 0 192 165" fill="none" xmlns="http://www.w3.org/2000/svg">
<path d="M70.875 31.7022L69.0862 32.2508L67.8857 29.4708L65.172 29.9505L63.9332 28.0176L62.9546 28.644L64.6119 31.2301L67.1827 30.7759L68.433 33.6683L71.1238 32.8415L70.875 31.7022Z" fill="#50BFA5"/>
<path d="M93.8678 12.1596C88.9916 12.9621 87.5422 19.3629 91.5968 22.2259C92.3253 22.7401 92.8293 23.5132 93.0436 24.3782L93.7823 27.356C93.9852 28.1764 94.7852 28.7033 95.6196 28.5655L97.467 28.2619C98.3014 28.1241 98.8895 27.3701 98.8194 26.5267C98.5629 23.4532 98.2465 22.3382 99.2455 20.9667C102.167 16.9567 98.7454 11.3571 93.8678 12.1596Z" fill="#F7CC7F"/>
<path d="M94.3657 25.1736C94.048 22.5403 93.6027 19.7603 93.4509 18.9718C90.6556 19.1262 91.7183 16.179 93.0082 17.377C93.3756 17.7189 93.5492 18.182 93.664 18.6886C94.5928 18.6043 95.4999 18.3403 96.3279 17.9128C96.2833 17.2634 96.2195 16.771 96.4006 16.3551C96.6749 15.7273 97.4698 15.5564 97.7939 16.1675C97.9151 16.3972 97.9367 16.6906 97.8487 16.9343C97.6612 17.4535 97.0972 17.7967 96.6048 18.0659C96.7515 20.1596 96.9556 22.2698 97.2121 24.3469L96.948 24.3801C96.6954 22.3362 96.4938 20.2604 96.3471 18.1999C95.5254 18.6082 94.6323 18.8633 93.7176 18.9501C93.9089 19.958 94.3312 22.6679 94.6298 25.1404L94.3657 25.1736ZM92.124 18.3492C92.3728 18.6171 92.7888 18.7345 93.3961 18.7064C93.2914 18.2586 93.1358 17.8567 92.827 17.5709C92.133 16.9266 91.7068 17.9001 92.124 18.3492ZM96.6443 16.4622C96.4912 16.8118 96.5499 17.2596 96.5844 17.7738C96.9837 17.5467 97.4481 17.2622 97.5974 16.8462C97.7033 16.5541 97.5846 16.142 97.2874 16.0654C97.2555 16.0552 96.7502 16.216 96.6443 16.4622Z" fill="#FAE0B2"/>
<path d="M93.022 24.3055C93.0284 24.3297 93.0373 24.354 93.0437 24.3795L93.7824 27.3573C93.9852 28.1776 94.7852 28.7045 95.6196 28.5668L97.467 28.2631C98.3014 28.1253 98.8895 27.3713 98.8194 26.528C98.7058 25.1603 98.5795 24.1817 98.5629 23.3945L93.022 24.3055Z" fill="#96D9C9"/>
<path d="M90.2531 9.93373L88.7948 7.27234C88.6532 7.01462 88.7476 6.69183 89.0054 6.55022C89.2631 6.4086 89.5859 6.50301 89.7275 6.76073L91.1858 9.42212C91.3274 9.67984 91.233 10.0026 90.9753 10.1442C90.7163 10.2859 90.3935 10.1902 90.2531 9.93373Z" fill="#FAE0B2"/>
<path d="M87.065 16.3755L83.8869 16.0974C83.5948 16.0719 83.3779 15.8142 83.4034 15.5207C83.4289 15.2286 83.6866 15.0117 83.9801 15.0372L87.1582 15.3153C87.4503 15.3408 87.6672 15.5986 87.6417 15.892C87.6162 16.1842 87.3585 16.4011 87.065 16.3755Z" fill="#FAE0B2"/>
<path d="M83.9142 26.1191C83.7075 25.9099 83.71 25.5731 83.9193 25.3664C84.7001 24.5945 85.56 23.8928 86.4735 23.283C86.7172 23.1197 87.0476 23.186 87.2109 23.4297C87.3743 23.6734 87.3079 24.0038 87.0642 24.1671C86.2069 24.74 85.4005 25.3983 84.6669 26.123C84.4577 26.3297 84.1209 26.3297 83.9142 26.1191Z" fill="#FAE0B2"/>
<path d="M98.1077 9.7919C97.8232 9.71663 97.6548 9.42446 97.7314 9.14122C98.0911 7.79394 98.3119 6.40456 98.3871 5.01135C98.4024 4.71791 98.6538 4.49208 98.9472 4.50867C99.2407 4.52398 99.4652 4.77532 99.4499 5.06876C99.3708 6.5347 99.1386 7.99808 98.7597 9.4168C98.6819 9.70132 98.3884 9.86717 98.1077 9.7919Z" fill="#FAE0B2"/>
<path d="M101.381 13.8758C101.297 13.5939 101.455 13.2979 101.737 13.2124L105.041 12.216C105.323 12.1318 105.619 12.29 105.705 12.5719C105.789 12.8526 105.631 13.1499 105.349 13.2341L102.044 14.2305C101.762 14.316 101.465 14.1578 101.381 13.8758Z" fill="#FAE0B2"/>
<path d="M106.809 22.6699C106.762 22.6699 106.713 22.6636 106.665 22.6495C105.52 22.328 104.406 21.8815 103.355 21.3227C103.096 21.1849 102.998 20.8634 103.136 20.6031C103.273 20.3441 103.596 20.2446 103.855 20.3824C104.839 20.9055 105.881 21.3227 106.953 21.6238C107.236 21.7029 107.401 21.9963 107.32 22.2795C107.255 22.5168 107.041 22.6699 106.809 22.6699Z" fill="#FAE0B2"/>
<path d="M155.213 46.1852L153.546 42.2429L149.352 41.3817C148.875 41.2834 148.717 40.68 149.085 40.361L152.32 37.5567L151.844 33.3031C151.789 32.8183 152.314 32.4827 152.732 32.7341L156.397 34.9438L160.296 33.1768C160.74 32.9752 161.222 33.3707 161.113 33.8453L160.144 38.0148L163.03 41.1763C163.359 41.5361 163.132 42.1166 162.646 42.1587L158.381 42.5261L156.266 46.2477C156.026 46.6713 155.403 46.6343 155.213 46.1852Z" fill="#F7CC7F"/>
<path d="M181.754 32.6582L181.069 35.4191L176.507 34.8067L175.007 38.7184L171.517 38.8192L171.568 40.5849L176.235 40.451L177.656 36.7434L182.403 37.3813L183.435 33.2272L181.754 32.6582Z" fill="#F48C7F"/>
<path d="M141.104 164.965H60.8984C57.8351 164.965 55.3511 162.389 55.3511 159.212V155.792C55.3511 152.614 57.8351 150.039 60.8984 150.039H141.104C137.434 154.198 137.372 160.556 140.956 164.793L141.104 164.965Z" fill="#BFBA68"/>
<path d="M139.865 151.748H95.3789C92.3156 151.748 89.8315 154.324 89.8315 157.502C89.8315 160.679 92.3143 163.255 95.3789 163.255H139.868C137.79 159.726 137.794 155.269 139.865 151.748Z" fill="#FAE0B2"/>
<path d="M112.925 139.671C113.041 139.453 112.864 139.199 112.595 139.199H70.1555C66.8294 139.199 64.1323 141.626 64.1323 144.62C64.1323 147.613 66.8294 150.041 70.1555 150.041H112.606C112.877 150.041 113.055 149.786 112.937 149.567C111.258 146.433 111.262 142.791 112.925 139.671Z" fill="#86A586"/>
<path d="M112.658 140.207H91.6256C87.7215 140.207 84.5562 142.241 84.5562 144.749C84.5562 147.257 87.7215 149.291 91.6256 149.291H112.797C111.349 146.401 111.309 143.11 112.658 140.207Z" fill="#F7CC7F"/>
<path d="M107.226 142.361H104.487C103.898 142.361 103.42 142.559 103.42 142.803V142.842H107.226V142.361Z" fill="#B75742"/>
<path d="M109.562 143.469C109.562 142.856 108.846 142.361 107.965 142.361H104.45C105.12 142.361 105.662 142.738 105.662 143.202L105.645 155.079L107.587 153.552L109.567 155.079L109.562 143.469Z" fill="#86A586"/>
<path d="M105.122 138.809H80.4296C78.2403 138.809 76.4644 136.703 76.4644 134.104C76.4644 131.505 78.239 129.398 80.4296 129.398H105.122C103.235 132.008 103.161 135.834 104.946 138.542L105.122 138.809Z" fill="#FAE0B2"/>
<path d="M76.4671 134.103C76.4671 131.504 78.2839 129.398 80.5255 129.398H105.593C105.71 129.398 105.805 129.287 105.804 129.151C105.802 129.017 105.709 128.91 105.593 128.91H65.8266C63.3528 128.91 61.3472 131.235 61.3472 134.104C61.3472 136.972 63.3528 139.298 65.8266 139.298H105.593C105.708 139.298 105.802 139.19 105.804 139.057C105.805 138.922 105.71 138.811 105.593 138.811H80.5255C78.2839 138.809 76.4671 136.702 76.4671 134.103Z" fill="#966A4D"/>
<path d="M100.811 131.705H98.072C97.4825 131.705 97.0054 131.899 97.0054 132.139V132.177H100.811V131.705Z" fill="#184655"/>
<path d="M103.147 132.792C103.147 132.192 102.432 131.705 101.55 131.705H98.0352C98.705 131.705 99.2472 132.074 99.2472 132.529L99.2306 144.176L101.172 142.679L103.152 144.176L103.147 132.792Z" fill="#966A4D"/>
<path d="M144.468 59.768L148.113 58.8086L145.642 91.7634L141.269 91.9088L143.474 60.9648C143.515 60.3945 143.915 59.9135 144.468 59.768Z" fill="#184655"/>
<path d="M145.969 92.7041C145.887 92.7118 145.804 92.7105 145.718 92.7003C144.995 92.6148 144.458 91.8952 144.522 91.0915L146.948 60.104C147.011 59.3015 147.649 58.7197 148.373 58.8052C149.098 58.8907 149.634 59.6103 149.57 60.414L147.144 91.4015C147.089 92.1109 146.585 92.648 145.969 92.7041Z" fill="#D6CFBC"/>
<path d="M112.418 94.3548C112.419 94.3777 112.421 94.4007 112.423 94.4237C112.538 95.6842 113.514 96.627 114.605 96.53L145.391 93.7743C146.481 93.6773 147.272 92.575 147.159 91.3145C147.154 91.2609 147.147 91.2086 147.14 91.1562L112.418 94.3548Z" fill="#BCB5A5"/>
<path d="M133.856 127.637C131.84 128.754 125.678 126.795 125.678 126.617C125.59 128.301 118.778 144.785 118.778 144.785L118.783 149.856C118.783 149.856 132.818 150.525 132.617 149.285C132.415 148.045 131.66 148.851 128.861 146.509C128.612 146.301 124.681 145.389 125.745 143.061C127.887 138.375 132.438 130.562 133.856 127.637Z" fill="#EFD7BA"/>
<path d="M118.322 150.039L133.686 150.043C134.241 149.987 134.37 149.535 134.175 149.261C133.771 148.696 130.827 147.365 128.848 146.481C125.401 146.884 119.34 145.559 118.785 144.771C117.326 146.727 118.012 149.976 118.322 150.039Z" fill="#966A4E"/>
<path d="M114.952 115.803C114.744 115.179 128.179 109.478 128.78 110.13C129.844 111.282 121.511 132.912 121.511 132.912L131.085 135.838C131.085 135.838 141.037 110.848 140.623 106.277C140.207 101.705 135.221 96.5113 124.417 99.8361C113.615 103.161 114.952 115.803 114.952 115.803Z" fill="#3A4C56"/>
<path d="M142.77 130.48C140.502 130.066 137.562 129.949 135.21 129.908C135.486 132.003 136.834 142.748 136.587 143.408C135.59 146.082 133.377 147.334 133.377 147.334C133.377 147.334 143.81 156.747 144.44 155.66C145.07 154.573 143.975 154.718 143.293 151.132C143.233 150.813 141.724 145.808 141.631 143.107C141.453 137.957 142.692 133.34 142.77 130.48Z" fill="#EFD7BA"/>
<path d="M139.424 95.3297C137.968 94.5527 134.19 94.5259 130.035 94.7951C121.935 95.3195 113.94 96.9143 106.235 99.4659L101.08 101.174L101.096 95.8885C101.096 95.8885 84.6942 93.1442 84.1239 97.209C83.264 103.33 84.3306 115.76 89.7963 118.533C106.771 127.15 130.559 104.807 130.645 107.73C130.761 111.655 134.07 126.265 134.916 132.661C137.27 132.701 141.313 132.7 143.066 132.297C143.405 119.767 143.566 97.5407 139.424 95.3297Z" fill="#4F5962"/>
<path d="M133.06 147.554L144.787 156.922C145.251 157.229 145.638 156.963 145.66 156.627C145.706 155.934 144.272 153.038 143.301 151.102C140.379 149.229 136.525 144.342 136.594 143.383C135.359 144.425 132.861 147.307 133.06 147.554Z" fill="#966A4E"/>
<path d="M106.514 44.2345C106.12 40.6328 105.706 37.0184 102.72 34.3787C100.304 32.243 97.2327 31.8806 94.1949 33.0238C85.5894 36.2618 90.0229 43.9041 79.0508 51.6101C75.6405 54.0049 71.8831 55.643 69.3161 58.8671C65.7234 63.3797 67.0796 68.8084 70.3547 72.433C86.0232 89.7742 103.517 66.3549 104.773 60.7323C105.707 56.5502 106.767 46.5527 106.514 44.2345Z" fill="#3A4D58"/>
<path d="M103.332 64.4863C102.053 62.1273 100.733 60.2544 100.733 60.2544C99.4053 57.8941 95.9758 56.7012 95.9758 56.7012C95.9758 56.7012 94.8288 56.7241 93.5109 56.7892C93.4293 57.0074 93.3463 57.1643 93.2621 57.2268C92.7671 57.5981 89.9296 57.1184 88.0975 58.3636C81.9544 63.629 83.6538 89.152 84.1374 97.2127L102.845 97.3901C102.845 97.3901 100.486 80.0451 104.288 75.5886C106.934 72.4832 105.231 67.9859 103.332 64.4863Z" fill="#FABD68"/>
<path d="M94.899 48.0661C94.899 48.0661 93.8707 55.4098 93.1524 57.1947C92.4341 58.9796 97.1011 62.7956 100.985 63.954C104.868 65.1125 99.7982 60.0117 99.959 58.1043C100.12 56.197 100.825 47.1641 100.825 47.1641L94.899 48.0661Z" fill="#E5C7A4"/>
<path d="M100.631 49.754C100.744 48.26 100.827 47.1641 100.827 47.1641L94.8996 48.0661C94.8996 48.0661 94.7503 48.9285 94.5845 50.1495C96.9881 51.5427 99.1494 51.1026 100.631 49.754Z" fill="#E5C7A4"/>
<path d="M96.758 34.6501C96.758 34.6501 94.4219 35.177 92.979 37.3778C91.536 39.5786 90.5472 46.0598 95.2971 49.0848C100.048 52.1098 103.743 47.8307 103.804 43.6575C103.867 39.4829 102.973 33.9139 96.758 34.6501Z" fill="#EFD7BA"/>
<path d="M104.893 42.3512C104.487 43.3578 103.683 43.983 103.096 43.7469C102.509 43.5109 102.363 42.503 102.768 41.4964C103.174 40.4897 103.978 39.8646 104.565 40.1006C105.15 40.3366 105.298 41.3433 104.893 42.3512Z" fill="#EFD7BA"/>
<path d="M97.4601 34.5144C97.4601 34.5144 94.4823 41.1947 91.8656 41.7917C89.2489 42.3888 89.2871 45.7494 89.2871 45.7494C89.2871 45.7494 89.3458 37.9872 91.798 36.2061C94.2489 34.4264 97.4601 34.5144 97.4601 34.5144Z" fill="#3A4D58"/>
<path d="M92.9038 43.1797C93.2482 44.2641 92.9331 45.3333 92.1995 45.5655C91.4659 45.7977 90.5919 45.1074 90.2475 44.023C89.903 42.9385 90.2181 41.8694 90.9517 41.6372C91.6853 41.4037 92.5593 42.0939 92.9038 43.1797Z" fill="#EFD7BA"/>
<path d="M126.367 91.409C125.244 91.0033 123.574 90.9523 123.602 90.8043C123.714 90.2046 128.673 92.1286 128.004 91.2534C127.631 90.766 123.92 89.0398 123.018 89.3256C122.142 89.6024 116.395 91.2151 116.395 91.2151L100.688 87.5343C100.688 87.5343 96.724 78.5256 96.3362 70.7852C93.0586 71.2279 90.8284 72.038 87.9795 73.6188C89.3536 81.0212 92.6911 93.0191 96.3821 95.2697C97.9348 96.2164 116.471 94.1367 116.471 94.1367C116.471 94.1367 120.557 93.8484 121.224 93.592C121.73 93.3968 123.033 92.6632 123.742 92.4629C125.354 92.0061 128.226 93.1518 128.235 92.8367C128.242 92.6045 127.514 91.8237 126.367 91.409Z" fill="#EFD7BA"/>
<path d="M96.4317 62.5142C96.2812 60.1322 95.3791 57.8332 92.8441 57.0919C91.2735 56.6326 89.5116 57.0715 88.2562 58.0972C86.7634 59.3169 86.3462 61.2728 86.3526 63.124C86.3679 67.3279 86.655 71.6874 87.423 75.8262C90.2707 74.2455 93.5955 73.295 96.8731 72.8523C96.8731 72.8293 96.632 65.6617 96.4317 62.5142Z" fill="#ECAE58"/>
<path d="M160.563 12.727L156.393 13.865L155.495 8.81272L156.86 8.57031L157.492 12.1286L160.198 11.3899L160.563 12.727Z" fill="#50BFA5"/>
<path d="M79.2513 16.6883L53.084 26.0223C52.2406 26.3234 51.3131 25.8832 51.012 25.0399L46.1817 11.5007C45.8806 10.6574 46.3208 9.72988 47.1641 9.42878L73.3315 0.094778C74.1748 -0.206319 75.1023 0.233844 75.4034 1.07717L80.2337 14.6163C80.5348 15.4596 80.0947 16.3872 79.2513 16.6883Z" fill="#D85656"/>
<path d="M61.9063 13.2048C62.8683 15.9019 61.4624 18.8695 58.764 19.8315C56.0668 20.7935 53.0993 19.3875 52.1373 16.6891C51.1753 13.992 52.5813 11.0244 55.2797 10.0624C57.9781 9.10045 60.9444 10.5077 61.9063 13.2048Z" fill="white"/>
<path d="M57.7648 12.4826C58.0481 13.2775 57.6334 14.1527 56.8386 14.4372C56.0437 14.7204 55.1685 14.3058 54.884 13.511C54.6008 12.7161 55.0154 11.8409 55.8102 11.5564C56.6064 11.2719 57.4816 11.6878 57.7648 12.4826Z" fill="#D85656"/>
<path d="M60.2582 16.7427L55.655 18.3847L55.4712 17.868C55.1357 16.9252 55.6269 15.8892 56.5685 15.5524L57.7588 15.1275C58.7017 14.7907 59.7376 15.2832 60.0745 16.2247L60.2582 16.7427Z" fill="#D85656"/>
<path d="M62.5522 10.3765C62.2728 10.3765 62.0227 10.2004 61.9296 9.9376C61.8071 9.5944 61.987 9.21548 62.3302 9.093L73.7693 5.01288C73.8407 4.98737 73.916 4.97461 73.9913 4.97461C74.2707 4.97461 74.5208 5.15067 74.6139 5.4135C74.7364 5.7567 74.5565 6.13562 74.2133 6.2581L62.7742 10.3382C62.7027 10.3637 62.6274 10.3765 62.5522 10.3765Z" fill="white"/>
<path d="M65.6391 13.2275C65.3597 13.2275 65.1096 13.0515 65.0165 12.7887C64.894 12.4455 65.0739 12.0665 65.4171 11.9441L74.3518 8.75703C74.4232 8.73151 74.4985 8.71875 74.5738 8.71875C74.8532 8.71875 75.1032 8.89482 75.1964 9.15764C75.2551 9.3235 75.2461 9.50339 75.1708 9.66287C75.0956 9.82235 74.9616 9.94355 74.7958 10.0022L65.8611 13.1893C65.7896 13.2148 65.7144 13.2275 65.6391 13.2275Z" fill="white"/>
<path d="M119.909 118.816H56.7251C54.7628 118.816 53.1719 120.407 53.1719 122.37V125.358C53.1719 127.32 54.7628 128.911 56.7251 128.911H119.909L119.876 128.876C117.173 126.062 117.187 121.612 119.909 118.816Z" fill="#D85656"/>
<path d="M118.79 120.311H85.0127C83.0504 120.311 81.4595 121.902 81.4595 123.864C81.4595 125.826 83.0504 127.417 85.0127 127.417H118.789C117.548 125.216 117.55 122.509 118.79 120.311Z" fill="#FAE0B2"/>
<path d="M124.66 4.01078L125.206 2.71906C125.206 2.71906 132.406 4.99986 135.4 9.53394L124.66 4.01078Z" fill="#DFD8C7"/>
<path d="M123.298 3.27422L124.528 2.9511C124.528 2.9511 130.65 4.26079 135.399 9.53399L128.896 24.9361C128.896 24.9361 126.1 20.3554 117.124 17.9L123.298 3.27422Z" fill="white"/>
<path d="M146.848 13.3784L147.394 12.0867C147.394 12.0867 140.738 8.51753 135.4 9.53349L146.848 13.3784Z" fill="#DFD8C7"/>
<path d="M148.325 13.8403L147.7 12.7339C147.7 12.7339 142.491 9.25973 135.4 9.53434L128.897 24.9365C128.897 24.9365 134.13 23.7453 142.151 28.466L148.325 13.8403Z" fill="white"/>
<path d="M135.404 9.52687C136.064 9.76458 136.621 9.81874 136.726 9.643C136.728 9.63964 136.734 9.63705 136.743 9.63541C136.74 9.63287 136.737 9.63033 136.735 9.62667C136.747 9.62915 136.759 9.63053 136.77 9.63254C136.989 9.62833 137.927 9.81983 138.214 9.87497C138.235 9.87853 138.254 9.88273 138.275 9.88629C138.28 9.88706 138.284 9.88737 138.286 9.88831C139.098 10.0133 139.901 10.1911 140.692 10.4079C143.725 11.1629 145.779 12.1236 146.881 12.7923C147.296 13.031 147.687 13.3002 148.036 13.6124C148.1 13.6699 148.158 13.7288 148.209 13.7914C148.211 13.7919 148.211 13.7919 148.211 13.7919C148.319 13.925 148.397 14.0737 148.425 14.2588C148.464 14.5075 148.388 14.7026 148.294 14.9255L142.551 28.5284C142.389 28.9127 141.912 29.1586 141.563 28.9297C139.422 27.5213 137.523 26.737 136.024 26.2256C134.445 25.6868 132.816 25.2737 131.161 25.0514C130.621 24.9793 129.973 24.8269 129.428 24.8782C129.376 24.8827 129.323 24.8801 129.271 24.8698C129.238 24.8626 129.205 24.8528 129.174 24.8395C129.137 24.8239 129.102 24.8038 129.071 24.7813C129.042 24.7532 129.011 24.7258 128.98 24.6967C128.853 24.5495 128.813 24.3374 128.894 24.1469L134.977 9.7374C135.025 9.62153 135.173 9.55206 135.404 9.52687Z" fill="#6A8A69"/>
<path d="M135.406 9.52742C134.775 9.22025 134.348 8.85912 134.401 8.66068C134.402 8.65732 134.399 8.65094 134.395 8.64362C134.398 8.64392 134.402 8.64422 134.406 8.6434C134.396 8.63643 134.386 8.62834 134.376 8.62137C134.227 8.46201 133.435 7.92322 133.196 7.75605C133.179 7.74352 133.162 7.73259 133.145 7.72007C133.141 7.71706 133.138 7.71452 133.136 7.71358C132.48 7.21891 131.793 6.76769 131.085 6.35155C128.429 4.70474 126.308 3.9031 125.06 3.57946C124.6 3.44829 124.134 3.35612 123.667 3.32399C123.581 3.31807 123.499 3.31739 123.418 3.32422C123.417 3.32374 123.417 3.32374 123.417 3.32374C123.245 3.33856 123.085 3.38701 122.932 3.49546C122.727 3.64108 122.64 3.83141 122.546 4.05435L116.803 17.6572C116.641 18.0415 116.797 18.5551 117.204 18.6451C119.707 19.1976 121.593 20.0111 123.005 20.7286C124.493 21.4848 125.925 22.3639 127.239 23.3951C127.667 23.7316 128.228 24.0901 128.571 24.516C128.604 24.5564 128.643 24.5926 128.687 24.623C128.715 24.6414 128.745 24.658 128.776 24.6712C128.813 24.6868 128.852 24.698 128.89 24.7048C128.93 24.706 128.971 24.7088 129.014 24.711C129.208 24.6991 129.388 24.5796 129.468 24.3892L135.552 9.97965C135.604 9.86568 135.55 9.71107 135.406 9.52742Z" fill="#6A8A69"/>
<path d="M135.421 9.49872C134.774 9.2258 134.329 8.82118 134.406 8.644L127.901 24.0436C127.807 24.2643 128.256 24.6649 128.901 24.9373C129.548 25.2102 130.147 25.2519 130.24 25.0312L136.74 9.63467C136.6 9.81427 136.067 9.77164 135.421 9.49872Z" fill="#4F704E"/>
<g opacity="0.2">
<g opacity="0.2">
<path opacity="0.2" d="M148.425 14.2595C148.396 14.0744 148.319 13.9257 148.21 13.7926C148.21 13.7926 148.21 13.7926 148.209 13.7922C148.158 13.7295 148.099 13.6706 148.035 13.6132C147.687 13.3009 147.296 13.0318 146.881 12.793C145.779 12.1259 143.724 11.1647 140.692 10.4086C139.9 10.1919 139.098 10.014 138.286 9.88904C138.282 9.88874 138.279 9.88732 138.275 9.88702C138.255 9.88393 138.234 9.87926 138.214 9.8757C137.927 9.82056 136.988 9.62906 136.77 9.63327C136.758 9.6319 136.745 9.62941 136.733 9.62692C136.736 9.62946 136.739 9.632 136.741 9.63566C136.733 9.6373 136.728 9.64037 136.725 9.64326C136.717 9.65575 136.707 9.6673 136.695 9.67679C136.505 9.80508 136.01 9.74803 135.42 9.49877C134.8 9.2372 134.365 8.85424 134.399 8.66787C134.4 8.66563 134.399 8.66404 134.4 8.6618C134.402 8.65572 134.404 8.65124 134.406 8.64564L134.4 8.65908C134.4 8.65637 134.398 8.65159 134.394 8.64586C134.398 8.64616 134.402 8.64646 134.406 8.64564C134.396 8.63755 134.386 8.63058 134.376 8.62361C134.226 8.46425 133.435 7.92545 133.195 7.75829C133.178 7.74576 133.162 7.73484 133.144 7.72231C133.14 7.7193 133.137 7.71676 133.135 7.71581C132.479 7.22115 131.792 6.76994 131.085 6.3538C128.429 4.70698 126.308 3.90534 125.06 3.5817C124.599 3.45054 124.134 3.35836 123.667 3.32623C123.581 3.3203 123.498 3.31964 123.417 3.32646C123.416 3.32599 123.416 3.32599 123.416 3.32599C123.245 3.3408 123.084 3.38925 122.932 3.4977C122.726 3.64332 122.639 3.83365 122.545 4.0566L122.437 4.31203C122.532 4.08908 122.619 3.89876 122.824 3.75314C122.977 3.64469 123.137 3.59624 123.308 3.58142C123.308 3.58142 123.308 3.58142 123.309 3.58189C123.39 3.57507 123.473 3.57574 123.559 3.58166C124.026 3.61379 124.491 3.70597 124.952 3.83713C126.198 4.16142 128.32 4.96354 130.977 6.60923C131.684 7.02537 132.372 7.47658 133.027 7.97125C133.03 7.97379 133.034 7.97521 133.037 7.97775C133.054 7.99027 133.07 8.0012 133.087 8.01372C133.327 8.18089 134.119 8.71968 134.268 8.87904C134.278 8.88601 134.288 8.8941 134.298 8.90107C134.296 8.90667 134.294 8.91116 134.293 8.91723C134.292 8.91947 134.292 8.92218 134.291 8.9233C134.257 9.10967 134.692 9.49263 135.312 9.7542C135.902 10.0035 136.397 10.0605 136.587 9.93222C136.6 9.92162 136.609 9.91119 136.617 9.89869C136.619 9.89533 136.625 9.89274 136.634 9.89109C136.631 9.88855 136.628 9.88601 136.625 9.88235C136.638 9.88484 136.65 9.88621 136.662 9.8887C136.881 9.88449 137.819 10.076 138.106 10.1311C138.127 10.1347 138.146 10.1389 138.167 10.1425C138.172 10.1432 138.176 10.1435 138.178 10.1445C138.99 10.2694 139.793 10.4473 140.584 10.664C143.617 11.4191 145.67 12.3798 146.773 13.0485C147.188 13.2872 147.579 13.5564 147.927 13.8686C147.992 13.926 148.05 13.985 148.101 14.0476C148.102 14.0481 148.102 14.0481 148.102 14.0481C148.211 14.1811 148.288 14.3299 148.317 14.5149C148.356 14.7637 148.28 14.9587 148.186 15.1817L148.294 14.9262C148.388 14.7033 148.464 14.5082 148.425 14.2595Z" fill="#272525"/>
</g>
</g>
<g opacity="0.1">
<g opacity="0.1">
<path opacity="0.1" d="M134.407 8.644L127.902 24.0436C127.823 24.2295 128.13 24.5439 128.616 24.8004L135.134 9.36135C134.649 9.10369 134.34 8.7927 134.407 8.644Z" fill="#4F704E"/>
</g>
</g>
<path d="M146.021 14.4318C144.959 13.7883 142.981 12.8631 140.06 12.1357C139.51 11.9852 138.525 11.787 138.011 11.6875C137.818 11.6498 137.626 11.752 137.549 11.9335L136.236 15.0447C136.133 15.2889 136.283 15.5648 136.543 15.614C137.758 15.8417 139.098 16.0074 140.512 16.5056C141.722 16.932 142.905 17.3906 144.574 18.3777C144.791 18.506 145.07 18.414 145.168 18.1821L146.463 15.1146C146.542 14.9275 146.474 14.7117 146.303 14.6023C146.211 14.5438 146.117 14.4867 146.021 14.4318Z" fill="#4F704E"/>
<path d="M179.769 66.3967L168.286 56.1505C167.54 55.4845 167.851 54.1143 168.881 53.5312L178.045 48.3424C178.632 48.0107 179.293 48.0413 179.718 48.4202L191.2 58.6665C191.947 59.3324 191.635 60.7027 190.606 61.2857L181.441 66.4746C180.855 66.8076 180.194 66.7769 179.769 66.3967Z" fill="#86A586"/>
<path d="M179.226 58.2473L178.269 50.3754C178.232 50.0743 178.451 49.7516 178.759 49.6559C179.066 49.5602 179.346 49.7273 179.381 50.0284L180.263 57.2726L188.97 59.3777C189.254 59.4466 189.385 59.7528 189.263 60.0616C189.14 60.3703 188.81 60.5655 188.525 60.4966L179.226 58.2473Z" fill="white"/>
<path d="M46.9226 68.8394L46.0205 83.4599C45.9459 84.6798 44.8953 85.6081 43.6742 85.5329L12.5063 83.6088C11.2864 83.5343 10.3581 82.4837 10.4333 81.2626L11.3354 66.6422C11.41 65.4222 12.4606 64.494 13.6816 64.5691L44.8501 66.4921C46.07 66.5694 46.9977 67.6184 46.9226 68.8394Z" fill="#292930"/>
<path d="M45.2464 69.8637L44.4776 82.3154C44.403 83.5353 43.3524 84.4636 42.1314 84.3884L13.6433 82.6303C12.4234 82.5557 11.4951 81.5051 11.5703 80.2841L12.339 67.8324C12.4136 66.6124 13.4642 65.6842 14.6853 65.7593L43.1744 67.518C44.3938 67.5937 45.3221 68.6443 45.2464 69.8637Z" fill="white"/>
<path d="M44.4371 69.8149L43.6684 82.2666C43.5938 83.4865 42.5972 84.4184 41.4452 84.3475L14.5329 82.6863C13.3809 82.6154 12.5066 81.5684 12.5823 80.349L13.3511 67.8973C13.4257 66.6774 14.4223 65.7455 15.5743 65.8164L42.4866 67.4776C43.6386 67.5485 44.5117 68.5949 44.4371 69.8149Z" fill="#5A7F5B"/>
<path d="M13.9064 70.2832L13.4502 77.6753C13.4217 78.148 13.0139 78.5069 12.5411 78.4784L11.6095 78.4409L12.125 69.3158L13.1033 69.3741C13.5761 69.4027 13.9355 69.8094 13.9064 70.2832Z" fill="#292930"/>
<path d="M12.9544 76.6338C12.8768 76.7871 12.7125 76.8882 12.5299 76.8767C12.2849 76.8616 12.0988 76.6501 12.1134 76.4062C12.1285 76.1612 12.34 75.9751 12.585 75.9903C12.83 76.0054 13.0161 76.2169 13.0009 76.4619C12.9967 76.5226 12.9808 76.5815 12.9544 76.6338ZM12.2716 76.2895C12.2525 76.3273 12.2411 76.369 12.2381 76.4135C12.2272 76.5895 12.3623 76.7416 12.5383 76.7525C12.7142 76.7634 12.8664 76.6283 12.8773 76.4524C12.8882 76.2764 12.7531 76.1242 12.5771 76.1133C12.4452 76.1066 12.3273 76.1795 12.2716 76.2895Z" fill="white"/>
<path d="M12.9375 75.1264C12.8767 75.2464 12.7482 75.3265 12.6051 75.3169C12.5132 75.3108 12.4282 75.2692 12.3656 75.1998C12.3036 75.1293 12.2734 75.0401 12.2783 74.9476L12.497 71.4081C12.503 71.3162 12.5447 71.2312 12.6141 71.1686C12.6845 71.1066 12.7738 71.0764 12.8662 71.0813C13.0583 71.0934 13.2045 71.2595 13.193 71.4505L12.9749 74.9918C12.9713 75.0402 12.9583 75.0852 12.9375 75.1264ZM12.6456 71.3297C12.6321 71.3564 12.6241 71.3859 12.6223 71.417L12.4036 74.9566C12.3958 75.0797 12.4899 75.186 12.613 75.1938C12.736 75.2017 12.8423 75.1075 12.8502 74.9845L13.0688 71.4449C13.0767 71.3218 12.9825 71.2155 12.8595 71.2077C12.7999 71.2041 12.7424 71.2238 12.6971 71.2637C12.6753 71.282 12.6579 71.3053 12.6456 71.3297Z" fill="white"/>
<path opacity="0.18" d="M16.3457 65.8651L23.2855 83.2269L27.0294 83.4583L19.2193 66.0426L16.3457 65.8651Z" fill="white"/>
<path opacity="0.1" d="M21.4245 66.1993L30.856 83.7156L34.6016 83.9465L24.4184 66.3847L21.4245 66.1993Z" fill="white"/>
<path d="M43.9649 65.0792L35.9293 72.8457C35.1883 73.5622 34.006 73.543 33.2889 72.8003L14.6529 53.5194C13.9364 52.7784 13.9557 51.596 14.6984 50.879L22.734 43.1125C23.475 42.396 24.6573 42.4153 25.3743 43.158L44.0104 62.4389C44.7263 63.181 44.7059 64.3628 43.9649 65.0792Z" fill="#101011"/>
<path d="M43.4434 65.0129L35.8801 72.3233C35.1828 72.9977 34.0484 72.9581 33.3497 72.2344L15.1525 53.4074C14.4527 52.6832 14.4516 51.5492 15.149 50.8749L22.7122 43.5644C23.4096 42.89 24.5439 42.9297 25.2427 43.6533L43.4398 62.4803C44.1397 63.2045 44.1413 64.3374 43.4434 65.0129Z" fill="#282830"/>
<path d="M16.5898 54.2449L32.7622 70.9766L42.2174 61.8374L26.0449 45.1058L16.5898 54.2449Z" fill="white"/>
<path opacity="0.89" d="M19.7805 47.9951C19.7693 48.0174 19.7547 48.0379 19.7362 48.0551C19.6931 48.0961 19.6367 48.1192 19.576 48.1178C19.5165 48.1169 19.4603 48.0927 19.4182 48.049C19.3772 48.0059 19.3541 47.9496 19.3555 47.8889C19.3564 47.8293 19.3806 47.7732 19.4242 47.731C19.4679 47.6889 19.5237 47.6669 19.5844 47.6683C19.644 47.6692 19.7001 47.6934 19.7422 47.7371C19.7844 47.7807 19.8064 47.8365 19.8049 47.8972C19.8037 47.9329 19.7957 47.9651 19.7805 47.9951ZM19.4899 47.8494C19.4832 47.8628 19.4798 47.8778 19.4791 47.8928C19.4785 47.919 19.4889 47.9452 19.5072 47.9643C19.5255 47.9833 19.5505 47.9946 19.5772 47.9941C19.6034 47.9948 19.6296 47.9844 19.6486 47.9661C19.6677 47.9478 19.6789 47.9228 19.6785 47.8961C19.6792 47.8699 19.6688 47.8436 19.6505 47.8246C19.6322 47.8056 19.6072 47.7943 19.5804 47.7948C19.5543 47.7941 19.528 47.8045 19.509 47.8228C19.5012 47.83 19.495 47.8394 19.4899 47.8494Z" fill="white"/>
<path opacity="0.89" d="M21.1899 47.6876C21.1815 47.7043 21.1708 47.7198 21.1557 47.7331L19.3654 49.4636C19.2977 49.5284 19.1896 49.5268 19.1248 49.4591C19.0926 49.426 19.0767 49.3831 19.0775 49.3374C19.0783 49.2917 19.0969 49.2495 19.1293 49.2185L20.9197 47.488C20.9527 47.4558 20.9957 47.4399 21.0413 47.4407C21.087 47.4415 21.1292 47.46 21.1614 47.4931C21.2129 47.5457 21.222 47.6243 21.1899 47.6876ZM21.0699 47.6435C21.0883 47.6264 21.0879 47.5969 21.0707 47.5784C21.0624 47.57 21.0513 47.5644 21.0385 47.5649C21.0262 47.5642 21.014 47.5692 21.0056 47.5775L19.2152 49.308C19.2068 49.3163 19.2012 49.3274 19.2017 49.3402C19.2011 49.3525 19.206 49.3648 19.2143 49.3732C19.2315 49.3916 19.261 49.3912 19.2795 49.3741L21.0699 47.6435Z" fill="white"/>
<g opacity="0.41">
<g opacity="0.41">
<g opacity="0.81">
<path opacity="0.81" d="M17.6159 54.1365L32.7358 69.7793L41.1917 61.6061L26.0717 45.9633L17.6159 54.1365Z" fill="#F7CC7F"/>
</g>
</g>
</g>
<path d="M40.0978 66.9854C40.0724 67.0354 40.0382 67.0809 39.9968 67.1214L38.1057 68.9488C37.9037 69.1439 37.5812 69.1384 37.3862 68.9364L37.354 68.9033C37.2598 68.8054 37.2092 68.6765 37.211 68.5406C37.2128 68.4047 37.2686 68.278 37.3665 68.1838L39.2576 66.3563C39.4597 66.1613 39.7821 66.1668 39.9772 66.3688L40.0093 66.4018C40.1035 66.4998 40.1541 66.6287 40.1523 66.7646C40.1508 66.842 40.1321 66.9176 40.0978 66.9854ZM37.4757 68.8505C37.6231 69.0033 37.8671 69.0067 38.0198 68.8593L39.9109 67.0318C40.0637 66.8844 40.0672 66.6405 39.9198 66.4877L39.8876 66.4547C39.7402 66.3019 39.4963 66.2985 39.3435 66.4459L37.4524 68.2733C37.3785 68.3448 37.3369 68.441 37.3352 68.5434C37.3336 68.6459 37.3721 68.7436 37.4436 68.8175L37.4757 68.8505Z" fill="white"/>
<path opacity="0.18" d="M18.0891 55.7911L31.3032 50.54L33.9751 53.3053L19.8968 57.7489L18.0891 55.7911Z" fill="white"/>
<path d="M9.29565 72.3166L8.10539 75.3406C7.85267 75.9832 7.11812 76.3009 6.4733 76.047L3.71446 74.9617C3.06964 74.7079 2.74858 73.9744 3.0013 73.3318L4.19155 70.3078C4.44427 69.6652 5.17883 69.3475 5.82365 69.6013L8.58249 70.6867C9.22731 70.9405 9.54837 71.674 9.29565 72.3166Z" fill="#C72727"/>
<path d="M8.92166 72.0629L7.82336 74.8528C7.59038 75.4454 6.91387 75.7395 6.3213 75.5065L3.78481 74.5086C3.19224 74.2756 2.89819 73.5991 3.13117 73.0065L4.22947 70.2166C4.46245 69.624 5.13896 69.3299 5.73153 69.5629L8.26802 70.5608C8.86059 70.7938 9.15464 71.4703 8.92166 72.0629Z" fill="#D85656"/>
<path d="M6.90086 74.0932C6.8958 74.1032 6.89242 74.1099 6.88962 74.1127L6.86221 74.1365L6.82774 74.1246C6.41133 73.9711 6.11408 73.6014 6.04885 73.1678C5.81425 73.3031 5.53173 73.329 5.27377 73.2347C4.8001 73.0591 4.5571 72.5326 4.73268 72.059C4.81681 71.8294 4.98592 71.647 5.2081 71.5445C5.43029 71.442 5.6793 71.4326 5.90835 71.5179C6.16575 71.6133 6.36358 71.8153 6.4542 72.072C6.78647 71.7851 7.25142 71.6967 7.66783 71.8502L7.70174 71.8632L7.7088 71.8989C7.71799 71.9552 7.00942 73.8788 6.90086 74.0932ZM4.88606 72.0152C4.872 72.043 4.85961 72.0702 4.84888 72.0997C4.69758 72.5088 4.90807 72.9644 5.31725 73.1157C5.56798 73.2077 5.84611 73.1684 6.06245 73.0086L6.15413 72.9405L6.16192 73.0547C6.18828 73.4659 6.44325 73.8253 6.8184 73.9859C6.93679 73.6996 7.47596 72.2403 7.57155 71.9467C7.18228 71.825 6.75454 71.9337 6.46735 72.228L6.38785 72.3106L6.36223 72.1985C6.30227 71.9365 6.11618 71.725 5.86544 71.633C5.66697 71.559 5.45305 71.568 5.26046 71.6561C5.0969 71.7311 4.9665 71.8563 4.88606 72.0152Z" fill="white"/>
<path d="M35.4617 49.4434L33.1945 53.0892C32.7128 53.8643 31.6846 54.1032 30.9094 53.6214L27.5946 51.5609C26.8194 51.0791 26.5806 50.0509 27.0623 49.2758L29.3295 45.63C29.8113 44.8548 30.8395 44.616 31.6146 45.0978L34.9295 47.1583C35.7035 47.6395 35.9435 48.6683 35.4617 49.4434Z" fill="#DFAB4F"/>
<path d="M35.304 48.7872L33.0368 52.433C32.5551 53.2081 31.5268 53.4469 30.7517 52.9652L27.4369 50.9046C26.6617 50.4229 26.4229 49.3946 26.9046 48.6195L29.1718 44.9737C29.6536 44.1986 30.6818 43.9598 31.4569 44.4415L34.7718 46.5021C35.5463 46.9849 35.7852 48.0132 35.304 48.7872Z" fill="#F7CC7F"/>
<path d="M32.8573 49.6972C32.8455 49.7206 32.832 49.7444 32.818 49.7667C32.6013 50.1092 32.1706 50.2513 31.7937 50.1052L31.7236 50.0781L32.6286 48.6434L32.6835 48.6949C32.9579 48.9553 33.0255 49.365 32.8573 49.6972ZM31.9111 50.0139C32.2142 50.0962 32.5412 49.9714 32.713 49.701C32.8837 49.43 32.8553 49.0807 32.6505 48.8429L31.9111 50.0139Z" fill="white"/>
<path d="M32.9519 48.3558C32.9401 48.3791 32.9277 48.4008 32.9137 48.423L31.6477 50.4301C31.4114 50.806 30.9134 50.9183 30.5375 50.6819C30.2222 50.4832 30.0871 50.0965 30.2041 49.7468L29.5523 49.3358C28.9099 48.9311 28.7142 48.0796 29.1212 47.4355C29.5259 46.7931 30.3791 46.5997 31.0215 47.0044L31.6733 47.4154C31.9386 47.1588 32.3448 47.1146 32.6602 47.3134C32.8423 47.4279 32.9684 47.6062 33.0158 47.8158C33.0595 47.9999 33.0363 48.1891 32.9519 48.3558ZM29.1688 47.6034C28.8802 48.1734 29.0689 48.8817 29.6191 49.2287L30.3586 49.6952L30.3384 49.7436C30.2132 50.0487 30.3251 50.3985 30.6043 50.5748C30.9219 50.7746 31.3429 50.6793 31.5422 50.3628L32.8082 48.3556C32.9059 48.2013 32.9363 48.0199 32.8959 47.8431C32.8556 47.6663 32.7494 47.5149 32.5956 47.4189C32.3163 47.2426 31.9518 47.2926 31.7306 47.5365L31.6959 47.5748L30.9563 47.1083C30.3711 46.7394 29.5966 46.9155 29.2267 47.5001C29.2064 47.5346 29.1862 47.569 29.1688 47.6034Z" fill="white"/>
<path d="M49.2222 54.9659C50.403 55.5037 52.2768 58.0561 52.9889 59.2165C53.1304 59.4472 53.1393 60.0059 52.5333 60.1276C51.1997 60.3961 47.9607 60.8713 46.781 60.334C45.2989 59.6605 44.6431 57.9117 45.3183 56.4291C45.9918 54.947 47.7406 54.2913 49.2222 54.9659Z" fill="#5A7F5B"/>
<path d="M49.2246 54.6143C50.4055 55.1521 52.2769 58.0593 52.9896 59.2186C53.1311 59.4493 52.9948 59.7488 52.7278 59.7937C51.3855 60.0188 47.9649 60.5192 46.7834 59.9825C45.3013 59.309 44.6456 57.5602 45.3208 56.0775C45.9943 54.5954 47.7425 53.9408 49.2246 54.6143Z" fill="#5A7F5B"/>
<path d="M48.6837 55.6844C49.5629 56.0848 49.9509 57.1216 49.5522 58.0001C49.1518 58.8793 48.1151 59.2673 47.2365 58.8686C46.3573 58.4682 45.9693 57.4315 46.368 56.5529C46.7673 55.6732 47.804 55.2851 48.6837 55.6844Z" fill="white"/>
<path d="M29.2807 22.1895L30.4672 24.537L33.149 24.4515L34.2935 27.1767L37.1207 26.2032L38.5509 29.2295L41.2646 28.6541L43.1171 31.341L42.1003 32.0414L40.716 30.0333L37.8518 30.6393L36.4764 27.7317L33.602 28.7204L32.3389 25.712L29.7209 25.7975L28.6211 23.6209L26.9128 24.0369L26.6206 22.8363L29.2807 22.1895Z" fill="#F7CC7F"/>
<path d="M172.882 82.2521L175.32 83.2422L177.285 81.4152L179.937 82.7191L181.43 80.1278L184.496 81.47L186.165 79.2539L189.326 80.0628L189.02 81.2582L186.656 80.6535L184.895 82.9934L181.948 81.7035L180.431 84.3381L177.503 82.899L175.584 84.6826L173.325 83.7653L172.31 85.2006L171.301 84.4874L172.882 82.2521Z" fill="#50BFA5"/>
<path d="M22.5808 106.998L25.0189 107.988L26.9837 106.161L29.6361 107.465L31.1288 104.874L34.1947 106.216L35.8635 104L39.025 104.809L38.7188 106.004L36.3547 105.4L34.594 107.739L31.6468 106.45L30.1299 109.084L27.2018 107.645L25.283 109.429L23.0235 108.511L22.0092 109.947L21 109.233L22.5808 106.998Z" fill="#50BFA5"/>
</svg>
