<svg width="362" height="178" viewBox="0 0 362 178" fill="none" xmlns="http://www.w3.org/2000/svg">
<path d="M49.7936 89.623C49.7936 89.623 32.1176 97.3244 28.9076 97.1849C25.6998 97.0453 5.92822 91.1625 5.92822 91.1625L6.4315 94.5628C6.4315 94.5628 21.6905 103.338 27.0235 103.835C32.2762 104.326 50.2334 99.1219 51.9674 98.0223C53.7014 96.9269 54.8327 90.7353 49.7936 89.623Z" fill="#EFD7BA"/>
<path d="M52.4498 61.2981C52.4498 61.2981 58.9712 60.0589 62.2192 62.4315C68.1021 66.7284 68.4193 81.5391 70.6227 83.7467C72.8282 85.9522 78.1422 85.0112 78.6159 96.428C79.0896 107.845 76.4992 108.798 79.5844 113.897C82.6675 118.993 78.2797 124.093 78.2797 124.093C78.2797 124.093 80.0771 121.281 79.3074 119.249C79.3074 119.249 78.5588 123.73 75.7125 124.781C72.8663 125.832 72.4433 126.601 71.9887 128.143C71.9887 128.143 47.7003 115.696 47.6729 106.868C47.6475 98.0393 42.8938 89.2954 45.2284 85.4701C45.2284 85.4701 44.188 87.1068 44.0611 88.9275C44.0611 88.9275 42.6612 86.2441 45.0888 83.7467C47.5164 81.2494 42.2404 76.0791 43.0228 70.0906C43.5557 65.9798 46.44 61.4757 52.4498 61.2981Z" fill="#3A4D58"/>
<path d="M47.6455 98.0449C49.1976 99.1213 51.1452 100.009 53.5876 100.574C62.748 102.691 66.2583 94.9492 67.5757 89.633C66.3259 88.9183 65.1502 88.7597 64.4714 88.6793C63.8096 88.6011 63.1139 88.5504 62.5366 88.5207C61.5089 87.732 59.9758 84.5093 59.6353 79.502L59.2039 79.6183L51.9847 81.5933C51.9847 81.5933 52.3146 83.8876 52.4774 86.0572C52.6021 87.7553 52.6233 89.3772 52.3019 89.7747C51.7394 89.8974 51.401 89.9777 51.401 89.9777C51.401 89.9777 51.401 89.9798 51.3968 89.9841C51.3038 90.1427 49.2082 93.5873 47.6455 98.0449Z" fill="#E5C7A4"/>
<path d="M50.766 83.7448C50.766 83.7448 60.4742 83.2098 60.047 77.1684C59.6199 71.127 60.5863 66.9908 54.3693 67.0775C48.1524 67.1642 47.112 69.5537 46.7652 71.6049C46.4184 73.656 48.2306 83.7279 50.766 83.7448Z" fill="#EFD7BA"/>
<path d="M46.8138 68.2262C48.1819 66.3019 49.3428 66.6191 50.0174 67.1203C55.1094 63.8257 58.8332 67.89 58.8332 67.89C59.7932 72.1784 63.0962 74.4368 63.0962 74.4368C63.0962 74.4368 61.4067 75.6548 57.2578 74.8999C55.9911 74.6694 54.8154 73.8638 53.7941 72.8593C55.6422 75.5047 58.0275 77.336 58.0275 77.336C52.999 75.4349 50.5587 68.8056 50.3134 68.1057C49.7594 68.6788 48.6746 69.9179 48.4018 71.0746C48.0297 72.6479 46.4204 75.1072 45.4879 75.0649C45.4879 75.0628 44.7605 71.1127 46.8138 68.2262Z" fill="#3A4D58"/>
<path d="M70.343 117.78C71.2206 113.299 74.0774 95.3923 71.2206 89.63C70.1929 87.5598 66.1646 87.3737 61.745 87.5555C60.3705 88.4437 55.1284 91.7996 52.9758 91.3809C52.9525 91.3766 52.9102 91.3661 52.8552 91.3534C51.8423 91.0996 51.4596 90.387 52.3054 89.7738C52.3076 89.7717 50.1168 89.5623 47.3974 90.074C45.8622 90.3637 41.7197 92.5058 41.7197 92.5058C41.7197 92.5058 43.8047 96.2741 46.8815 97.5746C46.3592 102.252 47.1352 104.316 51.9883 115.119C56.0885 124.252 51.4342 132.474 51.4342 132.474C51.4342 132.474 75.5746 151.882 75.7078 142C75.8093 134.561 69.2223 123.508 70.343 117.78Z" fill="#FABD68"/>
<path d="M50.2378 153.571C48.9246 153.423 47.7425 152.704 47.0088 151.606C46.8925 151.433 46.7677 151.245 46.6366 151.044C43.8897 146.885 42.8197 134.146 36.6387 120.575C35.1331 117.272 29.7303 116.677 28.2564 112.941C28.2564 112.941 24.6299 100.835 35.1987 100.477C45.7675 100.12 63.5027 134.161 63.7818 137.73C64.0525 141.19 70.7685 155.889 50.2378 153.571Z" fill="#3A4C56"/>
<path d="M8.23291 153.301H23.2741C23.2741 153.301 23.8366 150.901 22.8491 149.268C21.9757 147.824 22.3098 147.002 22.9569 145.807C22.276 146.086 21.3942 146.34 20.4236 146.285C19.675 146.242 18.8821 145.902 18.1864 145.498C17.5393 146.236 14.767 149.378 13.9001 150C12.9189 150.704 8.5353 150.453 8.23291 153.301Z" fill="#3A4C56"/>
<path d="M68.7576 94.3223C68.7576 94.3223 70.7157 112.134 58.0175 115.866C45.3214 119.598 41.716 99.4777 51.9676 98.0292C62.2193 96.5828 68.7576 94.3223 68.7576 94.3223Z" fill="#FABD68"/>
<path d="M27.9146 103.98C27.0095 110.77 23.4718 132.203 17.2316 142.66C15.2206 146.031 22.3003 147.921 22.3384 147.91C23.2878 147.663 24.8695 146.149 25.5991 145.491C30.6657 140.926 40.9469 127.999 40.9469 117.636C40.9469 112.582 41.0357 102.931 37.3605 100.478C35.0979 98.9679 28.2741 101.283 27.9146 103.98Z" fill="#3A4C56"/>
<path d="M59.208 153.302C59.208 153.302 58.6497 152.526 57.6791 151.052C56.5224 149.299 55.2431 145.852 53.6888 141.433C52.0564 136.793 50.1215 131.084 47.7024 125.144C46.9559 123.311 46.163 121.454 45.3192 119.602C43.8136 116.299 39.6732 116.755 38.1993 113.019C38.1993 113.019 32.4497 100.071 43.0185 99.7137C53.5873 99.3563 73.6697 134.351 74.8222 137.738C76.0867 141.45 82.2508 156.857 59.208 153.302Z" fill="#4F5962"/>
<path d="M19.2754 153.301H34.3166C34.3166 153.301 34.8791 150.901 33.8915 149.268C33.0182 147.824 33.3523 147.002 33.9994 145.807C33.3185 146.086 32.4367 146.34 31.4661 146.285C30.7175 146.242 29.9245 145.902 29.2288 145.498C28.5818 146.236 25.8095 149.378 24.9425 150C23.9614 150.704 19.5778 150.453 19.2754 153.301Z" fill="#4F5962"/>
<path d="M53.6886 141.425C52.0561 136.786 50.1213 131.076 47.7021 125.137C48.3344 120.637 49.6962 116.699 51.9885 115.113C51.9885 115.113 57.5478 132.333 53.6886 141.425Z" fill="#4F5962"/>
<path d="M36.6939 103.502C35.7889 110.292 34.5117 132.206 28.2736 142.663C26.2626 146.033 33.3423 147.924 33.3804 147.913C34.3298 147.666 35.9115 146.152 36.6411 145.494C41.7077 140.929 51.9889 128.002 51.9889 117.638C51.9889 112.584 46.0595 103.339 42.3843 100.886C40.1196 99.3745 37.0534 100.804 36.6939 103.502Z" fill="#4F5962"/>
<path d="M4.13455 82.414L19.5395 80.7773C19.9878 80.7286 20.4128 80.9908 20.5735 81.4116L26.0842 95.8946C26.3252 96.529 25.8727 97.2141 25.1939 97.2416L9.90743 97.8591C9.49296 97.876 9.11022 97.6328 8.94951 97.25L3.31832 83.7863C3.06456 83.1731 3.47268 82.4838 4.13455 82.414Z" fill="#4F5962"/>
<path d="M2.79552 82.5546L18.2004 80.9179C18.6487 80.8693 19.0738 81.1315 19.2345 81.5523L24.7451 96.0352C24.9862 96.6696 24.5337 97.3547 23.8549 97.3822L8.5684 97.9997C8.15393 98.0166 7.77119 97.7734 7.61048 97.3907L1.98351 83.927C1.72553 83.3137 2.13365 82.6244 2.79552 82.5546Z" fill="#3A4D58"/>
<path d="M11.3343 89.3196C11.1461 88.8036 11.4125 88.3828 11.9306 88.3828C12.4466 88.3828 13.0196 88.8015 13.2078 89.3196C13.396 89.8356 13.1296 90.2564 12.6115 90.2564C12.0934 90.2564 11.5225 89.8356 11.3343 89.3196Z" fill="#EFD7BA"/>
<path d="M3.25651 83.914C3.16346 83.6602 3.29457 83.4551 3.54832 83.4551C3.80208 83.4551 4.08332 83.6602 4.17636 83.914C4.2694 84.1677 4.1383 84.3728 3.88454 84.3728C3.62868 84.3749 3.34743 84.1677 3.25651 83.914Z" fill="#EFD7BA"/>
<path d="M67.5771 89.6201C67.5771 89.6201 46.228 97.4822 43.0202 97.3215C40.9457 97.2179 23.7117 91.1596 23.7117 91.1596C23.7117 91.1596 22.4324 89.193 21.0431 88.7828C21.0431 88.7828 18.5922 87.6599 17.8923 87.4484C17.1924 87.2391 17.3319 87.4527 17.5413 88.1145C17.6512 88.4592 18.0403 88.7933 18.3935 89.0661C17.2156 89.3896 16.0526 89.8274 15.5113 89.9331C14.5999 90.1086 12.0095 90.9481 12.7792 92.2084C13.5489 93.4687 17.1205 93.75 18.662 93.4687C20.2036 93.1875 22.1638 94.0841 22.1638 94.0841C22.1638 94.0841 38.939 104.866 43.5509 104.811C52.6564 104.706 68.019 99.1168 69.753 98.0194C71.4849 96.924 72.6162 90.7324 67.5771 89.6201Z" fill="#EFD7BA"/>
<path d="M4.3814 89.9105C4.3814 89.9105 5.92718 87.466 6.43257 87.3666C7.97412 87.0621 7.97412 89.0921 7.64635 90.4011C7.29533 91.8052 6.10903 93.131 5.78127 93.0147C5.45139 92.8984 4.01769 91.2025 4.3814 89.9105Z" fill="#EFD7BA"/>
<path d="M4.32075 90.3926C4.32075 90.3926 3.82593 93.1331 6.42901 94.5647L4.32075 90.3926Z" fill="#EFD7BA"/>
<path d="M56.5771 93.5103C56.5771 93.5103 58.4866 99.5559 65.044 100.93C65.044 100.93 75.8729 97.5936 70.4807 90.2157C70.4828 90.2157 65.1519 86.2551 56.5771 93.5103Z" fill="#E0A34E"/>
<path d="M136.866 177.445H74.2271V151.953H137.549C143.341 151.953 148.037 156.65 148.037 162.442V166.275C148.035 172.444 143.034 177.445 136.866 177.445Z" fill="#993830"/>
<path d="M76.0078 177.445H3.83203V151.953H76.2383C81.8673 151.953 86.4307 156.516 86.4307 162.146V167.02C86.4307 172.778 81.7637 177.445 76.0078 177.445Z" fill="#FCECDB"/>
<path d="M91.019 177.451H1.61979C0.72531 177.451 0 176.726 0 175.832V175.258C0 174.364 0.72531 173.639 1.61979 173.639H91.019C91.9135 173.639 92.6388 174.364 92.6388 175.258V175.832C92.6388 176.726 91.9135 177.451 91.019 177.451Z" fill="#993830"/>
<path d="M91.019 155.766H1.61979C0.72531 155.766 0 155.04 0 154.146V153.573C0 152.678 0.72531 151.953 1.61979 151.953H91.019C91.9135 151.953 92.6388 152.678 92.6388 153.573V154.146C92.6388 155.04 91.9135 155.766 91.019 155.766Z" fill="#993830"/>
<path d="M3.83203 164.695L13.8468 165.125L3.83203 165.383V164.695Z" fill="#F4D2B8"/>
<path d="M3.83203 168.699L27.6573 169.126L3.83203 169.384V168.699Z" fill="#F4D2B8"/>
<path d="M172.165 60.1657L162.867 170.732C162.867 170.732 161.892 177.433 166.878 177.446C175.075 177.465 207.678 177.446 207.678 177.446C207.678 177.446 201.509 176.05 201.583 172.912C201.672 169.212 212.452 59.1211 212.452 59.1211L172.165 60.1657Z" fill="#936F53"/>
<path d="M74.3301 0L96.9817 90.9809L100.082 103.442L110.632 145.817H306.622L267.738 0H74.3301Z" fill="#D9AB77"/>
<path d="M74.3305 0L71.1924 1.04673L106.46 148.982L110.632 145.819L74.3305 0Z" fill="#936F53"/>
<path d="M106.46 148.984H301.243L306.622 145.82H110.632L106.46 148.984Z" fill="#936F53"/>
<path d="M196.728 116.298L110.632 145.818L100.082 103.441L196.728 116.298Z" fill="#D9AB77"/>
<path d="M74.3306 0H267.739L299.119 117.191H102.51L74.3306 0Z" fill="#E7C59E"/>
<path d="M213.823 132.005C213.264 129.131 210.482 126.801 207.608 126.801C204.734 126.801 202.856 129.131 203.415 132.005C203.973 134.879 206.756 137.209 209.629 137.209C212.503 137.209 214.381 134.879 213.823 132.005Z" fill="#936F53"/>
<path d="M289.997 112.115H108.909L88.4011 30.4175L86.83 24.1519L85.4872 18.8083L82.3428 6.2793H260.822L264.275 18.8083L265.749 24.1519L267.474 30.4175L289.997 112.115Z" fill="#FCECDB"/>
<g clip-path="url(#clip0)">
<path d="M216.771 79.4522C224.657 73.219 230.65 67.9383 234.748 63.6098C238.9 59.2286 241.88 55.4954 243.69 52.41C245.5 49.3246 246.509 46.7546 246.715 44.6999C246.92 42.5925 247.021 40.6698 247.017 38.9317C247.013 37.1935 246.667 35.4298 245.978 33.6405C245.29 31.8513 244.285 30.2339 242.965 28.7885C241.645 27.343 240.062 26.1483 238.216 25.2044C236.318 24.2606 234.184 23.7915 231.814 23.7969C229.443 23.8023 227.311 24.3338 225.418 25.3916C223.577 26.4492 221.999 27.6115 220.685 28.8786C219.371 30.1458 218.373 31.3068 217.691 32.3618C217.008 33.4168 216.667 33.9442 216.667 33.9442C216.667 33.9442 216.324 33.4183 215.637 32.3664C214.949 31.3146 213.946 30.1581 212.626 28.897C211.307 27.6359 209.724 26.4807 207.878 25.4315C205.98 24.3823 203.845 23.8605 201.475 23.8659C199.105 23.8713 196.973 24.3502 195.079 25.3026C193.237 26.2548 191.66 27.4567 190.346 28.9082C189.033 30.3596 188.036 31.9815 187.355 33.7739C186.675 35.5663 186.336 37.3315 186.34 39.0697C186.344 40.8079 186.454 42.7301 186.669 44.8365C186.885 46.8902 187.904 49.4556 189.729 52.5327C191.553 55.6099 194.55 59.3295 198.721 63.6918C202.84 68.0015 208.856 73.2549 216.771 79.4522Z" fill="#D3665D"/>
</g>
<path d="M264.275 18.8083H85.4872L82.3428 6.2793H260.822L264.275 18.8083Z" fill="#FCECDB"/>
<path d="M89.727 11.9439C89.5113 11.079 90.0379 10.377 90.9028 10.377C91.7676 10.377 92.6431 11.079 92.8588 11.9439C93.0745 12.8087 92.5479 13.5108 91.683 13.5108C90.8182 13.5087 89.9427 12.8087 89.727 11.9439Z" fill="#A9453D"/>
<path d="M94.9307 11.9419C94.715 11.077 95.2415 10.375 96.1064 10.375C96.9712 10.375 97.8467 11.077 98.0624 11.9419C98.2781 12.8068 97.7515 13.5088 96.8867 13.5088C96.0218 13.5067 95.1463 12.8068 94.9307 11.9419Z" fill="#A9453D"/>
<path d="M100.535 11.9419C100.319 11.077 100.846 10.375 101.711 10.375C102.576 10.375 103.451 11.077 103.667 11.9419C103.883 12.8068 103.356 13.5088 102.491 13.5088C101.626 13.5067 100.751 12.8068 100.535 11.9419Z" fill="#A9453D"/>
<path d="M156.382 40.873C156.373 40.873 156.373 40.873 156.364 40.873C139.838 40.873 126.431 54.2625 126.422 70.7971C126.413 87.3317 139.811 100.748 156.337 100.757C156.346 100.757 156.355 100.757 156.355 100.757C172.881 100.757 186.288 87.3676 186.297 70.833C186.315 54.2984 172.916 40.882 156.382 40.873Z" fill="#6A8A69"/>
<path d="M182.676 61.4967C181.238 54.0652 176.978 48.1163 171.11 44.7734C173.087 45.9866 174.399 46.7953 176.655 48.8352C178.659 50.8211 178.821 50.9829 179.998 52.4746C181.705 54.847 181.804 54.9907 182.667 56.5633C184.006 59.2772 184.059 59.385 184.635 61.0385L185.084 62.4493L185.183 62.7997C186.108 66.538 185.641 67.5355 185.641 67.5445C185.282 66.2594 185.425 64.8935 185.039 63.6085C184.644 62.2875 184.006 61.0744 183.493 59.7984C183.502 59.8343 183.511 59.8882 183.529 59.9242C183.278 59.8163 182.999 59.3041 182.999 59.3041C183.098 60.1129 183.206 61.0295 182.846 61.5237C182.81 61.5237 182.765 61.5237 182.73 61.5327C182.712 61.5147 182.685 61.5057 182.676 61.4967Z" fill="white"/>
<path d="M146.084 75.7129C146.057 75.8657 145.868 75.8657 145.724 75.8477C145.697 75.8028 145.671 75.7668 145.644 75.7129C145.742 75.7129 146.075 75.7219 146.075 75.623C146.084 75.659 146.084 75.686 146.084 75.7129Z" fill="white"/>
<path d="M142.831 74.4727C142.813 74.4545 142.785 74.418 142.813 74.418C142.813 74.418 142.822 74.418 142.831 74.418V74.4727Z" fill="white"/>
<path d="M139.416 76.0184C139.263 75.9375 139.146 75.8477 139.102 75.8117C139.2 75.7668 139.272 75.7578 139.326 75.7578C139.362 75.7668 139.38 75.7758 139.407 75.8297C139.434 75.8926 139.425 75.9645 139.434 76.0274C139.425 76.0184 139.416 76.0184 139.416 76.0184Z" fill="white"/>
<path d="M137.358 73.9243C137.34 73.9423 137.322 73.9513 137.304 73.9603C137.313 73.9513 137.331 73.9333 137.358 73.9243ZM138.553 64.0395C138.553 64.0395 138.473 64.1204 138.464 64.1204C138.464 64.1114 138.553 64.0395 138.553 64.0395ZM153.399 54.7658C153.399 54.7658 153.399 54.7568 153.399 54.7658C153.327 54.7837 153.3 54.8197 153.291 54.8287C153.3 54.8287 153.3 54.8287 153.3 54.8287C153.327 54.8017 153.363 54.7837 153.399 54.7658ZM139.776 51.0185C139.731 51.0545 139.686 51.0724 139.641 51.0994L139.623 51.1084C139.668 51.0814 139.713 51.0365 139.776 51.0185ZM140.306 49.0505C140.261 49.0415 140.225 49.0415 140.189 49.0415C140.225 49.0415 140.27 49.0415 140.306 49.0505ZM152.761 51.0814C152.752 51.1174 152.689 51.1623 152.68 51.1623C152.671 51.1533 152.761 51.0724 152.761 51.0814ZM150.388 50.2816C150.334 50.2727 150.289 50.2457 150.262 50.2277C150.235 50.2008 150.2 50.1738 150.173 50.1379C150.137 50.0929 150.119 50.075 150.101 50.075C150.244 50.066 150.253 50.075 150.388 50.2816ZM149.741 49.428C149.714 49.428 149.687 49.392 149.714 49.374C149.714 49.374 149.714 49.374 149.723 49.374C149.723 49.383 149.75 49.419 149.741 49.428ZM151.233 49.1763C151.188 49.2123 151.062 49.3111 150.981 49.419C151.008 49.1943 151.071 49.1853 151.251 49.1674C151.251 49.1674 151.251 49.1674 151.233 49.1763ZM149.301 50.8208C149.31 50.8208 149.31 50.8208 149.301 50.8208C149.31 50.8208 149.301 50.8208 149.301 50.8208ZM146.758 60.0137C146.767 60.0137 146.767 60.0227 146.758 60.0137C146.767 60.0227 146.758 60.0137 146.758 60.0137ZM151.215 50.9646C151.215 50.9646 151.224 50.9646 151.215 50.9646V50.9646ZM151.817 50.677C151.817 50.6681 151.835 50.6501 151.835 50.6411L151.826 50.6501C151.817 50.6591 151.817 50.6681 151.817 50.677ZM155.106 50.2547C155.043 50.0929 155.043 50.0929 154.441 49.5538C154.504 49.4729 154.639 49.41 154.747 49.383C154.72 49.3471 154.684 49.2932 154.657 49.2482C154.666 49.2303 154.666 49.2213 154.666 49.2033C154.711 49.1943 154.773 49.1763 154.818 49.1674C154.639 49.0056 154.567 48.754 154.36 48.6192C154.315 48.6372 154.261 48.6641 154.216 48.6821C154.091 48.4844 154.082 48.2238 153.938 48.0261C153.848 48.0171 153.713 48.0531 153.632 48.098C153.632 48.1429 153.632 48.2058 153.632 48.2598C153.677 48.2598 153.74 48.2598 153.794 48.2598C153.668 48.3137 153.488 48.3766 153.354 48.4305C153.605 48.116 153.605 48.116 153.65 48.0081C153.56 47.9992 153.084 47.9722 152.608 48.4305C152.635 48.4664 152.671 48.5203 152.689 48.5563C152.662 48.5743 152.617 48.6012 152.59 48.6192C152.581 48.5743 152.572 48.5024 152.563 48.4485C152.859 48.1609 152.877 48.1429 153.219 47.9542C153.165 47.9362 153.084 47.9183 153.021 47.9003C152.716 47.9812 152.176 48.1699 151.898 48.5653C151.952 48.5833 152.024 48.6012 152.078 48.6192C152.024 48.6192 151.961 48.6282 151.907 48.6372C151.88 48.6821 151.844 48.736 151.817 48.772C151.943 48.8798 152.033 48.9607 152.527 49.0056C152.5 49.0236 152.473 49.0595 152.437 49.0865C151.97 49.3651 151.844 49.419 151.44 49.5627C151.467 49.5268 151.511 49.4819 151.547 49.4459C151.449 49.5178 151.305 49.6167 151.197 49.6886C151.161 49.6616 151.116 49.6167 151.089 49.5807C151.449 49.3021 151.449 49.2932 151.52 49.1045C151.476 49.1045 151.413 49.1045 151.359 49.1045C151.341 49.0685 151.305 49.0146 151.287 48.9697C151.233 48.9607 151.179 48.9607 151.134 48.9607C151.547 48.5743 151.547 48.5743 151.511 48.3496C152.141 48.1968 152.293 48.1429 152.536 48.0081C152.518 48.0081 150.82 48.2597 150.631 48.8888C150.676 48.9068 150.739 48.9247 150.784 48.9427C150.46 49.2752 149.858 49.5807 149.849 49.5807C149.912 49.4909 150.011 49.392 150.101 49.3291C150.074 49.2932 150.029 49.2482 150.002 49.2213C150.226 49.1584 150.316 49.1314 150.577 49.0236C150.559 48.9786 150.541 48.9247 150.523 48.8888C150.029 48.8618 149.957 48.9337 149.831 49.0685C149.876 49.0775 149.939 49.0865 149.984 49.0955C149.346 49.5088 149.085 49.3111 148.914 49.1853C148.941 49.1404 148.968 49.0775 148.995 49.0326C148.726 48.727 148.483 48.8888 148.393 48.9697C148.258 49.2482 148.232 49.2572 148.043 49.401C148.034 49.392 148.016 49.374 148.007 49.3561C148.079 49.2482 148.178 49.1134 148.258 49.0146C147.549 49.0146 147.549 49.0146 147.414 48.9876C147.477 48.9247 147.611 48.8798 147.701 48.8798C147.737 48.8259 147.782 48.763 147.809 48.7091C147.8 48.6551 147.773 48.5833 147.764 48.5383C147.531 48.4125 147.225 48.4664 147.009 48.2867L147.243 48.1519C147.081 48.1429 147.081 48.1429 146.758 48.2418C146.839 48.1609 146.955 48.0531 147.036 47.9812C147.036 47.9542 147.036 47.9273 147.036 47.9003C146.668 48.089 146.497 48.1789 144.718 47.1634C144.152 46.8399 143.747 46.6243 143.325 46.6782C142.741 46.7411 142.489 47.4061 141.905 47.478C141.932 47.442 141.968 47.3881 141.995 47.3521C141.537 47.1814 141.366 47.2803 141.267 47.3432C141.276 47.415 141.276 47.415 141.276 47.415C140.989 47.4869 140.989 47.4869 140.899 47.6577C140.98 47.7206 141.114 47.7655 141.213 47.7925C139.425 48.116 139.425 48.116 138.877 48.5563C138.994 48.5563 139.164 48.5383 139.272 48.4934C139.03 48.6012 138.778 48.7091 138.544 48.8259C138.598 48.9068 138.715 48.9876 138.814 49.0056C138.67 49.0955 138.67 49.0955 136.765 49.4998C136.864 49.5538 137.026 49.6436 138.598 49.4998C138.293 49.5807 138.194 49.5987 138.086 49.7155C138.419 49.8413 138.76 49.6616 138.931 49.5358C138.868 49.5178 138.787 49.5088 138.733 49.4909C139.937 49.0595 139.937 49.0595 140.153 49.0326C139.443 49.2842 139.443 49.2842 139.326 49.3381C139.632 49.2842 139.91 49.428 140.207 49.4459C140.189 49.4639 140.171 49.4729 140.153 49.4909C140.207 49.4819 140.288 49.4639 140.342 49.4549C140.297 49.5448 140.225 49.6526 140.153 49.7245C140.476 49.7335 140.476 49.7335 140.593 49.8952C140.234 50.6681 139.425 51.0365 138.967 51.7194C139.209 51.6745 139.209 51.6745 139.641 51.333C139.281 51.7194 138.311 52.7439 137.978 53.283C137.969 53.2291 137.969 53.1572 137.96 53.1033C137.915 53.0943 137.861 53.0764 137.817 53.0674C133.099 58.4681 133.099 58.4681 132.64 60.5529C132.227 62.4579 132.164 62.5837 131.886 62.6826C131.94 62.8803 131.949 62.9073 131.832 63.6711C131.625 65.0819 131.562 65.702 131.751 65.8457C132.362 64.399 132.065 62.7185 132.874 61.3077C133.09 61.5144 133.081 61.5953 132.748 62.1973C132.389 62.8623 131.993 66.8252 132.874 69.1796C132.964 69.4133 133.162 69.6739 133.305 69.8716C134.105 70.9499 134.105 70.9499 136.567 72.6303C137.745 73.4301 136.693 75.1195 137.861 75.9193C137.924 75.8384 138.014 75.7485 138.095 75.6946C138.14 75.7216 138.203 75.7485 138.248 75.7665C138.266 75.8114 138.284 75.8743 138.302 75.9193C138.257 75.9462 138.212 75.9732 138.176 76.0001C138.167 76.0451 138.167 76.108 138.158 76.1529C138.194 76.1799 138.248 76.2248 138.284 76.2607C138.535 76.1439 138.76 75.9912 139.003 75.8653C138.724 75.1734 138.158 74.6432 137.906 73.9333C137.691 73.3043 137.987 72.6034 137.655 71.9923C137.403 71.525 136.873 71.4891 136.496 71.2015C136.514 71.1835 137.951 68.8471 137.664 68.3978C136.72 68.263 136.81 69.7547 135.831 69.557C135.813 69.557 134.725 69.2156 134.671 67.7778C134.662 67.607 136.639 64.1743 137.502 63.7879C137.951 63.5812 138.185 63.752 138.383 64.4439L138.544 64.4708C138.823 64.2732 139.155 64.1384 139.416 63.9047C139.91 64.5607 139.91 64.5607 140.342 67.1937C140.423 67.1757 140.53 67.1487 140.62 67.1308C141.168 66.0884 141.285 64.8662 141.977 63.8778C142.498 63.1409 143.487 63.051 144.062 62.395C144.502 61.9008 144.547 61.1819 145.023 60.7056C145.059 60.6697 145.14 60.6607 145.185 60.6427C144.7 61.3976 144.673 61.4695 144.601 61.7301C144.844 61.5953 144.898 61.5593 145.32 60.7685C145.329 60.8225 145.347 60.8854 145.356 60.9393C145.742 60.49 146.228 60.1934 146.479 60.0496C146.47 60.0407 146.461 60.0407 146.452 60.0317C146.569 60.0227 146.677 59.9688 146.803 60.0137C146.875 59.9508 146.991 59.8969 147.081 59.8699C147.117 59.8969 147.171 59.9418 147.207 59.9688C147.522 59.9059 147.522 59.9059 147.674 59.7801C147.674 59.7351 147.665 59.6722 147.665 59.6273C147.629 59.6542 147.576 59.6812 147.531 59.7082C147.504 59.6722 147.468 59.6183 147.432 59.5824C147.495 59.4116 147.495 59.4116 148.618 58.6388C148.591 58.6748 148.546 58.7197 148.519 58.7466C148.914 58.6568 149.786 58.3063 150.047 58.1985C150.002 58.2344 149.957 58.2704 149.912 58.3063C149.957 58.3243 150.02 58.3423 150.065 58.3602C149.247 58.9354 149.247 58.9354 149.229 59.0971C149.948 59.0522 151.323 58.1086 151.61 57.7671C151.341 57.6863 151.143 57.6324 150.793 57.848C150.748 57.7492 150.748 57.7492 150.649 57.2459C150.406 57.237 150.325 57.228 150.083 57.183C150.083 57.1741 150.074 57.1561 150.074 57.1471C150.226 57.1651 150.523 57.192 150.945 56.7697C150.909 56.7337 150.864 56.6888 150.829 56.6529C150.164 56.7158 148.995 57.2909 148.645 57.4706C150.343 56.4102 154.72 56.9764 153.758 54.3164C153.641 54.2895 153.488 54.2625 153.372 54.2356C152.994 53.5436 153.848 52.9056 153.444 52.2137C153.165 52.4743 152.635 52.9236 152.248 52.9865C152.239 52.9416 152.23 52.8787 152.221 52.8337C152.257 52.4383 152.275 52.3934 152.392 52.0879C152.347 52.007 152.257 51.9171 152.176 51.8722C152.203 51.8183 152.239 51.7554 152.266 51.7105C151.538 50.7579 150.864 51.7913 150.424 52.4743C149.013 54.6489 147.459 55.4397 147.441 55.4487C147.414 55.3948 147.378 55.3319 147.351 55.287C147.567 54.6939 147.989 54.1277 148.16 53.9121C148.151 53.8761 148.133 53.8222 148.124 53.7863C147.773 53.4178 147.162 53.0045 146.749 52.8697C147.036 52.5552 147.072 52.5012 147.225 52.3125C147.189 52.2946 147.135 52.2586 147.099 52.2406C147.099 52.1957 147.09 52.1328 147.09 52.0879C147.692 51.6386 148.923 50.9287 149.319 50.8028C149.319 50.7939 149.319 50.7759 149.319 50.7579C149.238 50.722 149.13 50.6591 149.049 50.6141C149.445 50.713 149.445 50.713 150.936 50.1379C150.622 50.3895 150.307 50.6411 149.984 50.8837C151.089 51.0545 151.089 51.0545 151.233 50.9556C151.17 50.8568 151.17 50.8568 151.125 50.1379C151.08 50.1738 151.026 50.2187 150.981 50.2547C150.99 50.1828 151.017 50.0839 151.026 50.0031C151.071 50.039 151.125 50.075 151.161 50.1109C151.17 50.1558 151.17 50.2277 151.179 50.2727C151.61 49.8863 152.32 49.8233 152.473 49.1224C152.949 49.1763 153.093 49.1943 153.201 48.8798C153.219 48.9786 153.255 49.1134 153.291 49.2123C153.255 49.2482 153.21 49.2932 153.183 49.3291C153.201 49.374 153.228 49.428 153.246 49.4729C153.3 49.4729 153.354 49.4729 153.408 49.4729C153.354 49.5627 153.282 49.6886 153.228 49.7784C153.318 49.7335 153.426 49.6436 153.47 49.5627C153.479 49.6257 153.479 49.6975 153.479 49.7604C153.264 49.9941 153.003 50.1828 152.814 50.4434C151.907 50.5333 151.907 50.5333 151.853 50.6141C152.653 50.6501 152.743 51.6655 153.47 51.7913C153.461 51.5667 153.461 51.5667 153.309 51.1533C153.3 51.1084 153.3 51.1084 153.3 51.1084C153.515 51.2432 153.587 51.5217 153.839 51.6206C153.884 51.4678 153.884 51.2971 153.965 51.1623C153.992 51.2072 154.019 51.2522 154.037 51.2971C154.055 50.686 154.055 50.686 153.929 50.4793C154.288 50.2906 154.756 50.5692 155.106 50.2547Z" fill="white"/>
<path d="M138.464 64.7852C138.356 64.7043 138.401 64.6145 138.437 64.5605C138.446 64.6055 138.446 64.6504 138.446 64.7043C138.455 64.7493 138.455 64.7762 138.464 64.7852Z" fill="white"/>
<path d="M152.518 52.0152C152.509 52.0422 152.464 52.0332 152.437 52.0242C152.464 52.0063 152.482 51.9973 152.518 51.9883V51.9973C152.518 52.0063 152.518 52.0063 152.518 52.0152Z" fill="white"/>
<path d="M148.915 97.9161C148.816 97.8622 148.789 97.8263 148.807 97.8263C148.816 97.8263 148.87 97.8442 148.933 97.9251C148.933 97.9161 148.924 97.9161 148.915 97.9161ZM142.48 75.5854C142.418 75.6843 142.355 75.7741 142.283 75.864C142.274 75.873 142.274 75.882 142.265 75.891C142.265 75.891 142.265 75.891 142.265 75.882C142.229 75.9359 142.202 75.9808 142.157 76.0258C142.184 75.9898 142.462 75.6034 142.48 75.5854ZM155.439 85.7308C155.537 85.2636 155.762 84.4189 155.367 84.1493C154.163 83.3225 154.693 83.4753 153.372 83.035C153.381 82.6306 153.372 82.6037 153.264 82.352C151.628 82.0106 151.628 82.0106 151.215 82.7474C151.197 82.6755 148.861 76.0347 147.297 77.9218C147.333 76.9064 145.859 75.864 145.383 75.7652C143.909 75.2619 143.002 74.597 142.84 74.4622C142.831 74.4801 142.804 74.5161 142.795 74.5341C142.552 74.8036 142.507 74.8486 142.211 75.0732C142.166 74.9923 142.112 74.8755 142.094 74.7857C142.462 74.4801 142.462 74.4801 142.471 74.4532C142.346 74.1027 142.202 74.1297 141.86 74.1926C141.043 74.6958 140.692 75.6304 139.964 76.2145C139.776 76.1606 139.74 76.1516 139.515 76.0437C139.506 76.1875 139.506 76.1875 139.776 78.3622C138.023 79.108 139.021 82.9092 139.56 84.1313C139.569 84.1493 140.836 86.5306 141.708 87.564C142.409 88.3908 143.424 88.8221 144.17 89.5949C144.862 90.3228 144.835 90.5295 144.772 91.3023C144.727 91.8325 145.293 93.5938 146.461 95.373C147.171 96.4514 148.16 97.3051 148.169 97.3141C148.133 97.1703 148.133 97.1703 147.944 96.8827C147.962 96.8827 147.989 96.8917 148.016 96.8917C148.016 96.9007 148.447 97.2691 148.609 97.6016C148.528 97.5477 148.42 97.4848 148.339 97.4399C148.663 97.9071 148.663 97.9071 148.771 98.0599C149.589 98.1318 150.038 98.8237 150.676 99.1922C150.64 99.1832 150.586 99.1742 150.55 99.1652C150.909 99.4348 152.707 99.7673 152.725 99.7673C152.743 99.7313 152.761 99.6774 152.77 99.6415C150.254 98.68 150.28 97.4309 150.289 97.377C150.37 97.377 150.478 97.4129 150.541 97.4578C150.343 97.2332 150.02 97.1882 149.84 96.9546C150.397 96.7479 150.424 96.6581 150.46 96.5233C150.415 96.5143 150.361 96.5053 150.325 96.4873C151.17 96.3435 151.17 96.3435 151.341 96.2537C150.694 95.5168 150.694 95.5168 150.649 95.4449C150.631 95.409 150.613 95.3461 150.595 95.3101C150.622 95.3641 150.649 95.4449 150.685 95.4988C151.512 96.1279 151.916 94.6811 152.653 94.5014C152.913 93.9622 153.039 93.3601 153.327 92.8299C153.74 92.0751 153.857 92.0212 154.315 91.7786C155.439 91.2124 155.439 85.7308 155.439 85.7308Z" fill="white"/>
<path d="M142.292 75.8477L142.283 75.8568C142.274 75.8659 142.274 75.875 142.265 75.8842L142.292 75.8477Z" fill="white"/>
<path d="M154.162 50.9304C154.162 50.9395 154.153 50.9395 154.153 50.9486C154.153 50.9395 154.153 50.9212 154.153 50.9121C154.162 50.9121 154.162 50.9121 154.162 50.9212V50.9304Z" fill="white"/>
<path d="M161.396 47.7834C161.396 47.7923 161.396 47.7923 161.396 47.7834C161.396 47.7923 161.396 47.7923 161.396 47.7834ZM157.137 49.1133C157.119 49.1583 157.092 49.1852 157.065 49.2212C157.011 49.1762 156.948 49.1582 156.903 49.1043C156.903 49.1043 157.146 49.0774 157.137 49.1133ZM161.01 48.026C160.938 48.1248 160.929 48.1338 160.974 48.1788C160.92 48.1338 160.848 48.0889 160.794 48.044C160.803 48.017 160.965 47.999 161.01 48.026C161.01 48.017 161.01 48.017 161.01 48.026ZM155.825 47.1813C155.816 47.1813 155.816 47.1813 155.816 47.1813C155.807 47.1813 155.798 47.1813 155.789 47.1813C155.807 47.1723 155.825 47.1723 155.825 47.1813ZM161.396 46.058C161.396 46.0131 161.351 45.9682 161.333 45.9232C161.199 45.9861 160.641 45.9232 160.578 45.9142C160.587 45.9682 160.614 46.0221 160.614 46.085C160.596 46.094 160.561 46.094 160.534 46.094C160.498 45.9951 160.498 45.9951 160.219 46.0221C160.3 45.9592 160.426 45.9682 160.48 45.8603C160.363 45.7435 160.363 45.7435 159.428 45.9232C159.491 45.8783 159.491 45.8783 159.5 45.8423C159.455 45.7705 159.41 45.7615 159.284 45.7705C158.997 45.8334 158.736 45.9951 158.44 46.049C158.386 46.058 158.386 46.058 158.233 45.9771C158.269 46.1299 158.44 46.076 158.53 46.1569C158.521 46.1658 158.503 46.1748 158.503 46.1838C157.981 46.067 157.981 46.067 157.99 46.1299C157.999 46.1658 158.026 46.1838 158.098 46.2108C158.044 46.2287 158.044 46.2287 157.937 46.2287C156.723 46.2917 156.364 46.5702 156.364 46.5702C156.364 46.5792 156.373 46.5882 156.373 46.5972C156.436 46.6062 156.49 46.5882 156.553 46.5792C156.553 46.6152 156.553 46.6601 156.553 46.696C156.22 46.8847 155.762 46.6421 155.501 47.0195C155.537 47.0645 155.537 47.0645 155.735 47.1723C155.51 47.2172 155.51 47.2172 155.501 47.2172C155.501 47.2172 155.438 47.379 155.555 47.4599C155.672 47.5497 155.96 47.5228 156.166 47.4958C156.4 47.4688 156.589 47.4509 156.687 47.4958C156.822 47.5677 156.777 47.7205 156.84 47.8283C156.678 48.1608 156.867 48.2147 156.867 48.2147C156.876 48.2147 156.894 48.2057 156.903 48.1967C156.858 48.2956 156.768 48.3675 156.732 48.4663C156.768 48.4483 156.795 48.4304 156.831 48.4034C156.732 48.5562 156.562 48.8347 156.831 48.7808C156.903 48.7629 156.993 48.655 157.029 48.6101C157.02 48.8168 157.083 48.9066 157.227 48.8977C157.236 48.9246 157.236 48.9516 157.236 48.9785C157.182 48.9875 157.182 48.9875 156.939 48.7539C156.759 48.7988 156.526 49.293 156.607 49.3559C156.625 49.3649 156.705 49.4099 156.957 49.347C156.499 49.9311 156.481 50.003 156.508 50.1198C156.526 50.1288 156.553 50.1377 156.571 50.1467C156.22 51.0184 156.472 51.306 157.281 52.2585C157.981 52.0069 159.626 50.5062 160.03 49.4728C160.587 49.9221 161.181 49.2391 161.486 48.8707C161.468 48.8797 161.459 48.8707 161.45 48.8617C161.27 48.8437 161.082 48.8797 160.893 48.8887C161.127 48.8258 161.387 48.9246 161.612 48.7898C161.594 48.7179 161.576 48.655 161.019 48.2147C161.19 48.2956 161.414 48.3315 161.36 48.1608C161.333 48.0889 161.333 48.0889 161.055 47.9721C161.154 47.9002 161.315 47.9271 161.387 47.7923C161.36 47.7923 161.333 47.7744 161.315 47.7654C161.513 47.6755 161.513 47.6755 161.531 47.6126C161.513 47.5767 161.513 47.5767 161.324 47.5228C161.441 47.2711 161.091 47.2172 161.028 47.0285C161.109 47.0105 161.252 47.1004 161.36 47.1813C161.36 47.1723 161.351 47.1633 161.351 47.1453C161.297 46.9207 161.297 46.9207 161.261 46.8847C161.19 46.8218 161.1 46.9027 161.028 46.8488C161.064 46.8578 161.109 46.8668 161.154 46.8668C161.163 46.8578 161.172 46.8488 161.172 46.8398C161.019 46.6062 160.956 46.696 160.884 46.8308C160.866 46.8488 160.866 46.8488 160.866 46.8488C160.794 46.5882 160.776 46.5163 161.118 46.3186C161.333 46.2108 161.405 46.1569 161.396 46.058Z" fill="white"/>
<path d="M161.406 47.2279C161.415 47.2462 161.397 47.2462 161.397 47.2462C161.387 47.2371 161.369 47.2097 161.369 47.1914C161.378 47.2005 161.397 47.2097 161.406 47.2279Z" fill="white"/>
<path d="M168.387 54.3345C168.405 54.3974 168.405 54.3974 168.423 54.8647C168.54 54.8647 168.783 54.8736 168.558 55.0624C168.136 55.4308 167.561 55.4488 167.102 55.7273C167.084 55.6375 167.084 55.6375 167.597 55.0354C167.516 55.0713 167.138 55.1432 167.004 55.0174C166.977 54.9995 167.013 54.8826 167.04 54.8107C167.093 54.649 167.093 54.631 167.102 54.5681C166.887 54.5412 166.887 54.5412 166.833 54.4154C166.833 54.4154 166.842 54.4243 166.842 54.4333C166.932 54.3614 166.932 53.8852 166.878 53.6605C166.761 53.7504 166.608 53.8133 166.545 53.7773C166.518 53.7594 166.518 53.7324 166.491 53.5707C166.464 53.4359 166.455 53.4179 166.446 53.3999C166.393 53.6515 166.393 53.6515 166.357 53.6785C166.321 53.6605 166.321 53.6605 166.24 53.337C166.177 53.5707 166.177 53.5707 166.123 53.5077C165.997 53.373 166.204 53.2561 166.177 53.1124C166.15 53.1213 166.141 53.1303 166.132 53.2112C166.123 53.2921 166.114 53.3011 166.096 53.328C166.006 53.2112 166.033 53.0674 165.997 52.9416C165.961 53.0405 166.024 53.1663 165.934 53.2471C165.808 53.1213 165.826 52.9326 165.728 52.7978C166.168 52.6451 165.997 52.1778 166.186 51.9082L166.294 51.9441C166.419 52.1059 166.321 52.5372 166.285 52.6001C166.339 52.6361 166.366 52.6361 166.482 52.5372C166.59 52.4474 166.662 52.4564 166.743 52.5462C166.752 52.5642 167.893 54.1907 168.037 54.2895C168.145 54.2266 168.325 54.1188 168.387 54.3345Z" fill="white"/>
<path d="M169.008 45.3832C169.035 45.3922 169.062 45.4102 169.088 45.4281L169.017 45.3922C168.999 45.3832 168.981 45.3742 168.972 45.3652C168.981 45.3652 168.99 45.3742 169.008 45.3832Z" fill="white"/>
<path d="M171.066 46.1572C171.057 46.1662 170.949 46.1213 170.85 46.0853C170.67 46.0134 170.571 45.9685 170.508 45.9595H170.517C170.526 45.9595 170.589 45.9595 170.841 46.0673C170.895 46.0943 170.958 46.1123 171.012 46.1392C171.03 46.1392 171.048 46.1482 171.066 46.1572C171.075 46.1572 171.075 46.1572 171.066 46.1572ZM170.499 45.9595C170.526 46.0673 170.526 46.0673 170.886 46.265C171.596 46.6604 171.596 46.7413 171.605 46.7683C171.578 46.7862 171.524 46.7862 171.371 46.7413C171.416 46.6245 170.805 46.2471 169.924 45.8607C170.221 45.9685 170.374 45.9954 170.499 45.9595ZM169.673 45.5102C169.673 45.5192 169.682 45.5282 169.673 45.5372C169.664 45.5461 169.664 45.5461 169.655 45.5461C169.664 45.5372 169.664 45.5192 169.673 45.5102ZM171.11 44.7733C170.23 44.2701 169.313 43.8298 168.361 43.4434C168.271 43.4254 168.145 43.4074 168.055 43.3984C168.244 43.5602 168.433 43.7309 168.621 43.9017C168.531 43.8837 168.424 43.8567 168.343 43.8298C168.558 43.9915 168.792 44.1083 169.017 44.2611C167.875 43.695 167.875 43.695 167.714 43.6501C167.66 43.695 167.597 43.7489 167.543 43.7938C168.379 44.7643 168.379 44.7643 168.756 44.8542C168.9 45.1597 168.9 45.1597 169.412 45.2226C169.34 45.2406 169.241 45.2766 169.169 45.2945C169.241 45.3215 169.331 45.3664 169.403 45.3934C169.448 45.5102 169.457 45.5192 169.475 45.5282C169.376 45.5102 169.259 45.4742 169.16 45.4653C169.304 45.5461 169.493 45.654 169.637 45.7438C169.044 45.5102 169.044 45.5102 168.666 45.4293C169.169 45.8966 169.601 46.0494 169.879 46.1392C170.032 46.2291 170.266 46.31 170.445 46.3369C170.221 46.3908 169.915 46.4358 169.682 46.4268C169.825 46.5166 170.023 46.6245 170.185 46.6964C170.095 46.6784 169.987 46.6604 169.906 46.6514C169.996 46.912 169.915 47.1996 170.005 47.4602C169.951 47.5141 169.888 47.595 169.834 47.6489C169.727 47.5321 169.511 47.4332 169.358 47.4243C169.601 47.595 169.852 47.7388 170.104 47.9005C170.104 47.9904 170.104 48.1162 170.104 48.2061C170.221 48.3139 170.374 48.4667 170.481 48.5925C170.401 48.5835 170.284 48.5745 170.203 48.5655C170.266 48.6284 170.347 48.7093 170.41 48.7812C170.005 48.7722 170.005 48.7722 169.196 48.3498C169.304 48.233 169.493 48.1162 169.646 48.0802C169.331 47.4422 168.064 47.568 167.875 47.604C167.768 47.5051 167.561 47.4243 167.408 47.4332C167.381 47.5051 167.381 47.5051 167.381 47.5051L167.264 47.3434L167.201 47.5051C167.121 47.5141 167.013 47.5141 166.932 47.5231C166.761 48.0533 166.761 48.0533 166.815 48.2869C166.752 48.3408 166.662 48.4037 166.599 48.4577C166.617 48.5296 166.644 48.6284 166.662 48.7003C166.779 48.7362 166.95 48.7902 167.067 48.8261C167.444 49.5809 166.896 50.4256 167.273 51.1895C167.399 51.4411 167.875 52.2319 168.621 51.9084C168.621 51.8095 168.63 51.6747 168.63 51.5669C169.268 52.0881 169.34 52.2229 169.843 53.1125C169.951 53.1035 170.104 53.0856 170.212 53.0766C170.463 51.5759 168.603 50.7941 168.909 49.2664C169.394 51.0008 170.481 50.5784 170.841 50.4346C170.733 50.6054 170.598 50.83 170.49 51.0008C170.526 51.1625 170.625 51.3692 170.751 51.477C170.787 51.4051 170.832 51.2973 170.868 51.2254C171.003 51.3243 171.182 51.477 171.29 51.6028C171.048 53.0316 171.048 53.0316 170.787 53.3192C170.778 53.3192 170.122 53.6786 169.781 53.2563C169.43 52.8339 169.385 52.1869 168.801 51.9353C168.846 52.2498 168.855 52.3217 169.628 53.4809C169.52 53.7595 169.232 54.4964 168.262 55.5657C168.289 55.9432 168.289 55.9791 167.804 56.3925C168.217 56.9946 169.08 57.2641 169.142 58.1448C168.594 58.639 167.597 58.4054 167.273 59.286C167.166 59.5916 167.175 59.6365 167.75 61.9459C168.549 61.9909 171.084 61.9999 170.275 60.3644C169.906 59.6185 170.931 58.1717 171.443 57.8393C172.27 57.3001 174.229 59.7893 174.184 59.8611C174.022 60.0858 173.878 60.2925 174.372 60.7598C175.127 60.4453 174.741 58.8906 174.741 58.8727C174.813 58.8906 174.912 58.9086 174.984 58.9266C174.238 58.1178 172.854 58.1088 172.431 56.8957C172.692 56.8148 172.818 56.7789 173.186 57.1204C173.375 57.3001 175.972 59.3579 176.763 59.5376C176.763 59.5197 176.772 59.5017 176.772 59.4837C176.763 59.2681 176.763 59.2681 175.846 58.4503C175.882 58.1178 175.882 58.0909 176.322 57.8752C176.394 57.9201 176.484 57.974 176.547 58.019C176.673 58.5761 176.673 58.5761 176.907 58.7379C176.925 58.8188 176.943 58.9266 176.951 58.9985C177.365 59.1063 177.5 59.4658 177.554 59.7533C177.572 59.6724 177.598 59.5736 177.616 59.5017C177.688 59.6185 177.796 59.7623 177.913 59.8342C177.895 59.7533 177.868 59.6365 177.841 59.5466C178.614 59.6185 178.946 59.1782 179.099 58.9715C180.24 60.5171 179.899 61.3439 179.764 61.5685C179.072 62.7008 177.679 62.0807 176.799 62.7367C176.799 62.8446 176.799 62.9973 176.808 63.1052C176.098 62.7727 176.098 62.7727 174.381 62.2874C174.085 62.2065 174.067 62.0178 174.013 61.3259C173.941 60.4183 173.474 60.4453 173.267 60.4632C172.063 60.5441 168.262 63.6803 168.226 63.7162C166.42 65.5854 164.739 72.8642 165.746 74.5266C168.792 79.6038 170.194 78.8759 172.728 77.555C175.451 76.1352 176.331 77.8695 176.421 78.0762L176.808 84.4743C176.475 86.5591 176.475 86.5591 174.022 93.0472C174.085 93.1011 174.175 93.173 174.247 93.2269C180.438 90.7467 185.875 77.5999 185.416 69.5932C185.183 69.6651 185.183 69.6651 184.401 70.3121C183.763 67.2388 181.409 65.0731 180.124 62.3413C180.465 62.8176 180.465 62.8176 180.708 63.1052C180.762 62.9614 180.771 62.7457 180.735 62.6019C181.49 63.6443 183.997 67.2029 184.581 69.4404C185.3 64.8754 185.3 64.8754 184.778 62.9524C184.087 62.0089 184.051 61.919 183.907 61.6135C183.916 62.1077 184.069 62.6019 183.988 63.1052C183.808 62.7996 183.7 62.4582 183.538 62.1436C183.547 62.2425 183.556 62.3683 183.565 62.4582C183.287 62.1167 182.712 61.4068 182.451 60.7328C182.532 60.7328 182.64 60.7328 182.721 60.7418C183.466 61.5775 183.466 61.5775 183.727 61.6764C183.718 61.5236 183.772 61.3259 183.844 61.2001C184.68 61.3529 184.76 61.5865 185.021 62.2784C184.904 61.901 184.76 61.4068 184.644 61.0383C183.538 58.2167 183.502 58.0999 182.676 56.5632C181.157 53.9932 181.094 53.8943 180.007 52.4745C178.192 50.2998 178.039 50.1291 176.664 48.8351C174.966 47.3793 173.636 46.2381 171.11 44.7733Z" fill="white"/>
<path d="M167.192 47.5031C167.174 47.4941 167.156 47.4852 167.138 47.4672C167.129 47.4582 167.111 47.4582 167.111 47.4492C167.12 47.4492 167.156 47.4672 167.192 47.5031Z" fill="white"/>
<path d="M177.904 59.9246C177.922 59.9695 177.886 59.9785 177.85 59.9695C177.886 59.9695 177.886 59.9336 177.886 59.8887C177.895 59.9066 177.904 59.9156 177.904 59.9246Z" fill="white"/>
<path d="M325.203 86.123C325.203 86.123 321.107 88.4512 319.959 88.4512C318.813 88.4512 314.311 87.58 313.055 88.2229C311.799 88.8657 309.528 91.4434 309.103 92.2871C308.337 93.8033 312.188 93.133 314.009 91.8431C314.273 91.6549 314.601 91.5872 314.918 91.6549C315.861 91.86 317.819 92.2173 318.764 91.8663C320.035 91.3948 326.736 90.8725 326.736 90.8725L325.203 86.123Z" fill="#B97262"/>
<path d="M320.572 170.26C320.572 170.26 320.13 177.374 318.754 177.477C318.57 177.49 311.774 177.49 311.774 177.49L303.095 177.439C303.095 177.439 303.152 175.348 305.688 174.906C308.225 174.464 312.469 172.681 314.007 169.327C315.624 165.802 320.572 170.26 320.572 170.26Z" fill="#6B848C"/>
<path d="M356.373 54.3936C356.373 54.3936 352.127 84.5775 345.094 87.2799C341.624 88.6143 326.288 91.6381 321.753 91.9405C321.753 91.9405 320.642 91.0397 320.913 87.3688C320.913 87.3688 336.98 81.4711 339.262 78.2633C342.658 73.4885 337.153 58.7602 341.414 54.2773C345.677 49.7943 352.856 47.8679 356.373 54.3936Z" fill="#5A7F5B"/>
<path d="M354.941 117.99C353.702 120.092 352.27 122.061 350.792 123.926C346.229 129.688 341.259 134.44 340.394 138.931C340.223 139.826 339.948 140.79 339.593 141.805C339.231 142.833 338.785 143.915 338.269 145.034C336.332 149.242 333.435 153.955 330.545 158.242C325.546 165.649 320.845 171.83 320.845 171.83L312.224 171.462C312.568 170.597 316.33 160.369 321.359 147.87C323.401 142.795 325.573 137.398 327.669 132.192C327.948 131.496 328.227 130.805 328.504 130.118C329.145 128.525 329.775 126.956 330.39 125.429C335.112 113.693 338.876 104.347 338.876 104.347C338.876 104.347 357.753 97.1952 359.713 101.83C361.327 105.649 360.012 109.392 354.941 117.99Z" fill="#CD9154"/>
<path d="M340.536 149.936C340.536 149.936 346.533 153.788 345.952 155.04C345.874 155.207 342.56 161.143 342.56 161.143L338.286 168.694C338.286 168.694 336.489 167.626 337.339 165.195C338.189 162.765 338.703 158.189 336.525 155.211C334.231 152.084 340.536 149.936 340.536 149.936Z" fill="#7D959E"/>
<path d="M337.601 156.709C337.601 156.709 341.348 153.403 342.01 150.978C342.01 150.978 326.567 132.475 323.218 128.328C323.063 128.138 323.103 127.929 323.306 127.7C325.836 124.85 353.932 119.052 357.605 113.338C358.872 111.369 359.589 109.5 359.978 107.868C360.811 104.381 360.151 101.974 360.151 101.974L332.091 101.162C332.091 101.162 308.726 115.711 306.081 125.628C303.438 135.55 337.601 156.709 337.601 156.709Z" fill="#E9AE61"/>
<path d="M323.307 127.702C325.836 124.852 353.932 119.054 357.606 113.34C358.872 111.371 359.589 109.502 359.978 107.869V104.319L348.052 102.443C348.052 102.443 344.668 112.849 334.654 116.753C325.271 120.409 323.495 126.895 323.307 127.702Z" fill="#E9AE61"/>
<path d="M339.769 52.4924C345.446 53.9599 354.856 48.7009 354.856 48.7009C354.856 48.7009 351.202 46.2459 349.849 40.8494C349.779 40.5766 349.718 40.2996 349.663 40.012C349.069 39.8851 347.948 39.6483 346.747 39.3945L342.412 43.2791C342.412 43.2791 342.511 44.8925 343.053 47.6648C343.146 48.149 343.253 48.6671 343.378 49.2211C341.052 50.6611 339.769 52.4924 339.769 52.4924Z" fill="#B97262"/>
<path d="M360.868 76.0287C360.056 86.9655 361.124 103.597 360.202 106.477C359.407 108.962 350.336 107.486 346.715 106.655C345.375 106.348 343.753 105.908 342.076 105.39C337.401 103.942 332.304 101.876 331.759 100.34C331.738 100.279 331.719 100.222 331.708 100.163C331.657 99.9407 331.668 99.7313 331.719 99.5199C331.9 98.7375 332.602 97.8916 332.685 95.9547C332.778 93.7914 332.763 91.2454 332.846 88.507C332.85 88.1983 332.854 87.8621 332.888 87.5554L332.89 87.4434C332.892 87.3842 332.892 87.3271 332.894 87.2679C332.973 84.2144 333.133 81.0023 333.317 77.8177C333.436 75.8173 333.571 73.8359 333.727 71.9391C334.136 67.0395 334.685 62.6834 335.413 59.9302C336.601 55.4409 339.223 52.5122 341.609 50.3659L343.334 48.8856C345.261 49.3064 347.536 49.0273 349.595 48.0525C351.824 46.9952 352.594 46.236 352.981 46.5215C358.126 50.4906 361.828 62.6602 360.868 76.0287Z" fill="#5A7F5B"/>
<path d="M342.075 105.387C337.4 103.939 332.304 101.873 331.758 100.337C331.737 100.276 331.718 100.219 331.708 100.16C331.71 99.9462 331.714 99.7305 331.718 99.5169C331.9 98.7345 332.602 97.8887 332.684 95.9517C332.778 93.7885 332.763 91.2425 332.845 88.504C332.849 88.1953 332.854 87.8591 332.887 87.5525L332.89 87.4404C332.892 87.3812 332.892 87.3241 332.894 87.2649L351.798 63.1816C351.794 63.1795 364.501 89.6396 342.075 105.387Z" fill="#5A7F5B"/>
<path d="M342.412 43.2791C342.412 43.2791 342.512 44.8925 343.053 47.6648C347.286 46.2966 349.206 42.4713 349.849 40.8494C349.779 40.5766 349.718 40.2996 349.663 40.012C349.069 39.8851 347.948 39.6483 346.747 39.3945L342.412 43.2791Z" fill="#AF663E"/>
<path d="M341.841 45.7233C341.841 45.7233 351.076 44.1817 350.027 38.4469C348.978 32.7121 349.464 28.65 343.524 29.3922C337.585 30.1344 336.842 32.5303 336.726 34.5307C336.612 36.529 339.414 45.977 341.841 45.7233Z" fill="#B97262"/>
<path d="M298.58 73.4912L297.765 73.7559L304.693 95.0786L305.507 94.814L298.58 73.4912Z" fill="#5A7F5B"/>
<path d="M328.185 93.145L304.665 93.6484L304.695 95.0565L328.215 94.553L328.185 93.145Z" fill="#5A7F5B"/>
<path d="M327.731 95.686C327.731 95.686 320.173 97.678 317.339 97.4687C314.506 97.2593 312.148 95.9123 311.793 95.2081C311.435 94.504 310.687 93.2564 312.615 93.4869C314.544 93.7173 317.179 94.1276 317.261 93.7575C317.344 93.3875 315.688 93.4213 315.688 93.4213C315.688 93.4213 315.187 92.6939 315.817 92.6685C316.447 92.6431 318.285 92.1441 318.966 92.4845C319.646 92.825 320.279 94.0853 320.776 94.0324C321.275 93.9796 327.1 91.4082 327.1 91.4082L327.731 95.686Z" fill="#B97262"/>
<path d="M354.497 55.6319C354.497 55.6319 353.604 86.0991 346.912 89.5629C343.611 91.2715 328.703 95.968 324.226 96.7695C324.226 96.7695 323.023 95.9955 322.888 92.3182C322.888 92.3182 338.206 84.6845 340.122 81.244C342.972 76.1246 335.876 62.092 339.618 57.165C343.361 52.2401 350.282 49.5334 354.497 55.6319Z" fill="#698868"/>
<path d="M349.849 40.8528C349.849 40.8528 349.955 38.8841 348.741 37.757C348.741 37.757 349.164 35.7841 348.384 35.4584C347.603 35.1328 347.441 36.7928 347.083 36.5327C346.726 36.2726 345.131 35.0376 344.448 33.2148C343.765 31.3942 337.515 33.5997 336.787 33.9275C336.058 34.2552 333.717 33.052 333.262 32.0772C333.262 32.0772 334.563 31.0368 335.148 30.2565C335.734 29.4762 339.832 24.2066 345.554 25.7038C351.279 27.1988 352.059 29.9309 351.733 32.2738C351.408 34.6126 352.192 40.0662 349.849 40.8528Z" fill="#3A4D58"/>
<defs>
<clipPath id="clip0">
<rect width="65.3093" height="59.8669" fill="white" transform="translate(186.306 21.0586) rotate(-0.130349)"/>
</clipPath>
</defs>
</svg>
