<svg width="436" height="284" viewBox="0 0 436 284" fill="none" xmlns="http://www.w3.org/2000/svg">
<path d="M179.077 58.0945C178.139 54.464 176.701 51.0351 174.842 47.8841L179.153 41.3997L173.171 35.4178L167.189 29.436L160.705 33.7477C157.554 31.8899 154.125 30.4498 150.495 29.5121L148.959 21.8848H140.5H132.041L130.506 29.5121C126.875 30.4498 123.446 31.8882 120.295 33.7477L113.811 29.436L107.829 35.4178L101.847 41.3997L106.159 47.8841C104.301 51.0351 102.861 54.464 101.923 58.0945L94.2959 59.6302V68.089V76.5479L101.923 78.0836C102.861 81.7141 104.299 85.1429 106.159 88.294L101.847 94.7783L107.829 100.76L113.811 106.742L120.295 102.43C123.446 104.288 126.875 105.728 130.506 106.666L132.041 114.293H140.5H148.959L150.495 106.666C154.125 105.728 157.554 104.29 160.705 102.43L167.189 106.742L173.171 100.76L179.153 94.7783L174.842 88.294C176.699 85.1429 178.139 81.7141 179.077 78.0836L186.704 76.5479V68.089V59.6302L179.077 58.0945ZM140.502 97.7295C124.133 97.7295 110.861 84.46 110.861 68.089C110.861 51.7198 124.131 38.4486 140.502 38.4486C156.871 38.4486 170.142 51.7181 170.142 68.089C170.142 84.4582 156.871 97.7295 140.502 97.7295Z" fill="#3B455A"/>
<path d="M210.144 16.5992C209.714 14.9343 209.054 13.3632 208.203 11.9177L210.179 8.94539L207.437 6.20303L204.694 3.46068L201.722 5.43694C200.277 4.58593 198.705 3.92599 197.041 3.49606L196.336 0H192.46H188.582L187.878 3.49606C186.213 3.92599 184.642 4.58593 183.196 5.43694L180.224 3.46068L177.481 6.20303L174.739 8.94539L176.715 11.9177C175.862 13.3632 175.204 14.9343 174.774 16.5992L171.278 17.3034V21.1816V25.0598L174.774 25.764C175.204 27.4289 175.864 29 176.715 30.4455L174.739 33.4178L177.481 36.1602L180.224 38.9025L183.196 36.9263C184.642 37.779 186.213 38.4372 187.878 38.8671L188.582 42.3632H192.46H196.338L197.042 38.8671C198.707 38.4372 200.278 37.7773 201.724 36.9263L204.696 38.9025L207.438 36.1602L210.181 33.4178L208.205 30.4455C209.057 29 209.716 27.4289 210.145 25.764L213.642 25.0598V21.1816V17.3034L210.144 16.5992ZM192.46 34.7695C184.955 34.7695 178.872 28.6868 178.872 21.1816C178.872 13.6764 184.956 7.59367 192.46 7.59367C199.963 7.59367 206.048 13.6782 206.048 21.1816C206.048 28.6868 199.963 34.7695 192.46 34.7695Z" fill="#3B455A"/>
<path d="M215.944 239.494H238.513V170.946H215.944V239.494Z" fill="#D9AB77"/>
<path d="M136.65 203.967H317.808C321.596 203.967 324.668 200.896 324.668 197.108V73.3497C324.668 69.5617 321.596 66.4902 317.808 66.4902H136.65C132.862 66.4902 129.791 69.5617 129.791 73.3497V197.108C129.791 200.896 132.862 203.967 136.65 203.967Z" fill="#D9AB77"/>
<path d="M136.678 178.979H317.433V73.2246H136.678V178.979Z" fill="#FCECDB"/>
<path d="M277.994 236.908H176.463V242.082H277.994V236.908Z" fill="#D9AB77"/>
<path d="M91.0147 135.916C91.0122 135.913 91.0071 135.913 91.002 135.916C91.0556 135.936 91.0633 135.939 91.0147 135.916Z" fill="#323657"/>
<path d="M388.269 248.718H281.274C277.174 248.718 273.852 245.395 273.852 241.293V216.569C273.852 212.469 277.176 209.145 281.274 209.145H388.269V248.718Z" fill="#6A8A69"/>
<path d="M406.586 213.219V244.646H408.457V248.718H330.805C326.705 248.718 323.38 245.395 323.38 241.293V216.569C323.38 212.469 326.705 209.145 330.805 209.145H408.457V213.217H406.586V213.219Z" fill="#6A8A69"/>
<path d="M406.583 244.645H336.417C332.367 244.645 329.085 241.363 329.085 237.314V220.55C329.085 216.501 332.367 213.219 336.417 213.219H406.583V244.645Z" fill="#FAE6DE"/>
<path d="M394.147 228.775H363.95V229.553H394.147V228.775Z" fill="#DECCC5"/>
<path d="M382.042 231.139H349.795V231.916H382.042V231.139Z" fill="#DECCC5"/>
<path d="M271.875 209.263H378.585C382.844 209.263 386.295 205.812 386.295 201.553V186.423C386.295 182.164 382.844 178.713 378.585 178.713H271.875V209.263Z" fill="#D3665D"/>
<path d="M253.562 181.859V206.12H251.691V209.266H329.057C333.316 209.266 336.768 205.815 336.768 201.556V186.423C336.768 182.164 333.316 178.713 329.057 178.713H251.691V181.859H253.562Z" fill="#D3665D"/>
<path d="M253.562 206.119H324.791C329.035 206.119 332.474 202.68 332.474 198.437V189.54C332.474 185.296 329.035 181.857 324.791 181.857H253.562V206.119Z" fill="#FAE6DE"/>
<path d="M265.997 194.465H296.194V193.864H265.997V194.465Z" fill="#DECCC5"/>
<path d="M278.104 196.293H310.351V195.692H278.104V196.293Z" fill="#DECCC5"/>
<path d="M415.662 178.717H292.536C289.881 178.717 287.727 176.564 287.727 173.908V162.36C287.727 159.704 289.881 157.551 292.536 157.551H415.662V178.717Z" fill="#4F5962"/>
<path d="M433.975 159.731V176.537H435.846V178.716H355.412C352.849 178.716 350.771 176.638 350.771 174.076V162.195C350.771 159.632 352.849 157.555 355.412 157.555H435.846V159.733H433.975V159.731Z" fill="#4F5962"/>
<path d="M433.972 176.534H359.148C356.586 176.534 354.508 174.456 354.508 171.894V164.371C354.508 161.808 356.586 159.73 359.148 159.73H433.972V176.534Z" fill="#FAE6DE"/>
<path d="M421.536 163.318H391.339V163.919H421.536V163.318Z" fill="#DECCC5"/>
<path d="M409.43 169.316H377.184V169.733H409.43V169.316Z" fill="#DECCC5"/>
<path d="M370.252 157.552H281.704C279.207 157.552 277.185 155.53 277.185 153.033V140.908C277.185 138.411 279.207 136.389 281.704 136.389H370.252V157.552Z" fill="#FABD68"/>
<path d="M383.574 138.567V155.374H384.935V157.552H327.694C325.127 157.552 323.046 155.472 323.046 152.905V141.036C323.046 138.469 325.127 136.389 327.694 136.389H384.935V138.567H383.574Z" fill="#FABD68"/>
<path d="M383.574 155.375H329.654C327.505 155.375 325.766 153.633 325.766 151.487V142.456C325.766 140.308 327.508 138.568 329.654 138.568H383.574V155.375Z" fill="#FAE6DE"/>
<path d="M374.529 142.158H352.562V142.759H374.529V142.158Z" fill="#DECCC5"/>
<path d="M365.722 148.154H342.264V148.571H365.722V148.154Z" fill="#DECCC5"/>
<path d="M340.998 176.704C340.998 176.704 341.369 179.724 341.859 181.054C342.35 182.387 345.012 185.46 343.889 188.412C342.671 191.615 337.345 188.53 335.173 187.552C333.001 186.573 333.495 184.803 333.264 182.631C333.032 180.459 331.971 180.4 332.363 178.873C332.755 177.346 335.13 174.424 335.13 174.424L340.998 176.704Z" fill="#3C4145"/>
<path d="M336.155 172.842C336.155 172.842 334.791 174.748 334.828 174.801C334.865 174.853 340.668 178.386 341.072 177.238C341.393 176.328 341.529 175.011 341.529 175.011L336.155 172.842Z" fill="#BD734A"/>
<path d="M316.486 178.838C316.486 178.838 314.715 180.39 313.126 182.775C311.537 185.159 307.317 185.286 307.138 188.538C306.956 191.793 312.873 191.891 315.98 190.833C319.087 189.775 319.556 186.594 321.435 185.801C323.314 185.005 324.289 184.363 324.144 182.812C323.999 181.26 322.959 178.742 322.959 178.742C322.959 178.742 321.793 179.116 321.105 179.19C320.42 179.267 318.112 179.294 316.486 178.838Z" fill="#3C4145"/>
<path d="M337.78 90.671C337.78 90.671 336.589 97.7516 335.63 102.429C335.241 104.326 334.889 105.826 334.67 106.298C334.396 106.893 332.162 109.294 329.425 112.107C324.625 117.047 318.285 123.27 318.285 123.27L315.807 118.565C315.807 118.565 321.438 111.962 325.257 107.557C327.025 105.517 328.404 103.95 328.654 103.725C329.453 103.012 330.379 95.9745 331.681 90.1774C332.983 84.3802 335.593 81.1777 335.593 81.1777L337.78 90.671Z" fill="#DB9F5A"/>
<path d="M329.425 112.105C324.625 117.045 318.285 123.268 318.285 123.268L315.807 118.563C315.807 118.563 321.438 111.96 325.257 107.555C326.43 108.125 328.577 109.495 329.425 112.105Z" fill="#BD734A"/>
<path d="M316.764 176.67L316.486 178.839C316.486 178.839 319.565 179.928 322.959 178.743L323.027 176.815L316.764 176.67Z" fill="#BD734A"/>
<path d="M360.491 122.31C360.67 122.939 327.865 122.31 327.865 122.31C327.865 122.31 336.938 115.704 337.528 113.939C338.117 112.175 335.217 101.589 334.84 98.143C334.538 95.3879 333.779 83.0531 335.596 81.1711C337.497 79.2027 344.334 77.1387 344.334 77.1387L354.305 77.5089C354.305 77.5089 355.95 77.8544 357.128 78.4005C358.304 78.9466 365.033 81.3438 366.125 84.7037C367.217 88.0635 359.411 98.8711 359.411 98.8711C359.411 98.8711 359.396 99.3555 359.374 100.151C359.343 101.213 359.3 102.826 359.26 104.576C359.208 106.84 359.161 109.336 359.161 111.16C359.158 115.442 360.315 121.68 360.491 122.31Z" fill="#DB9F5A"/>
<path d="M360.491 122.308C360.491 122.308 364.952 128.861 365.017 133.335C365.079 137.808 357.1 152.793 355.891 154.937C352.259 161.382 342.303 175.281 342.303 175.281C342.303 175.281 340.588 175.238 335.232 173.159C335.232 173.159 341.856 154.799 342.695 152.892C346.256 144.809 348.242 139.073 347.045 137.688C345.848 136.303 342.584 134.911 341.64 134.094C340.696 133.276 324.23 137.203 322.502 137.654C318.035 138.811 320.071 146.586 321.058 150.072C322.712 155.903 324.156 176.96 324.156 176.96C324.156 176.96 320.975 178.314 315.644 177.17C315.644 177.17 305.179 139.15 304.842 135.371C304.506 131.591 304.343 125.356 330.135 120.617L360.491 122.308Z" fill="#3C4145"/>
<path d="M347.07 55.4778C347.07 55.4778 338.416 53.5249 340.393 64.4188C342.371 75.3097 344.451 76.1674 349.674 73.9121C354.894 71.6568 354.428 64.678 354.69 61.2565C354.95 57.8349 349.831 55.5981 347.07 55.4778Z" fill="#BD734A"/>
<path d="M344.778 79.9365C344.778 79.9365 348.61 83.9998 354.669 80.3068C354.669 80.3068 353.315 71.5015 354.027 67.2099C354.74 62.9214 346.123 73.8555 346.123 73.8555C346.237 73.9141 346.311 74.3245 346.33 74.9076C346.345 75.4012 346.317 76.0183 346.24 76.6538C346.061 78.0792 345.617 79.5848 344.778 79.9365Z" fill="#BD734A"/>
<path d="M354.268 66.8448C354.268 66.8448 354.046 63.414 352.79 63.3061C351.538 63.1981 351.343 64.5803 351.343 64.5803L350.078 64.8178C350.078 64.8178 350.479 61.8097 349.227 61.2852C347.974 60.7607 341.119 62.942 340.113 62.0565C339.107 61.1742 339.582 55.0716 341.4 54.2385C343.217 53.4024 348.233 51.5328 351.911 54.0195C351.911 54.0195 354.777 53.6925 355.203 56.0064C355.626 58.3203 355.046 65.1233 354.268 66.8448Z" fill="#3A3F47"/>
<path d="M346.24 76.6521C352.491 74.7238 352.96 70.9629 352.966 70.9043C350.908 74.44 346.33 74.9089 346.33 74.9089C346.345 75.3995 346.317 76.0165 346.24 76.6521Z" fill="#B9673A"/>
<path d="M357.227 78.4525C357.227 78.4525 352.652 87.5632 345.256 86.9739C337.864 86.3846 343.998 77.2276 344.331 77.1443C344.704 77.0518 351.917 75.2561 357.227 78.4525Z" fill="#BD734A"/>
<path d="M324.113 121.843C324.113 121.843 346.768 124.635 360.491 122.306L334.266 119.029C334.266 119.026 334.112 119.696 324.113 121.843Z" fill="#E3BD91"/>
<path d="M341.057 118L339.37 118.855C339.37 118.855 339.755 121.536 340.678 122.347L342.572 121.863C342.572 121.863 342.177 118.922 341.057 118Z" fill="#BD734A"/>
<path d="M367.272 112.515C366.936 112.907 362.481 114.696 357.449 116.634C350.575 119.281 342.822 121.786 342.822 121.786L341.057 118.004C341.057 118.004 349.177 113.592 354.663 110.497C357.255 109.035 359.26 107.869 359.541 107.597C360.423 106.758 360.651 105.41 360.004 103.059C359.356 100.708 357.859 89.9097 357.693 88.6509C357.526 87.389 358.112 84.0292 361.262 83.8626C364.412 83.696 366.017 84.5845 366.017 84.5845C366.017 84.5845 366.807 84.9147 367.396 92.5599C367.985 100.205 368.068 111.59 367.272 112.515Z" fill="#DB9F5A"/>
<path d="M359.37 100.153C359.34 101.214 359.296 102.828 359.256 104.577C356.18 97.0399 357.957 91.0237 357.988 90.9219C357.652 92.9674 359.346 100.051 359.37 100.153Z" fill="#C9A043"/>
<path d="M335.63 102.424C335.241 104.322 334.889 105.821 334.67 106.296C333.621 101.212 334.565 94.7051 334.565 94.7051C334.71 97.8119 335.63 102.424 335.63 102.424Z" fill="#C9A043"/>
<path d="M357.449 116.63C350.575 119.277 342.572 121.862 342.572 121.862L341.057 117.997C341.057 117.997 349.177 113.585 354.663 110.49C354.663 110.493 356.659 111.465 357.449 116.63Z" fill="#BD734A"/>
<path d="M340.569 122.085L308.369 121.613L324.625 129.866L340.569 122.085Z" fill="#7A859B"/>
<path d="M324.625 129.869L340.57 123.695V122.088L323.367 128.295L324.625 129.869Z" fill="#3B455A"/>
<path d="M339.733 118.916C339.733 118.916 337.721 118.601 336.33 118.28C335.253 118.03 332.578 118.376 331.896 119.064C331.215 119.755 329.049 124.565 328.638 124.858C328.228 125.151 328.848 125.83 329.567 125.491C329.567 125.491 330.227 127.595 331.859 126.808C333.492 126.021 334.596 124.3 335.451 123.997C336.305 123.695 341.279 122.165 341.279 122.165C341.279 122.165 341.013 118.404 339.733 118.916Z" fill="#BD734A"/>
<path d="M332.391 118.75C332.391 118.75 331.098 119.373 330.762 119.651C330.425 119.929 329.059 120.953 328.725 121.194C328.395 121.434 329.225 122.119 331.669 121.061C334.115 120.003 332.391 118.75 332.391 118.75Z" fill="#BD734A"/>
<path d="M324.625 129.873L315.048 103.723L284.171 104.229L293.301 128.324L324.625 129.873Z" fill="#3B455A"/>
<path d="M305.17 115.288C306.111 117.174 305.827 119.222 304.534 119.87C303.241 120.518 301.43 119.515 300.486 117.63C299.545 115.748 299.829 113.696 301.122 113.049C302.415 112.401 304.226 113.403 305.17 115.288Z" fill="#7A859B"/>
<path d="M351.371 63.1291C351.485 62.1665 353.386 61.8147 353.537 63.2555C353.691 64.6964 352.673 67.2262 351.954 66.9763C351.232 66.7264 351.214 64.4526 351.371 63.1291Z" fill="#BD734A"/>
<path d="M235.969 157.467C235.969 157.467 232.143 157.699 231.072 158.292C230.002 158.888 222.768 156.61 222.634 156.083C222.5 155.555 222.634 155.297 222.634 155.297H236.831L235.969 157.467Z" fill="#D0B5A7"/>
<path d="M253.141 140.598C253.141 140.598 254.361 150.188 253.141 151.444C248.478 156.246 231.201 155.863 231.201 155.863L231.209 157.815C231.209 157.815 257.47 161.09 259.91 155.998C262.842 149.877 261.703 139.896 261.703 139.896L253.141 140.598Z" fill="#D0B5A7"/>
<path d="M261.809 241.645L260.248 239.867L263.064 236.922L265.442 238.588L261.809 241.645Z" fill="#2F4563"/>
<path d="M265.442 238.588C265.442 238.588 262.227 241.009 261.333 241.106C260.439 241.204 260.017 241.602 260.123 242.965C260.228 244.329 258.818 250.064 257.831 250.156C256.848 250.248 253.496 250.267 252.887 252.474C252.278 254.684 263.519 254.22 264.215 252.408C264.912 250.597 269.75 241.816 269.178 241.109C268.606 240.402 267.092 238.812 265.442 238.588Z" fill="#1E2D40"/>
<path d="M244.819 169.958C244.819 169.958 223.821 206.537 232.344 214.105C235.687 217.074 238.904 219.759 243.529 223.73C245.99 225.842 248.956 228.287 252.477 231.949L252.622 232.102C255.132 234.718 257.202 236.931 257.84 237.614C257.864 237.637 257.882 237.658 257.901 237.677L257.972 237.753L260.308 239.984L263.736 236.97C263.736 236.97 259.849 231.591 257.658 227.459C254.581 221.66 249.412 214.846 247.021 212.945C242.923 209.688 241.797 209.048 241.797 205.933C241.797 202.595 261.044 183.933 261.044 183.933C261.044 183.933 263.836 172.254 257.165 169.201C250.67 166.224 244.819 169.958 244.819 169.958Z" fill="#3C4145"/>
<path d="M260.833 247.318C260.833 247.318 260.964 245.633 260.68 244.557C260.395 243.481 265.028 244.098 265.028 244.098C265.028 244.098 265.624 248.597 265.452 249.628C265.278 250.656 260.833 247.318 260.833 247.318Z" fill="#EACFC1"/>
<path d="M259.968 244.557L266.215 245.683C266.215 245.683 266.666 237.714 266.584 231.607C266.497 225.044 266.826 219.883 264.822 214.66C262.947 209.773 263.375 207.912 263.211 204.576C263.048 201.24 264.812 184.063 264.812 184.063C264.812 184.063 266.945 176.371 262.006 170.947C257.194 165.66 244.745 170.926 244.745 170.926C244.745 170.926 247.337 194.395 253.565 208.909C255.327 213.017 254.375 215.511 256.621 221.861C256.621 221.859 260.034 235.7 259.968 244.557Z" fill="#3C4145"/>
<path d="M254.531 124.527C254.858 125.078 255.098 125.785 255.272 126.537C255.438 127.243 255.543 127.99 255.614 128.68C255.765 130.178 255.741 131.41 255.741 131.41C255.741 131.41 264.074 129.595 262.705 127.652C261.339 125.709 262.144 119.82 262.144 119.82C262.144 119.82 253.452 122.71 254.531 124.527Z" fill="#EACFC1"/>
<path d="M249.842 108.475C249.842 108.475 247.709 110.326 248.664 115.663C248.664 115.663 248.192 119.914 247.543 120.655C246.892 121.396 249.289 121.67 249.542 122.205C249.795 122.738 250.272 125.238 251.944 126.744C253.616 128.249 261.891 123.711 262.294 121.145C262.697 118.582 268.43 107.589 259.354 107.085C250.277 106.582 249.842 108.475 249.842 108.475Z" fill="#EACFC1"/>
<path d="M244.133 147.851C244.302 148.386 243.666 156.598 243.724 157.304C244.043 161.188 243.038 167.09 242.646 169.202C242.551 169.703 242.5 169.956 242.5 169.956C251.498 174.357 264.01 173.972 264.01 173.972C263.965 173.632 262.22 169.405 262.175 169.081C261.434 163.799 260.339 161.389 260.637 157.816C260.804 155.809 261.315 153.71 262.372 151.113C265.429 143.605 265.263 138.608 264.764 134.484C264.266 130.36 263.029 128.008 263.029 128.008L255.429 128.823C253.816 130.61 252.381 131.562 247.795 135.631C242.912 139.966 242.057 141.28 244.133 147.851Z" fill="#F2F2F2"/>
<path d="M265.732 248.451C265.732 248.451 261.337 247.201 261.205 247.077C261.073 246.953 261.044 246.687 260.437 246.932C259.831 247.175 259.58 248.093 258.985 248.385C258.389 248.675 254.763 249.738 252.775 250.714C252.057 251.067 249.017 252.227 248.579 253.195C248.141 254.163 248.276 255.618 253.5 255.273C258.721 254.928 264.435 255.666 265.58 255.094C266.721 254.521 266.03 249.962 265.732 248.451Z" fill="#23344A"/>
<path d="M248.436 113.749C248.436 113.749 247.416 102.669 258.159 104.647C268.901 106.624 263.364 118.736 261.916 122.683C261.916 122.683 262.093 116.552 256.919 116.352C251.748 116.154 250.678 114.957 248.436 113.749Z" fill="#464240"/>
<path d="M257.761 114.8C258.407 113.674 260.624 114.276 260.371 115.99C260.118 117.704 258.341 119.415 257.75 118.584C257.162 117.754 256.811 116.451 257.761 114.8Z" fill="#EACFC1"/>
<path d="M257.515 136.562C257.515 136.562 258.401 146.055 257.18 147.311C252.518 152.112 234.126 152.202 234.126 152.202L233.248 154.963C233.248 154.963 260.587 156.825 263.029 151.73C265.961 145.61 264.822 135.629 264.822 135.629L257.515 136.562Z" fill="#EACFC1"/>
<path d="M261.563 107.375C261.563 107.375 265.7 103.407 268.641 107.903C271.581 112.399 265.147 118.669 262.536 114.946C259.931 111.225 261.563 107.375 261.563 107.375Z" fill="#464240"/>
<path d="M255.271 126.534C255.437 127.241 255.543 127.987 255.614 128.678C258.383 127.418 260.453 123.562 260.453 123.562C258.446 125.29 255.271 126.534 255.271 126.534Z" fill="#EACFC1"/>
<path d="M215.721 156.428H241.797V154.972H215.721V156.428Z" fill="#6E6760"/>
<path d="M203.976 133.133L215.724 156.414L217.023 155.758L205.276 132.477L203.976 133.133Z" fill="#6E6760"/>
<path d="M237.965 152.213C237.965 152.213 234.139 151.92 233.068 151.161C231.998 150.401 224.765 153.305 224.63 153.974C224.496 154.644 224.63 154.974 224.63 154.974H238.827L237.965 152.213Z" fill="#EACFC1"/>
<path d="M263.024 128.006L262.488 126.553L255.189 128.006V129.298L263.024 128.006Z" fill="#F2F2F2"/>
<path d="M257.526 136.69C257.526 136.69 256.743 131.187 260.575 130.704C264.406 130.222 264.825 135.651 264.825 135.651L257.526 136.69Z" fill="#EACFC1"/>
<path d="M40.3716 154.977L56.0807 163.613L71.8552 138.79L52.7758 132.162L40.3716 154.977Z" fill="#292C47"/>
<path d="M41.3682 154.226L56.0579 162.301L70.8079 139.088L52.9669 132.889L41.3682 154.226Z" fill="#A9453D"/>
<path d="M35.9893 149.891C35.9893 149.891 38.7228 148.584 39.9235 147.9C41.1241 147.215 44.21 146.279 44.4592 146.055C44.7084 145.833 53.6088 145.282 54.15 144.816C54.6912 144.351 55.2147 145.909 52.9091 146.412C50.6034 146.918 47.3916 148.154 47.2154 149.055C47.0392 149.956 49.584 150.17 49.8433 150.913C50.1 151.655 49.7703 151.489 49.4053 151.648C49.0403 151.806 46.3773 150.331 45.2068 150.752C44.0364 151.169 42.2467 150.59 41.3481 150.898C40.4495 151.205 36.0874 152.672 36.0874 152.672L35.9893 149.891Z" fill="#EACFC1"/>
<path d="M40.9228 151.822L42.3299 151.301C42.3299 151.301 40.5729 147.178 39.8078 147.279C38.9243 147.395 37.8218 147.687 37.8218 147.687L40.9228 151.822Z" fill="#EAD8CF"/>
<path d="M41.2448 152.527C41.0636 152.393 38.252 146.994 38.252 146.994L32.2412 147.81L35.4882 154.203L41.2448 152.527Z" fill="#DA9B5B"/>
<path d="M56.8458 160.492C56.8458 160.492 59.1414 158.426 60.2539 157.56C61.3639 156.694 63.4506 154.152 63.7577 154.003C64.0648 153.855 68.0493 145.682 68.6987 145.352C69.3481 145.025 68.0846 143.922 66.7102 145.901C65.3359 147.879 62.922 150.421 62.0033 150.238C61.0845 150.051 61.8749 147.57 61.2758 147.038C60.6768 146.507 60.7045 146.882 60.4125 147.164C60.1205 147.446 60.4729 150.53 59.6221 151.471C58.7713 152.412 58.6203 154.323 57.981 155.05C57.3417 155.775 54.2607 159.317 54.2607 159.317L56.8458 160.492Z" fill="#EACFC1"/>
<path d="M7.38283 270.983C7.38283 270.983 6.88696 274.431 6.82403 274.95C6.76111 275.468 1.29652 274.645 1.29652 274.645L0.853516 270.54C0.853516 270.54 6.7007 270.497 7.38283 270.983Z" fill="#424773"/>
<path d="M6.88194 274.513C6.88194 274.513 8.61369 276.593 10.2875 277.496C11.9614 278.402 14.5943 278.76 15.5835 279.699C16.2983 280.376 18.1862 283.288 11.2315 283.23C4.27676 283.172 0.924007 283.64 0.178951 282.525C-0.566106 281.408 1.25626 274.279 1.25626 274.279C1.25626 274.279 2.90495 274.873 6.88194 274.513Z" fill="#4F5962"/>
<path d="M46.5386 270.983C46.5386 270.983 46.0427 274.431 45.9798 274.95C45.9169 275.468 40.4523 274.645 40.4523 274.645L40.0093 270.54C40.0093 270.54 45.8539 270.497 46.5386 270.983Z" fill="#424773"/>
<path d="M46.0377 274.513C46.0377 274.513 47.7694 276.593 49.4433 277.496C51.1172 278.402 57.2815 279.145 58.2707 280.084C58.9856 280.761 60.1736 283.484 50.3872 283.23C43.435 283.049 40.0798 283.64 39.3347 282.525C38.5897 281.408 40.412 274.279 40.412 274.279C40.412 274.279 41.9651 274.914 46.0377 274.513Z" fill="#4F5962"/>
<path d="M11.9089 182.377C11.9089 182.377 6.77404 190.535 7.15664 197.91C7.53924 205.285 5.294 213.335 4.52377 221.039C3.66293 229.628 0.144052 249.958 0.0181984 254.552C-0.110173 259.145 0.564405 273.815 0.564405 273.815L7.60972 273.976C7.60972 273.976 13.5274 238.432 15.0578 234.805C16.5907 231.178 24.1897 205.323 24.444 202.42C24.6982 199.518 11.9089 182.377 11.9089 182.377Z" fill="#4F5962"/>
<path d="M38.9367 183.476C38.9367 183.476 42.8055 203.688 43.3164 208.201C43.8274 212.714 44.1672 230.045 44.424 232.864C44.6782 235.685 46.1255 269.777 47.4898 273.968H38.4836C38.4836 273.968 31.5717 249.182 31.5717 237.457C31.5717 225.73 26.2305 211.964 22.7821 204.227C19.3337 196.489 11.4426 196.306 9.32324 181.951C9.32324 181.953 36.0698 178.923 38.9367 183.476Z" fill="#4F5962"/>
<path d="M20.477 113.786C20.477 113.786 27.3688 111.211 30.5479 116.459C33.7269 121.705 33.4198 132.208 29.9463 133.5C26.4727 134.791 21.2523 134.116 19.4752 130.834C17.6956 127.552 16.0897 122.805 16.1678 119.633C16.2433 116.459 18.6672 114.7 20.477 113.786Z" fill="#EACFC1"/>
<path d="M29.1958 133.738C29.1958 133.738 28.9089 135.598 29.3821 136.515C29.8553 137.431 20.454 137.456 20.454 137.456C20.454 137.456 19.6913 132.47 18.244 128.259C16.7967 124.045 29.1958 133.738 29.1958 133.738Z" fill="#EACFC1"/>
<path d="M18.2441 128.255C18.2441 128.255 18.8935 129.325 21.5415 128.91C24.1894 128.495 27.4214 124.971 28.5289 124.583C29.6339 124.195 29.6465 123.546 29.6465 123.546L30.3387 124.558L31.5141 124.631C31.5141 124.631 30.4419 121.477 32.0578 120.193C33.6738 118.907 30.3789 109.989 21.8838 112.957C21.8838 112.957 15.3595 114.756 15.5961 118.466C15.8327 122.182 16.7842 126.408 18.2441 128.255Z" fill="#3A4D58"/>
<path d="M29.941 136.403C29.941 136.403 29.9108 134.651 29.1179 134.485C28.325 134.317 20.3559 133.551 19.3818 133.934V135.975C19.3793 135.973 21.2571 137.128 29.941 136.403Z" fill="#E2D2CA"/>
<path d="M29.4702 122.196C29.3217 121.574 27.7384 119.795 27.1318 121.7C26.5252 123.606 28.048 126.168 28.8963 125.947C29.7445 125.728 29.8452 123.777 29.4702 122.196Z" fill="#EACFC1"/>
<path d="M61.568 157.098C61.5654 157.095 61.5603 157.095 61.5552 157.098C61.609 157.123 61.6167 157.123 61.568 157.098Z" fill="#323657"/>
<path d="M6.1142 201.807C6.1142 201.807 10.3404 203.05 17.5493 203.846C24.7557 204.641 42.7654 203.559 42.8787 202.708C42.992 201.857 39.0049 171 39.2314 169.412C39.458 167.824 39.5788 162.16 39.5788 162.16C39.6669 163.711 41.2476 170.049 43.1556 173.502C43.8452 174.751 46.1584 178.662 47.271 177.771C52.6651 173.465 61.0193 157.232 61.5504 157.093C61.1049 156.9 57.591 155.281 57.0977 155.118C56.6647 154.974 52.7733 159.095 50.4148 161.649C49.3627 162.787 48.6176 163.615 48.6176 163.615C47.9355 162.082 46.0704 152.311 45.2976 148.971C43.5583 141.437 43.2135 141.243 43.2135 141.243C37.9402 139.648 29.9359 136.403 29.9359 136.403L19.3742 135.973C19.3742 135.973 9.6809 138.107 5.86501 139.831C5.50255 139.995 5.50255 148.478 4.5083 150.703L7.67227 157.378C7.67227 157.378 9.49967 170.603 9.87975 176.485C10.061 179.186 6.1142 201.807 6.1142 201.807Z" fill="#C0BB69"/>
<path d="M4.07507 161.711C4.35195 162.602 5.60294 163.352 6.41595 163.682C6.93699 163.893 7.52095 163.961 8.10743 163.853L8.52023 163.778L15.7568 162.436C15.7568 162.436 17.3401 144.2 5.86975 139.83C5.5677 139.926 1.54037 153.546 4.07507 161.711Z" fill="#C0BB69"/>
<path d="M6.41602 163.686C6.93705 163.897 7.52101 163.965 8.10749 163.857L8.5203 163.782L7.80544 154.461L6.41602 163.686Z" fill="#C0BB69"/>
<path d="M48.6201 163.62L49.5036 167.366C49.5036 167.366 50.4626 163.608 50.4173 161.654C49.3677 162.792 48.6201 163.62 48.6201 163.62Z" fill="#C0BB69"/>
<path d="M18.5131 114.402C18.5131 114.402 9.47925 113.36 18.3595 128.447L18.5131 114.402Z" fill="#3A4D58"/>
<path d="M64.5939 137.457L65.5101 135.879L58.2785 133.385L57.3623 134.953L64.5939 137.457Z" fill="#292C47"/>
<path d="M77.7476 192.609C77.7476 192.609 78.0874 194.452 79.1194 194.724C79.9978 194.955 80.9669 195.889 81.2664 196.176C81.6666 196.559 83.3304 197.281 82.8522 197.79C82.374 198.298 80.0507 196.732 79.4969 196.503C78.9432 196.272 79.7361 198.832 79.512 199.413C79.288 199.994 74.9737 201.067 74.6339 199.247C74.2941 197.427 75.1323 195.26 75.009 194.95C74.8856 194.643 74.7094 193.636 74.7094 193.636L77.7476 192.609Z" fill="#BD734A"/>
<path d="M79.5348 198.971C79.5348 198.971 80.2069 204.609 79.935 205.024C79.6657 205.437 79.3586 205.455 79.273 204.931C79.1874 204.408 78.4675 199.502 78.4675 199.502C78.4675 199.502 78.1403 206.31 77.9943 206.696C77.9088 206.922 77.3147 206.993 77.2442 206.716C77.1738 206.439 77.1108 199.673 77.1108 199.673C77.1108 199.673 76.7937 206.029 76.5747 206.316C76.3834 206.567 75.8221 206.494 75.812 206.021C75.802 205.548 75.7642 199.633 75.7642 199.633C75.7642 199.633 75.2432 204.244 74.9134 204.377C74.7121 204.458 74.2011 204.544 74.3748 203.358C74.5459 202.172 74.6567 199.333 74.6567 199.333L79.5348 198.971Z" fill="#BD734A"/>
<path d="M108.182 281.467H109.455C109.455 281.467 109.03 276.655 110.21 276.607C111.388 276.559 114.316 280.523 116.063 281.138C117.809 281.752 126.775 282.27 126.823 280.619C126.871 278.968 123.38 278.306 122.292 277.835C121.207 277.362 115.922 272.22 114.978 271.605C114.034 270.991 112.423 266.727 112.423 266.727L107.416 266.506C107.416 266.506 107.134 270.493 106.83 272.605C106.717 273.385 106.636 274.097 106.624 274.583C106.578 276.37 108.182 281.467 108.182 281.467Z" fill="#EEA886"/>
<path d="M86.0367 280.511H87.0989V276.03C87.9824 276.103 90.9576 278.92 91.8788 279.733C92.7975 280.546 94.0611 280.511 97.9374 280.757C101.814 281.004 102.179 278.683 101.565 277.893C100.95 277.103 98.9694 276.758 97.9374 276.264C96.9054 275.771 92.8353 271.18 91.7479 270.092C90.6631 269.008 90.0011 265.896 90.0011 265.896L85.4703 266.292C85.4703 266.292 85.5005 269.138 84.982 271.525C84.9795 271.53 84.9795 271.537 84.977 271.542C84.9342 271.746 84.8838 271.945 84.831 272.139C84.1614 274.623 86.0367 280.511 86.0367 280.511Z" fill="#EEA886"/>
<path d="M96.4469 131.247C96.4469 131.247 94.2344 135.911 95.4149 139.727C95.4149 139.727 88.6113 138.798 88.4099 138.002C88.2085 137.207 89.2632 130.053 88.4753 127.861C87.69 125.666 96.4469 131.247 96.4469 131.247Z" fill="#B9673A"/>
<path d="M96.7969 137.689C96.7969 137.689 100.734 139.38 102.531 139.902C104.328 140.423 108.018 142.459 107.228 149.064C106.437 155.669 104.882 161.334 104.26 164.151C103.638 166.968 103.374 174.237 103.792 177.806C103.792 177.806 93.9375 179.488 82.7188 176.278C82.7188 176.278 85.173 170.419 85.2334 168.861C85.2938 167.302 79.5423 154.03 79.3762 151.989C79.2126 149.947 78.5103 140.944 81.7095 139.197C84.9062 137.45 87.3729 137.89 88.7322 137.103C90.0889 136.317 94.9519 136.919 96.7969 137.689Z" fill="#FFB155"/>
<path d="M72.6104 172.474C72.3788 175.268 73.9017 194.558 73.9017 194.558L79.3713 195.19C79.3713 195.19 78.9836 176.138 78.6766 171.744C78.5859 170.447 78.8855 168.464 79.3537 166.314V166.312C79.6482 164.945 80.0131 163.51 80.3907 162.143C81.4252 158.365 82.5403 155.083 82.5403 155.083C82.5403 155.083 88.6643 139.152 80.9797 139.794C80.9797 139.794 78.1253 142.739 76.9146 147.57C75.7064 152.4 74.322 159.639 74.2691 162.524C74.2138 165.408 72.779 170.417 72.6104 172.474Z" fill="#FFB155"/>
<path d="M102.788 178.957C102.788 178.957 104.5 183.007 104.651 184.029C104.802 185.051 110.171 198.416 110.543 202.328C110.921 206.282 112.053 216.834 112.456 218.344C112.859 219.854 111.55 226.605 111.349 228.115C111.147 229.626 111.248 254.306 113.06 266.493C113.06 266.493 108.829 268.306 105.607 266.493C105.607 266.493 100.268 247.454 100.57 236.475C100.872 225.495 102.264 220.861 100.56 216.429C98.8562 211.996 88.8836 198.701 87.8767 197.289C86.8699 195.879 80.5596 188.086 86.5351 179.641C92.5132 171.199 102.788 178.957 102.788 178.957Z" fill="#4F5962"/>
<path d="M81.2161 214.815C81.7623 218.45 81.1884 223.225 80.0456 236.515C78.9029 249.805 82.0442 265.897 82.0442 265.897C85.9885 267.246 90.5318 265.897 90.5318 265.897C90.4261 264.963 90.5318 233.502 90.5318 230.698C90.5318 227.894 91.3373 224.713 91.5437 221.496C91.6846 219.303 92.7065 215.261 93.8543 211.133C94.1992 209.897 94.5541 208.654 94.8989 207.45C94.8989 207.448 94.8989 207.448 94.8989 207.448C95.0927 206.773 95.284 206.111 95.4678 205.469C97.0838 199.864 99.2585 178.212 99.2585 178.212C99.2585 178.212 87.2092 168.506 81.3419 177.643C75.4746 186.778 78.4876 193.425 78.694 194.565C78.9029 195.713 80.6673 211.183 81.2161 214.815Z" fill="#4F5962"/>
<path d="M104.567 161.313C104.567 161.313 103.498 178.514 106.699 188.193C106.699 188.193 93.9754 190.314 77.7402 184.845C77.7402 184.845 82.2055 173.281 82.052 171.474C81.8985 169.667 77.1991 148.611 79.4544 143.902C81.7097 139.193 103.764 145.878 104.567 161.313Z" fill="#FFB155"/>
<path d="M89.1377 112.246C91.8109 111.096 99.1507 109.49 101.864 120.439C104.578 131.388 100.457 131.93 96.1856 131.972C91.9141 132.015 84.7203 125.081 84.0432 122.843C83.3661 120.608 81.506 115.528 89.1377 112.246Z" fill="#BD734A"/>
<path d="M101.257 118.36C101.257 118.36 98.4457 122.438 95.2717 123.727C95.2717 123.727 93.1725 128.449 88.8934 129.994C88.8934 129.994 78.7294 121.915 85.9711 114.474C93.2152 107.034 100.996 114.925 101.257 118.36Z" fill="#3A3F47"/>
<path d="M86.2129 195.293C86.306 195.499 92.3093 208.827 93.8547 211.138C94.1996 209.902 94.5545 208.659 94.8993 207.455C94.8993 207.453 94.8993 207.453 94.8993 207.453C94.8993 207.453 86.4117 195.587 86.2129 195.293Z" fill="#4F5962"/>
<path d="M79.082 152.652C79.082 152.652 78.6566 161.12 79.3514 166.313C79.6459 164.946 80.0108 163.511 80.3884 162.144C80.3582 161.95 79.1928 153.989 79.082 152.652Z" fill="#946731"/>
<path d="M91.0854 111.463C91.0854 111.463 79.5194 111.569 84.2037 128.391C87.2267 139.242 81.3745 149.527 82.0667 151.475C82.7589 153.423 88.8024 155.439 92.0998 151.51C95.4525 147.516 89.6255 134.558 92.4799 128.595C95.3342 122.632 101.562 118.617 101.562 118.617C101.562 118.617 99.5025 110.044 91.0854 111.463Z" fill="#3A4D58"/>
<path d="M105.592 146.074C105.592 146.074 108.194 155.365 108.743 157.316C109.458 159.85 105.851 163.581 102.916 162.116C99.9786 160.653 105.592 146.074 105.592 146.074Z" fill="#FFB155"/>
<path d="M86.0366 280.518H87.0988V276.037C87.9823 276.11 90.9575 278.927 91.8787 279.74C92.7975 280.553 94.061 280.518 97.9373 280.764C101.814 281.011 102.179 278.69 101.564 277.9C100.95 277.109 98.9694 276.765 97.9373 276.271C93.7917 276.493 88.7299 270.663 86.3034 270.676C85.0121 270.683 85.0247 271.398 84.9844 271.532C84.9819 271.537 84.9819 271.544 84.9794 271.549C84.9366 271.753 84.8863 271.952 84.8334 272.146C84.1614 274.63 86.0366 280.518 86.0366 280.518Z" fill="#4F5962"/>
<path d="M108.182 281.468H109.455C109.455 281.468 109.03 276.655 110.21 276.607C111.388 276.56 114.316 280.524 116.063 281.138C117.809 281.752 126.775 282.271 126.823 280.62C126.871 278.968 123.38 278.306 122.292 277.836C118.595 277.828 112.579 273.756 110.714 272.932C108.849 272.107 106.83 272.603 106.83 272.603C106.717 273.383 106.636 274.095 106.624 274.581C106.578 276.371 108.182 281.468 108.182 281.468Z" fill="#4F5962"/>
<path d="M95.0576 122.476C94.6977 121.965 92.9307 121.404 92.5682 123.121C92.2058 124.835 95.327 126.989 95.9864 126.682C96.6459 126.375 96.4219 124.42 95.0576 122.476Z" fill="#BD734A"/>
<path d="M106.052 204.895V199.455C106.052 198.58 106.765 197.867 107.641 197.867H116.269C117.145 197.867 117.857 198.58 117.857 199.455V204.895C117.857 205.771 117.145 206.483 116.269 206.483H107.641C106.765 206.483 106.052 205.771 106.052 204.895ZM107.641 198.932C107.354 198.932 107.117 199.166 107.117 199.455V204.895C107.117 205.182 107.351 205.418 107.641 205.418H116.269C116.559 205.418 116.793 205.184 116.793 204.895V199.455C116.793 199.169 116.559 198.932 116.269 198.932H107.641Z" fill="#877C78"/>
<path d="M95.7715 227.307H128.139V204.117H95.7715V227.307Z" fill="#C0BB69"/>
<path d="M109.342 203.175C109.342 203.175 108.872 202.609 108.786 202.261C108.786 202.261 108.68 201.617 108.577 201.161C108.544 201.018 108.512 200.892 108.481 200.814C108.361 200.487 107.993 199.805 107.923 198.936C107.85 198.068 108.502 194.245 108.502 194.245L110.669 194.01L112.665 193.502C112.665 193.502 115.786 197.829 115.947 198.629C115.962 198.707 115.975 198.785 115.98 198.861C116.05 199.553 115.811 200.097 115.809 200.464C115.806 200.6 115.693 201.937 115.363 202.166C114.905 202.483 114.46 202.518 114.105 202.377C114.105 202.377 113.181 202.961 112.451 202.871C112.451 202.871 111.618 203.437 110.742 203.064C110.742 203.059 109.831 203.54 109.342 203.175Z" fill="#BD734A"/>
<path d="M101.562 139.584C101.562 139.584 109.778 140.43 108.071 148.127C106.571 154.893 106.448 161.571 106.808 162.774C107.168 163.977 107.366 169.998 108.67 173.373C109.821 176.351 113.8 193.736 113.8 193.736L108.041 195.237C108.041 195.237 102.566 176.346 101.693 174.053C100.82 171.76 95.9641 151.309 96.1353 149.109C96.3064 146.909 96.0547 139.949 101.562 139.584Z" fill="#FFB155"/>
<path d="M84.1735 115.928C84.1735 115.928 81.4147 121.015 84.0023 130.494C84.9009 133.789 76.3781 148.285 82.7991 152.385C89.2202 156.488 94.0631 121.506 84.1735 115.928Z" fill="#3A4D58"/>
</svg>
