<svg width="334" height="201" viewBox="0 0 334 201" fill="none" xmlns="http://www.w3.org/2000/svg">
<path d="M15.6443 74.0865C16.4562 73.6028 17.7103 73.4646 18.7053 72.9291C19.2063 72.6596 19.189 71.5057 20.2462 72.0377C20.6366 72.2347 21.3 72.8047 22.0497 73.1675C23.1414 73.6996 24.7549 73.8032 26.1403 73.6235C31.5921 72.9187 37.0612 72.3176 42.5822 72.2485C42.8966 72.245 43.2075 72.2519 43.4874 72.0896C43.9849 71.7994 44.0954 71.2673 44.2613 70.7456C45.0317 68.341 45.8713 65.9917 47.0908 63.7632C48.1791 61.7767 49.4229 59.9007 51.2989 58.5947C53.1715 57.2853 55.5415 56.7567 57.6249 57.6308C59.1865 58.2838 60.4199 59.5241 60.6064 61.2273C61.0694 65.4527 56.9823 68.2235 54.4394 70.9322C52.0348 73.4957 49.9792 75.6689 47.4916 77.994C47.1841 78.2808 46.8939 78.5502 46.4862 78.6919C46.0786 78.8336 45.6225 78.8059 45.1976 78.761C39.7215 78.2048 34.3941 77.5241 28.9284 78.1668C27.4255 78.343 26.1057 77.9111 24.6754 78.2635C23.7633 78.4881 23.2209 79.3241 22.371 79.6731C21.5176 80.022 20.5191 80.3641 19.6001 80.3468C17.5756 80.3053 15.437 78.4155 14.9291 76.4255C14.6009 75.123 14.9706 74.4873 15.6443 74.0865Z" fill="#EFBFA5"/>
<path d="M54.5123 69.4116C51.5272 67.9709 48.3522 66.9724 45.4639 65.2933C46.7871 62.7678 50.8812 52.3824 51.5376 51.1524C54.0424 46.4606 54.6263 44.3981 57.7115 42.0764C64.3 37.1186 71.2306 41.3992 70.2459 49.1727C69.1784 57.6131 64.0029 64.4814 58.5096 70.5966C58.3887 70.7279 58.2367 70.8281 58.0432 70.8799C57.8497 70.9352 57.5733 70.8385 57.3557 70.7279C56.4332 70.265 55.4555 69.8676 54.5123 69.4116Z" fill="#6A8A69"/>
<path d="M52.5735 186.719C51.4886 186.757 50.4453 186.511 49.3811 186.415C48.8318 175.853 49.8303 164.78 50.2621 154.17C52.9742 154.315 55.6898 154.46 58.4019 154.605C56.5121 160.278 55.1647 166.131 54.3735 172.056C54.2491 172.992 52.7289 186.715 52.5735 186.719Z" fill="#EFD7BA"/>
<path d="M49.0531 184.367C48.3829 184.246 47.989 184.547 47.5399 184.954C47.2807 185.193 47.1045 185.528 46.7901 185.697C46.4757 185.866 46.1717 185.901 45.7986 185.939C43.8396 186.136 39.331 186.053 41.7322 189.328C43.9122 192.299 49.7095 191.118 53.0573 190.309C53.2785 190.257 53.5099 190.223 53.6723 190.054C53.8347 189.884 53.9418 189.639 54.0109 189.39C54.3944 187.991 54.9161 186.243 53.1955 185.659C52.4631 185.41 51.7859 185.894 51.0086 185.624C50.3763 185.4 49.7234 184.484 49.0531 184.367Z" fill="#292949"/>
<path d="M44.1783 160.539C49.7131 160.432 55.2444 160.325 60.7791 160.218C65.2567 138.908 69.1987 117.484 72.6018 95.977C72.8644 94.3082 73.1235 92.5739 72.6433 90.957C71.7346 87.8959 68.4559 86.1477 65.3189 85.5639C60.4405 84.6518 51.4785 85.9197 48.9772 90.9915C46.3342 96.3501 46.7764 105.924 46.1372 111.845C44.3821 128.011 43.7292 144.29 44.1783 160.539Z" fill="#292949"/>
<path d="M84.221 186.719C85.3059 186.757 86.3492 186.511 87.4133 186.415C87.9627 175.853 86.9642 164.78 86.5323 154.17C83.8202 154.315 81.1047 154.46 78.3926 154.605C80.2824 160.278 81.6298 166.131 82.421 172.056C82.5454 172.992 84.0655 186.715 84.221 186.719Z" fill="#EFD7BA"/>
<path d="M87.741 184.367C88.4113 184.246 88.8051 184.547 89.2543 184.954C89.5134 185.193 89.6896 185.528 90.004 185.697C90.3184 185.866 90.6224 185.901 90.9956 185.939C92.9545 186.136 97.4631 186.053 95.062 189.328C92.8819 192.299 87.0846 191.118 83.7368 190.309C83.5157 190.257 83.2842 190.223 83.1218 190.054C82.9594 189.884 82.8523 189.639 82.7832 189.39C82.3997 187.991 81.878 186.243 83.5986 185.659C84.331 185.41 85.0082 185.894 85.7856 185.624C86.4178 185.4 87.0708 184.484 87.741 184.367Z" fill="#292949"/>
<path d="M92.6159 160.539C87.0811 160.432 81.5498 160.325 76.015 160.218C71.5375 138.908 67.5954 117.484 64.1923 95.977C63.9298 94.3082 63.6706 92.5739 64.1509 90.957C65.0595 87.8959 68.3382 86.1477 71.4787 85.5639C76.3571 84.6518 85.3191 85.9197 87.8205 90.9915C90.4635 96.3501 90.0212 105.924 90.6604 111.845C92.412 128.011 93.065 144.29 92.6159 160.539Z" fill="#292949"/>
<path d="M78.427 43.688C82.8631 47.9099 86.1867 53.3341 88.1871 58.9518C91.7318 68.902 91.8009 79.5258 91.832 89.9354C91.8424 93.4007 91.8527 96.866 91.8631 100.328C91.8735 103.738 91.5729 104.47 87.8692 104.021C81.0043 103.188 73.8665 101.772 67.6476 98.7213C64.6868 97.2702 61.9229 95.4357 58.8169 94.2921C54.3013 92.6303 49.6752 93.3834 45.208 92.2986C47.1462 86.4391 48.5351 81.4467 49.5301 75.4076C50.5562 69.1887 51.4856 62.4067 52.9885 56.2743C53.8902 52.5948 55.5658 49.1537 57.2691 45.7679C58.4161 43.4946 59.6288 41.1659 61.5739 39.5214C67.4369 34.5705 74.0081 39.4834 78.427 43.688Z" fill="#6A8A69"/>
<path d="M62.4209 29.0875C63.2604 30.9186 64.6286 32.4456 65.7445 34.1213C66.8328 35.752 67.2232 37.2272 67.51 39.1171C67.7173 40.4818 68.2044 41.5493 69.8489 41.7808C72.948 42.223 72.0635 39.6595 72.7683 37.7973C73.5733 35.6656 75.2904 33.9831 76.4893 32.0829C79.9545 26.5896 78.9664 15.7273 71.7595 13.4091C63.8858 10.8766 59.8781 23.532 62.4209 29.0875Z" fill="#EFD7BA"/>
<path d="M74.9791 23.771C75.8739 23.8056 76.8586 23.8781 77.5219 24.4793C78.1853 25.0804 78.1127 26.3898 77.2386 26.5315C76.444 26.6593 75.4179 25.8301 74.9307 26.4347C74.6474 26.7871 74.8962 27.3054 75.1104 27.72C75.9361 29.3058 76.1814 31.1438 75.7979 32.8332C76.1261 33.1373 76.634 32.8229 76.9208 32.5085C78.3442 30.9434 79.4567 29.1158 80.1857 27.143C80.4724 27.6198 80.8905 28.0275 81.388 28.3038C81.0909 27.561 81.2774 26.7526 81.4605 25.996C82.1342 23.2182 82.5937 19.9602 80.6521 17.6904C79.6122 16.4742 78.0333 15.7763 76.4475 15.4827C74.8582 15.189 73.2413 15.2616 71.6382 15.3341C70.9541 15.3652 70.1111 15.5138 69.9453 16.146C71.4482 16.7472 72.9995 17.9218 73.7526 19.3453C73.9841 19.7806 74.8858 23.7676 74.9791 23.771Z" fill="#292949"/>
<path d="M71.8042 17.099C71.8595 17.137 71.9113 17.1785 71.9666 17.2199C72.6472 17.7382 73.2864 18.367 74.1087 18.5985C75.2972 18.9301 76.572 18.3566 77.7398 18.7608C79.0457 19.2134 79.906 20.7751 80.8596 21.701C82.4246 23.2177 84.3628 24.3336 86.4461 24.9659C87.5103 25.2906 88.6124 25.4875 89.7214 25.5497C90.2258 25.5774 90.8961 25.6741 91.3867 25.5428C92.0466 25.3666 92.0224 25.066 91.321 24.8415C89.1203 24.1367 88.4327 21.048 88.5986 18.9992C88.7298 17.3823 89.2861 15.6929 88.6711 14.1934C88.2012 13.0464 87.189 12.4556 86.2112 11.7992C85.1333 11.0771 83.9655 11.2706 82.739 10.9216C81.4607 10.5589 80.4208 9.5535 79.1183 9.29784C77.7432 9.02836 76.3682 9.63642 74.9897 9.9059C73.853 10.127 72.668 10.1132 71.5382 9.86445C70.5225 9.63988 69.5344 9.2322 68.4979 9.23911C66.9674 9.25293 65.5578 10.2099 64.6664 11.4537C63.4019 13.2123 62.5865 16.2215 63.0322 18.5397C62.9631 18.1804 64.1724 16.8779 64.4211 16.5981C64.9463 16.0073 65.5785 15.4545 66.38 15.3578C68.1939 15.1366 70.3463 16.0384 71.8042 17.099Z" fill="#292949"/>
<path d="M11.4883 88.3183C11.4883 88.3183 13.1812 96.3648 12.0514 100.006L15.1298 100.03L14.1347 87.0918L11.4883 88.3183Z" fill="#BABCBE"/>
<path d="M14.9841 98.6244C14.1203 98.7626 13.2566 98.8593 12.386 98.918C12.2478 98.9284 12.272 99.1564 12.4136 99.1461C13.2842 99.0839 14.1514 98.9871 15.0117 98.8524C15.1464 98.8317 15.1223 98.6036 14.9841 98.6244Z" fill="#BABCBE"/>
<path d="M14.8458 97.4056C14.1065 97.5058 13.3706 97.606 12.5241 97.7235C12.386 97.7407 12.4101 97.9722 12.5518 97.9515C13.3257 97.8444 14.0996 97.7407 14.8735 97.6336C15.0082 97.6164 14.984 97.3849 14.8458 97.4056Z" fill="#BABCBE"/>
<path d="M14.725 96.3583C14.155 96.5276 13.8026 96.6313 12.507 96.6175C12.3653 96.6175 12.393 96.8489 12.5346 96.8455C13.2844 96.8386 14.0202 96.7522 14.7527 96.5864C14.8874 96.5587 14.8632 96.3272 14.725 96.3583Z" fill="#BABCBE"/>
<path d="M14.7845 94.8799C14.0382 95.0595 13.2851 95.1873 12.5215 95.2703C12.3833 95.2841 12.4075 95.5121 12.5457 95.4983C13.3093 95.4188 14.0624 95.291 14.8087 95.1113C14.9434 95.0768 14.9193 94.8488 14.7845 94.8799Z" fill="#BABCBE"/>
<path d="M14.5765 93.5677C13.8406 93.6783 13.1013 93.7681 12.3585 93.8338C12.2203 93.8476 12.2444 94.0756 12.3826 94.0618C13.1254 93.9962 13.8648 93.9063 14.6007 93.7958C14.7389 93.775 14.7147 93.547 14.5765 93.5677Z" fill="#BABCBE"/>
<path d="M14.3727 92.266C13.6575 92.4007 12.9424 92.5078 12.2203 92.5873C12.0821 92.6011 12.1063 92.8326 12.2445 92.8153C12.9665 92.7359 13.6852 92.6288 14.4003 92.494C14.5351 92.4664 14.5109 92.2384 14.3727 92.266Z" fill="#BABCBE"/>
<path d="M14.2597 90.7719C13.4961 90.9342 12.7257 91.0655 11.9483 91.1657C11.9242 91.1692 11.9069 91.1795 11.8931 91.1899C11.8931 91.2003 11.8965 91.2072 11.8965 91.2175C11.9103 91.2728 11.9242 91.3315 11.938 91.3868C11.9483 91.3903 11.9587 91.3937 11.976 91.3937C12.7499 91.2935 13.5203 91.1623 14.2873 90.9999C14.4221 90.9722 14.3944 90.7442 14.2597 90.7719Z" fill="#BABCBE"/>
<path d="M14.1997 89.2845C13.4465 89.3951 12.6899 89.5022 11.9367 89.6128C11.7985 89.6335 11.8227 89.8615 11.9644 89.8408C12.7176 89.7302 13.4742 89.6231 14.2273 89.5126C14.3655 89.4918 14.3379 89.2638 14.1997 89.2845Z" fill="#BABCBE"/>
<path d="M65.7789 112.355L10.756 116.964C10.687 116.971 10.6248 116.916 10.6179 116.843L9.83704 107.653C9.83013 107.58 9.88196 107.518 9.95451 107.511L64.9808 102.899C65.0499 102.892 65.1121 102.947 65.119 103.02L65.8999 112.21C65.9033 112.286 65.8515 112.348 65.7789 112.355Z" fill="#A9453D"/>
<path d="M20.4469 116.156L14.6634 116.639L13.8618 107.187L19.6453 106.703L20.4469 116.156Z" fill="#902921"/>
<path d="M23.0682 115.939L21.7796 116.046L20.978 106.593L22.2633 106.486L23.0682 115.939Z" fill="#902921"/>
<path d="M27.5537 110.803C27.6331 111.729 26.9594 112.537 26.0542 112.613C25.1491 112.689 24.351 112.002 24.2715 111.076C24.192 110.15 24.8657 109.342 25.7709 109.266C26.6761 109.189 27.4742 109.877 27.5537 110.803Z" fill="#902921"/>
<path d="M65.4399 102.971L10.4136 107.584C10.3445 107.59 10.2823 107.535 10.2754 107.463L9.65003 100.1C9.64312 100.028 9.69495 99.9655 9.7675 99.9586L64.7938 95.3463C64.8629 95.3394 64.9251 95.3947 64.932 95.4672L65.5574 102.83C65.5608 102.902 65.509 102.968 65.4399 102.971Z" fill="#5D66D3"/>
<path d="M16.854 101.537L17.1339 104.843L18.7473 103.227L16.854 101.537Z" fill="#EED5D5"/>
<path d="M19.0918 101.676L19.3198 104.343L20.6223 103.037L19.0918 101.676Z" fill="#EED5D5"/>
<path d="M13.5238 107.321L13.275 107.341L12.6255 99.72L12.8777 99.6992L13.5238 107.321Z" fill="#EED5D5"/>
<path d="M14.6971 107.223L14.4484 107.244L13.7988 99.6223L14.051 99.6016L14.6971 107.223Z" fill="#EED5D5"/>
<path d="M24.1885 14.8804L20.2706 16.3315L20.3224 15.3883C20.4814 12.5518 19.9908 9.13835 19.165 6.41242L19.3274 6.24313L22.9205 3.14062L24.1885 14.8804Z" fill="#EED5D5"/>
<path d="M46.5826 13.3594L23.8528 14.3648L20.1768 16.2891L44.793 15.2561L46.5826 13.3594Z" fill="#9EB79C"/>
<path d="M20.1111 16.0324C20.771 15.8562 21.3963 15.4174 22.0217 15.0719C22.609 14.7472 23.1963 14.4224 23.7802 14.0977C23.8735 14.0458 23.946 14.3533 23.8528 14.4051C23.2205 14.7541 22.5883 15.1065 21.9526 15.4589C21.3583 15.7871 20.7675 16.1879 20.1422 16.3572C20.0455 16.3814 20.0109 16.06 20.1111 16.0324Z" fill="#B0C0BA"/>
<path d="M22.9269 3.56642C21.6106 4.42324 20.3392 5.47699 19.1162 6.72766C18.9883 6.85895 18.826 6.44091 18.9538 6.30962C20.1941 5.04167 21.4828 3.96719 22.8164 3.09655C22.9546 3.01018 23.0651 3.47659 22.9269 3.56642Z" fill="#B0C0BA"/>
<path d="M45.6394 2.25391L22.7368 3.14182L23.0927 5.6639C23.3794 7.7023 23.5867 9.75106 23.7111 11.7895L23.8528 14.3634L46.5826 13.3614L46.5895 13.2094C46.783 9.61977 46.4513 5.81246 45.6394 2.25391Z" fill="#8CABEF"/>
<path d="M26.1993 3.2683C26.1337 2.947 25.6327 3.00573 25.7018 3.32704C26.4066 6.70248 26.6588 10.1401 26.4412 13.5812C26.4205 13.9094 26.918 13.9889 26.9387 13.6572C27.1529 10.1712 26.9111 6.68866 26.1993 3.2683Z" fill="#5D66D3"/>
<path d="M42.9109 2.7372C42.8418 2.41589 42.3409 2.47808 42.4134 2.80284C43.1459 6.17138 43.4292 9.60556 43.2391 13.0501C43.2219 13.3783 43.7194 13.4509 43.7366 13.1227C43.9267 9.63666 43.6537 6.15411 42.9109 2.7372Z" fill="#5D66D3"/>
<path d="M13.268 29.9889L4.47873 32.2312L4.6653 30.9597C5.22845 27.1283 4.38891 22.5643 2.76855 18.9505L3.13823 18.7086L11.3333 14.2656L13.268 29.9889Z" fill="#EFBFA5"/>
<path d="M63.0005 26.3027L12.5589 29.3223L4.26709 32.183L58.8927 28.9907L63.0005 26.3027Z" fill="#292949"/>
<path d="M4.1438 31.8483C5.6225 31.5615 7.03902 30.9258 8.45207 30.411C9.77876 29.9308 11.0985 29.4506 12.4218 28.9703C12.6325 28.8943 12.7673 29.302 12.56 29.378C11.1331 29.8963 9.70621 30.4145 8.27587 30.9362C6.93537 31.4233 5.59832 32.0072 4.19563 32.2801C3.97106 32.3216 3.92269 31.8932 4.1438 31.8483Z" fill="#353A85"/>
<path d="M11.309 14.8431C8.33089 16.0972 5.43222 17.607 2.63375 19.3829C2.34354 19.566 2.01186 19.0201 2.30208 18.8335C5.14201 17.0335 8.07869 15.4926 11.1017 14.2212C11.4127 14.0899 11.62 14.7118 11.309 14.8431Z" fill="#353A85"/>
<path d="M61.7323 11.4121L10.9175 14.29L11.5186 17.662C12.0023 20.388 12.3098 23.1312 12.4342 25.8675L12.5586 29.3224L63.0002 26.3028L63.0313 26.0955C63.7189 21.2551 63.2697 16.1453 61.7323 11.4121Z" fill="#3B3387"/>
<path d="M60.9309 95.5941L14.3656 99.4982L13.4189 88.3181L59.9842 84.4141L60.0429 84.5626C61.4042 88.0728 61.7151 91.9147 60.9309 95.5941Z" fill="#FABD68"/>
<path d="M24.6934 87.3669L18.1865 87.9121L19.1235 99.0944L25.6304 98.5491L24.6934 87.3669Z" fill="#E69421"/>
<path d="M12.5803 76.4638L3.83252 75.918L4.22983 76.8784C5.42523 79.7667 5.42523 83.3944 4.5235 86.3725L4.91391 86.5107L13.4199 88.8981L12.5803 76.4638Z" fill="#EFBFA5"/>
<path d="M63.035 72.3924L12.0128 77.0842L3.6416 75.9855L58.3121 70.8066L63.035 72.3924Z" fill="#292949"/>
<path d="M3.58325 76.2606C5.0274 76.2847 6.48192 76.5853 7.9088 76.7926C9.25276 76.9861 10.5967 77.183 11.9407 77.3765C12.1549 77.4076 12.2136 77.0725 12.0029 77.0414C10.5518 76.8306 9.10074 76.6199 7.64968 76.4091C6.2919 76.2122 4.92721 75.9427 3.55561 75.922C3.33795 75.9151 3.36905 76.2571 3.58325 76.2606Z" fill="#353A85"/>
<path d="M13.2993 88.4558C10.2555 87.865 7.26009 87.0669 4.32342 86.0581C4.01939 85.9544 3.80173 86.4139 4.10921 86.521C7.08734 87.5437 10.1242 88.3625 13.2094 88.9637C13.5273 89.0224 13.6171 88.518 13.2993 88.4558Z" fill="#353A85"/>
<path d="M64.0752 84.6506L13.0186 88.9278L13.0151 86.2571C13.0117 84.0909 12.8355 81.9247 12.4865 79.7861L12.0132 77.0809L63.0318 72.3926L63.094 72.555C64.5934 76.4037 64.932 80.6153 64.0752 84.6506Z" fill="#474EBB"/>
<path d="M58.0366 72.0215L9.65055 76.0776C9.58145 76.0845 9.51926 76.0292 9.51235 75.9566L8.55189 64.628C8.54498 64.5554 8.5968 64.4932 8.66935 64.4863L57.0519 60.4303C57.121 60.4234 57.1832 60.4786 57.1901 60.5512L58.1506 71.8798C58.1575 71.9524 58.1056 72.018 58.0366 72.0215Z" fill="#6A8A69"/>
<path d="M63.0461 51.6667L3.22778 56.6798C3.15868 56.6867 3.0965 56.6314 3.08959 56.5589L2.39515 48.3604C2.38824 48.2878 2.44006 48.2256 2.51262 48.2187L62.3275 43.2057C62.3966 43.1988 62.4587 43.254 62.4657 43.3266L63.1601 51.5251C63.167 51.5976 63.1152 51.6633 63.0461 51.6667Z" fill="#5D66D3"/>
<path d="M52.7397 44.1704L14.6113 47.3662L13.1948 30.6548L51.3232 27.459L51.5409 28.378C52.6913 33.239 53.1163 38.2452 52.8019 43.2272L52.7397 44.1704Z" fill="#A9453D"/>
<path d="M26.3966 46.27L18.8304 46.9057L17.4312 30.4155L24.9974 29.7832L26.3966 46.27Z" fill="#EED5D5"/>
<path d="M23.3095 29.9214L19.061 30.2773L20.4426 46.765L24.691 46.409L23.3095 29.9214Z" fill="#A9453D"/>
<g opacity="0.13">
<g opacity="0.13">
<path opacity="0.13" d="M13.2021 30.7544L51.3305 27.5586L52.2288 31.815L13.2782 31.6596L13.2021 30.7544Z" fill="#000100"/>
</g>
</g>
<g opacity="0.64">
<g opacity="0.64">
<path opacity="0.64" d="M32.9851 7.90178C33.1094 9.35629 32.0522 10.6346 30.6288 10.7521C29.2019 10.873 27.9478 9.78816 27.8234 8.33364C27.699 6.87913 28.7562 5.60081 30.1797 5.48334C31.6065 5.36587 32.8641 6.44726 32.9851 7.90178Z" fill="#5D66D3"/>
</g>
</g>
<path d="M8.73147 51.8725C8.16141 51.2644 7.5257 50.7635 6.81399 50.342C6.53414 50.1761 6.31994 50.6391 6.59979 50.8049C7.20785 51.1642 7.74682 51.5926 8.24087 52.0936C7.80555 52.7051 7.32877 53.2786 6.81054 53.821C6.58597 54.056 6.96946 54.3877 7.19403 54.1527C7.76755 53.555 8.28924 52.9193 8.76256 52.2352C8.84548 52.1109 8.83166 51.9796 8.73147 51.8725Z" fill="#DDDAE8"/>
<path d="M11.634 51.5225C11.247 51.0215 10.5733 50.6242 10.0896 50.2269C9.83744 50.0196 9.51268 50.41 9.76489 50.6173C10.176 50.9524 10.753 51.291 11.1192 51.6987C10.9499 51.9509 10.6459 52.1962 10.4593 52.4C10.214 52.6729 9.96527 52.9493 9.71997 53.2223C9.50231 53.4641 9.88581 53.7958 10.1035 53.5539C10.4006 53.2257 10.6943 52.8975 10.9914 52.5693C11.209 52.3275 11.5165 52.0856 11.6513 51.7816C11.6927 51.6987 11.6893 51.5916 11.634 51.5225Z" fill="#DDDAE8"/>
<path d="M13.0297 49.4258C12.7809 49.215 12.4562 49.6054 12.7049 49.8162C12.8535 49.944 13.1679 50.4001 12.8327 50.4934C12.5218 50.5832 12.698 51.0634 13.0089 50.9736C13.3199 50.8838 13.4892 50.5763 13.4754 50.2584C13.4615 49.9302 13.275 49.6296 13.0297 49.4258Z" fill="#DDDAE8"/>
<path d="M15.928 50.4867C15.8485 50.39 15.738 50.3727 15.6447 50.4038C15.2059 50.2242 14.6808 50.352 14.4044 50.7528C14.1314 51.1501 14.2247 51.7132 14.5668 52.0415C14.9468 52.4008 15.5307 52.3593 15.8934 52.0035C16.3149 51.5958 16.2873 50.9255 15.928 50.4867ZM15.5652 51.62C15.3856 51.8134 15.0815 51.848 14.895 51.6511C14.508 51.2434 14.9779 50.6629 15.4547 50.8771C15.5065 50.8979 15.5514 50.9048 15.5963 50.8979C15.7311 51.1225 15.7622 51.4092 15.5652 51.62Z" fill="#DDDAE8"/>
<path d="M50.6287 60.9553L50.0503 61.0039L51.0274 72.6372L51.6058 72.5886L50.6287 60.9553Z" fill="#DDDAE8"/>
<path d="M52.9597 60.762L52.3813 60.8105L53.3585 72.4438L53.9369 72.3952L52.9597 60.762Z" fill="#DDDAE8"/>
<g opacity="0.11">
<g opacity="0.11">
<path opacity="0.11" d="M13.4189 88.8959L60.1984 84.9746C60.1984 84.9746 60.5957 86.0905 60.7719 86.8437L13.495 89.1792L13.4189 88.8959Z" fill="#000100"/>
</g>
</g>
<path d="M60.6515 60.2375L0.836706 65.254C0.767607 65.2609 0.705419 65.2057 0.698509 65.1331L0.000617655 56.9346C-0.00629216 56.8621 0.0455315 56.7999 0.118085 56.793L59.9329 51.7799C60.002 51.773 60.0642 51.8283 60.0711 51.9008L60.7656 60.0993C60.7725 60.1684 60.7206 60.234 60.6515 60.2375Z" fill="#292949"/>
<path d="M8.04706 58.6391L7.1416 58.7148L7.43118 62.1749L8.33664 62.0991L8.04706 58.6391Z" fill="#DDDAE8"/>
<path d="M10.8908 58.4047L9.98535 58.4805L10.2749 61.9405L11.1804 61.8647L10.8908 58.4047Z" fill="#DDDAE8"/>
<path d="M63.2569 51.4988L3.27619 56.6086C3.09999 56.6259 2.95488 56.4704 2.97561 56.2908L63.0392 50.6973L63.2569 51.4988Z" fill="#EED5D5"/>
<path d="M63.0074 51.1492L3.02326 56.259C2.84706 56.2763 2.70195 56.1208 2.72268 55.9412L62.7863 50.3477L63.0074 51.1492Z" fill="#DDDAE8"/>
<path d="M10.5835 32.2376C10.5835 32.2376 13.2714 42.6818 11.5198 47.2388L14.6119 47.3666L13.2023 30.752L10.5835 32.2376Z" fill="#BABCBE"/>
<path d="M56.5368 86.4766C56.5749 86.3729 56.6129 86.2693 56.675 86.1829C57.2555 85.3917 58.0294 85.3261 58.7998 84.7284C59.1453 84.4624 59.0451 83.3464 59.9054 83.6436C60.2232 83.7541 60.9626 84.1341 61.6363 84.376C62.6175 84.7284 64.0755 84.5833 65.2156 84.2516C66.7426 83.8094 68.3492 83.3015 69.783 82.6416C71.2824 81.9506 72.7438 81.1802 74.1742 80.351C75.3626 79.66 77.2525 78.8689 78.1508 77.8151C79.6709 76.0358 77.9089 71.7034 77.7085 69.4819C77.5012 67.1671 77.7016 60.3506 80.8249 60.1571C85.9416 59.8427 86.0245 64.7037 86.2525 68.6216C86.3942 71.0642 86.3838 73.5552 86.1661 75.9944C85.8587 79.4113 83.6441 81.3668 80.7178 82.9837C77.6152 84.6973 74.4436 86.3798 71.0371 87.399C69.3822 87.8965 67.7515 88.0416 66.0586 88.3146C64.3899 88.5841 64.6006 89.3131 63.2014 89.9246C62.4206 90.2666 61.6881 90.7607 60.852 90.9507C59.3561 91.2927 58.1537 90.2562 57.0171 89.4513C56.7338 89.2509 56.5403 89.1161 56.3952 88.8259C56.1568 88.356 56.2501 87.8516 56.3226 87.3472C56.3676 87.0535 56.4367 86.7599 56.5368 86.4766Z" fill="#EFD7BA"/>
<path d="M86.1554 69.9481C83.2602 70.5078 80.3684 71.071 77.4766 71.6307C77.6632 71.5961 74.1288 58.6575 73.9457 57.8801C73.2444 54.9123 72.5396 51.834 73.1407 48.8455C74.426 42.4643 77.5008 40.8923 81.3772 47.5983C85.036 53.9277 90.7711 61.5043 89.6345 68.7113C89.6103 68.8667 89.5792 69.0326 89.4824 69.1569C89.3477 69.3262 89.1128 69.378 88.902 69.4195L86.1554 69.9481Z" fill="#6A8A69"/>
<path d="M158.091 48.127C162.292 50.6837 166.994 52.4215 171.851 53.2057C172.719 49.2257 173.638 45.256 174.605 41.2967C175.023 39.5899 175.458 37.859 176.294 36.3009C176.74 35.4717 178.409 33.9619 177.891 32.8874C176.982 31.0045 173.023 33.0878 171.893 33.7131C168.946 35.3439 166.248 37.6137 163.933 40.0425C163.373 40.6333 157.579 47.8161 158.091 48.127Z" fill="#C0BB69"/>
<path d="M198.578 141.789L198.848 158.082C198.737 162.601 199.145 167.11 199.421 171.615C199.677 175.799 198.834 180.114 200.817 183.994C201.439 185.21 202.765 186.057 203.771 184.654C204.548 183.573 204.189 181.697 204.382 180.443C205.823 170.997 208.508 161.786 209.848 152.323C211.254 142.407 207.419 142.67 198.578 141.789Z" fill="#B97262"/>
<path d="M199.504 181.208L198.458 183.927L203.612 188.463L208.335 188.66L209.862 186.165L203.512 180.645L199.504 181.208Z" fill="#4F5962"/>
<path d="M187.039 141.95L184.067 157.97C183.038 165.139 180.695 172.118 179.666 179.283C179.427 180.931 179.548 182.735 178.861 184.289C178.187 185.81 176.867 185.872 175.703 184.839C174.145 183.457 174.863 180.987 174.891 179.097C175.081 166.517 174.093 154.118 173.855 141.521C173.851 141.355 173.858 141.165 173.986 141.062C174.09 140.975 174.238 140.979 174.373 140.986C175.592 141.072 186.973 142.295 187.039 141.95Z" fill="#B97262"/>
<path d="M174.853 181.875L173.219 184.287L177.217 189.87L181.774 191.124L183.822 189.044L178.882 182.231L174.853 181.875Z" fill="#4F5962"/>
<path d="M215.373 152.158L213.148 128.865L212.077 113.729L208.473 101.367L189.012 98.3477L164.952 102.473L163.794 107.147L168.424 150.417L191.631 152.158L191.316 125.227L194.896 141.918L194.747 152.158H215.373Z" fill="#4F5962"/>
<path d="M170.058 55.8567C170.027 56.6445 170.003 57.4287 169.989 58.213C169.706 74.1919 170.587 90.3713 170.69 106.482C178.941 105.189 187.281 104.478 195.631 104.353C197.563 104.326 206.352 105.68 207.575 104.526C209.237 102.961 207.409 103.255 207.53 101.216C207.689 98.5767 206.418 96.4139 206.898 93.2872C207.461 89.6112 208.58 85.9732 209.226 82.2972C210.519 74.9278 211.299 67.4652 211.552 59.9854C211.776 53.3519 211.534 46.4732 208.684 40.4789C201.65 25.7023 178.972 25.9649 172.746 41.398C170.905 45.9688 170.265 50.9162 170.058 55.8567Z" fill="#FABD68"/>
<path d="M195.652 35.1297L189.492 46.3547C189.813 57.6937 190.135 69.0362 190.456 80.3752C190.605 85.6025 190.753 90.8263 190.902 96.0536C190.954 97.8674 190.999 99.6847 191.057 101.499C191.085 102.314 190.86 103.685 191.323 104.349C192.332 105.793 196.019 105.34 197.625 105.468C200.133 105.665 202.676 105.869 205.039 106.736C206.611 107.313 208.104 108.18 209.762 108.415C210.135 108.467 210.55 108.474 210.844 108.239C211.172 107.973 211.227 107.507 211.258 107.085C211.835 99.3012 211.845 91.2754 212.277 83.4051C212.616 77.2174 213.455 70.9778 213.158 64.7832C212.854 58.4089 211.856 52.0657 210.64 45.8088C209.918 42.1052 209.071 38.3289 207.029 35.1539C204.718 31.5539 201.446 30.1132 197.414 29.3013C195.991 29.0145 190.691 27.0107 191.576 30.2479C192.018 31.8441 194.571 33.8445 195.652 35.1297Z" fill="#C0BB69"/>
<path d="M182.25 36.184L188.41 47.409C188.283 47.409 187.63 74.9274 187.578 76.7827C187.377 83.8445 187.177 90.9098 186.977 97.9716C186.921 99.934 187.184 102.235 186.8 104.166C186.265 106.861 183.428 106.329 181.01 106.547C175.724 107.023 170.158 107.925 164.855 107.659C163.324 107.583 165.339 75.6667 165.335 72.6921C165.325 61.9818 163.114 50.0969 168.555 40.3852C170.137 37.5591 172.929 33.0297 176.011 31.6339C178.882 30.3349 182.99 30.1138 186.106 29.3848L186.268 31.4024L182.25 36.184Z" fill="#C0BB69"/>
<path d="M195.617 8.99158C196.588 10.6914 197.055 12.6503 197.141 14.6024C197.165 15.1206 197.2 15.7217 197.618 16.0292C198.067 16.3575 197.673 17.0795 198.015 16.6408C198.357 16.202 199.518 14.6749 199.57 14.1187C199.691 12.8196 199.691 11.5102 199.563 10.2112C199.452 9.08141 199.221 7.89983 198.481 7.03956C198.043 6.52823 197.459 6.16892 196.882 5.82343C196.046 5.31902 195.185 4.81114 194.225 4.63149C192.57 4.324 191.558 4.91479 193.016 6.06873C194.07 6.89445 194.954 7.82728 195.617 8.99158Z" fill="#3A4D58"/>
<path d="M185.287 31.1649C185.298 31.9664 185.135 32.7956 185.84 33.414C186.179 33.7111 186.638 33.8321 187.084 33.9012C188.238 34.0843 189.433 33.9979 190.549 33.6559C191.009 33.5142 191.465 33.3242 191.814 32.9891C192.221 32.5952 192.245 32.2221 192.263 31.7073C192.287 31.1027 192.408 30.4912 192.487 29.8797C192.66 28.5426 192.736 27.1952 192.777 25.8478C194.757 25.5092 197.089 24.8666 197.766 22.7902C197.981 22.1372 197.987 21.4255 197.991 20.7311C198.012 17.8566 198.032 14.9786 198.053 12.1041C198.06 11.1091 198.063 10.0865 197.721 9.16056C197.124 7.54021 195.607 6.57629 194.118 5.96823C190.318 4.41697 185.888 4.47916 182.382 6.68339C181.449 7.27073 180.568 8.0239 180.029 9.05001C179.2 10.6289 179.303 12.5809 179.435 14.4017C179.552 16.0842 179.673 17.7667 179.79 19.4493C179.929 21.384 180.219 23.6124 181.722 24.6316C182.52 25.1741 183.549 25.2743 184.237 25.9756C185.436 27.2021 184.866 29.0332 185.222 30.5188C185.27 30.733 185.284 30.9472 185.287 31.1649Z" fill="#B97262"/>
<path d="M199.097 4.00755C199.287 3.30966 199.425 2.6014 199.515 1.88278C198.851 2.11426 198.129 2.17645 197.435 2.06244C197.435 1.64785 197.431 1.23671 197.431 0.822124C197.428 0.476633 192.778 0.238244 192.397 0.20715C188.86 -0.0830624 185.622 -0.359455 182.423 1.54074C179.69 3.16455 177.939 5.58644 177.517 8.74078C177.116 11.7535 178.101 15.6886 179.846 18.1865C179.835 17.385 179.376 15.4917 179.562 14.7316C179.68 13.9681 179.943 13.2322 180.305 12.5515C181.031 11.1938 182.157 10.0502 183.46 9.23483C185.533 7.93578 187.944 7.24826 190.352 6.91313C192.56 6.60564 195.248 6.32234 197.428 6.90622C198.475 7.18607 198.651 7.44864 199.283 6.39144C199.394 6.20487 200.282 4.02828 200.195 4.02482C199.832 4.02137 199.463 4.01446 199.097 4.00755Z" fill="#3A4D58"/>
<path d="M268.06 57.397L189.029 65.2534L109.994 57.397C107.77 57.1759 105.88 59.0139 106.018 61.263L109.314 139.458C109.424 141.244 110.796 142.688 112.561 142.871C125.566 144.208 176.311 149.273 182.002 149.923C182.288 149.954 182.541 150.127 182.672 150.386C183.055 151.129 184.424 152.652 189.026 152.652C193.624 152.652 194.996 151.129 195.379 150.386C195.514 150.127 195.763 149.957 196.049 149.923C201.74 149.277 252.485 144.208 265.49 142.871C267.255 142.688 268.63 141.248 268.737 139.458L272.033 61.263C272.175 59.0139 270.282 57.1759 268.06 57.397Z" fill="#3B455A"/>
<path d="M268.06 56.104L189.029 63.9605L109.994 56.104C107.77 55.8829 105.88 57.7209 106.018 59.9701L109.314 138.165C109.424 139.951 110.796 141.395 112.561 141.578C125.566 142.916 176.311 147.98 182.002 148.63C182.288 148.661 182.541 148.834 182.672 149.093C183.055 149.836 184.424 151.359 189.026 151.359C193.624 151.359 194.996 149.836 195.379 149.093C195.514 148.834 195.763 148.664 196.049 148.63C201.74 147.984 252.485 142.916 265.49 141.578C267.255 141.395 268.63 139.955 268.737 138.165L272.033 59.9701C272.175 57.7244 270.282 55.8829 268.06 56.104Z" fill="#536281"/>
<path d="M189.322 63.3893C152.914 39.0391 116.206 50.0602 116.206 50.0602V134.633C166.952 124.337 189.025 145.664 189.025 145.664C189.025 145.664 211.099 124.337 261.844 134.633V50.0602C261.848 50.0602 225.734 39.0391 189.322 63.3893Z" fill="#DFD8C7"/>
<path d="M116.206 50.0645C116.206 50.0645 114.579 56.501 108.92 60.3601L112.561 141.163C112.561 141.163 116.206 138.313 116.206 134.637V50.0645Z" fill="#C1BBAC"/>
<path d="M261.848 50.0645C261.848 50.0645 263.475 56.501 269.135 60.3601L265.493 141.163C265.493 141.163 261.848 138.313 261.848 134.637V50.0645Z" fill="#C1BBAC"/>
<path d="M112.562 141.161C112.562 141.161 163.18 129.576 185.81 149.985H189.023V145.662C189.023 145.662 166.179 123.969 116.203 134.631L112.562 141.161Z" fill="#CBC4B5"/>
<path d="M265.489 141.161C265.489 141.161 214.872 129.576 192.242 149.985H189.029V145.662C189.029 145.662 211.873 123.969 261.848 134.631L265.489 141.161Z" fill="#CBC4B5"/>
<path d="M151.305 44.8864C146.918 44.4511 142.564 44.2783 138.418 44.2368C136.508 44.2161 120.792 44.8173 120.792 45.3528V69.2642V130.451C120.792 129.912 136.542 129.314 138.46 129.335C151.989 129.476 167.194 131.954 179.155 138.559C181.156 139.661 189.261 144.004 189.261 147.058V64.2339C189.261 62.5444 188.632 60.9137 187.475 59.6768C178.395 49.9547 164.693 46.2131 151.305 44.8864Z" fill="#FCECDB"/>
<path d="M227.223 44.8864C231.611 44.4511 235.964 44.2783 240.11 44.2368C242.021 44.2161 257.737 44.8173 257.737 45.3528V69.2642V130.451C257.737 129.912 241.986 129.314 240.069 129.335C226.539 129.476 211.334 131.954 199.373 138.559C197.373 139.661 189.268 144.004 189.268 147.058V64.2339C189.268 62.5444 189.896 60.9137 191.054 59.6768C200.133 49.9547 213.835 46.2131 227.223 44.8864Z" fill="#FEE7CF"/>
<path d="M329.022 65.0387C328.908 64.9868 328.787 64.935 328.666 64.9212C327.536 64.7795 326.863 65.3807 325.743 65.5534C325.242 65.6294 324.379 64.6586 323.947 65.6225C323.788 65.9784 323.518 66.9043 323.183 67.6678C322.696 68.7769 321.411 69.8928 320.226 70.5872C315.569 73.3201 310.296 74.7089 305.041 75.9182C304.741 75.9873 304.426 76.0529 304.129 75.9769C303.597 75.8387 303.286 75.2997 303.027 74.8126C301.825 72.56 300.415 70.4179 298.816 68.4245C297.389 66.6452 295.768 64.9488 293.716 63.9607C291.664 62.9692 289.101 62.7964 287.166 63.9987C285.718 64.9005 284.751 66.5346 284.664 68.2379C284.447 72.4633 290.013 75.1512 292.925 77.3139C295.679 79.3627 298.577 81.2145 301.59 82.8556C301.963 83.0595 302.35 83.2633 302.772 83.3013C303.221 83.3428 303.663 83.1977 304.091 83.0526C309.595 81.1731 314.898 78.8168 320.184 76.3431C321.635 75.6625 322.547 74.3047 323.895 73.6897C324.755 73.2959 325.712 73.6068 326.607 73.4134C327.491 73.2233 328.604 72.75 329.357 72.2491C330.839 71.2575 330.922 69.4195 331.154 67.8199C331.212 67.4225 331.25 67.1531 331.123 66.7972C330.915 66.2202 330.418 65.8955 329.931 65.5569C329.644 65.3565 329.34 65.1769 329.022 65.0387Z" fill="#EFBFA5"/>
<path d="M292.479 75.7305C295.26 73.7371 298.041 71.747 300.826 69.7535C300.646 69.8814 292.558 56.5765 292.047 55.8026C290.106 52.8418 288.071 49.7911 285.072 47.9116C278.666 43.9005 270.571 49.6909 273.035 57.112C275.709 65.1689 281.679 72.8837 288.661 77.6722C288.813 77.7759 288.976 77.8829 289.159 77.8968C289.411 77.9175 289.639 77.762 289.846 77.6169C290.724 76.9881 291.601 76.3593 292.479 75.7305Z" fill="#DDDAE8"/>
<path d="M286.095 179.196L285.974 187.785L291.063 187.854L291.197 178.332L286.095 179.196Z" fill="#EFD7BA"/>
<path d="M290.61 186.512L286.185 187.973L284.865 189.393L285.089 192.758L297.054 193.688C298.066 192.216 297.406 190.219 295.72 189.638L295.164 189.448L290.61 186.512Z" fill="#4F5962"/>
<path d="M249.414 170.965L246.042 178.866L250.727 180.86L254.465 172.102L249.414 170.965Z" fill="#EFD7BA"/>
<path d="M250.64 181.005C250.471 180.818 250.277 180.642 250.049 180.476C249.486 180.065 244.95 177.661 244.56 178.745C244.497 178.922 244.518 179.115 244.539 179.302C244.912 182.421 245.644 185.496 246.715 188.447C247.175 189.711 247.869 191.107 249.175 191.425C249.749 191.563 250.35 191.463 250.923 191.332C251.77 191.138 252.606 190.886 253.414 190.575C253.712 190.461 254.026 190.323 254.181 190.043C254.489 189.487 253.953 188.827 253.39 188.53C252.831 188.229 252.143 188.015 251.87 187.441C251.749 187.186 251.728 186.892 251.715 186.605C251.597 184.487 251.956 182.459 250.64 181.005Z" fill="#4F5962"/>
<path d="M281.392 139.387C279.724 147.023 274.949 152.509 269.85 158.123C264.014 164.55 258.524 171.29 253.415 178.304C251.207 177.381 248.996 176.462 246.788 175.54C248.636 164.809 253.726 154.966 257.668 144.815C260.407 137.764 262.629 130.305 262.75 122.683C262.809 118.893 261.893 115.428 261.399 111.741C260.791 107.174 260.756 102.496 260.204 97.9078C260.02 96.3704 259.913 94.5497 261.098 93.5512C261.623 93.1055 262.318 92.9189 262.995 92.7877C288.116 87.9231 284.568 124.87 281.392 139.387Z" fill="#4F5962"/>
<path d="M260.929 99.3536C260.915 94.7205 261.482 90.2568 262.349 86.8503C269.494 86.4668 277.571 87.2579 284.637 88.6917C291.543 90.0944 295.851 91.5973 295.903 99.0875C295.996 112.869 301.382 124.609 303.708 137.859C305.059 145.556 302.723 152.442 300.135 159.573C297.174 167.73 294.652 176.049 292.586 184.479C290.192 184.465 287.798 184.451 285.407 184.438C283.044 173.81 284.018 162.768 283.818 151.882C283.68 144.316 282.902 136.577 280.124 129.477C277.07 121.676 272.669 124.782 267.618 120.256C262.701 115.858 260.95 107.355 260.929 99.3536Z" fill="#4F5962"/>
<path d="M269.041 46.3128C268.254 46.9243 267.559 47.6637 266.875 48.3927C266.26 49.0456 265.649 49.7021 265.034 50.3551C262.905 52.6249 261.855 55.9796 260.946 58.8783C256.151 74.1248 254.424 95.0478 257.54 110.978C269.356 111.998 283.03 109.019 294.818 107.409C295.965 107.254 297.265 106.995 297.859 106.003C298.218 105.402 298.228 104.663 298.228 103.961C298.228 93.8454 296.09 82.9763 294.086 73.0054C293.24 68.7974 292.196 64.6273 290.863 60.547C289.45 56.2284 287.853 51.5643 284.54 48.2994C280.995 44.803 274.213 43.0756 269.777 45.8049C269.518 45.9604 269.276 46.1297 269.041 46.3128Z" fill="#FABD68"/>
<path d="M270.33 48.4371C270.116 47.062 269.902 45.687 269.691 44.3119C269.404 44.1737 269.131 44.0217 268.879 43.8628C263.952 40.7154 255.688 23.8243 268.82 20.0412C280.747 16.607 280.125 33.0144 277.8 39.8551C277.402 41.0263 276.87 42.1319 276.079 43.0923C275.54 43.7488 275.419 43.6244 275.495 44.3845C275.571 45.1204 276.304 45.953 276.47 46.7303C276.646 47.5595 276.58 48.4751 276.1 49.173C275.806 49.6014 275.374 49.9192 274.918 50.1611C274.189 50.548 273.343 50.7588 272.534 50.6068C271.57 50.4167 270.482 49.4217 270.33 48.4371Z" fill="#EFD7BA"/>
<path d="M280.598 33.6559C279.603 37.0244 278.757 38.32 277.568 39.8367C275.077 43.0152 277.147 31.7522 276.117 27.8482C276.038 27.5511 275.962 27.2125 276.124 26.9499C276.276 26.7046 276.58 26.6148 276.864 26.5526C281.887 25.4678 281.873 29.852 280.598 33.6559Z" fill="#3A4D58"/>
<path d="M267.404 39.7454C266.599 40.8786 264.833 40.5746 263.59 39.9493C258.487 37.3823 255.481 31.2049 256.614 25.6045C257.561 20.9196 263.469 17.406 264.664 23.2102C265.089 25.2693 263.835 28.1196 264.122 30.4033C264.529 33.6682 266.05 36.788 267.404 39.7454Z" fill="#3A4D58"/>
<path d="M280.546 15.7386C281.12 15.9632 281.7 16.2016 282.311 16.4434C283.579 16.9409 284.502 17.1067 285.808 16.3639C286.181 16.1497 288.689 13.7797 288.088 13.2891C292.089 16.554 288.8 21.3183 287.297 24.6903C286.285 26.9636 286.077 30.1732 283.804 31.6588C281.303 33.293 279.589 31.2269 277.319 30.301C275.319 29.4857 273.152 29.0434 271.114 28.3145C267.732 27.1087 262.701 24.9908 263.824 20.4995C265.134 15.2549 270.447 13.9455 275.222 14.3463C277.264 14.5121 278.86 15.0718 280.546 15.7386Z" fill="#3A4D58"/>
<path d="M333.994 116.634L321.625 98.0194V34.7842C321.625 33.6752 323.066 33.2398 323.677 34.1658L333.99 49.6887V116.634H333.994Z" fill="#912921"/>
<path d="M333.444 50.3086L322.824 34.5508L318.439 35.4594L331.164 51.3935V117.199L333.444 116.636V50.3086Z" fill="white"/>
<path d="M283.337 45.5583L290.914 42.8047L331.164 51.3936V115.078L283.337 106.465V45.5583Z" fill="white"/>
<path d="M327.789 118.604L280.854 112.112C279.807 111.905 279.05 110.986 279.05 109.918V47.5261C279.05 46.1164 280.339 45.0592 281.721 45.3322L327.789 51.6547V118.604Z" fill="#A9453D"/>
<path d="M333.994 49.6855C333.876 50.1554 332.702 50.8775 331.164 51.3888C329.502 51.9451 328.034 52.0522 327.806 51.6445L327.785 51.6514V118.424C327.771 118.476 327.771 118.525 327.785 118.57V118.601L327.796 118.597C327.982 119.029 329.475 118.925 331.161 118.362C332.864 117.792 334.125 116.97 333.99 116.514V49.6855H333.994Z" fill="#D56359"/>
<path d="M318.439 35.459V48.6775L331.164 51.393L318.439 35.459Z" fill="#DFD8C7"/>
<path d="M331.164 51.3939L294.531 41.8652V43.5789L331.164 51.3939Z" fill="#CBC4B5"/>
<path d="M284.605 99.418L323.28 104.77V113.428L284.605 108.079V99.418Z" fill="#D46359"/>
<path d="M308.41 92.7905C308.323 92.6972 308.234 92.604 308.13 92.5418C307.152 91.9613 306.295 92.2447 305.197 91.9544C304.706 91.8266 304.302 90.5898 303.521 91.298C303.234 91.5606 302.616 92.3034 302.008 92.87C301.12 93.6923 299.493 94.2001 298.131 94.366C292.773 95.012 287.383 94.1829 282.08 93.1948C281.776 93.1395 281.461 93.0738 281.22 92.8873C280.784 92.5487 280.719 91.9303 280.674 91.3809C280.47 88.8347 280.031 86.3091 279.361 83.8423C278.763 81.645 277.951 79.4408 276.466 77.7133C274.98 75.9859 272.7 74.8043 270.444 75.1359C268.754 75.3847 267.217 76.4972 266.457 78.0277C264.57 81.8143 268.602 86.5026 270.409 89.6466C272.119 92.6212 274.037 95.4785 276.144 98.1871C276.403 98.5222 276.676 98.8608 277.05 99.0681C277.443 99.2858 277.91 99.3307 278.359 99.3652C284.153 99.8385 289.961 99.7936 295.792 99.6347C297.395 99.5898 298.771 98.7088 300.253 98.6812C301.199 98.6639 301.953 99.3307 302.851 99.5103C303.739 99.69 304.948 99.7003 305.839 99.538C307.594 99.2201 308.403 97.5687 309.253 96.1936C309.463 95.8516 309.609 95.6201 309.633 95.2435C309.674 94.632 309.346 94.1345 309.035 93.6301C308.852 93.333 308.645 93.0462 308.41 92.7905Z" fill="#EFD7BA"/>
<path d="M270.634 88.0208C273.979 87.3022 277.326 86.587 280.671 85.8684C280.456 85.9133 278.346 70.4872 278.187 69.5716C277.585 66.0822 276.939 62.4718 274.936 59.5524C270.662 53.3197 260.929 55.3996 260.228 63.1869C259.464 71.6411 261.866 81.0972 266.354 88.2765C266.45 88.432 266.557 88.5943 266.72 88.6807C266.941 88.8016 267.214 88.7498 267.463 88.698C268.52 88.4734 269.577 88.2454 270.634 88.0208Z" fill="#FABD68"/>
<path d="M150.874 176.938C150.455 173.324 148.645 170.457 145.301 168.885C142.589 167.61 139.538 167.313 136.563 166.929C129.94 166.079 123.621 165.229 116.936 165.492C111.591 165.703 108.295 170.263 105.79 174.761C104.215 177.598 104.65 178.928 106.637 181.302C108.468 183.492 110.689 185.354 113.17 186.764C118.083 189.555 125.632 188.864 131.042 188.263C136.149 187.693 141.148 186.169 145.705 183.789C148.638 182.262 151.281 180.459 150.874 176.938Z" fill="#292949"/>
<path d="M117.423 186.76C116.535 188.837 115.761 190.962 115.101 193.121C114.752 194.265 114.434 195.439 114.476 196.635C114.579 199.43 117.689 201.458 119.724 198.87C120.615 197.737 121.33 196.465 121.835 195.118C122.581 193.128 121.006 194.289 119.675 193.677C118.145 192.972 118.179 192.427 118.832 190.989C119.672 189.141 120.664 187.935 120.543 185.807C120.512 185.22 120.342 184.539 119.803 184.308C119.392 184.135 118.902 184.304 118.573 184.608C118.249 184.912 118.052 185.33 117.869 185.738C117.72 186.076 117.571 186.418 117.423 186.76Z" fill="#292949"/>
<path d="M127.801 120.969C129.605 121.145 131.408 121.317 133.215 121.494C133.491 119.904 133.657 118.287 133.706 116.664C135.278 116.391 137.126 115.876 137.668 114.197C137.838 113.668 137.845 113.091 137.852 112.528C137.872 110.2 137.893 107.871 137.914 105.542C137.921 104.737 137.924 103.908 137.655 103.158C137.181 101.846 135.979 101.061 134.801 100.567C131.788 99.3062 128.275 99.3511 125.49 101.13C124.751 101.604 124.049 102.215 123.621 103.044C122.961 104.323 123.04 105.902 123.141 107.377C123.234 108.738 123.324 110.103 123.417 111.464C123.524 113.033 123.749 114.836 124.941 115.665C125.573 116.107 126.392 116.187 126.934 116.757C127.888 117.766 127.445 119.549 127.801 120.969Z" fill="#B97262"/>
<path d="M135.191 103.038C135.267 103.166 135.333 103.297 135.381 103.432C135.643 104.151 135.488 104.97 135.747 105.692C136.155 106.835 137.509 107.502 137.734 108.694C137.917 109.668 137.264 110.611 137.226 111.603C137.184 112.688 137.896 113.697 137.806 114.768C137.73 115.697 137.164 117.013 136.625 117.767C136.79 117.532 138.349 117.587 138.746 117.335C139.357 116.948 139.423 116.709 139.596 116.06C139.769 115.417 139.613 114.792 139.886 114.132C140.221 113.324 140.926 112.722 141.161 111.862C141.482 110.687 140.84 109.468 140.867 108.248C140.909 106.407 142.467 104.641 141.859 102.904C141.503 101.884 140.494 101.245 139.917 100.33C139.478 99.6352 139.306 98.8095 138.998 98.0494C138.691 97.2894 138.169 96.5327 137.378 96.3116C136.939 96.1907 136.469 96.2529 136.02 96.1769C135.243 96.0456 134.59 95.5239 133.837 95.2821C132.762 94.94 130.896 96.0525 130.288 96.9715C129.687 97.8801 130.012 98.6402 130.658 99.421C131.732 100.727 134.296 101.549 135.191 103.038Z" fill="#292949"/>
<path d="M119.862 98.0055C119.23 98.4857 118.445 98.8381 117.872 99.3978C116.752 100.49 116.566 102.203 116.552 103.768C116.542 105.161 115.954 106.408 116.131 107.855C116.248 108.826 116.68 109.804 117.485 110.367C118.483 111.065 120.038 111.155 120.498 112.285C120.999 113.511 119.744 115.09 120.543 116.151C120.981 116.735 121.824 116.807 122.443 117.194C123.134 117.626 123.5 118.41 123.932 119.105C124.364 119.799 125.003 120.487 125.818 120.49C125.829 119.25 125.849 118.265 125.3 117.142C124.979 116.486 124.049 115.284 124.733 114.558C125.162 113.957 126.198 113.743 126.212 113.003C126.219 112.654 125.97 112.364 125.773 112.077C125.013 110.968 124.913 109.472 125.39 108.218C125.87 106.961 126.886 105.948 128.085 105.34C129.491 104.629 129.256 104.287 129.643 102.922C129.999 101.664 130.703 101.36 131.819 100.883C132.821 100.455 133.143 100.196 133.498 99.2458C133.758 98.5479 134.079 97.7153 133.671 96.9518C133.346 96.3437 132.773 95.9153 132.217 95.5076C131.056 94.6542 129.753 93.7594 128.32 93.8873C127.521 93.9598 126.779 94.3468 125.981 94.4055C125.449 94.447 124.916 94.3364 124.384 94.3295C123.476 94.3157 122.522 94.6093 121.797 95.1621C121.064 95.7218 121.095 96.2919 120.698 97.0727C120.494 97.4527 120.2 97.7464 119.862 98.0055Z" fill="#292949"/>
<path d="M122.985 92.8477C123.109 91.9805 122.999 90.8577 122.17 90.5813C121.714 90.4293 121.213 90.6124 120.739 90.526C119.734 90.3395 119.371 89.1337 118.832 88.2665C118.753 88.1352 118.656 88.0039 118.514 87.9452C118.314 87.8588 118.086 87.9418 117.868 87.9728C116.873 88.111 116.099 87.1437 115.156 86.8016C113.988 86.3801 112.537 87.1333 112.209 88.3322C112.074 88.8262 112.109 89.3514 111.981 89.8454C111.47 91.8493 108.564 92.751 108.526 94.817C108.502 96.2163 109.891 97.5291 109.383 98.8316C109.058 99.6643 108.005 100.248 108.143 101.129C108.233 101.699 108.844 102.076 109.421 102.055C109.995 102.038 110.52 101.713 110.945 101.326C111.622 100.715 112.126 99.9337 112.769 99.2877C113.412 98.6416 114.275 98.1096 115.184 98.2063C116.061 98.2996 116.87 98.9698 117.737 98.8074C118.432 98.6796 118.939 98.0474 119.62 97.8608C120.259 97.6846 120.929 97.9264 121.589 97.9541C122.249 97.9817 123.054 97.6224 123.061 96.9625C123.061 96.8036 123.016 96.6378 123.061 96.4857C123.196 96.0573 123.925 96.0677 124.053 95.6393C123.7 95.1141 123.217 95.3145 122.957 94.6236C122.761 94.088 122.909 93.3901 122.985 92.8477Z" fill="#292949"/>
<path d="M132.697 119.221C135.215 118.886 137.772 118.429 139.883 119.348C141.669 120.126 141.638 122.382 142.039 124.089C143.362 129.73 144.354 135.441 145.131 141.183C145.504 143.93 146.147 146.867 146.129 149.641C146.116 151.866 145.559 154.029 145.732 156.295C145.863 158.037 146.603 159.919 148.199 160.631C149 160.99 149.923 161.008 150.728 161.36C151.533 161.716 152.22 162.663 151.816 163.443C151.623 163.813 151.239 164.038 150.873 164.242C148.883 165.351 146.893 166.46 144.903 167.569C143.383 168.415 141.856 169.268 140.218 169.856C137.896 170.688 135.416 170.972 132.956 171.1C126.595 171.424 120.186 170.72 114.051 169.027C110.748 168.115 107.555 166.498 108.357 162.759C109.183 158.911 110.779 155.072 112.499 151.548C114.583 147.281 115.201 142.144 116.676 137.642C118.172 133.082 119.755 128.549 121.347 124.02C121.354 124.002 121.361 123.985 121.365 123.968C121.948 122.313 122.187 120.675 123.469 119.331C125.224 117.493 126.07 118.955 128.064 119.328C129.504 119.601 131.09 119.435 132.697 119.221Z" fill="#FABD68"/>
<path d="M138.878 189.048C139.452 189.08 140.025 189.111 140.599 189.142C141.221 189.176 141.915 189.183 142.381 188.769C142.948 188.261 142.882 187.297 142.426 186.692C141.967 186.084 141.231 185.759 140.505 185.528C138.757 184.968 136.905 184.795 135.071 184.723C134.888 184.716 134.698 184.709 134.525 184.778C134.228 184.899 134.058 185.214 133.958 185.518C132.915 188.675 136.653 188.928 138.878 189.048Z" fill="#B97262"/>
<path d="M116.821 194.434C116.79 194.69 116.763 194.959 116.87 195.194C116.949 195.363 117.094 195.491 117.253 195.591C118.435 196.345 120.024 195.533 120.929 194.462C121.834 193.391 122.446 192.036 123.6 191.242C126.243 189.421 123.824 186.09 121.061 186.854C117.844 187.749 117.167 191.622 116.821 194.434Z" fill="#B97262"/>
<path d="M152.428 177.279C154.708 175.603 156.999 173.703 157.831 170.877C158.664 168.054 157.489 164.064 154.546 162.437C150.956 160.45 147.432 162.893 144.872 165.194C139.631 169.906 133.916 174.073 128.33 178.381C126.443 179.839 119.893 185.201 119.893 185.201C119.713 185.958 123.234 192.795 124.167 192.546C134.355 189.855 144.264 183.277 152.428 177.279Z" fill="#DB9F5A"/>
<path d="M101.143 180.52C98.9076 179.432 96.6619 178.122 95.7774 175.51C94.893 172.898 95.8984 168.6 98.6657 166.206C102.041 163.287 105.486 164.817 108.004 166.462C113.163 169.823 118.756 172.515 124.232 175.382C126.084 176.353 132.513 180.026 132.513 180.026C132.71 180.738 129.549 188.497 128.647 188.487C118.818 188.432 109.134 184.41 101.143 180.52Z" fill="#DB9F5A"/>
<path d="M135.036 190.428C137.088 191.426 139.195 192.314 141.344 193.088C142.481 193.496 143.652 193.879 144.861 193.893C147.688 193.927 149.888 190.887 147.38 188.704C146.281 187.747 145.034 186.962 143.697 186.385C141.724 185.532 142.816 187.18 142.136 188.493C141.348 190.006 140.798 189.94 139.382 189.211C137.558 188.272 136.39 187.211 134.234 187.228C133.64 187.232 132.942 187.367 132.683 187.902C132.486 188.31 132.635 188.814 132.925 189.16C133.215 189.505 133.626 189.719 134.03 189.927C134.362 190.096 134.697 190.265 135.036 190.428Z" fill="#292949"/>
<path d="M164.52 152.772C164.489 152.637 164.454 152.499 164.461 152.364C164.524 151.117 165.304 150.505 165.705 149.331C165.885 148.806 165 147.686 166.123 147.403C167.287 147.113 169.54 147.31 170.328 146.242C170.677 145.772 171.105 145.15 171.675 145.292C171.869 145.34 172.031 145.475 172.173 145.617C176.94 150.226 172.304 155.781 167.111 155.605C166.669 155.591 166.372 155.581 166.013 155.377C165.429 155.042 165.177 154.441 164.904 153.853C164.745 153.504 164.613 153.142 164.52 152.772Z" fill="#B97262"/>
<path d="M173.655 153.603C174.837 154.097 176.284 153.596 177.093 152.604C177.901 151.613 178.126 150.234 177.918 148.973C177.711 147.712 177.106 146.545 176.409 145.474C175.579 144.206 174.536 142.983 173.119 142.444C172.328 142.143 171.471 142.074 170.628 142.053C170.058 142.039 169.426 142.074 169.015 142.471C168.721 142.755 168.6 143.173 168.514 143.57C167.944 146.165 168.393 146.541 170.093 148.269C171.599 149.803 172.705 151.692 173.655 153.603Z" fill="white"/>
<path d="M95.3979 125.187V121.204C95.3979 121.204 116.763 119.217 129.612 127.775L95.3979 125.187Z" fill="#DFD8C7"/>
<path d="M91.02 124.765L93.8807 122.561C93.8807 122.561 111.352 119.224 129.608 127.778V175.276C129.608 175.276 117.229 166.376 91.02 169.869V124.765Z" fill="white"/>
<path d="M163.822 125.187V121.204C163.822 121.204 142.457 119.217 129.608 127.775L163.822 125.187Z" fill="#DFD8C7"/>
<path d="M168.2 124.765L165.339 122.561C165.339 122.561 147.868 119.224 129.612 127.778V175.276C129.612 175.276 141.991 166.376 168.2 169.869V124.765Z" fill="white"/>
<path d="M129.612 127.751C131.602 127.644 133.118 127.171 133.201 126.594C133.201 126.584 133.215 126.57 133.236 126.556C133.225 126.553 133.215 126.549 133.205 126.542C133.239 126.535 133.274 126.525 133.305 126.518C133.871 126.266 136.539 125.73 137.351 125.558C137.409 125.544 137.465 125.533 137.523 125.52C137.537 125.516 137.547 125.513 137.554 125.513C139.817 124.943 142.115 124.521 144.426 124.214C153.198 122.839 159.635 123.084 163.259 123.616C164.61 123.782 165.93 124.055 167.187 124.487C167.419 124.566 167.636 124.656 167.84 124.763C167.844 124.763 167.844 124.763 167.844 124.763C168.275 124.991 168.642 125.295 168.921 125.748C169.298 126.356 169.315 126.95 169.315 127.637V169.587C169.315 170.772 168.338 171.943 167.173 171.729C160.011 170.409 154.176 170.454 149.688 170.772C144.958 171.107 140.239 171.826 135.661 173.073C134.169 173.481 132.303 173.798 130.935 174.534C130.803 174.603 130.662 174.655 130.513 174.686C130.42 174.704 130.323 174.714 130.227 174.714C130.112 174.714 129.998 174.7 129.891 174.676C129.784 174.635 129.674 174.597 129.56 174.555C129.066 174.31 128.727 173.798 128.727 173.211V128.774C128.724 128.418 129.035 128.073 129.612 127.751Z" fill="#6A8A69"/>
<path d="M129.618 127.751C127.628 127.644 126.112 127.171 126.029 126.594C126.029 126.584 126.015 126.57 125.994 126.556C126.005 126.553 126.015 126.549 126.025 126.542C125.991 126.535 125.956 126.525 125.922 126.518C125.355 126.266 122.688 125.73 121.876 125.558C121.817 125.544 121.762 125.533 121.703 125.52C121.689 125.516 121.679 125.513 121.672 125.513C119.409 124.943 117.112 124.521 114.8 124.214C106.028 122.839 99.5918 123.084 95.9676 123.616C94.6167 123.782 93.2969 124.055 92.0394 124.487C91.8079 124.566 91.5902 124.656 91.3864 124.763C91.3829 124.763 91.3829 124.763 91.3829 124.763C90.9511 124.991 90.5848 125.295 90.305 125.748C89.9284 126.356 89.9111 126.95 89.9111 127.637V169.587C89.9111 170.772 90.8889 171.943 92.0532 171.729C99.2152 170.409 105.051 170.454 109.538 170.772C114.268 171.107 118.988 171.826 123.565 173.073C125.058 173.481 126.924 173.798 128.292 174.534C128.423 174.603 128.565 174.655 128.713 174.686C128.806 174.704 128.903 174.714 129 174.714C129.114 174.714 129.228 174.7 129.335 174.676C129.442 174.635 129.553 174.597 129.667 174.555C130.161 174.31 130.499 173.798 130.499 173.211V128.774C130.51 128.418 130.199 128.073 129.618 127.751Z" fill="#6A8A69"/>
<path d="M129.625 127.659C127.632 127.659 126.018 127.092 126.025 126.543L126.015 174.038C126.015 174.718 127.632 175.271 129.622 175.271C131.615 175.271 133.229 174.718 133.229 174.038V126.557C133.059 127.182 131.619 127.659 129.625 127.659Z" fill="#4F704E"/>
<g opacity="0.2">
<g opacity="0.2">
<path opacity="0.2" d="M168.921 125.747C168.642 125.294 168.275 124.99 167.844 124.762C167.844 124.762 167.844 124.762 167.84 124.762C167.636 124.655 167.419 124.565 167.187 124.486C165.93 124.054 164.61 123.781 163.259 123.615C159.638 123.087 153.198 122.841 144.426 124.213C142.115 124.52 139.817 124.942 137.554 125.512C137.544 125.516 137.534 125.516 137.523 125.519C137.468 125.533 137.409 125.543 137.35 125.557C136.539 125.73 133.871 126.265 133.305 126.517C133.27 126.528 133.236 126.535 133.201 126.542C133.212 126.545 133.222 126.549 133.232 126.555C133.212 126.569 133.201 126.583 133.198 126.593C133.191 126.635 133.177 126.676 133.156 126.714C132.8 127.26 131.443 127.658 129.622 127.658C127.711 127.658 126.15 127.136 126.032 126.611C126.032 126.604 126.029 126.6 126.029 126.593C126.025 126.576 126.025 126.562 126.025 126.545V126.587C126.022 126.58 126.011 126.569 125.994 126.559C126.005 126.555 126.015 126.552 126.025 126.545C125.991 126.535 125.956 126.528 125.922 126.521C125.355 126.269 122.688 125.733 121.876 125.56C121.817 125.547 121.762 125.536 121.703 125.522C121.689 125.519 121.679 125.516 121.672 125.516C119.409 124.945 117.112 124.524 114.8 124.216C106.028 122.841 99.5918 123.087 95.9676 123.619C94.6167 123.785 93.2969 124.058 92.0394 124.489C91.8079 124.569 91.5902 124.659 91.3864 124.766C91.3829 124.766 91.3829 124.766 91.3829 124.766C90.9511 124.994 90.5848 125.298 90.305 125.75C89.9284 126.359 89.9111 126.953 89.9111 127.64V128.428C89.9111 127.74 89.9284 127.146 90.305 126.538C90.5848 126.086 90.9511 125.782 91.3829 125.554C91.3829 125.554 91.3829 125.554 91.3864 125.554C91.5902 125.446 91.8079 125.357 92.0394 125.277C93.2969 124.845 94.6167 124.572 95.9676 124.406C99.5883 123.878 106.028 123.633 114.8 125.004C117.112 125.312 119.409 125.733 121.672 126.303C121.682 126.307 121.693 126.307 121.703 126.31C121.762 126.324 121.817 126.334 121.876 126.348C122.688 126.521 125.355 127.056 125.922 127.309C125.956 127.316 125.991 127.326 126.025 127.333C126.025 127.35 126.025 127.364 126.029 127.381C126.029 127.388 126.032 127.395 126.032 127.398C126.15 127.924 127.711 128.445 129.622 128.445C131.443 128.445 132.8 128.048 133.156 127.502C133.177 127.461 133.191 127.423 133.198 127.381C133.198 127.371 133.212 127.357 133.232 127.343C133.222 127.34 133.212 127.336 133.201 127.329C133.236 127.322 133.27 127.312 133.305 127.305C133.871 127.053 136.539 126.517 137.35 126.345C137.409 126.331 137.465 126.321 137.523 126.307C137.537 126.303 137.547 126.3 137.554 126.3C139.817 125.73 142.115 125.308 144.426 125.001C153.198 123.626 159.635 123.871 163.259 124.403C164.61 124.569 165.93 124.842 167.187 125.274C167.419 125.353 167.636 125.443 167.84 125.55C167.844 125.55 167.844 125.55 167.844 125.55C168.275 125.778 168.642 126.082 168.921 126.535C169.298 127.143 169.315 127.737 169.315 128.425V127.637C169.315 126.949 169.298 126.355 168.921 125.747Z" fill="#272525"/>
</g>
</g>
<g opacity="0.1">
<g opacity="0.1">
<path opacity="0.1" d="M126.028 126.543L126.018 174.038C126.018 174.611 127.169 175.095 128.723 175.23V127.617C127.169 127.479 126.018 127.006 126.028 126.543Z" fill="#4F704E"/>
</g>
</g>
<path d="M162.82 128.857C159.331 128.345 153.129 128.111 144.682 129.434C143.075 129.648 140.277 130.218 138.823 130.525C138.277 130.639 137.886 131.12 137.886 131.679V141.274C137.886 142.027 138.584 142.583 139.32 142.424C142.751 141.678 146.441 140.631 150.694 140.372C154.332 140.151 157.935 140.044 163.394 140.783C164.102 140.88 164.731 140.331 164.731 139.615V130.156C164.731 129.579 164.316 129.088 163.746 128.992C163.442 128.94 163.131 128.895 162.82 128.857Z" fill="#4F704E"/>
<path d="M96.624 148.19C96.6551 148.055 96.6897 147.917 96.6828 147.782C96.6206 146.535 95.8398 145.923 95.439 144.749C95.2593 144.224 96.1438 143.104 95.021 142.821C93.8566 142.531 91.604 142.728 90.8163 141.66C90.4674 141.19 90.039 140.568 89.4689 140.71C89.2754 140.758 89.1131 140.893 88.9714 141.035C84.2036 145.644 88.8401 151.199 94.0329 151.023C94.4751 151.009 94.7722 150.999 95.1315 150.795C95.7154 150.46 95.9676 149.859 96.2405 149.271C96.3995 148.926 96.5342 148.563 96.624 148.19Z" fill="#B97262"/>
<path d="M87.4893 149.025C86.3077 149.519 84.8601 149.018 84.0517 148.026C83.2432 147.035 83.0187 145.656 83.226 144.395C83.4333 143.134 84.0379 141.966 84.7358 140.895C85.5649 139.627 86.6083 138.404 88.0248 137.865C88.816 137.565 89.6728 137.496 90.5158 137.475C91.0859 137.461 91.7181 137.496 92.1293 137.893C92.4229 138.176 92.5439 138.594 92.6302 138.992C93.2003 141.586 92.7512 141.963 91.0513 143.69C89.545 145.221 88.4394 147.114 87.4893 149.025Z" fill="white"/>
<path d="M213.362 53.6374C213.265 53.5752 213.161 53.5061 213.089 53.4266C212.419 52.6665 212.581 51.9514 212.173 51.0773C211.99 50.6869 210.771 50.4381 211.348 49.7575C211.562 49.5053 212.187 48.956 212.647 48.4205C213.483 47.4496 212.702 46.04 213.576 44.9483C214.326 44.012 217.031 43.1483 217.978 44.5233C218.333 45.0416 217.839 45.8742 217.915 46.4339C218.033 47.2942 218.727 47.8711 219.042 48.6692C219.322 49.3809 219.477 50.3656 219.436 51.098C219.353 52.5491 217.884 53.3161 216.689 54.0969C216.392 54.2904 216.191 54.4251 215.836 54.47C215.262 54.5426 214.751 54.3076 214.236 54.09C213.928 53.9656 213.635 53.8136 213.362 53.6374Z" fill="#B97262"/>
<path d="M221.101 49.5037C222.227 48.9578 222.801 47.569 222.6 46.3321C222.397 45.0952 221.533 44.038 220.472 43.3712C219.412 42.7079 218.164 42.3935 216.924 42.2104C215.456 41.9962 213.884 41.9685 212.567 42.6595C211.835 43.043 211.227 43.6269 210.667 44.235C210.287 44.6461 209.904 45.1298 209.928 45.6895C209.945 46.0903 210.173 46.4461 210.412 46.7709C211.946 48.8715 212.516 48.7885 214.882 48.6572C216.979 48.5467 219.083 48.9613 221.101 49.5037Z" fill="#C0BB69"/>
<path d="M161.469 51.5373C161.576 51.489 161.687 51.4406 161.77 51.3715C162.554 50.7323 162.513 49.9999 163.058 49.2053C163.304 48.8494 164.547 48.808 164.091 48.0375C163.922 47.7542 163.394 47.1081 163.027 46.507C162.361 45.4118 163.362 44.1507 162.682 42.9312C162.094 41.8843 159.569 40.5853 158.408 41.791C157.973 42.2436 158.322 43.1454 158.156 43.6843C157.9 44.5135 157.119 44.9695 156.681 45.7054C156.29 46.3619 155.972 47.3051 155.893 48.0375C155.737 49.4817 157.057 50.4801 158.111 51.4475C158.374 51.6893 158.55 51.8517 158.892 51.9554C159.448 52.1212 159.987 51.9727 160.533 51.8414C160.858 51.7654 161.172 51.6652 161.469 51.5373Z" fill="#B97262"/>
<path d="M154.514 46.1885C153.492 45.4664 153.153 44.0015 153.557 42.8165C153.962 41.6314 154.988 40.7262 156.145 40.246C157.302 39.7658 158.581 39.6587 159.835 39.6829C161.32 39.7105 162.875 39.9454 164.057 40.8403C164.717 41.3412 165.221 42.0149 165.674 42.7094C165.981 43.1758 166.282 43.7182 166.164 44.2641C166.081 44.6545 165.798 44.9723 165.511 45.2522C163.653 47.0729 163.107 46.8967 160.792 46.3819C158.74 45.9224 156.594 45.9881 154.514 46.1885Z" fill="#C0BB69"/>
</svg>
