<svg width="334" height="296" viewBox="0 0 334 296" fill="none" xmlns="http://www.w3.org/2000/svg">
<path fill-rule="evenodd" clip-rule="evenodd" d="M44.6053 174.439C44.6053 174.439 52.6994 183.9 54.8553 184.535C57.0111 185.171 55.067 187.394 53.4116 187.567C51.7562 187.74 46.4821 187.509 44.9518 185.998C43.4119 184.487 39.0713 182.87 39.0713 182.87C39.0713 177.962 40.2455 174.882 40.2455 174.882L44.6053 174.439Z" fill="#112B46"/>
<path fill-rule="evenodd" clip-rule="evenodd" d="M47.444 107.625C47.444 107.625 48.4931 128.558 48.1081 135.42C47.7231 142.283 46.0485 176.353 46.0485 176.353C41.6213 177.306 38.8013 176.353 38.8013 176.353C37.3481 150.232 37.3866 142.716 36.9727 138.818C36.5589 134.92 36.0391 123.659 36.0391 123.659C32.9112 117.192 36.1835 108.78 37.7234 106.759C39.2633 104.738 47.444 107.625 47.444 107.625Z" fill="#112B46"/>
<path fill-rule="evenodd" clip-rule="evenodd" d="M31.3812 183.415C31.6506 187.236 33.0366 191.75 33.383 194.04C33.7295 196.331 32.9114 197.64 32.3821 198.371C31.8528 199.103 25.3852 196.966 24.4997 194.473C23.6143 191.981 25.4237 189.796 25.568 185.128C27.6565 181.384 31.3812 183.415 31.3812 183.415Z" fill="#112B46"/>
<path fill-rule="evenodd" clip-rule="evenodd" d="M40.7167 109.254C40.7167 109.254 39.6003 128.301 37.8487 134.653C36.097 140.996 34.5186 159.609 33.7679 162.853C33.0172 166.096 32.1125 186.144 32.1125 186.144C28.0799 187.154 24.9231 186.144 24.9231 186.144C25.0097 167.366 24.5574 152.112 24.9231 146.963C25.2889 141.814 24.7788 126.549 24.7788 126.549C23.1137 119.447 23.0175 118.542 24.7788 113.816C26.54 109.1 34.1336 105.366 40.7167 109.254Z" fill="#21496D"/>
<path fill-rule="evenodd" clip-rule="evenodd" d="M44.3836 64.0469C50.957 65.8948 54.4892 82.4198 56.3274 86.1348C58.1657 89.8498 73.5166 90.7738 73.5166 90.7738C74.4405 93.9979 71.8323 97.3665 71.8323 97.3665C57.0493 96.7505 51.8329 95.5282 49.0899 89.6958C46.3566 83.8538 36.7418 66.0295 44.3836 64.0469Z" fill="#ACA644"/>
<path fill-rule="evenodd" clip-rule="evenodd" d="M44.3836 64.0486C38.5416 63.7887 25.0097 66.83 20.5536 72.5084C16.0976 78.1964 22.5651 88.2443 24.1147 94.298C25.6642 100.352 23.4025 115.558 23.4025 117.012C30.3224 121.602 46.9822 122.18 48.8589 115.337C49.6289 107.888 47.9254 99.0524 47.8387 94.6926C48.0601 85.3377 52.1216 66.8204 44.3836 64.0486Z" fill="white"/>
<path fill-rule="evenodd" clip-rule="evenodd" d="M39.3694 65.4328C43.1325 78.6374 44.018 93.4493 43.6522 99.0507C43.2865 104.652 43.1325 122.765 43.1325 122.765C47.5116 120.465 49.4268 116.24 49.4268 114.325C49.4268 112.409 47.7811 96.0094 47.8292 94.6909C47.8869 93.3723 50.0332 78.3294 49.4268 71.5731C48.8109 64.8168 44.3837 64.0469 44.3837 64.0469H38.7534L39.3694 65.4328Z" fill="#C0BB69"/>
<path fill-rule="evenodd" clip-rule="evenodd" d="M42.9976 49.4961C45.5673 50.3045 42.9976 56.1562 42.9976 56.1562V49.4961Z" fill="#20318D"/>
<path fill-rule="evenodd" clip-rule="evenodd" d="M43.1328 50.2662C43.1328 50.2662 44.1049 53.6925 43.7391 56.3488C43.3734 59.0052 43.1328 64.3082 40.7748 66.0021C38.4168 67.696 35.0387 65.7326 32.7962 63.827C30.5537 61.931 28.1861 58.4181 28.1284 54.1834C28.0706 49.9486 29.7357 44.7515 35.8471 45.0113C41.9682 45.2904 43.1328 50.2662 43.1328 50.2662Z" fill="#FFC8AF"/>
<path fill-rule="evenodd" clip-rule="evenodd" d="M31.2655 60.0742C31.2655 60.0742 31.7467 65.5312 30.3127 67.5427C30.2068 68.8805 34.0566 74.5782 37.8871 73.5868C40.1199 73.0094 39.8504 70.4108 39.8504 70.4108C39.6098 68.4282 39.8504 63.6256 39.8504 63.6256L31.2655 60.0742Z" fill="#FFC8AF"/>
<path fill-rule="evenodd" clip-rule="evenodd" d="M44.634 45.6939C45.5002 48.8411 44.5089 49.9671 41.8622 50.8718C39.2155 51.7765 32.1608 49.7265 32.1608 49.7265C32.642 53.0951 31.5737 54.8371 31.5737 54.8371C30.4092 51.5263 29.3505 53.2105 29.2446 55.8573C29.1388 58.504 30.6209 58.4462 30.6209 58.4462C30.515 60.6694 29.8028 61.4298 29.8028 61.4298C26.9636 59.4664 23.1139 46.3676 28.2148 46.0693C28.2918 41.4977 42.7669 38.9665 44.634 45.6939Z" fill="#112B46"/>
<path fill-rule="evenodd" clip-rule="evenodd" d="M30.072 66.6738C34.6148 76.2597 36.992 85.0083 36.838 92.9099C36.684 100.811 35.0478 123.843 35.0478 123.843C27.1655 121.927 21.7951 119.695 20.2552 117.009C23.6333 108.107 24.8556 102.12 24.1723 99.5892C23.4793 97.058 17.5219 77.7515 20.6209 72.0154C23.566 68.8104 30.072 66.6738 30.072 66.6738Z" fill="#C0BB69"/>
<path fill-rule="evenodd" clip-rule="evenodd" d="M23.191 71.8569C28.6287 74.5613 32.9404 89.5464 37.0886 93.5598C39.4369 95.8408 51.0343 98.8147 54.2584 98.8917C55.5096 101.741 53.2575 104.897 53.2575 104.897C33.4602 103.04 32.5843 101.952 26.4921 94.1758C18.937 84.5322 15.9149 69.9897 23.191 71.8569Z" fill="#ACA644"/>
<path fill-rule="evenodd" clip-rule="evenodd" d="M39.7542 66.5007C38.1084 67.1263 35.6927 66.1446 32.5552 63.623C32.5552 63.623 33.4791 67.2996 39.7542 68.647V66.5007Z" fill="#F4AE92"/>
<path fill-rule="evenodd" clip-rule="evenodd" d="M31.0828 65.3945C31.054 65.5581 30.0723 66.6746 30.0723 66.6746C30.0723 66.6746 32.0453 70.9863 32.7575 72.8823C33.4697 74.7879 35.3368 76.3663 35.3368 76.3663L37.8873 73.5752C34.3647 71.7177 31.0828 65.3945 31.0828 65.3945Z" fill="white"/>
<path fill-rule="evenodd" clip-rule="evenodd" d="M39.533 66.7704C39.302 66.4817 38.7438 72.1504 37.8872 73.5845C39.5234 75.1244 40.4954 75.5382 40.4954 75.5382C40.4954 75.5382 41.4771 69.1958 39.533 66.7704Z" fill="white"/>
<path fill-rule="evenodd" clip-rule="evenodd" d="M213.321 125.604C213.119 128.433 212.859 131.272 212.859 131.272H212.233C212.233 131.272 212.233 126.99 211.56 127.894C211.656 125.555 213.321 125.604 213.321 125.604Z" fill="#112B46"/>
<path fill-rule="evenodd" clip-rule="evenodd" d="M204.581 130.434C204.283 130.434 203.869 130.107 203.503 129.606C204.148 128.836 204.783 128.086 205.207 127.499C206.574 125.612 208.768 121.416 208.874 119.53C208.98 117.643 207.825 97.9229 207.507 95.5168C207.19 93.1011 206.285 83.9772 206.371 83.4575C206.458 82.9378 214.851 86.7009 214.851 86.7009C214.745 87.442 213.609 92.1675 214.071 95.2088C214.533 98.2501 215.264 100.262 214.851 105.228C214.427 110.204 212.021 118.173 212.858 121.945C212.878 122.013 212.887 122.07 212.897 122.138C210.443 125.516 209.567 132.099 204.581 130.434Z" fill="#FFC8AF"/>
<path fill-rule="evenodd" clip-rule="evenodd" d="M203.504 129.605C203.869 130.106 204.274 130.433 204.582 130.433C209.577 132.098 210.443 125.515 212.907 122.137C213.686 125.727 213.34 126.15 212.685 126.66C212.021 127.18 209.711 130.019 209.297 132.011C208.874 134.004 202.589 133.792 201.434 133.378C200.636 133.08 202.079 131.299 203.504 129.605Z" fill="#112B46"/>
<path fill-rule="evenodd" clip-rule="evenodd" d="M221.925 103.69C222.165 105.894 223.465 122.881 223.253 125.72C223.128 127.452 222.3 130.166 221.79 132.351C221.463 133.737 221.27 134.911 221.463 135.469C221.963 136.923 221.992 141.244 224.331 140.272C226.679 139.3 228.229 136.287 227.757 132.957C227.285 129.627 227.853 128.02 227.718 126.037C227.584 124.045 228.922 111.668 229.124 107.27C229.335 102.852 227.863 100.764 227.757 97.8187C227.661 94.8833 228.537 88.7622 228.537 88.7622C228.537 88.7622 218.431 83.4592 219.259 89.8498C220.086 96.25 221.674 101.486 221.925 103.69Z" fill="#FFC8AF"/>
<path fill-rule="evenodd" clip-rule="evenodd" d="M221.049 135.618C221.203 138.573 221.992 141.229 224.331 140.257C226.679 139.285 228.228 136.272 227.757 132.942C226.496 136.619 221.694 136.455 221.79 132.336C221.463 133.722 221.01 135.031 221.049 135.618Z" fill="#112B46"/>
<path fill-rule="evenodd" clip-rule="evenodd" d="M205.698 62.373C205.698 62.373 205.718 82.8537 205.698 89.5812C205.679 96.3086 207.44 118.955 207.44 118.955C210.857 120.264 214.197 118.637 214.197 118.637C214.688 112.786 216.41 103.152 216.699 98.0987C216.988 93.0363 214.688 92.1894 215.65 88.4936C216.612 84.7978 219.201 65.0101 219.201 65.0101L205.698 62.373Z" fill="#4F5962"/>
<path fill-rule="evenodd" clip-rule="evenodd" d="M216.699 66.6884C216.699 66.6884 218.45 88.6801 219.201 91.4712C219.961 94.2623 220.491 105.003 221.039 108.708C221.588 112.414 221.645 123.068 221.645 123.068C222.983 127.418 228.498 123.742 228.498 123.742C230.798 110.114 229.201 103.338 229.133 99.344C229.066 95.3498 231.02 84.8978 230.625 80.5476C230.23 76.207 229.759 67.1793 230.596 65.495C231.433 63.8204 232.386 61.0293 232.704 56.015C226.198 53.5416 215.986 56.323 215.986 56.323L216.699 66.6884Z" fill="#3A4C56"/>
<path fill-rule="evenodd" clip-rule="evenodd" d="M206.68 18.8155C212.445 18.5268 222.223 25.3408 226.65 30.9326C231.078 36.5244 228.344 42.5781 226.843 48.5645C225.342 54.5508 227.661 69.536 227.671 70.9796C220.866 75.5416 208.152 76.119 206.266 69.3724C205.467 62.029 207.103 54.368 207.171 50.0659C206.911 40.8361 199.067 21.5873 206.68 18.8155Z" fill="white"/>
<path fill-rule="evenodd" clip-rule="evenodd" d="M211.714 20.1616C208.72 33.193 209.664 47.2638 210.328 52.7882C210.992 58.303 211.117 76.6855 211.117 76.6855C206.67 74.4431 204.553 70.2853 204.447 68.3989C204.341 66.5126 206.064 50.5746 205.939 49.2753C205.814 47.976 203.552 35.6761 203.793 29.016C204.033 22.3559 206.536 21.3454 206.536 21.3454L212.243 18.7949L211.714 20.1616Z" fill="#FABD68"/>
<path fill-rule="evenodd" clip-rule="evenodd" d="M220.057 21.5234C215.621 31.0034 217.757 39.7039 217.95 47.4996C218.142 55.305 222.184 77.2101 222.184 77.2101C229.951 75.2756 230.885 70.0688 232.386 67.4028C235.976 49.1646 231.443 34.3431 228.075 28.8668C225.437 24.5744 220.057 21.5234 220.057 21.5234Z" fill="#FABD68"/>
<path d="M188.798 51.0307C189.876 51.6563 191.627 51.6466 192.705 51.0211C193.793 50.3955 193.793 49.3849 192.715 48.7593C191.637 48.1337 189.885 48.1434 188.807 48.7689C187.729 49.3945 187.72 50.4051 188.798 51.0307Z" fill="#83C9FF"/>
<path fill-rule="evenodd" clip-rule="evenodd" d="M224.956 29.0002C219.576 31.6372 219.076 47.4597 214.966 51.4057C212.637 53.6386 203.311 51.858 200.125 51.9158C198.874 54.7165 200.568 58.1043 200.568 58.1043C218.335 58.9705 220.471 59.519 224.995 50.886C228.517 44.1489 232.155 27.2004 224.956 29.0002Z" fill="#E0A34E"/>
<path fill-rule="evenodd" clip-rule="evenodd" d="M206.536 21.3309C203.09 23.1306 201.464 37.5287 197.354 41.1378C195.025 43.1782 193.995 45.0453 189.25 47.4129C188.009 49.973 191.387 51.5707 191.387 51.5707C200.857 47.9808 203.023 44.901 206.179 40.1176C210.097 34.2083 213.725 19.6947 206.536 21.3309Z" fill="#FABD68"/>
<path fill-rule="evenodd" clip-rule="evenodd" d="M191.194 51.0529C191.098 51.3512 190.155 52.3714 189.337 53.305C188.519 54.2385 187.21 55.8458 186.805 55.4416C186.401 55.047 187.181 53.459 187.181 53.459C187.181 53.459 184.755 55.7592 184.313 56.5388C183.88 57.3183 184.13 55.0759 184.746 54.0461C183.187 56.4137 182.821 56.943 182.696 56.3463C182.571 55.7592 183.86 52.5447 183.678 52.8623C181.878 55.5667 181.194 55.9421 181.377 54.7005C181.56 53.459 183.312 51.3416 184.37 50.7449C181.252 52.766 181.04 52.5543 181.82 51.6496C182.6 50.7449 185.487 48.5313 189.337 48.002C191.781 50.3214 191.194 51.0529 191.194 51.0529Z" fill="#FFC8AF"/>
<path fill-rule="evenodd" clip-rule="evenodd" d="M189.115 56.0267C190.126 54.4676 191.579 52.6774 193.446 52.1673C194.745 51.8112 196.131 52.0904 197.411 52.4946C198.441 52.8218 199.904 52.9662 200.905 53.4281C201.367 54.6119 201.627 55.6802 201.617 56.7389C201.415 56.8063 201.184 56.864 200.934 56.8929C199.865 57.0084 198.739 57.403 197.661 57.3741C196.93 57.3549 195.775 57.5762 195.111 57.3838C195.38 57.4608 195.708 57.5955 195.746 57.8746C195.785 58.1056 195.573 58.3269 195.352 58.3847C193.764 58.7985 192.368 56.864 191.386 55.969C191.492 56.0556 187.806 58.0575 189.115 56.0267Z" fill="#FFC8AF"/>
<path fill-rule="evenodd" clip-rule="evenodd" d="M205.813 5.53863C205.736 5.68299 205.659 5.84661 205.602 6.01985C205.313 6.87642 205.515 7.90622 205.303 8.79167C204.976 10.2161 203.966 11.3229 203.494 12.6992C201.752 17.7327 206.757 20.5527 211.097 20.1869C211.877 20.1196 212.676 19.9559 213.301 19.4747C215.409 17.8482 213.032 15.2881 212.031 13.7867C211.338 12.7473 210.366 11.3421 210.289 10.0525C210.212 8.84941 210.857 7.80036 210.616 6.51069C210.135 4.00835 206.959 3.45976 205.813 5.53863Z" fill="#3A4D58"/>
<path fill-rule="evenodd" clip-rule="evenodd" d="M218.758 15.7285C218.758 15.7285 217.334 20.6851 220.596 22.7543C220.693 23.9574 217.276 29.0775 213.831 28.2113C211.829 27.7012 210.799 24.8428 210.799 24.8428C211.001 23.0623 212.021 19.2895 212.021 19.2895L218.758 15.7285Z" fill="#E5C7A4"/>
<path fill-rule="evenodd" clip-rule="evenodd" d="M207.17 5.66081C207.17 5.66081 206.285 8.79835 206.612 11.2333C206.949 13.6683 207.17 18.5286 209.326 20.0781C211.482 21.6276 214.581 19.8279 216.631 18.0859C218.681 16.3439 220.856 13.1293 220.904 9.2507C220.952 5.36245 219.432 0.608011 213.83 0.84862C208.239 1.09885 207.17 5.66081 207.17 5.66081Z" fill="#EFD7BA"/>
<path fill-rule="evenodd" clip-rule="evenodd" d="M211.088 3.296C209.634 5.06688 210.327 7.24199 212.117 8.5509C213.359 9.4556 214.437 10.0234 215.265 11.419C216.025 12.7086 216.448 14.2004 216.525 15.6922C216.593 16.9337 216.602 18.156 216.66 19.3879C216.689 19.9558 216.718 20.745 217.334 20.899C218.056 21.0818 219.49 20.5525 220.125 20.1868C221.145 19.5997 222.059 18.772 222.81 17.8769C224.311 16.0868 225.255 13.8251 225.341 11.4863C225.495 7.15537 223.022 4.34505 219.875 1.82347C216.66 -0.755865 213.667 0.139202 211.088 3.296Z" fill="#3A4D58"/>
<path fill-rule="evenodd" clip-rule="evenodd" d="M209.172 1.11965C209.182 1.11002 209.192 1.1004 209.211 1.1004C210.308 0.368947 214.745 -1.01696 214.764 1.25439C214.783 3.51612 211.453 5.78747 209.702 6.79803C208.932 7.24075 208.114 7.59685 207.421 8.13582C206.507 8.84802 206.43 10.2051 205.621 10.821C204.389 9.63722 204.707 6.72104 205.198 5.25813C205.852 3.32363 207.556 2.22645 209.172 1.11965Z" fill="#3A4D58"/>
<path fill-rule="evenodd" clip-rule="evenodd" d="M211.675 20.656C213.966 20.4635 216.468 18.2402 216.468 18.2402C216.468 18.2402 215.948 20.9062 211.386 21.859L211.675 20.656Z" fill="#F4AE92"/>
<path d="M276.832 154.355C274.618 157.801 275.138 160.246 275.763 160.515C288.881 166.357 297.043 164.577 299.045 163.903C296.879 160.881 294.82 157.965 292.366 154.654C285.936 155.847 276.832 154.355 276.832 154.355Z" fill="#3B455A"/>
<path d="M238.758 60.9766L238.71 75.442L212.445 90.7159L212.483 76.2408L238.758 60.9766Z" fill="#F7E2CB"/>
<path d="M120.561 76.2504L120.522 90.7159L94.0747 75.4516L94.1132 60.9766L120.561 76.2504Z" fill="#FADCBA"/>
<path d="M188.808 96.3587L188.846 81.8837C188.856 79.8433 190.194 77.8029 192.879 76.2438C198.268 73.1062 207.055 73.1062 212.484 76.2438L212.445 90.7188C207.017 87.5813 198.24 87.5813 192.84 90.7188C190.155 92.278 188.817 94.3184 188.808 96.3587Z" fill="#E7C59E"/>
<path d="M144.266 81.9607L144.227 96.4357C144.237 94.3665 142.87 92.2972 140.137 90.7188C134.699 87.5813 125.932 87.5909 120.532 90.7188L120.571 76.2438C125.97 73.1062 134.747 73.1062 140.176 76.2438C142.899 77.8222 144.266 79.8914 144.266 81.9607Z" fill="#E7C59E"/>
<path d="M166.671 102.862L166.623 117.337L140.194 102.073L140.233 87.6074L166.671 102.862Z" fill="#FADCBA"/>
<path d="M192.937 87.5996L192.898 102.075L166.624 117.339L166.672 102.864L192.937 87.5996Z" fill="#F7E2CB"/>
<path d="M238.757 60.9789L212.482 76.2431C207.054 73.1056 198.276 73.1056 192.877 76.2431C187.478 79.3807 187.507 84.472 192.935 87.5999L166.66 102.864L140.222 87.5999C145.621 84.4624 145.593 79.3711 140.155 76.2431C134.717 73.1056 125.949 73.1152 120.55 76.2431L94.1118 60.9789L166.198 19.084L238.757 60.9789Z" fill="#FCECDB"/>
<path d="M122.399 94.6758L122.361 109.151C122.351 111.191 121.013 113.232 118.328 114.791L118.367 100.316C121.052 98.7565 122.39 96.7161 122.399 94.6758Z" fill="#73A074"/>
<path d="M144.804 115.58L144.756 130.046L118.501 145.31L118.539 130.844L144.804 115.58Z" fill="#5A7F5B"/>
<path d="M94.8633 150.949L94.9018 136.474C94.9114 134.433 96.2492 132.393 98.9248 130.834C104.324 127.696 113.101 127.696 118.53 130.834L118.491 145.309C113.063 142.181 104.286 142.181 98.8863 145.309C96.2107 146.868 94.8633 148.908 94.8633 150.949Z" fill="#477548"/>
<path d="M98.9922 142.199L98.9537 156.665L72.6792 171.939L72.7177 157.463L98.9922 142.199Z" fill="#5A7F5B"/>
<path d="M72.7179 157.465L72.6794 171.94L0.130859 130.046L0.169357 115.58L72.7179 157.465Z" fill="#73A074"/>
<path d="M118.299 88.948C123.736 92.0855 123.756 97.1768 118.366 100.305L144.804 115.569L118.539 130.833C113.111 127.705 104.334 127.705 98.9343 130.833C93.535 133.971 93.5735 139.052 99.0016 142.19L72.7271 157.454L0.168945 115.579L72.2459 73.6934L98.6937 88.9576C104.093 85.8201 112.87 85.8104 118.299 88.948Z" fill="#6C936D"/>
<path d="M210.818 109.063L210.857 94.5879C210.847 96.6571 212.214 98.7264 214.947 100.305L214.909 114.78C212.175 113.201 210.809 111.132 210.818 109.063Z" fill="#9E342C"/>
<path d="M215.121 130.846L215.082 145.321L188.634 130.047L188.673 115.582L215.121 130.846Z" fill="#BC8C55"/>
<path d="M238.825 136.564L238.787 151.039C238.796 148.97 237.43 146.901 234.697 145.322C229.259 142.185 220.481 142.185 215.082 145.322L215.121 130.847C220.52 127.71 229.297 127.71 234.735 130.847C237.468 132.426 238.825 134.495 238.825 136.564Z" fill="#936F53"/>
<path d="M261.231 157.465L261.193 171.94L234.754 156.676L234.793 142.201L261.231 157.465Z" fill="#BC8C55"/>
<path d="M333.317 115.582L333.279 130.047L261.192 171.942L261.231 157.467L333.317 115.582Z" fill="#936F53"/>
<path d="M333.316 115.581L261.229 157.476L234.782 142.211C240.181 139.074 240.152 133.983 234.724 130.855C229.286 127.717 220.509 127.717 215.109 130.855L188.662 115.59L214.936 100.326C209.498 97.1885 209.479 92.1069 214.878 88.9693C220.268 85.8318 229.045 85.8318 234.483 88.9693L260.758 73.7051L333.316 115.581Z" fill="#D9AB77"/>
<path d="M216.959 149.264L216.92 163.739C216.911 165.779 215.573 167.819 212.888 169.379L212.926 154.904C215.611 153.344 216.949 151.304 216.959 149.264Z" fill="#EFBC3F"/>
<path d="M116.865 163.663L116.904 149.188C116.894 151.257 118.261 153.326 120.994 154.904L120.956 169.379C118.232 167.791 116.865 165.722 116.865 163.663Z" fill="#FFDC85"/>
<path fill-rule="evenodd" clip-rule="evenodd" d="M141.417 217.128C141.417 217.128 142.129 217.369 143.794 218.071C145.459 218.774 149.059 219.005 151.301 218.649C153.544 218.292 156.633 217.792 156.036 216.974C155.44 216.156 144.15 213.336 143.679 213.557C143.197 213.779 141.417 217.128 141.417 217.128Z" fill="#BD734A"/>
<path d="M167.287 212.061L167.249 226.526L94.6904 184.641L94.7289 170.166L167.287 212.061Z" fill="#FFDC85"/>
<path d="M239.364 170.18L239.325 184.645L167.249 226.53L167.287 212.065L239.364 170.18Z" fill="#EFBC3F"/>
<path d="M212.868 143.547C218.296 146.685 218.325 151.767 212.926 154.904L239.373 170.168L167.296 212.054L94.7383 170.159L121.013 154.894C115.575 151.757 115.546 146.675 120.945 143.538C126.345 140.4 135.122 140.4 140.55 143.538L166.815 128.273L193.263 143.538C198.653 140.41 207.43 140.41 212.868 143.547Z" fill="#FBD15B"/>
<path d="M167.441 167.091V168.592C167.441 169.776 166.662 170.97 165.102 171.874C161.965 173.703 156.854 173.703 153.688 171.874C152.1 170.96 151.301 169.747 151.311 168.544V167.043C151.311 168.246 152.1 169.449 153.688 170.373C156.854 172.202 161.965 172.202 165.102 170.373C166.662 169.468 167.441 168.285 167.441 167.091Z" fill="#A5B7C6"/>
<path d="M165.054 163.761C168.22 165.589 168.24 168.554 165.093 170.373C161.955 172.201 156.844 172.201 153.678 170.373C150.521 168.544 150.502 165.589 153.64 163.761C156.787 161.942 161.897 161.942 165.054 163.761Z" fill="#B6C7D3"/>
<path d="M178.403 118.149C177.931 117.87 177.267 117.909 176.546 118.332L136.287 141.575C134.833 142.412 133.669 144.433 133.669 146.108L133.736 176.204C133.736 177.031 134.025 177.609 134.497 177.878L137.095 179.389C136.624 179.12 136.335 178.533 136.335 177.715L136.268 147.619C136.268 145.954 137.432 143.923 138.885 143.086L179.144 119.843C179.866 119.42 180.53 119.381 181.002 119.66L178.403 118.149Z" fill="#B6C7D3"/>
<path d="M179.154 119.84C180.597 119.003 181.771 119.677 181.781 121.342L181.848 151.437C181.848 153.093 180.684 155.123 179.24 155.961L138.981 179.204C137.528 180.041 136.354 179.367 136.354 177.712L136.287 147.616C136.287 145.951 137.451 143.921 138.904 143.083L179.154 119.84Z" fill="#A5B7C6"/>
<path d="M179.943 127.308L179.933 121.523L178.807 122.168L176.372 123.573L143.967 142.283L138.125 145.652V147.596V147.605L138.154 161.898L138.183 173.822L163.832 159.01L167.826 156.701L179.991 149.684L179.943 127.308Z" fill="#FCECDB"/>
<path d="M143.967 142.283L138.173 145.623V147.452L179.933 123.342L179.923 121.523L143.967 142.283Z" fill="#A9453D"/>
<path d="M143.043 149.765C143.043 150.603 142.456 151.632 141.725 152.046C140.993 152.47 140.406 152.123 140.406 151.286C140.406 150.449 140.993 149.419 141.725 149.005C142.456 148.582 143.043 148.918 143.043 149.765Z" fill="#C34F46"/>
<path d="M143.043 154.404C143.043 155.242 142.456 156.271 141.725 156.685C140.993 157.109 140.406 156.762 140.406 155.925C140.406 155.088 140.993 154.058 141.725 153.644C142.456 153.22 143.043 153.567 143.043 154.404Z" fill="#EC827D"/>
<path d="M143.043 158.994C143.043 159.831 142.456 160.861 141.725 161.275C140.993 161.698 140.406 161.352 140.406 160.514C140.406 159.677 140.993 158.647 141.725 158.233C142.456 157.81 143.043 158.147 143.043 158.994Z" fill="#FBD15B"/>
<path d="M142.87 174.29C142.87 174.896 142.446 175.628 141.927 175.926C141.407 176.224 140.983 175.984 140.983 175.377C140.983 174.771 141.407 174.04 141.927 173.741C142.446 173.443 142.87 173.693 142.87 174.29Z" fill="#EC827D"/>
<path d="M196.382 175.462L183.495 168.013L200.655 158.109L213.552 165.549L196.382 175.462Z" fill="#D34C4C"/>
<path d="M196.381 176.026V175.458L213.551 165.545V166.113L196.381 176.026Z" fill="#D34C4C"/>
<path d="M196.381 175.459V176.027L183.494 168.578V168.01L196.381 175.459Z" fill="#D34C4C"/>
<path d="M150.405 184.49V185.597L162.994 192.912V191.805L150.405 184.49Z" fill="#CCD9E2"/>
<path d="M162.994 191.807V192.914L190.857 176.822L190.847 175.715L162.994 191.807Z" fill="#A5B7C6"/>
<path d="M150.405 184.49L162.994 191.805L190.847 175.713L178.268 168.398L150.405 184.49Z" fill="#B6C7D3"/>
<path d="M176.565 170.248V170.797L178.307 171.807V171.259L176.565 170.248Z" fill="#CCD9E2"/>
<path d="M178.307 171.263V171.811L180.02 170.82V170.271L178.307 171.263Z" fill="#A5B7C6"/>
<path d="M176.565 170.247L178.307 171.258L180.02 170.266L178.278 169.256L176.565 170.247Z" fill="#B6C7D3"/>
<path d="M174.36 171.516V172.064L176.102 173.084V172.526L174.36 171.516Z" fill="#CCD9E2"/>
<path d="M176.103 172.53V173.089L177.816 172.088V171.539L176.103 172.53Z" fill="#A5B7C6"/>
<path d="M174.36 171.513L176.102 172.523L177.815 171.532L176.073 170.521L174.36 171.513Z" fill="#B6C7D3"/>
<path d="M172.157 172.793V173.342L173.899 174.362V173.804L172.157 172.793Z" fill="#CCD9E2"/>
<path d="M173.899 173.802V174.36L175.622 173.359V172.811L173.899 173.802Z" fill="#A5B7C6"/>
<path d="M172.157 172.788L173.899 173.799L175.622 172.807L173.879 171.797L172.157 172.788Z" fill="#B6C7D3"/>
<path d="M169.962 174.057V174.605L171.704 175.616V175.067L169.962 174.057Z" fill="#CCD9E2"/>
<path d="M171.704 175.071V175.62L173.417 174.629V174.08L171.704 175.071Z" fill="#A5B7C6"/>
<path d="M169.962 174.062L171.704 175.072L173.417 174.081L171.675 173.07L169.962 174.062Z" fill="#B6C7D3"/>
<path d="M167.758 175.332V175.89L169.5 176.901V176.343L167.758 175.332Z" fill="#CCD9E2"/>
<path d="M169.5 176.339V176.897L171.214 175.906V175.348L169.5 176.339Z" fill="#A5B7C6"/>
<path d="M167.758 175.331L169.5 176.342L171.213 175.35L169.471 174.34L167.758 175.331Z" fill="#B6C7D3"/>
<path d="M165.554 176.6V177.148L167.296 178.168V177.61L165.554 176.6Z" fill="#CCD9E2"/>
<path d="M167.296 177.61V178.169L169.019 177.177V176.619L167.296 177.61Z" fill="#A5B7C6"/>
<path d="M165.554 176.597L167.296 177.607L169.019 176.616L167.277 175.605L165.554 176.597Z" fill="#B6C7D3"/>
<path d="M163.35 177.871L163.36 178.42L165.102 179.44L165.092 178.882L163.35 177.871Z" fill="#CCD9E2"/>
<path d="M165.092 178.884L165.101 179.442L166.815 178.451V177.893L165.092 178.884Z" fill="#A5B7C6"/>
<path d="M163.35 177.872L165.092 178.883L166.815 177.891L165.073 176.881L163.35 177.872Z" fill="#B6C7D3"/>
<path d="M161.146 179.143L161.156 179.701L162.898 180.711L162.888 180.153L161.146 179.143Z" fill="#CCD9E2"/>
<path d="M162.889 180.153L162.898 180.712L164.621 179.72L164.611 179.162L162.889 180.153Z" fill="#A5B7C6"/>
<path d="M161.147 179.144L162.889 180.154L164.612 179.163L162.87 178.152L161.147 179.144Z" fill="#B6C7D3"/>
<path d="M158.952 180.414V180.972L160.694 181.983V181.425L158.952 180.414Z" fill="#CCD9E2"/>
<path d="M160.694 181.423V181.981L162.417 180.99L162.407 180.432L160.694 181.423Z" fill="#A5B7C6"/>
<path d="M158.952 180.413L160.694 181.424L162.407 180.432L160.665 179.422L158.952 180.413Z" fill="#B6C7D3"/>
<path d="M156.748 181.682L156.757 182.24L158.49 183.25V182.692L156.748 181.682Z" fill="#CCD9E2"/>
<path d="M158.49 182.694V183.253L160.213 182.261V181.703L158.49 182.694Z" fill="#A5B7C6"/>
<path d="M156.748 181.685L158.49 182.695L160.212 181.704L158.47 180.693L156.748 181.685Z" fill="#B6C7D3"/>
<path d="M152.35 184.219V184.777L154.092 185.788V185.229L152.35 184.219Z" fill="#CCD9E2"/>
<path d="M154.092 185.229V185.787L158.009 183.525V182.967L154.092 185.229Z" fill="#A5B7C6"/>
<path d="M152.35 184.219L154.092 185.229L158.009 182.968L156.267 181.957L152.35 184.219Z" fill="#B6C7D3"/>
<path d="M176.574 172.809L176.584 173.357L178.326 174.377L178.316 173.819L176.574 172.809Z" fill="#CCD9E2"/>
<path d="M178.316 173.82L178.326 174.379L182.243 172.107V171.559L178.316 173.82Z" fill="#A5B7C6"/>
<path d="M176.574 172.807L178.316 173.817L182.243 171.555L180.501 170.545L176.574 172.807Z" fill="#B6C7D3"/>
<path d="M174.38 174.086V174.635L176.122 175.655V175.096L174.38 174.086Z" fill="#CCD9E2"/>
<path d="M176.122 175.095V175.653L177.845 174.652L177.835 174.104L176.122 175.095Z" fill="#A5B7C6"/>
<path d="M174.38 174.079L176.122 175.09L177.835 174.098L176.093 173.088L174.38 174.079Z" fill="#B6C7D3"/>
<path d="M172.176 175.344V175.892L173.918 176.913V176.354L172.176 175.344Z" fill="#CCD9E2"/>
<path d="M173.918 176.36V176.919L175.641 175.918V175.369L173.918 176.36Z" fill="#A5B7C6"/>
<path d="M172.176 175.351L173.918 176.361L175.641 175.37L173.899 174.359L172.176 175.351Z" fill="#B6C7D3"/>
<path d="M169.972 176.619V177.177L171.714 178.188V177.63L169.972 176.619Z" fill="#CCD9E2"/>
<path d="M171.714 177.632V178.19L173.437 177.199V176.641L171.714 177.632Z" fill="#A5B7C6"/>
<path d="M169.972 176.618L171.714 177.629L173.437 176.638L171.695 175.627L169.972 176.618Z" fill="#B6C7D3"/>
<path d="M167.777 177.889V178.447L169.519 179.457V178.899L167.777 177.889Z" fill="#CCD9E2"/>
<path d="M169.52 178.898V179.456L171.233 178.464V177.906L169.52 178.898Z" fill="#A5B7C6"/>
<path d="M167.777 177.89L169.519 178.9L171.232 177.909L169.49 176.898L167.777 177.89Z" fill="#B6C7D3"/>
<path d="M165.574 179.156V179.714L167.316 180.725V180.167L165.574 179.156Z" fill="#CCD9E2"/>
<path d="M167.315 180.171V180.729L169.038 179.738V179.18L167.315 180.171Z" fill="#A5B7C6"/>
<path d="M165.573 179.161L167.315 180.172L169.038 179.18L167.296 178.17L165.573 179.161Z" fill="#B6C7D3"/>
<path d="M163.37 180.438V180.996L165.112 182.006V181.448L163.37 180.438Z" fill="#CCD9E2"/>
<path d="M165.111 181.444V182.003L166.834 181.011V180.453L165.111 181.444Z" fill="#A5B7C6"/>
<path d="M163.37 180.433L165.112 181.443L166.834 180.452L165.092 179.441L163.37 180.433Z" fill="#B6C7D3"/>
<path d="M161.175 181.703V182.261L162.917 183.272V182.714L161.175 181.703Z" fill="#CCD9E2"/>
<path d="M162.917 182.714V183.272L164.631 182.281V181.723L162.917 182.714Z" fill="#A5B7C6"/>
<path d="M161.176 181.7L162.918 182.711L164.631 181.72L162.889 180.709L161.176 181.7Z" fill="#B6C7D3"/>
<path d="M158.971 182.975V183.533L160.713 184.543V183.985L158.971 182.975Z" fill="#CCD9E2"/>
<path d="M160.713 183.991V184.55L162.436 183.558L162.427 183L160.713 183.991Z" fill="#A5B7C6"/>
<path d="M158.971 182.976L160.713 183.986L162.426 182.995L160.694 181.984L158.971 182.976Z" fill="#B6C7D3"/>
<path d="M156.767 184.246V184.804L158.509 185.815V185.257L156.767 184.246Z" fill="#CCD9E2"/>
<path d="M158.509 185.251V185.809L160.232 184.818V184.26L158.509 185.251Z" fill="#A5B7C6"/>
<path d="M156.767 184.241L158.509 185.252L160.231 184.261L158.489 183.25L156.767 184.241Z" fill="#B6C7D3"/>
<path d="M154.563 185.512L154.573 186.07L156.315 187.08L156.305 186.522L154.563 185.512Z" fill="#CCD9E2"/>
<path d="M156.306 186.525L156.315 187.083L158.028 186.091V185.533L156.306 186.525Z" fill="#A5B7C6"/>
<path d="M154.563 185.513L156.305 186.523L158.028 185.532L156.286 184.521L154.563 185.513Z" fill="#B6C7D3"/>
<path d="M178.798 174.104V174.652L180.54 175.672V175.114L178.798 174.104Z" fill="#CCD9E2"/>
<path d="M180.54 175.105V175.664L184.467 173.392V172.844L180.54 175.105Z" fill="#A5B7C6"/>
<path d="M178.798 174.1L180.54 175.11L184.467 172.848L182.725 171.838L178.798 174.1Z" fill="#B6C7D3"/>
<path d="M176.603 175.369V175.918L178.345 176.938L178.335 176.38L176.603 175.369Z" fill="#CCD9E2"/>
<path d="M178.336 176.382L178.346 176.94L180.059 175.949V175.391L178.336 176.382Z" fill="#A5B7C6"/>
<path d="M176.603 175.37L178.335 176.381L180.058 175.389L178.316 174.379L176.603 175.37Z" fill="#B6C7D3"/>
<path d="M174.399 176.641V177.189L176.141 178.209V177.651L174.399 176.641Z" fill="#CCD9E2"/>
<path d="M176.141 177.651V178.21L177.864 177.209L177.854 176.66L176.141 177.651Z" fill="#A5B7C6"/>
<path d="M174.399 176.642L176.141 177.652L177.854 176.661L176.112 175.65L174.399 176.642Z" fill="#B6C7D3"/>
<path d="M172.195 177.908V178.466L173.937 179.477V178.919L172.195 177.908Z" fill="#CCD9E2"/>
<path d="M173.937 178.921V179.479L175.66 178.488L175.65 177.93L173.937 178.921Z" fill="#A5B7C6"/>
<path d="M172.195 177.909L173.937 178.92L175.65 177.929L173.908 176.918L172.195 177.909Z" fill="#B6C7D3"/>
<path d="M169.991 179.178L170.001 179.736L171.733 180.747V180.188L169.991 179.178Z" fill="#CCD9E2"/>
<path d="M171.733 180.187V180.745L173.456 179.754V179.195L171.733 180.187Z" fill="#A5B7C6"/>
<path d="M169.991 179.177L171.733 180.187L173.456 179.196L171.714 178.186L169.991 179.177Z" fill="#B6C7D3"/>
<path d="M167.797 180.451V181.009L169.539 182.02V181.462L167.797 180.451Z" fill="#CCD9E2"/>
<path d="M169.539 181.46V182.018L171.252 181.027V180.469L169.539 181.46Z" fill="#A5B7C6"/>
<path d="M167.797 180.452L169.539 181.463L171.252 180.471L169.51 179.461L167.797 180.452Z" fill="#B6C7D3"/>
<path d="M165.593 181.719V182.277L167.335 183.288V182.729L165.593 181.719Z" fill="#CCD9E2"/>
<path d="M167.335 182.73V183.288L169.058 182.296V181.738L167.335 182.73Z" fill="#A5B7C6"/>
<path d="M165.593 181.718L167.335 182.728L169.058 181.737L167.316 180.727L165.593 181.718Z" fill="#B6C7D3"/>
<path d="M163.389 182.99V183.548L165.131 184.559V184.001L163.389 182.99Z" fill="#CCD9E2"/>
<path d="M165.131 184.005V184.563L166.854 183.572V183.014L165.131 184.005Z" fill="#A5B7C6"/>
<path d="M163.389 182.995L165.131 184.006L166.853 183.014L165.111 182.004L163.389 182.995Z" fill="#B6C7D3"/>
<path d="M161.194 184.258V184.816L162.936 185.827V185.268L161.194 184.258Z" fill="#CCD9E2"/>
<path d="M162.937 185.269V185.827L164.65 184.836V184.277L162.937 185.269Z" fill="#A5B7C6"/>
<path d="M161.195 184.263L162.937 185.273L164.65 184.282L162.908 183.271L161.195 184.263Z" fill="#B6C7D3"/>
<path d="M156.787 186.807V187.365L158.529 188.375V187.817L156.787 186.807Z" fill="#CCD9E2"/>
<path d="M158.529 187.816V188.375L162.456 186.113V185.555L158.529 187.816Z" fill="#A5B7C6"/>
<path d="M156.787 186.803L158.529 187.813L162.455 185.552L160.713 184.541L156.787 186.803Z" fill="#B6C7D3"/>
<path d="M178.827 176.658V177.216L180.569 178.227V177.669L178.827 176.658Z" fill="#CCD9E2"/>
<path d="M180.569 177.669V178.227L186.69 174.695V174.137L180.569 177.669Z" fill="#A5B7C6"/>
<path d="M178.827 176.657L180.569 177.668L186.69 174.136L184.948 173.125L178.827 176.657Z" fill="#B6C7D3"/>
<path d="M176.623 177.932V178.49L178.365 179.5V178.942L176.623 177.932Z" fill="#CCD9E2"/>
<path d="M178.365 178.941V179.499L180.088 178.507V177.949L178.365 178.941Z" fill="#A5B7C6"/>
<path d="M176.623 177.929L178.365 178.939L180.087 177.948L178.345 176.938L176.623 177.929Z" fill="#B6C7D3"/>
<path d="M174.418 179.199V179.757L176.16 180.768V180.219L174.418 179.199Z" fill="#CCD9E2"/>
<path d="M176.161 180.222V180.77L177.883 179.779V179.221L176.161 180.222Z" fill="#A5B7C6"/>
<path d="M174.418 179.202L176.16 180.222L177.883 179.221L176.141 178.211L174.418 179.202Z" fill="#B6C7D3"/>
<path d="M172.224 180.469V181.027L173.966 182.038L173.957 181.479L172.224 180.469Z" fill="#CCD9E2"/>
<path d="M173.957 181.482L173.966 182.04L175.679 181.048V180.49L173.957 181.482Z" fill="#A5B7C6"/>
<path d="M172.224 180.468L173.957 181.478L175.679 180.487L173.937 179.477L172.224 180.468Z" fill="#B6C7D3"/>
<path d="M170.02 181.74V182.298L171.762 183.309V182.751L170.02 181.74Z" fill="#CCD9E2"/>
<path d="M171.761 182.753V183.311L173.484 182.32L173.474 181.762L171.761 182.753Z" fill="#A5B7C6"/>
<path d="M170.02 181.739L171.762 182.75L173.475 181.759L171.733 180.748L170.02 181.739Z" fill="#B6C7D3"/>
<path d="M167.816 183.018V183.566L169.558 184.577V184.028L167.816 183.018Z" fill="#CCD9E2"/>
<path d="M169.558 184.032V184.581L171.281 183.589V183.031L169.558 184.032Z" fill="#A5B7C6"/>
<path d="M167.816 183.015L169.558 184.025L171.281 183.024L169.539 182.014L167.816 183.015Z" fill="#B6C7D3"/>
<path d="M165.612 184.273L165.622 184.832L167.354 185.842V185.294L165.612 184.273Z" fill="#CCD9E2"/>
<path d="M167.354 185.302V185.85L169.077 184.859V184.311L167.354 185.302Z" fill="#A5B7C6"/>
<path d="M165.612 184.282L167.354 185.303L169.077 184.311L167.335 183.291L165.612 184.282Z" fill="#B6C7D3"/>
<path d="M163.417 185.555V186.113L165.159 187.123V186.575L163.417 185.555Z" fill="#CCD9E2"/>
<path d="M165.16 186.573V187.122L166.873 186.131V185.582L165.16 186.573Z" fill="#A5B7C6"/>
<path d="M163.417 185.554L165.159 186.574L166.873 185.583L165.131 184.562L163.417 185.554Z" fill="#B6C7D3"/>
<path d="M159.01 188.102V188.65L160.752 189.661V189.112L159.01 188.102Z" fill="#CCD9E2"/>
<path d="M160.752 189.113V189.662L164.679 187.4V186.842L160.752 189.113Z" fill="#A5B7C6"/>
<path d="M159.01 188.101L160.752 189.112L164.679 186.841L162.937 185.83L159.01 188.101Z" fill="#B6C7D3"/>
<path d="M185.448 175.404V175.963L187.19 176.973V176.415L185.448 175.404Z" fill="#CCD9E2"/>
<path d="M187.19 176.413V176.971L188.913 175.98L188.903 175.422L187.19 176.413Z" fill="#A5B7C6"/>
<path d="M185.448 175.405L187.19 176.416L188.903 175.425L187.161 174.414L185.448 175.405Z" fill="#B6C7D3"/>
<path d="M183.244 176.68V177.238L184.986 178.248V177.69L183.244 176.68Z" fill="#CCD9E2"/>
<path d="M184.986 177.692V178.251L186.709 177.259L186.699 176.701L184.986 177.692Z" fill="#A5B7C6"/>
<path d="M183.244 176.677L184.986 177.687L186.699 176.696L184.957 175.686L183.244 176.677Z" fill="#B6C7D3"/>
<path d="M181.04 177.945V178.504L182.782 179.514V178.956L181.04 177.945Z" fill="#CCD9E2"/>
<path d="M182.782 178.956V179.514L184.505 178.523V177.965L182.782 178.956Z" fill="#A5B7C6"/>
<path d="M181.04 177.948L182.782 178.959L184.505 177.968L182.763 176.957L181.04 177.948Z" fill="#B6C7D3"/>
<path d="M170.039 184.314V184.863L171.781 185.874V185.325L170.039 184.314Z" fill="#CCD9E2"/>
<path d="M171.781 185.327V185.875L182.3 179.802V179.244L171.781 185.327Z" fill="#A5B7C6"/>
<path d="M170.039 184.313L171.781 185.324L182.301 179.241L180.559 178.23L170.039 184.313Z" fill="#B6C7D3"/>
<path d="M167.835 185.576V186.125L169.577 187.135V186.587L167.835 185.576Z" fill="#CCD9E2"/>
<path d="M169.577 186.595V187.143L171.3 186.152L171.29 185.604L169.577 186.595Z" fill="#A5B7C6"/>
<path d="M167.835 185.581L169.577 186.592L171.291 185.6L169.558 184.58L167.835 185.581Z" fill="#B6C7D3"/>
<path d="M165.632 186.842L165.641 187.4L167.383 188.411L167.374 187.862L165.632 186.842Z" fill="#CCD9E2"/>
<path d="M167.374 187.862L167.384 188.411L169.097 187.42V186.871L167.374 187.862Z" fill="#A5B7C6"/>
<path d="M165.632 186.839L167.374 187.859L169.097 186.868L167.355 185.848L165.632 186.839Z" fill="#B6C7D3"/>
<path d="M161.233 189.395V189.943L162.975 190.954V190.405L161.233 189.395Z" fill="#CCD9E2"/>
<path d="M162.975 190.404V190.953L166.902 188.691L166.892 188.143L162.975 190.404Z" fill="#A5B7C6"/>
<path d="M161.233 189.392L162.975 190.403L166.892 188.141L165.15 187.121L161.233 189.392Z" fill="#B6C7D3"/>
<path d="M167.951 139.701L167.98 148.45L175.593 144.051L175.564 135.312L167.951 139.701Z" fill="#C34F46"/>
<path d="M160.694 147.186V147.532L166.209 144.346V144L160.694 147.186Z" fill="#B6C7D3"/>
<path d="M160.685 146.084V146.431L166.209 143.245V142.898L160.685 146.084Z" fill="#B6C7D3"/>
<path d="M160.685 144.988V145.345L166.199 142.159V141.803L160.685 144.988Z" fill="#B6C7D3"/>
<path d="M160.685 143.906V144.253L166.199 141.067V140.721L160.685 143.906Z" fill="#B6C7D3"/>
<path d="M160.694 149.371V149.718L166.219 146.532L166.209 146.186L160.694 149.371Z" fill="#B6C7D3"/>
<path d="M160.694 148.274V148.63L166.209 145.444V145.088L160.694 148.274Z" fill="#B6C7D3"/>
<path d="M162.099 149.658V150.005L166.218 147.628V147.281L162.099 149.658Z" fill="#B6C7D3"/>
<path d="M174.496 132.383C174.351 132.47 174.236 132.672 174.236 132.836C174.236 132.999 174.351 133.067 174.496 132.99C174.64 132.903 174.756 132.701 174.756 132.537C174.756 132.364 174.64 132.297 174.496 132.383Z" fill="#FBD15B"/>
<path d="M176.892 130.515C177.171 130.352 177.402 130.486 177.402 130.804L177.412 133.181C177.412 132.883 177.2 132.767 176.95 132.912L159.434 143.027C159.183 143.171 158.972 143.527 158.972 143.826L158.962 141.448C158.962 141.131 159.183 140.736 159.462 140.582L176.892 130.515ZM175.554 132.373C175.699 132.286 175.814 132.084 175.814 131.92C175.814 131.747 175.699 131.689 175.545 131.766C175.4 131.853 175.285 132.055 175.285 132.219C175.294 132.382 175.41 132.45 175.554 132.373ZM174.496 132.989C174.64 132.902 174.756 132.7 174.756 132.536C174.756 132.373 174.64 132.305 174.486 132.382C174.342 132.469 174.226 132.671 174.226 132.835C174.226 132.998 174.351 133.066 174.496 132.989ZM176.623 131.757C176.767 131.67 176.882 131.468 176.882 131.304C176.882 131.141 176.767 131.073 176.623 131.15C176.478 131.237 176.363 131.439 176.363 131.603C176.353 131.776 176.478 131.843 176.623 131.757Z" fill="#B6C7D3"/>
<path d="M176.94 132.919C177.19 132.775 177.402 132.89 177.402 133.189L177.431 144.632C177.431 144.921 177.229 145.287 176.969 145.431L159.453 155.546C159.203 155.691 158.991 155.575 158.991 155.277L158.962 143.833C158.962 143.535 159.164 143.179 159.424 143.035L176.94 132.919ZM167.98 148.443L175.593 144.055L175.564 135.316L167.951 139.705L167.98 148.443ZM160.694 148.626L166.209 145.441V145.094L160.694 148.28V148.626ZM160.685 145.344L166.199 142.159V141.812L160.685 144.998V145.344ZM160.685 146.432L166.199 143.246V142.9L160.685 146.085V146.432ZM160.685 144.247L166.199 141.062V140.715L160.685 143.901V144.247ZM160.694 149.714L166.209 146.528V146.182L160.694 149.367V149.714ZM160.694 147.529L166.209 144.343V143.997L160.694 147.183V147.529ZM162.099 150.003L166.219 147.625V147.279L162.099 149.656V150.003Z" fill="#BEE1F4"/>
<path d="M176.613 131.149C176.469 131.236 176.354 131.438 176.354 131.601C176.354 131.765 176.469 131.832 176.613 131.755C176.758 131.669 176.873 131.467 176.873 131.303C176.883 131.13 176.767 131.062 176.613 131.149Z" fill="#EC827D"/>
<path d="M175.554 131.77C175.41 131.857 175.294 132.059 175.294 132.222C175.294 132.386 175.41 132.453 175.554 132.376C175.699 132.29 175.814 132.088 175.814 131.924C175.824 131.751 175.699 131.683 175.554 131.77Z" fill="#606BF1"/>
<path d="M204.957 167.936C204.976 168.013 204.908 168.071 204.86 168.119C204.812 168.148 201.299 170.14 201.299 170.14L200.703 169.755C201.684 169.206 203.725 168.08 204.908 167.426C204.947 167.599 204.957 167.763 204.957 167.936Z" fill="#A5B7C6"/>
<path d="M204.915 167.425C203.731 168.089 201.69 169.205 200.709 169.754L193.442 165.125C194.068 164.768 194.703 164.422 195.329 164.066C196.522 163.402 197.812 162.536 199.179 162.362C200.189 162.237 201.257 162.651 202.172 163.171C202.971 163.614 204.645 164.691 204.915 167.425Z" fill="#EEEEEE"/>
<path d="M201.078 170.143C201.242 170.239 201.453 170.104 201.444 169.912C201.309 166.861 199.365 165.831 198.518 165.35C197.671 164.869 195.12 163.849 193.273 165.235C193.138 165.34 193.147 165.552 193.292 165.639C196.102 167.313 199.885 169.469 201.078 170.143Z" fill="#CCD9E2"/>
<path d="M99.8291 115.74L98.5972 116.462C98.8185 116.337 98.9629 116.058 98.9629 115.663L100.195 114.941C100.195 115.336 100.05 115.605 99.8291 115.74Z" fill="#A5B7C6"/>
<path d="M63.4688 66.1302L64.7007 65.4084C64.922 65.2737 65.2396 65.2929 65.5861 65.495L64.3542 66.2169C64.0077 66.0147 63.6997 65.9955 63.4688 66.1302Z" fill="#A5B7C6"/>
<path d="M99.0312 87.6632L100.263 86.9414L100.196 114.939L98.9639 115.661L99.0312 87.6632Z" fill="#A5B7C6"/>
<path d="M64.3545 66.2142L65.596 65.502L99.0215 84.7988L97.7896 85.5207L64.3545 66.2142Z" fill="#A5B7C6"/>
<path d="M97.7891 85.5265L99.021 84.8047C99.7043 85.1993 100.263 86.1617 100.263 86.9509L99.0306 87.6727C99.0306 86.8739 98.4724 85.9211 97.7891 85.5265Z" fill="#A5B7C6"/>
<path d="M97.7894 85.5209C98.4727 85.9155 99.0309 86.8779 99.0309 87.6671L98.9636 115.664C98.9636 116.454 98.3957 116.771 97.722 116.377L64.287 97.0701C63.6036 96.6755 63.0454 95.7131 63.0454 94.9239L63.1128 66.9266C63.1128 66.1374 63.671 65.8198 64.3543 66.2144L97.7894 85.5209Z" fill="#112B46"/>
<path d="M64.3449 69.0332L64.2871 94.2491L97.7222 113.556L97.7799 88.3301L64.3449 69.0332Z" fill="#FCECDB"/>
<path d="M98.2318 117.092V118.516C98.2318 118.776 98.0585 119.036 97.7217 119.228V117.804C98.0585 117.612 98.2221 117.352 98.2318 117.092Z" fill="#879FAF"/>
<path d="M73.7567 131.705V133.129C73.083 133.524 71.9665 133.524 71.2832 133.129V131.705C71.9665 132.1 73.0733 132.1 73.7567 131.705Z" fill="#879FAF"/>
<path d="M37.3286 113.106V111.682C37.3286 111.941 37.5018 112.201 37.8483 112.403V113.828C37.4922 113.626 37.3286 113.366 37.3286 113.106Z" fill="#879FAF"/>
<path d="M97.7214 117.803L97.7118 119.237L73.7471 133.125L73.7567 131.7L97.7214 117.803Z" fill="#879FAF"/>
<path d="M71.2831 131.703L71.2735 133.127L37.8384 113.831L37.848 112.396L71.2831 131.703Z" fill="#879FAF"/>
<path d="M97.7103 116.37C98.3937 116.765 98.3937 117.409 97.72 117.804L73.7553 131.692C73.0816 132.087 71.9651 132.087 71.2818 131.692L37.8467 112.386C37.1634 111.991 37.1634 111.346 37.8371 110.951L61.8018 97.0635C62.4755 96.6689 63.5919 96.6689 64.2752 97.0635L97.7103 116.37Z" fill="#A5B7C6"/>
<path d="M70.5906 119.989L58.2714 112.877C57.9346 112.684 57.3764 112.674 57.0299 112.877L50.6682 116.543C50.3313 116.736 50.3313 117.063 50.6682 117.256L62.9874 124.368C63.3338 124.57 63.8824 124.561 64.2289 124.368L70.5906 120.701C70.9371 120.509 70.9371 120.191 70.5906 119.989Z" fill="#B6C7D3"/>
<path d="M64.6422 99.25V99.6157L62.3901 100.915L62.3998 100.559L64.6422 99.25Z" fill="#112B46"/>
<path d="M62.4 100.555L62.3904 100.912L60.1768 99.6411V99.2754L62.4 100.555Z" fill="#112B46"/>
<path d="M64.6425 99.2489L62.4 100.558L60.1768 99.2778L62.4289 97.9785L64.6425 99.2489Z" fill="#56548C"/>
<path d="M67.4918 100.893V101.249L65.2397 102.558V102.201L67.4918 100.893Z" fill="#112B46"/>
<path d="M65.2398 102.204V102.56L63.0166 101.28V100.924L65.2398 102.204Z" fill="#112B46"/>
<path d="M67.4919 100.893L65.2398 102.202L63.0166 100.922L65.2687 99.6133L67.4919 100.893Z" fill="#56548C"/>
<path d="M70.321 102.533V102.889L68.0688 104.198V103.842L70.321 102.533Z" fill="#112B46"/>
<path d="M68.0691 103.835V104.191L65.8555 102.911V102.555L68.0691 103.835Z" fill="#112B46"/>
<path d="M70.3212 102.53L68.0691 103.839L65.8555 102.559L68.1076 101.25L70.3212 102.53Z" fill="#56548C"/>
<path d="M73.1603 104.168V104.524L70.9082 105.833V105.477L73.1603 104.168Z" fill="#112B46"/>
<path d="M70.9079 105.479V105.835L68.6943 104.555V104.199L70.9079 105.479Z" fill="#112B46"/>
<path d="M73.16 104.165L70.9079 105.474L68.6943 104.194L70.9464 102.885L73.16 104.165Z" fill="#56548C"/>
<path d="M75.9997 105.797V106.153L73.7476 107.462V107.106L75.9997 105.797Z" fill="#112B46"/>
<path d="M73.7473 107.108V107.464L71.5337 106.184V105.828L73.7473 107.108Z" fill="#112B46"/>
<path d="M75.9994 105.802L73.7473 107.11L71.5337 105.83L73.7858 104.521L75.9994 105.802Z" fill="#56548C"/>
<path d="M78.839 107.447V107.803L76.5869 109.112V108.756L78.839 107.447Z" fill="#112B46"/>
<path d="M76.5867 108.757V109.113L74.373 107.833V107.477L76.5867 108.757Z" fill="#112B46"/>
<path d="M78.8388 107.448L76.5867 108.757L74.373 107.477L76.6252 106.168L78.8388 107.448Z" fill="#56548C"/>
<path d="M81.6779 109.084L81.6683 109.44L79.4258 110.749V110.393L81.6779 109.084Z" fill="#112B46"/>
<path d="M79.4259 110.389V110.746L77.2026 109.465L77.2123 109.109L79.4259 110.389Z" fill="#112B46"/>
<path d="M81.6771 109.087L79.425 110.396L77.2114 109.116L79.4539 107.807L81.6771 109.087Z" fill="#56548C"/>
<path d="M84.5075 110.725V111.081L82.2554 112.39V112.034L84.5075 110.725Z" fill="#112B46"/>
<path d="M82.2556 112.03V112.386L80.042 111.106V110.75L82.2556 112.03Z" fill="#112B46"/>
<path d="M84.5077 110.721L82.2556 112.03L80.042 110.75L82.2941 109.441L84.5077 110.721Z" fill="#56548C"/>
<path d="M87.3571 112.359L87.3475 112.725L85.105 114.024V113.668L87.3571 112.359Z" fill="#112B46"/>
<path d="M85.1046 113.665V114.021L82.8813 112.741V112.385L85.1046 113.665Z" fill="#112B46"/>
<path d="M87.3567 112.356L85.1046 113.665L82.8813 112.385L85.1334 111.076L87.3567 112.356Z" fill="#56548C"/>
<path d="M90.1857 114V114.356L87.9336 115.665V115.309L90.1857 114Z" fill="#112B46"/>
<path d="M87.9333 115.311V115.667L85.7197 114.387V114.031L87.9333 115.311Z" fill="#112B46"/>
<path d="M90.1854 114.003L87.9333 115.312L85.7197 114.032L87.9718 112.723L90.1854 114.003Z" fill="#56548C"/>
<path d="M95.8634 117.277V117.633L93.6113 118.942V118.586L95.8634 117.277Z" fill="#112B46"/>
<path d="M93.6119 118.582V118.938L88.5591 116.022V115.666L93.6119 118.582Z" fill="#112B46"/>
<path d="M95.864 117.274L93.6119 118.583L88.5591 115.666L90.8112 114.357L95.864 117.274Z" fill="#56548C"/>
<path d="M64.6232 102.555V102.911L62.3711 104.22V103.864L64.6232 102.555Z" fill="#112B46"/>
<path d="M62.3712 103.871V104.227L57.3184 101.301V100.945L62.3712 103.871Z" fill="#112B46"/>
<path d="M64.6233 102.561L62.3712 103.87L57.3184 100.944L59.5608 99.6445L64.6233 102.561Z" fill="#56548C"/>
<path d="M67.4534 104.195V104.551L65.2109 105.86V105.504L67.4534 104.195Z" fill="#112B46"/>
<path d="M65.2107 105.503V105.859L62.9971 104.579V104.223L65.2107 105.503Z" fill="#112B46"/>
<path d="M67.4532 104.194L65.2107 105.503L62.9971 104.223L65.2396 102.914L67.4532 104.194Z" fill="#56548C"/>
<path d="M70.2928 105.834V106.19L68.0503 107.499V107.143L70.2928 105.834Z" fill="#112B46"/>
<path d="M68.0504 107.137V107.494L65.8271 106.214L65.8368 105.857L68.0504 107.137Z" fill="#112B46"/>
<path d="M70.2915 105.831L68.0491 107.14L65.8354 105.86L68.0779 104.551L70.2915 105.831Z" fill="#56548C"/>
<path d="M73.131 107.465V107.831L70.8789 109.13V108.774L73.131 107.465Z" fill="#112B46"/>
<path d="M70.8791 108.776V109.132L68.6655 107.852V107.496L70.8791 108.776Z" fill="#112B46"/>
<path d="M73.1312 107.466L70.8791 108.775L68.6655 107.495L70.9176 106.195L73.1312 107.466Z" fill="#56548C"/>
<path d="M75.9705 109.119V109.475L73.728 110.784V110.418L75.9705 109.119Z" fill="#112B46"/>
<path d="M73.7281 110.415V110.781L71.5049 109.501L71.5145 109.145L73.7281 110.415Z" fill="#112B46"/>
<path d="M75.9698 109.114L73.7273 110.413L71.5137 109.143L73.7562 107.834L75.9698 109.114Z" fill="#56548C"/>
<path d="M78.8102 110.744V111.1L76.5581 112.409V112.053L78.8102 110.744Z" fill="#112B46"/>
<path d="M76.5583 112.055V112.412L74.3447 111.131V110.775L76.5583 112.055Z" fill="#112B46"/>
<path d="M78.8099 110.751L76.5578 112.06L74.3442 110.78L76.5867 109.471L78.8099 110.751Z" fill="#56548C"/>
<path d="M81.6399 112.381V112.737L79.3975 114.046V113.69L81.6399 112.381Z" fill="#112B46"/>
<path d="M79.3972 113.692V114.048L77.1836 112.768V112.412L79.3972 113.692Z" fill="#112B46"/>
<path d="M81.6397 112.386L79.3972 113.694L77.1836 112.414L79.4261 111.105L81.6397 112.386Z" fill="#56548C"/>
<path d="M84.4884 114.031L84.4788 114.387L82.2363 115.687V115.331L84.4884 114.031Z" fill="#112B46"/>
<path d="M82.2364 115.331V115.687L80.0132 114.407L80.0228 114.051L82.2364 115.331Z" fill="#112B46"/>
<path d="M84.4882 114.032L82.2361 115.331L80.0225 114.051L82.2649 112.742L84.4882 114.032Z" fill="#56548C"/>
<path d="M87.3182 115.668V116.024L85.0757 117.323V116.967L87.3182 115.668Z" fill="#112B46"/>
<path d="M85.0754 116.968V117.324L82.8618 116.053V115.688L85.0754 116.968Z" fill="#112B46"/>
<path d="M87.3179 115.671L85.0754 116.97L82.8618 115.69L85.1043 114.391L87.3179 115.671Z" fill="#56548C"/>
<path d="M90.1574 117.305V117.661L87.9053 118.97L87.9149 118.604L90.1574 117.305Z" fill="#112B46"/>
<path d="M87.9146 118.602L87.905 118.968L85.6914 117.688V117.332L87.9146 118.602Z" fill="#112B46"/>
<path d="M90.1571 117.303L87.9146 118.603L85.6914 117.332L87.9435 116.023L90.1571 117.303Z" fill="#56548C"/>
<path d="M92.9964 118.936V119.292L90.7539 120.601V120.244L92.9964 118.936Z" fill="#112B46"/>
<path d="M90.754 120.249V120.605L88.5308 119.325V118.969L90.754 120.249Z" fill="#112B46"/>
<path d="M92.9965 118.94L90.754 120.249L88.5308 118.969L90.7732 117.66L92.9965 118.94Z" fill="#56548C"/>
<path d="M61.7557 104.225V104.581L59.5132 105.89V105.524L61.7557 104.225Z" fill="#112B46"/>
<path d="M59.5128 105.528V105.893L54.46 102.967V102.611L59.5128 105.528Z" fill="#112B46"/>
<path d="M61.7552 104.229L59.5128 105.528L54.46 102.612L56.7024 101.312L61.7552 104.229Z" fill="#56548C"/>
<path d="M64.5945 105.859V106.215L62.3521 107.524V107.168L64.5945 105.859Z" fill="#112B46"/>
<path d="M62.3521 107.171V107.527L60.1289 106.247L60.1385 105.891L62.3521 107.171Z" fill="#112B46"/>
<path d="M64.5928 105.862L62.3503 107.171L60.1367 105.891L62.3792 104.582L64.5928 105.862Z" fill="#56548C"/>
<path d="M67.4342 107.496V107.852L65.1821 109.161V108.805L67.4342 107.496Z" fill="#112B46"/>
<path d="M65.1819 108.805V109.162L62.9683 107.881V107.525L65.1819 108.805Z" fill="#112B46"/>
<path d="M67.434 107.499L65.1819 108.808L62.9683 107.528L65.2204 106.219L67.434 107.499Z" fill="#56548C"/>
<path d="M70.263 109.131V109.487L68.0205 110.796V110.44L70.263 109.131Z" fill="#112B46"/>
<path d="M68.0212 110.442V110.798L65.8076 109.518V109.162L68.0212 110.442Z" fill="#112B46"/>
<path d="M70.2632 109.132L68.0207 110.441L65.8071 109.16L68.0496 107.852L70.2632 109.132Z" fill="#56548C"/>
<path d="M73.1125 110.779L73.1028 111.135L70.8604 112.435V112.079L73.1125 110.779Z" fill="#112B46"/>
<path d="M70.8601 112.077V112.433L68.6465 111.163V110.797L70.8601 112.077Z" fill="#112B46"/>
<path d="M73.1122 110.778L70.8601 112.077L68.6465 110.797L70.889 109.498L73.1122 110.778Z" fill="#56548C"/>
<path d="M75.9417 112.418V112.774L73.6992 114.083V113.717L75.9417 112.418Z" fill="#112B46"/>
<path d="M73.699 113.716V114.081L71.4854 112.801V112.445L73.699 113.716Z" fill="#112B46"/>
<path d="M75.9414 112.415L73.699 113.714L71.4854 112.444L73.7278 111.135L75.9414 112.415Z" fill="#56548C"/>
<path d="M78.7811 114.049V114.405L76.5386 115.714V115.358L78.7811 114.049Z" fill="#112B46"/>
<path d="M76.5387 115.354V115.71L74.3154 114.43V114.074L76.5387 115.354Z" fill="#112B46"/>
<path d="M78.7811 114.048L76.5387 115.357L74.3154 114.076L76.5675 112.768L78.7811 114.048Z" fill="#56548C"/>
<path d="M81.6204 115.688V116.053L79.3779 117.353V116.996L81.6204 115.688Z" fill="#112B46"/>
<path d="M79.3775 116.999V117.355L77.1543 116.075V115.719L79.3775 116.999Z" fill="#112B46"/>
<path d="M81.62 115.688L79.3775 116.997L77.1543 115.717L79.3968 114.408L81.62 115.688Z" fill="#56548C"/>
<path d="M84.4591 117.33V117.686L82.207 118.985L82.2167 118.629L84.4591 117.33Z" fill="#112B46"/>
<path d="M82.2169 118.63L82.2073 118.986L79.9937 117.706V117.35L82.2169 118.63Z" fill="#112B46"/>
<path d="M84.4594 117.331L82.2169 118.63L79.9937 117.35L82.2458 116.051L84.4594 117.331Z" fill="#56548C"/>
<path d="M90.1378 120.604V120.96L87.8857 122.269V121.912L90.1378 120.604Z" fill="#112B46"/>
<path d="M87.8858 121.914V122.27L82.833 119.344V118.988L87.8858 121.914Z" fill="#112B46"/>
<path d="M90.1379 120.606L87.8858 121.915L82.833 118.989L85.0755 117.689L90.1379 120.606Z" fill="#56548C"/>
<path d="M61.7365 107.525V107.881L59.4844 109.181V108.825L61.7365 107.525Z" fill="#112B46"/>
<path d="M59.4843 108.828V109.184L51.5923 104.631V104.275L59.4843 108.828Z" fill="#112B46"/>
<path d="M61.7364 107.527L59.4843 108.826L51.5923 104.274L53.8444 102.965L61.7364 107.527Z" fill="#56548C"/>
<path d="M64.5662 109.162V109.518L62.3237 110.827V110.461L64.5662 109.162Z" fill="#112B46"/>
<path d="M62.3235 110.458V110.824L60.1099 109.544V109.188L62.3235 110.458Z" fill="#112B46"/>
<path d="M64.5659 109.163L62.3235 110.462L60.1099 109.192L62.3523 107.883L64.5659 109.163Z" fill="#56548C"/>
<path d="M67.4051 110.801V111.157L65.1626 112.466V112.11L67.4051 110.801Z" fill="#112B46"/>
<path d="M65.1627 112.102V112.458L62.9395 111.178L62.9491 110.822L65.1627 112.102Z" fill="#112B46"/>
<path d="M67.4034 110.796L65.1609 112.105L62.9473 110.825L65.1897 109.516L67.4034 110.796Z" fill="#56548C"/>
<path d="M70.2439 112.443V112.799L68.0015 114.099V113.743L70.2439 112.443Z" fill="#112B46"/>
<path d="M68.0017 113.743V114.099L65.7881 112.819V112.463L68.0017 113.743Z" fill="#112B46"/>
<path d="M70.2442 112.442L68.0017 113.741L65.7881 112.461L68.0306 111.162L70.2442 112.442Z" fill="#56548C"/>
<path d="M73.0838 114.084V114.44L70.8413 115.739V115.383L73.0838 114.084Z" fill="#112B46"/>
<path d="M70.8409 115.384V115.74L68.6177 114.46V114.104L70.8409 115.384Z" fill="#112B46"/>
<path d="M73.0834 114.079L70.8409 115.378L68.6177 114.098L70.8698 112.799L73.0834 114.079Z" fill="#56548C"/>
<path d="M75.923 115.717L75.9134 116.073L73.6709 117.372V117.016L75.923 115.717Z" fill="#112B46"/>
<path d="M73.6706 117.014V117.371L71.457 116.1V115.734L73.6706 117.014Z" fill="#112B46"/>
<path d="M75.9227 115.714L73.6706 117.013L71.457 115.733L73.6995 114.434L75.9227 115.714Z" fill="#56548C"/>
<path d="M78.7614 117.352V117.708L76.5093 119.017L76.5189 118.66L78.7614 117.352Z" fill="#112B46"/>
<path d="M76.5191 118.663L76.5095 119.019L74.2959 117.739V117.383L76.5191 118.663Z" fill="#112B46"/>
<path d="M78.7616 117.356L76.5191 118.665L74.2959 117.385L76.5384 116.076L78.7616 117.356Z" fill="#56548C"/>
<path d="M81.5911 118.988V119.344L79.3486 120.653V120.297L81.5911 118.988Z" fill="#112B46"/>
<path d="M79.3489 120.29V120.646L77.1353 119.366V119.01L79.3489 120.29Z" fill="#112B46"/>
<path d="M81.5913 118.985L79.3489 120.294L77.1353 119.014L79.3777 117.715L81.5913 118.985Z" fill="#56548C"/>
<path d="M87.2693 122.27V122.626L85.0269 123.935V123.578L87.2693 122.27Z" fill="#112B46"/>
<path d="M85.0269 123.578V123.934L79.9741 121.008V120.652L85.0269 123.578Z" fill="#112B46"/>
<path d="M87.2694 122.27L85.0269 123.579L79.9741 120.653L82.2166 119.354L87.2694 122.27Z" fill="#56548C"/>
<path d="M53.1901 105.91V106.266L50.938 107.575V107.219L53.1901 105.91Z" fill="#112B46"/>
<path d="M50.9377 107.219V107.576L48.7241 106.296V105.939L50.9377 107.219Z" fill="#112B46"/>
<path d="M53.1898 105.909L50.9377 107.218L48.7241 105.938L50.9762 104.629L53.1898 105.909Z" fill="#56548C"/>
<path d="M56.0392 107.555L56.0296 107.911L53.7871 109.22V108.854L56.0392 107.555Z" fill="#112B46"/>
<path d="M53.7867 108.85V109.216L51.5635 107.926V107.57L53.7867 108.85Z" fill="#112B46"/>
<path d="M56.0388 107.551L53.7867 108.851L51.5635 107.571L53.8156 106.262L56.0388 107.551Z" fill="#56548C"/>
<path d="M58.8678 109.193V109.549L56.6157 110.858V110.502L58.8678 109.193Z" fill="#112B46"/>
<path d="M56.6159 110.503V110.859L54.4023 109.579V109.223L56.6159 110.503Z" fill="#112B46"/>
<path d="M58.8681 109.19L56.6159 110.499L54.4023 109.219L56.6544 107.91L58.8681 109.19Z" fill="#56548C"/>
<path d="M73.0543 117.383V117.739L70.8022 119.048V118.692L73.0543 117.383Z" fill="#112B46"/>
<path d="M70.8024 118.69V119.046L57.2417 111.212V110.855L70.8024 118.69Z" fill="#112B46"/>
<path d="M73.0545 117.381L70.8024 118.69L57.2417 110.856L59.4938 109.547L73.0545 117.381Z" fill="#56548C"/>
<path d="M75.8937 119.012V119.368L73.6416 120.677L73.6512 120.321L75.8937 119.012Z" fill="#112B46"/>
<path d="M73.6515 120.323L73.6418 120.679L71.4282 119.399V119.043L73.6515 120.323Z" fill="#112B46"/>
<path d="M75.8939 119.018L73.6515 120.327L71.4282 119.047L73.6803 117.738L75.8939 119.018Z" fill="#56548C"/>
<path d="M78.7331 120.652V121.008L76.481 122.317V121.961L78.7331 120.652Z" fill="#112B46"/>
<path d="M76.4807 121.96V122.316L74.2671 121.036V120.68L76.4807 121.96Z" fill="#112B46"/>
<path d="M78.7328 120.655L76.4807 121.964L74.2671 120.684L76.5192 119.375L78.7328 120.655Z" fill="#56548C"/>
<path d="M84.4113 123.934V124.29L82.1592 125.599V125.243L84.4113 123.934Z" fill="#112B46"/>
<path d="M82.1592 125.244V125.6L77.1064 122.674V122.318L82.1592 125.244Z" fill="#112B46"/>
<path d="M84.4113 123.934L82.1592 125.243L77.1064 122.317L79.3585 121.008L84.4113 123.934Z" fill="#56548C"/>
<path d="M68.2139 93.1445L94.0938 108.082V89.4488L68.2139 74.5117V93.1445Z" fill="#C34F46"/>
<path d="M92.3516 91.2165L83.1025 85.875V98.8583L92.3516 104.2V91.2165Z" fill="#C0BB69"/>
<path d="M70.7832 79.5357L81.1487 85.5221V84.7521L70.7832 78.7754V79.5357Z" fill="#FBD15B"/>
<path d="M70.7832 81.2838L81.1487 87.2701V86.5098L70.7832 80.5234V81.2838Z" fill="#FBD15B"/>
<path d="M70.7832 83.0455L81.1487 89.0318V88.2715L70.7832 82.2852V83.0455Z" fill="#FBD15B"/>
<path d="M70.7832 84.8072L81.1487 90.7936V90.0332L70.7832 84.0469V84.8072Z" fill="#FBD15B"/>
<path d="M70.7832 86.5689L81.1487 92.5553V91.7949L70.7832 85.8086V86.5689Z" fill="#FBD15B"/>
<path d="M70.7832 88.3324L81.1487 94.3092V93.5489L70.7832 87.5625V88.3324Z" fill="#FBD15B"/>
<path d="M70.7832 91.8424L78.0015 96.0097V95.2494L70.7832 91.082V91.8424Z" fill="#FBD15B"/>
<path d="M70.7832 90.0806L81.1487 96.067V95.3067L70.7832 89.3203V90.0806Z" fill="#FBD15B"/>
<path d="M86.9428 89.2617L84.2095 93.15L89.6761 96.3068L86.9428 89.2617Z" fill="#FBD15B"/>
<path d="M89.1366 91.668L86.4033 95.5562L91.8603 98.713L89.1366 91.668Z" fill="#D34C4C"/>
<path d="M91.2637 99.6478C91.2637 101.005 90.3109 101.553 89.1368 100.88C87.9626 100.196 87.0098 98.5506 87.0098 97.1936C87.0098 95.8365 87.9626 95.288 89.1368 95.9617C90.3109 96.6354 91.2637 98.2811 91.2637 99.6478Z" fill="#EC827D"/>
<path d="M186.719 48.0527L189.519 51.2576L190.896 48.8708L186.719 48.0527Z" fill="white"/>
<path d="M186.719 48.0527L187.489 48.9382L187.864 48.2837L186.719 48.0527Z" fill="#B5AF57"/>
<path d="M190.895 48.8692C190.713 48.7633 190.472 48.7826 190.203 48.9366C189.664 49.2446 189.23 50.0049 189.23 50.6208C189.23 50.9288 189.336 51.1406 189.519 51.2464L209.942 63.1133C209.769 63.0074 209.663 62.7957 209.653 62.4877C209.653 61.8621 210.087 61.1114 210.625 60.8034C210.895 60.6494 211.145 60.6302 211.318 60.7361L190.895 48.8692Z" fill="#C0BB69"/>
<path d="M210.616 60.8054C211.155 60.4974 211.598 60.738 211.598 61.3636C211.598 61.9796 211.165 62.7399 210.626 63.0479C210.087 63.3559 209.644 63.1056 209.644 62.4897C209.644 61.8737 210.077 61.123 210.616 60.8054Z" fill="#B5AF57"/>
<path d="M196.449 49.7305L199.249 52.9354L200.626 50.5485L196.449 49.7305Z" fill="white"/>
<path d="M196.449 49.7305L197.219 50.6159L197.594 49.9615L196.449 49.7305Z" fill="#EC827D"/>
<path d="M200.625 50.545C200.443 50.4391 200.202 50.4584 199.933 50.6124C199.394 50.9203 198.96 51.6807 198.96 52.2966C198.96 52.6046 199.066 52.8163 199.249 52.9222L212.425 60.5928C212.252 60.487 212.146 60.2752 212.136 59.9673C212.136 59.3417 212.569 58.591 213.108 58.283C213.378 58.129 213.628 58.1097 213.801 58.2156L200.625 50.545Z" fill="#EC827D"/>
<path d="M213.099 58.282C213.638 57.974 214.081 58.2146 214.081 58.8402C214.081 59.4562 213.648 60.2165 213.109 60.5245C212.57 60.8324 212.127 60.5822 212.127 59.9662C212.127 59.3503 212.56 58.5996 213.099 58.282Z" fill="#D34C4C"/>
<path d="M183.398 54.2223C183.263 54.1453 183.186 54.0395 183.186 53.9336L183.177 56.4937C183.177 56.5995 183.244 56.7054 183.388 56.7824L186.266 58.4474L186.276 55.8873L183.398 54.2223Z" fill="#B5AF57"/>
<path d="M190.106 53.6523L190.097 56.2124L186.266 58.4357L186.276 55.8756L190.106 53.6523Z" fill="#00C3B6"/>
<path d="M190.106 53.6517L186.275 55.8846L183.397 54.2196C183.128 54.0656 183.118 53.8057 183.388 53.6517L186.237 51.9964C186.506 51.8424 186.949 51.8424 187.228 51.9964L190.106 53.6517Z" fill="#C0BB69"/>
<path d="M192.108 54.8105V57.3706L188.268 59.6035L188.278 57.0434L192.108 54.8105Z" fill="#EEEEEE"/>
<path d="M188.278 57.0435L188.268 59.6035L186.266 58.439L186.276 55.8789L188.278 57.0435Z" fill="#CECCFF"/>
<path d="M192.108 54.8073L188.278 57.0401L186.276 55.8756L190.106 53.6523L192.108 54.8073Z" fill="white"/>
<path d="M194.996 57.0408L192.147 58.6962C191.877 58.8502 191.434 58.8502 191.155 58.6962L188.278 57.0312L188.268 59.5913L191.146 61.2563C191.415 61.4103 191.858 61.4199 192.137 61.2563L194.986 59.6009C195.121 59.5239 195.188 59.418 195.188 59.3218L195.198 56.7617C195.198 56.858 195.13 56.9638 194.996 57.0408Z" fill="#D34C4C"/>
<path d="M194.986 56.4754C195.256 56.6294 195.265 56.8893 194.996 57.0433L192.147 58.6987C191.877 58.8526 191.435 58.8526 191.156 58.6987L188.278 57.0336L192.108 54.8008L194.986 56.4754Z" fill="#EC827D"/>
<path d="M156.402 32.5036L115.45 56.1507C114.507 56.6993 114.622 57.6521 115.72 58.2873L139.434 71.9828C140.531 72.618 142.177 72.6854 143.13 72.1368L184.082 48.4897C185.025 47.9411 184.909 46.9883 183.812 46.3531L160.098 32.6576C159 32.0224 157.345 31.955 156.402 32.5036Z" fill="white"/>
<path d="M160.001 40.1491L162.686 38.5996L178.364 47.6465L175.669 49.2057L160.001 40.1491Z" fill="#EAEEEF"/>
<path d="M154.236 43.4812L156.931 41.9316L172.6 50.9786L169.914 52.5281L154.236 43.4812Z" fill="#EAEEEF"/>
<path d="M148.481 46.7995L151.166 45.25L166.844 54.2969L164.149 55.8561L148.481 46.7995Z" fill="#EAEEEF"/>
<path d="M142.716 50.1296L145.401 48.5801L161.079 57.627L158.394 59.1765L142.716 50.1296Z" fill="#EAEEEF"/>
<path d="M136.96 53.4595L139.646 51.9004L155.324 60.9569L152.629 62.5064L136.96 53.4595Z" fill="#EAEEEF"/>
<path d="M160.001 40.1491L162.686 38.5996L166.603 40.8613L163.908 42.4109L160.001 40.1491Z" fill="#FFC8AF"/>
<path d="M154.236 43.4812L156.931 41.9316L166.065 47.2058L163.37 48.7553L154.236 43.4812Z" fill="#FBD15B"/>
<path d="M148.481 46.7995L151.166 45.25L157.836 49.0997L155.141 50.6493L148.481 46.7995Z" fill="#C0BB69"/>
<path d="M142.716 50.1296L145.401 48.5801L156.719 55.1054L154.024 56.6549L142.716 50.1296Z" fill="#56548C"/>
<path d="M136.96 53.4595L139.646 51.9004L152.975 59.5999L150.29 61.1494L136.96 53.4595Z" fill="#EC827D"/>
<path d="M148.895 63.3574L140.185 68.391L141.311 69.0454L150.03 64.0119L148.895 63.3574Z" fill="#EAEEEF"/>
<path d="M146.277 61.8555L137.567 66.8794L138.703 67.5339L147.413 62.5099L146.277 61.8555Z" fill="#EAEEEF"/>
<path d="M143.669 60.3438L134.959 65.3773L136.085 66.0318L144.805 60.9982L143.669 60.3438Z" fill="#EAEEEF"/>
<path d="M141.061 58.832L132.341 63.8656L133.477 64.52L142.187 59.4865L141.061 58.832Z" fill="#EAEEEF"/>
<path d="M138.442 57.3223L129.732 62.3558L130.858 63.0103L139.578 57.9767L138.442 57.3223Z" fill="#EAEEEF"/>
<path d="M135.834 55.8203L127.115 60.8442L128.25 61.4987L136.96 56.4748L135.834 55.8203Z" fill="#EAEEEF"/>
<path d="M130.607 52.7969L124.534 56.3001L125.669 56.9546L131.733 53.4513L130.607 52.7969Z" fill="#EAEEEF"/>
<path d="M133.216 54.3105L124.506 59.3441L125.632 59.9986L134.352 54.965L133.216 54.3105Z" fill="#EAEEEF"/>
<path d="M159.944 37.0254L134.218 51.8758L135.344 52.5303L161.079 37.6702L159.944 37.0254Z" fill="#EAEEEF"/>
<path d="M158.654 69.1241L176.979 58.5469L187.402 64.5717L169.087 75.1489L158.654 69.1241Z" fill="#FBD15B"/>
<path d="M169.087 75.1534L171.108 65.7407L187.402 64.5762L169.087 75.1534Z" fill="#EFBC3F"/>
<path d="M176.979 58.5469L174.9 67.9306L158.654 69.1241L176.979 58.5469Z" fill="#FFDC85"/>
<path d="M259.979 83.1074L291.644 101.384L251.673 124.463L220.009 106.187L259.979 83.1074Z" fill="white"/>
<path d="M251.414 106.33L247.044 99.3711C245.321 99.7272 243.704 100.295 242.328 101.084L251.414 106.33Z" fill="#EC827D"/>
<path d="M251.414 106.331L260.499 101.086C256.89 98.9976 251.587 98.4297 247.044 99.3729L251.414 106.331Z" fill="#112B46"/>
<path d="M242.328 111.585L251.414 106.34L238.671 105.396C238.161 107.668 239.518 109.958 242.328 111.585Z" fill="#EC827D"/>
<path d="M255.783 113.296C257.506 112.939 259.123 112.372 260.499 111.582C265.484 108.705 265.484 103.969 260.499 101.092L251.414 106.337L255.783 113.296Z" fill="#3B455A"/>
<path d="M255.783 113.298L251.414 106.34L242.328 111.585C245.937 113.664 251.24 114.232 255.783 113.298Z" fill="#FBD15B"/>
<path d="M277.226 105.551C277.168 105.551 277.101 105.532 277.043 105.503L253.213 91.7501C253.04 91.6538 252.982 91.4325 253.079 91.2592C253.175 91.086 253.396 91.0282 253.569 91.1245L277.399 104.887C277.573 104.984 277.63 105.205 277.534 105.378C277.476 105.484 277.351 105.551 277.226 105.551Z" fill="#CECCFF"/>
<path d="M280.027 103.93C279.97 103.93 279.902 103.911 279.845 103.882L256.015 90.129C255.841 90.0327 255.784 89.8114 255.88 89.6381C255.976 89.4649 256.197 89.4072 256.371 89.5034L280.201 103.266C280.374 103.362 280.432 103.584 280.335 103.757C280.278 103.863 280.153 103.93 280.027 103.93Z" fill="#CECCFF"/>
<path d="M282.827 102.317C282.769 102.317 282.702 102.298 282.644 102.269L258.814 88.5157C258.641 88.4195 258.583 88.1981 258.68 88.0249C258.776 87.8516 258.997 87.7939 259.17 87.8901L283 101.653C283.174 101.749 283.231 101.971 283.135 102.144C283.068 102.25 282.952 102.317 282.827 102.317Z" fill="#CECCFF"/>
<path d="M285.234 125.977L285.225 130.413C285.225 131 284.83 131.588 284.06 132.04L284.07 127.603C284.849 127.16 285.234 126.564 285.234 125.977Z" fill="#EFBC3F"/>
<path d="M240.519 130.398L240.529 125.961C240.529 126.558 240.923 127.154 241.712 127.607L241.703 132.044C240.914 131.591 240.519 130.994 240.519 130.398Z" fill="#FFDC85"/>
<path d="M284.069 127.604L284.06 132.04L265.773 142.675L265.783 138.238L284.069 127.604Z" fill="#EFBC3F"/>
<path d="M260.134 138.237L260.115 142.673L241.703 132.039L241.713 127.611L260.134 138.237Z" fill="#FFDC85"/>
<path d="M265.784 138.24L265.764 142.677C264.985 143.139 263.955 143.351 262.944 143.351C261.934 143.351 260.904 143.139 260.125 142.677V138.24C260.904 138.683 261.934 138.914 262.944 138.914C263.974 138.914 265.004 138.683 265.784 138.24Z" fill="#FFDC85"/>
<path d="M284.059 124.333C285.618 125.238 285.627 126.701 284.068 127.605L265.782 138.231C264.223 139.135 261.692 139.135 260.132 138.24L241.711 127.605C240.143 126.701 240.133 125.238 241.692 124.323L259.978 113.698C261.538 112.793 264.069 112.793 265.638 113.698L284.059 124.333Z" fill="#FBD15B"/>
<path d="M322.076 113.369L322.066 117.806C322.066 118.393 321.672 118.98 320.902 119.432L320.911 114.996C321.681 114.553 322.076 113.956 322.076 113.369Z" fill="#D86868"/>
<path d="M277.352 117.783L277.361 113.346C277.361 113.942 277.756 114.539 278.545 115.001L278.535 119.438C277.746 118.976 277.352 118.379 277.352 117.783Z" fill="#F49898"/>
<path d="M320.912 115.004L320.892 119.431L302.606 130.066L302.625 125.629L320.912 115.004Z" fill="#D86868"/>
<path d="M296.966 125.629L296.957 130.066L278.536 119.431L278.555 115.004L296.966 125.629Z" fill="#F49898"/>
<path d="M302.616 125.629V130.066C301.836 130.528 300.806 130.739 299.796 130.739C298.766 130.739 297.736 130.528 296.957 130.066L296.976 125.629C297.755 126.072 298.785 126.303 299.796 126.303C300.816 126.303 301.846 126.072 302.616 125.629Z" fill="#D86868"/>
<path d="M320.9 111.72C322.459 112.624 322.469 114.087 320.91 114.992L302.623 125.617C301.064 126.522 298.533 126.522 296.974 125.627L278.553 114.992C276.984 114.087 276.974 112.624 278.533 111.71L296.82 101.085C298.379 100.18 300.91 100.18 302.479 101.085L320.9 111.72Z" fill="#EC827D"/>
<path d="M268.814 127.29C269.645 126.81 270.512 126.576 271.414 126.588C272.314 126.602 273.198 126.859 274.065 127.36L275.474 128.173L270.439 131.08L268.883 130.181C268.082 129.718 267.674 129.234 267.661 128.728C267.647 128.221 268.031 127.742 268.814 127.29ZM269.709 127.775C268.504 128.471 268.465 129.144 269.592 129.795L270.305 130.207L273.959 128.097L273.373 127.759C272.161 127.06 270.94 127.065 269.709 127.775ZM267.172 123.38L266.276 124.477L268.201 125.588L270.092 125.066L270.959 125.567L264.021 127.398L263.126 126.881L266.297 122.875L267.172 123.38ZM265.784 125.012L264.885 126.075C264.828 126.148 264.731 126.26 264.596 126.409C264.458 126.558 264.355 126.665 264.286 126.732C264.63 126.604 265.03 126.478 265.484 126.354L267.251 125.859L265.784 125.012ZM263.893 121.487L264.716 121.962L260.388 124.461L261.869 125.316L261.163 125.724L257.379 123.539L258.084 123.131L259.565 123.986L263.893 121.487ZM258.515 118.381L257.62 119.479L259.544 120.59L261.435 120.067L262.303 120.568L255.364 122.399L254.469 121.883L257.64 117.877L258.515 118.381ZM257.127 120.014L256.228 121.077C256.171 121.15 256.075 121.262 255.939 121.411C255.801 121.56 255.698 121.667 255.629 121.733C255.974 121.606 256.373 121.48 256.828 121.356L258.594 120.861L257.127 120.014Z" fill="white"/>
<path d="M305.677 115.924C306.665 115.353 307.696 115.075 308.769 115.089C309.839 115.105 310.889 115.411 311.921 116.007L313.596 116.973L307.61 120.43L305.759 119.361C304.806 118.811 304.322 118.235 304.306 117.633C304.289 117.031 304.746 116.461 305.677 115.924ZM306.742 116.501C305.309 117.328 305.262 118.129 306.603 118.902L307.45 119.392L311.794 116.884L311.098 116.482C309.657 115.65 308.205 115.656 306.742 116.501ZM303.724 111.274L302.66 112.579L304.948 113.9L307.196 113.279L308.228 113.874L299.978 116.051L298.913 115.437L302.684 110.673L303.724 111.274ZM302.074 113.215L301.005 114.479C300.937 114.566 300.823 114.698 300.662 114.877C300.498 115.053 300.375 115.181 300.293 115.26C300.702 115.108 301.177 114.959 301.718 114.81L303.818 114.222L302.074 113.215ZM299.826 109.023L300.805 109.588L295.658 112.56L297.419 113.576L296.579 114.061L292.08 111.463L292.919 110.978L294.68 111.995L299.826 109.023ZM293.431 105.331L292.366 106.636L294.655 107.957L296.903 107.335L297.935 107.931L289.684 110.108L288.62 109.494L292.391 104.73L293.431 105.331ZM291.781 107.272L290.712 108.536C290.644 108.623 290.529 108.755 290.368 108.934C290.204 109.11 290.082 109.238 290 109.316C290.409 109.165 290.884 109.015 291.425 108.867L293.525 108.279L291.781 107.272Z" fill="white"/>
<path d="M299.795 126.301V130.737C298.765 130.737 297.736 130.526 296.956 130.064L296.975 125.627C297.755 126.07 298.775 126.301 299.795 126.301Z" fill="#F49898"/>
<path d="M265.783 138.234L265.764 142.671C264.984 143.133 263.954 143.345 262.944 143.345V138.908C263.974 138.908 265.003 138.677 265.783 138.234Z" fill="#EFBC3F"/>
<path fill-rule="evenodd" clip-rule="evenodd" d="M306.196 105.945C302.664 107.513 299.411 119.303 301.345 123.461C303.28 127.619 306.359 127.927 310.248 126.887C314.126 125.848 318.525 120.766 319.959 116.041C321.912 109.602 316.263 101.46 306.196 105.945Z" fill="#BD734A"/>
<path fill-rule="evenodd" clip-rule="evenodd" d="M302.058 248.184V249.117C300.2 250.205 296.033 249.627 294.945 249.117C294.233 248.03 292.289 248.318 291.192 248.752C287.024 249.117 285.504 248.501 284.108 247.481C283.406 246.961 282.135 245.624 282.289 244.199C287.246 245.335 302.058 248.184 302.058 248.184Z" fill="#112B46"/>
<path fill-rule="evenodd" clip-rule="evenodd" d="M294.935 240.973C294.935 240.973 290.383 242.253 287.688 242.638C284.993 243.023 283.069 242.57 282.433 243.533C281.788 244.495 283.203 246.998 285.571 247.825C287.938 248.663 292.818 247.7 294.608 248.085C296.408 248.47 300.951 249.298 302.048 248.181C303.135 247.065 302.048 241.608 302.048 241.608L294.935 240.973Z" fill="#112B46"/>
<path fill-rule="evenodd" clip-rule="evenodd" d="M320.171 234.977L312.028 225.862C308.785 224.938 305.368 224.736 305.801 227.739C306.186 230.395 310.421 231.56 313.337 234.149L316.023 236.536C317.947 238.239 320.411 236.738 320.171 234.977Z" fill="#112B46"/>
<path fill-rule="evenodd" clip-rule="evenodd" d="M312.461 120.746C312.144 121.083 311.807 121.401 311.451 121.67C309.333 123.268 307.312 124.269 304.723 124.952C304.31 125.058 303.867 125.154 303.405 125.241L303.617 127.599C306.369 128.349 309.035 127.194 310.931 126.665C312.346 126.27 314.54 125.914 314.54 124.423L312.461 120.746Z" fill="#FFC8AF"/>
<path fill-rule="evenodd" clip-rule="evenodd" d="M316.013 236.529L313.328 234.142C310.412 231.553 306.177 230.389 305.792 227.732V227.723C305.744 227.983 305.744 228.281 305.792 228.618C306.177 231.274 310.412 232.439 313.328 235.028L316.013 237.414C318.284 239.436 320.69 237.992 320.171 234.999C320.411 236.741 317.948 238.242 316.013 236.529Z" fill="#112B46"/>
<path fill-rule="evenodd" clip-rule="evenodd" d="M320.122 171.599C322.933 175.584 315.907 186.604 317.822 200.319C319.131 209.625 321.672 225.246 321.066 234.062C320.95 235.669 314.675 236.814 312.972 229.047C310.075 215.833 306.456 207.585 305.176 197.335L305.849 167.596L320.122 171.599Z" fill="#3B455A"/>
<path fill-rule="evenodd" clip-rule="evenodd" d="M311.124 170.162C311.903 182.52 303.049 197.64 303.636 207.611C304.242 217.899 303.116 230.411 303.097 241.546C303.097 241.546 294.002 245.858 293.598 239.198C292.26 217.389 288.083 210.594 293.723 170.682L311.124 170.162Z" fill="#424F6A"/>
<path fill-rule="evenodd" clip-rule="evenodd" d="M294.647 158.207C294.329 146.302 296.552 134.57 296.552 134.57C297.62 133.03 298.91 131.702 300.431 130.614L303.337 127.092C305.407 126.582 307.447 126.014 309.468 125.388C312.731 124.378 316.224 124.387 319.497 125.379C323.789 127.198 324.607 130.095 322.702 135.638C322.75 135.889 318.929 151.134 318.438 155.792C318.39 156.254 321.691 168.602 322.413 173.635C322.413 173.635 319.275 176.503 318.409 177.225C312.028 185.146 291.172 175.541 290.393 171.325C290.104 169.737 292.664 164.839 294.647 158.207Z" fill="#3B455A"/>
<path fill-rule="evenodd" clip-rule="evenodd" d="M304.887 106.676C304.887 106.676 303.848 107.639 303.203 109.698C302.558 111.758 302.731 113.144 302.673 114.203C302.616 115.261 302.183 115.848 302.394 116.378C302.606 116.907 303.905 114.029 305.137 113.731C306.369 113.433 306.196 117.157 303.491 118.197C302.337 119.958 303.26 124.298 303.905 125.242C304.55 126.194 308.554 127.388 311.932 126.204C315.31 125.02 317.543 121.604 320.344 117.138C323.135 112.672 320.344 109.429 320.344 109.429C321.73 106.368 311.258 102.432 306.908 102.316C304.194 102.374 304.887 106.676 304.887 106.676Z" fill="#112B46"/>
<path d="M309.824 137.541C311.181 132.854 305.984 127.109 301.355 128.639C299.709 129.187 298.314 129.726 297.447 131.18C295.311 134.779 294.945 147.069 293.184 154.509C292.914 154.567 292.635 154.615 292.366 154.663C295.195 158.484 296.543 160.418 299.045 163.912C299.305 163.826 299.507 163.749 299.574 163.71C300.315 163.306 309.805 137.589 309.824 137.541Z" fill="#3B455A"/>
<path fill-rule="evenodd" clip-rule="evenodd" d="M92.5536 280.339L100.195 279.646C100.195 279.646 105.085 281.023 107.981 281.437C110.878 281.85 112.938 281.369 113.631 282.399C113.756 282.582 113.804 282.832 113.795 283.102C113.795 283.102 113.795 283.102 113.795 283.111C113.795 283.121 113.795 283.131 113.795 283.14C113.939 284.661 112.592 286.085 111.841 286.634C110.349 287.731 108.703 288.395 104.228 288C103.054 287.538 100.965 287.23 100.195 288.395C99.0212 288.944 94.5458 289.569 92.5536 288.395V287.394C91.3794 286.201 92.5536 280.339 92.5536 280.339Z" fill="#6B848C"/>
<path fill-rule="evenodd" clip-rule="evenodd" d="M89.1945 209.945C86.6729 222.967 95.7005 237.211 94.9691 247.721C93.9682 262.129 93.4099 268.423 91.9278 280.155C91.9278 280.155 97.7794 283.63 102.091 279.655C106.499 256.672 108.453 252.552 107.837 210.494L89.1945 209.945Z" fill="#CD9154"/>
<path fill-rule="evenodd" clip-rule="evenodd" d="M124.786 150.062C127.375 153.074 125.199 165.461 121.571 168.463C117.943 171.466 114.94 170.398 111.793 167.722C108.646 165.047 106.807 158.387 107.558 153.363C108.588 146.529 117.413 141.467 124.786 150.062Z" fill="#BD734A"/>
<path fill-rule="evenodd" clip-rule="evenodd" d="M125.681 151.322C125.681 151.322 126.22 152.669 125.921 154.863C125.613 157.058 124.843 158.27 124.43 159.281C124.016 160.291 124.16 161.023 123.727 161.427C123.294 161.822 123.361 158.578 122.341 157.76C121.321 156.942 119.848 160.474 121.898 162.64C122.197 164.786 119.425 168.405 118.405 169.002C117.385 169.598 113.14 168.953 110.522 166.355C107.905 163.766 107.337 159.608 106.711 154.228C106.086 148.848 110.108 147.077 110.108 147.077C110.176 143.632 121.629 144.584 125.729 146.394C128.222 147.626 125.681 151.322 125.681 151.322Z" fill="#112B46"/>
<path fill-rule="evenodd" clip-rule="evenodd" d="M107.192 287.277L114.834 286.584C114.834 286.584 119.723 287.96 122.62 288.374C125.517 288.788 127.577 288.307 128.27 289.337C128.395 289.519 128.443 289.77 128.433 290.039C128.433 290.039 128.433 290.039 128.433 290.049C128.433 290.058 128.433 290.068 128.433 290.078C128.578 291.598 127.23 293.023 126.48 293.571C124.988 294.668 123.342 295.333 118.867 294.938C117.692 294.476 115.604 294.168 114.834 295.333C113.66 295.881 109.185 296.507 107.192 295.333V294.332C106.018 293.129 107.192 287.277 107.192 287.277Z" fill="#7D959E"/>
<path fill-rule="evenodd" clip-rule="evenodd" d="M94.9981 213.227C94.1608 226.508 105.027 241.022 105.662 251.743C106.528 266.43 106.547 276.824 106.586 288.788C106.586 288.788 116.355 293.417 116.797 286.266C118.231 262.831 119.771 256.671 113.718 213.785L94.9981 213.227Z" fill="#E9AE61"/>
<path fill-rule="evenodd" clip-rule="evenodd" d="M120.58 170.644C115.123 167.921 106.278 160.462 99.0597 170.221C92.2842 179.364 89.5027 206.842 88.7232 212.308C87.6741 219.719 108.328 223.694 112.928 223.492C113.968 223.444 114.603 222.972 114.901 221.942C115.286 220.595 114.189 219.623 114.488 218.372C114.661 217.659 115.123 217.063 115.566 216.485C116.008 215.908 116.451 215.292 116.566 214.56C116.74 213.377 116.008 212.279 115.874 211.096C115.777 210.239 115.999 209.373 116.23 208.536C118.097 201.558 121.359 195.1 123.169 188.074C124.391 183.32 126.152 175.774 122.245 171.838C121.812 171.414 121.167 170.798 120.58 170.644Z" fill="#5A7F5B"/>
<path fill-rule="evenodd" clip-rule="evenodd" d="M123.919 174.333C128.298 188.182 128.703 195.054 132.976 200.53C133.293 200.935 145.103 213.6 145.103 213.6C145.103 213.6 143.515 216.468 139.386 217.209C132.783 214.39 125.324 204.014 123.323 201.782C122.168 200.502 115.652 188.548 114.67 182.475C113.698 176.402 122.1 168.857 123.919 174.333Z" fill="#698868"/>
<path fill-rule="evenodd" clip-rule="evenodd" d="M292.356 164.683C297.062 164.375 299.564 163.702 299.564 163.702C299.564 163.702 305.32 151.354 306.898 145.377C306.898 145.377 304.819 158.081 303.414 162.21C302.009 166.339 300.055 167.956 297.024 167.6C293.992 167.244 291.682 166.628 291.682 166.628L292.356 164.683Z" fill="#112B46"/>
</svg>
