<svg width="211" height="154" viewBox="0 0 211 154" fill="none" xmlns="http://www.w3.org/2000/svg">
<path d="M180.171 7.99219H60.0928V94.007H180.171V7.99219Z" fill="#936F53"/>
<path d="M177.359 10.2266H62.5713V90.8299H177.359V10.2266Z" fill="#AFCDFB"/>
<path d="M143.353 130.853C143.353 130.853 139.808 126.715 143.134 124.087C143.134 124.087 145.564 122.615 147.544 122.734C147.544 122.734 144.738 127.445 145.646 127.913C146.554 128.382 148.396 122.439 148.396 122.439C148.396 122.439 153.924 121.903 155.704 122.759C155.704 122.759 150.978 126.63 151.973 126.86C152.968 127.09 158.074 123.291 158.074 123.291C158.074 123.291 163.22 124.168 162.946 127.308C162.672 130.45 160.899 131.42 160.12 131.337C159.341 131.253 154.782 129.512 154.683 130.15C154.583 130.79 157.328 132.877 159.249 132.975C159.249 132.975 155.621 136.978 153.209 135.822C150.797 134.666 150.592 132.836 149.089 132.148C147.586 131.461 146.303 131.463 146.924 132.163C147.544 132.864 150.265 133.545 151.124 135.066C151.984 136.587 152.755 137.614 150.26 137.238C147.766 136.861 143.711 135.035 143.532 132.944C143.353 130.853 143.353 130.853 143.353 130.853Z" fill="#82B378"/>
<path d="M160.416 127.393C160.416 127.393 146.44 126.855 143.353 130.855C143.353 130.855 142.67 132.901 140.57 134.764L140.242 135.656C140.242 135.656 142.664 133.101 143.53 132.946C143.531 132.945 142.176 127.99 160.416 127.393Z" fill="#82B378"/>
<path d="M140.57 134.762C140.57 134.762 137.569 136.981 137.361 140.949L137.906 140.998C137.906 140.998 138.864 136.896 140.596 135.293C142.327 133.688 140.57 134.762 140.57 134.762Z" fill="#82B378"/>
<path d="M130.959 125.65C130.959 125.65 136.598 122.49 133.966 118.203C133.966 118.203 131.861 115.569 129.605 114.892C129.605 114.892 130.808 121.288 129.605 121.438C128.402 121.588 128.778 114.215 128.778 114.215C128.778 114.215 122.838 111.356 120.507 111.582C120.507 111.582 124.191 117.828 122.988 117.676C121.785 117.526 117.65 111.206 117.65 111.206C117.65 111.206 111.56 110.077 110.583 113.689C109.606 117.3 111.184 119.105 112.087 119.331C112.989 119.558 118.779 119.481 118.628 120.234C118.478 120.986 114.568 122.19 112.387 121.513C112.387 121.513 114.793 127.457 117.951 127.155C121.109 126.854 122.086 124.898 124.041 124.748C125.996 124.598 127.424 125.124 126.447 125.65C125.469 126.177 122.161 125.822 120.582 127.166C119.003 128.509 117.725 129.337 120.657 129.939C123.589 130.542 128.852 130.165 129.905 127.908C130.959 125.65 130.959 125.65 130.959 125.65Z" fill="#A8D29F"/>
<path d="M113.365 114.814C113.365 114.814 129.154 119.931 130.958 125.649C130.958 125.649 130.883 128.206 132.462 131.141V132.27C132.462 132.27 130.808 128.432 129.906 127.906C129.906 127.905 133.44 122.94 113.365 114.814Z" fill="#82B378"/>
<path d="M132.463 131.139C132.463 131.139 134.898 134.839 133.51 139.343L132.883 139.175C132.883 139.175 133.491 134.215 132.217 131.72C130.944 129.225 132.463 131.139 132.463 131.139Z" fill="#82B378"/>
<path d="M139.929 121.291C139.929 121.291 132.496 117.125 135.965 111.473C135.965 111.473 138.74 108.002 141.714 107.109C141.714 107.109 140.129 115.539 141.714 115.737C143.3 115.935 142.804 106.216 142.804 106.216C142.804 106.216 150.634 102.447 153.706 102.745C153.706 102.745 148.849 110.976 150.435 110.778C152.02 110.58 157.471 102.249 157.471 102.249C157.471 102.249 165.499 100.762 166.788 105.523C168.077 110.282 165.995 112.663 164.805 112.961C163.616 113.258 155.985 113.158 156.183 114.151C156.381 115.143 161.534 116.729 164.409 115.837C164.409 115.837 161.237 123.672 157.075 123.274C152.912 122.877 151.624 120.299 149.047 120.101C146.47 119.903 144.588 120.596 145.876 121.291C147.165 121.986 151.525 121.519 153.606 123.289C155.688 125.06 157.372 126.151 153.507 126.944C149.641 127.737 142.704 127.241 141.316 124.266C139.929 121.291 139.929 121.291 139.929 121.291Z" fill="#A8D29F"/>
<path d="M163.121 107.01C163.121 107.01 142.308 113.754 139.93 121.29C139.93 121.29 140.029 124.662 137.948 128.53V130.018C137.948 130.018 140.128 124.961 141.317 124.266C141.317 124.266 136.66 117.721 163.121 107.01Z" fill="#82B378"/>
<path d="M137.948 128.531C137.948 128.531 134.738 133.409 136.568 139.345L137.393 139.124C137.393 139.124 136.592 132.585 138.271 129.296C139.951 126.007 137.948 128.531 137.948 128.531Z" fill="#82B378"/>
<path d="M139.679 152.22C147.72 152.22 154.239 145.697 154.239 137.65H125.119C125.119 145.697 131.637 152.22 139.679 152.22Z" fill="#FABD68"/>
<path d="M135.379 152.108C135.972 152.182 136.575 152.22 137.188 152.22C145.23 152.22 151.748 145.697 151.748 137.65H148.131C148.131 145.083 142.568 151.217 135.379 152.108Z" fill="#EEAC50"/>
<path d="M154.44 152.96H124.917C124.917 151.968 125.722 151.162 126.714 151.162H152.644C153.637 151.162 154.44 151.966 154.44 152.96Z" fill="#EEAC50"/>
<path d="M154.571 137.648H124.641V138.095H154.571V137.648Z" fill="#ED7D2B"/>
<path d="M100.979 10.4336H62.7373V37.2379H100.979V10.4336Z" fill="#D6CFBC"/>
<path d="M139.222 10.4336H100.98V37.2379H139.222V10.4336Z" fill="#D6CFBC"/>
<path d="M177.526 10.4336H139.285V37.2379H177.526V10.4336Z" fill="#D6CFBC"/>
<path d="M101 61H63V91H101V61Z" fill="#D6CFBC"/>
<path d="M139 61H101V91H139V61Z" fill="#D6CFBC"/>
<path d="M178 61H139V91H178V61Z" fill="#D6CFBC"/>
<path d="M139.284 63.793L177.526 63.793V36.9887H139.284V63.793Z" fill="#D6CFBC"/>
<path d="M101.042 63.793L139.284 63.793V36.9887H101.042V63.793Z" fill="#D6CFBC"/>
<path d="M62.7387 63.793L100.98 63.793V36.9887H62.7387V63.793Z" fill="#D6CFBC"/>
<path d="M95.3213 53.3506L106.685 55.1397L99.2031 49.877L98.7951 51.5234L96.018 51.9857L95.3213 53.3506Z" fill="#CA5F00"/>
<path d="M106.685 55.1384L97.28 50.113L88 49.5117L106.685 55.1384Z" fill="#F99746"/>
<path d="M99.2031 49.8761L106.685 55.1388L100.952 47L99.2031 49.8761Z" fill="#F99746"/>
<path d="M84.7146 24.5749C84.7146 24.5749 80.0992 25.0963 78.9835 22.7133C77.8665 20.3303 73.6984 21.5697 73.1773 23.6687C72.6563 25.7676 68.7856 28.0768 69.9763 29.7897C71.167 31.5025 77.1218 28.8958 77.6428 30.9812C78.1638 33.0666 77.6428 34.7794 79.5032 37.2374C81.3637 39.6954 78.1638 41.8558 79.2059 45.5803C80.2479 49.3048 85.9053 51.6878 87.3197 50.1237C88.734 48.5597 87.096 45.9529 89.33 45.059C91.5628 44.165 96.6992 42.601 97.1465 39.7704C97.5925 36.9399 97.9648 31.9489 94.8388 32.6202C91.7127 33.2904 87.5433 34.2593 87.9906 32.1739C88.4367 30.0872 89.33 24.3523 84.7146 24.5749Z" fill="#936F53"/>
<path d="M124.495 47.9173C124.495 47.9173 121.741 48.5136 120.624 47.0983C119.507 45.6831 117.423 46.2794 116.009 47.0983C114.594 47.9173 110.649 50.0777 111.617 53.2058C112.585 56.3339 114.519 58.7182 117.274 58.3456C120.028 57.973 122.039 60.0584 121.145 61.9951C120.252 63.9317 120.475 66.5385 121.964 68.5501C123.453 70.5618 125.611 73.9875 127.695 71.902C129.779 69.8166 130.523 67.5824 132.087 65.7946C133.65 64.0067 131.789 59.9847 132.905 58.7932C134.022 57.6017 134.022 55.59 130.97 55.1437C127.918 54.6949 126.02 47.3209 124.495 47.9173Z" fill="#936F53"/>
<path d="M104.173 60.5042C104.173 60.5042 100.674 60.8227 100.005 59.3976C99.3351 57.9724 97.3247 54.6205 94.4223 55.2907C91.5198 55.9608 88.0214 57.3761 88.1701 59.0889C88.3188 60.8018 91.9659 66.4629 90.9239 69.1447C89.8818 71.8265 95.092 82.6261 97.176 80.6895C99.2601 78.7529 97.3247 75.1034 99.1114 73.6881C100.898 72.2728 100.674 65.9416 101.716 65.4952C102.759 65.0489 106.651 60.6198 104.173 60.5042Z" fill="#936F53"/>
<path d="M95.3131 16.5581C95.3131 16.5581 93.75 18.7923 91.591 19.3137C89.432 19.835 87.4966 21.3991 88.911 22.8894C90.3254 24.3797 90.7714 27.2975 93.3777 27.7746C95.9828 28.2517 99.2588 22.0704 99.1838 20.5802C99.1089 19.0899 96.7004 15.074 95.3131 16.5581Z" fill="#936F53"/>
<path d="M149.661 21.4137C149.661 21.4137 146.087 24.0537 142.85 23.0479C139.612 22.042 135.926 28.1876 133.805 28.634C131.685 29.0803 127.218 34.1082 125.208 31.874C123.197 29.6398 116.275 34.0037 117.615 36.0116C118.954 38.0196 110.803 43.6057 113.372 44.4996C115.94 45.3935 124.76 41.1477 125.654 44.4996C126.547 47.8515 128.11 53.4377 132.129 51.9855C136.149 50.5333 140.726 49.8878 141.285 52.2216C141.843 54.5554 142.848 57.4597 144.523 56.2313C146.198 55.0029 147.985 50.8678 149.66 52.0974C151.334 53.3258 159.151 48.6336 158.815 45.0579C158.482 41.4834 163.507 17.9917 149.661 21.4137Z" fill="#936F53"/>
<path d="M128.976 41.179L136.453 37.3242L129.767 37.4533L130.238 38.6006L128.799 40.0736L128.976 41.179Z" fill="#CA5F00"/>
<path d="M136.453 37.3242L128.735 38.4247L123 42.0803L136.453 37.3242Z" fill="#F99746"/>
<path d="M129.767 37.4531L136.453 37.324L129.557 35L129.767 37.4531Z" fill="#F99746"/>
<path d="M186.495 51.8139C186.495 51.8139 183.242 55.6748 179.101 54.0591C179.101 54.0591 178.21 51.9024 178.198 50.3137C178.197 50.1182 178.194 49.9289 178.191 49.7481C178.169 47.9578 178.108 46.9532 178.108 46.9532C178.108 46.9532 178.11 46.9532 178.112 46.952C178.3 46.8733 184.444 44.3501 184.438 44.5592C184.334 49.4026 186.495 51.8139 186.495 51.8139Z" fill="#EFD7BA"/>
<path d="M183.821 45.7171C183.229 46.8164 181.197 48.9657 178.19 49.7502C178.168 47.9599 178.107 46.9553 178.107 46.9553C178.107 46.9553 178.109 46.9553 178.111 46.9541C178.282 46.9098 183.998 45.3937 183.821 45.7171Z" fill="#E5C7A4"/>
<path d="M176.822 46.7719C176.822 46.7719 183.73 48.3975 184.675 44.0766C185.62 39.7558 187.149 37.0555 182.778 35.8358C178.407 34.616 177.187 36.0755 176.521 37.4416C175.853 38.8065 175.048 46.237 176.822 46.7719Z" fill="#EFD7BA"/>
<path d="M184.439 45.2519C184.534 45.3122 186.02 45.7696 188.834 40.1576C189.277 39.2772 189.578 37.3713 188.547 35.6868C187.517 34.0034 183.864 32.6792 180.83 32.1025C177.795 31.5258 177.067 33.2349 176.352 34.9527C175.601 36.7553 173.435 38.2394 173.435 38.2394C176.052 39.7027 179.204 37.6099 180.295 37.9542C181.388 38.2985 181.774 40.0199 181.855 40.572C181.937 41.1241 182.063 41.5828 183.436 41.0897C184.809 40.5966 184.057 43.0362 183.837 43.5034C183.837 43.5046 183.651 44.7465 184.439 45.2519Z" fill="#3A4D58"/>
<path d="M202.235 153H206.418C207.295 153 208.269 152.121 208.513 150.512C208.757 148.903 210.56 148.025 210.949 146.708C211.34 145.391 209.341 143.537 209.341 143.537L209.007 143.108L208.659 142.66L205.345 143.44C205.345 143.44 205.263 144.229 205.212 145.235C205.177 145.962 205.157 146.8 205.199 147.537C205.296 149.293 204.707 151.184 203.149 151.524C201.59 151.867 202.235 153 202.235 153Z" fill="#966A4E"/>
<path d="M173.115 153.002H184.204C184.309 152.982 184.39 152.958 184.439 152.934C185.18 152.562 184.948 149.727 184.858 148.85C184.841 148.688 184.829 148.593 184.829 148.593C184.829 148.593 180.93 145.472 180.393 147.861C180.376 147.936 180.356 148.009 180.335 148.082V148.083C179.658 150.318 176.633 151.334 174.884 151.617C173.55 151.836 173.203 152.614 173.115 153.002Z" fill="#966A4E"/>
<path d="M175.349 89.0157C175.349 89.0157 175.941 96.4081 176.636 105.296C177.583 117.367 178.72 132.196 178.832 135.004C179.026 139.882 179.808 147.684 179.808 147.684C179.808 147.684 181.659 149.538 185.363 148.756C185.363 148.756 188.665 137.618 189.608 125.833C189.622 125.64 189.637 125.445 189.652 125.25C190.529 113.253 191.893 87.9902 191.893 87.9902L175.349 89.0157Z" fill="#4F5962"/>
<path d="M175.349 89.0165C175.349 89.0165 175.941 96.4089 176.636 105.296L189.608 125.835C189.622 125.642 189.637 125.447 189.652 125.252C190.529 113.255 191.893 87.9922 191.893 87.9922L175.349 89.0165Z" fill="#3A4C56"/>
<path d="M178.053 89.8944C178.053 89.8944 188.727 116.668 195.744 129.25C202.762 141.833 204.956 145.344 204.956 145.344C204.956 145.344 208.976 143.734 209.342 142.637C209.342 142.637 206.659 118.346 201.958 112.425C199.303 109.079 196.183 99.0377 196.037 95.526C195.891 92.0142 195.087 85.0645 195.087 85.0645L178.053 89.8944Z" fill="#4F5962"/>
<path d="M202.393 85.028L202.506 86.7494C202.506 86.7494 201.371 89.8087 204.551 91.3777C204.551 91.3777 205.912 91.9273 205.968 90.8662C206.023 89.8063 205.848 90.2047 205.959 88.7119C206.07 87.2192 205.484 85.8076 204.497 85.3329L203.687 84.3984L202.393 85.028Z" fill="#FFB27D"/>
<path d="M203.636 86.281C202.455 86.6609 202.264 86.5748 202.264 86.5748C202.264 86.5748 196.515 76.0998 195.932 75.1407C195.35 74.1816 183.724 63.393 183.724 63.393L186.713 52.2441C186.713 52.2441 199.936 69.3787 201.364 71.838C203.723 75.9006 205.105 85.3366 205.105 85.3366C205.105 85.3366 204.563 85.9834 203.636 86.281Z" fill="#EEAC50"/>
<path d="M194.744 89.653C191.822 91.3806 189.064 92.6619 185.862 93.3382C182.067 94.1645 177.431 93.8116 175.877 94.0071C175.711 94.0255 175.557 93.9812 175.422 93.8915C175.308 93.8202 174.697 89.1353 174.115 83.2074C174.099 83.0709 174.083 82.9271 174.072 82.7844C174.064 82.6885 174.058 82.5926 174.056 82.4991L174.046 82.4155C173.982 81.7995 173.92 81.1724 173.864 80.5367C173.721 78.9542 173.597 77.3311 173.482 75.7117C173.471 75.558 173.46 75.4018 173.45 75.2469C173.27 72.634 173.138 70.0592 173.096 67.7697C173.095 67.7143 173.093 67.6602 173.093 67.6049C173.063 65.6879 173.095 63.9739 173.216 62.6127C173.241 62.3262 173.27 62.0569 173.305 61.8024C173.758 58.3656 175.421 55.9482 176.981 54.1321L178.508 52.3996C179.972 52.5274 181.24 52.5803 182.671 51.6618C184.22 50.667 185.222 49.7313 185.535 49.9059C187.934 51.3101 190.531 54.7641 191.833 59.4526C192.533 61.977 193.054 64.8174 193.38 67.809C193.504 68.9575 193.6 70.1256 193.666 71.3085C194.005 77.6569 194.999 83.0808 195.576 86.2347C195.742 87.1422 195.872 87.8627 195.943 88.3619C196.014 88.8157 195.131 89.4231 194.744 89.653Z" fill="#FABD68"/>
<path d="M183.724 59.9824C183.724 59.9824 182.419 74.4205 174.072 82.7855C174.065 82.6896 174.058 82.5937 174.056 82.5002L174.046 82.4166C173.982 81.8006 173.921 81.1735 173.864 80.5378C173.722 78.9553 173.598 77.3322 173.482 75.7128C173.471 75.5591 173.46 75.4029 173.45 75.248C173.271 72.6351 173.138 70.0603 173.096 67.7708C173.095 67.7154 173.094 67.6613 173.094 67.606C173.111 66.2374 173.15 64.9894 173.217 63.8938C175.889 61.758 179.358 60.2665 183.724 59.9824Z" fill="#FABD68"/>
<path d="M155.895 88.8394L140.364 43.1607C140.293 42.9529 140.197 42.7537 140.404 42.6787L140.592 42.6098C140.803 42.5324 140.866 42.6688 140.943 42.8816L157.499 87.9037C157.655 88.3341 157.452 88.8112 157.034 88.9981L156.651 89.169C156.352 89.3018 156.002 89.1493 155.895 88.8394Z" fill="#4F5962"/>
<path d="M151.724 69.2081C151.717 68.5392 149.954 66.9936 149.837 67.1805C149.752 67.3145 149.935 68.0167 150.034 68.313C149.301 67.8224 149.134 66.0899 147.898 65.3164C147.555 65.1025 146.335 68.4519 147.492 69.6668C148.65 70.8816 149.204 70.7464 151.13 71.8715L152.526 71.9649L153.215 69.7947C153.214 69.7947 152.47 69.5229 151.724 69.2081Z" fill="#FFB27D"/>
<path d="M151.003 70.965C150.913 69.6481 152.648 68.8857 152.648 68.8857C152.648 68.8857 165.872 70.2653 167.009 69.9075C168.145 69.5497 176.645 57.3458 176.645 57.3458C176.645 57.3458 180.373 53.1381 183.426 54.0677C186.079 54.8756 187.116 56.9462 187.468 58.9185C187.889 61.2695 186.806 63.6341 184.772 64.8833C180.206 67.6856 172.219 75.4113 170.066 76.042C165.274 77.4475 151.587 72.8537 151.587 72.8537C151.587 72.8537 151.075 72.0003 151.003 70.965Z" fill="#EEAC50"/>
<path d="M143.547 7.99861L126.111 0.799246L110.161 7.99123H109.835L126.12 0L143.925 7.99123L143.547 7.99861Z" fill="#936F53"/>
<path d="M125.524 0.991836C125.524 0.683204 125.774 0.433594 126.082 0.433594C126.391 0.433594 126.64 0.683204 126.64 0.991836C126.64 1.30047 126.389 1.55008 126.082 1.55008C125.775 1.55008 125.524 1.30047 125.524 0.991836Z" fill="#A9453D"/>
<path d="M115.184 141.436H46.4863V152.999H115.184V141.436Z" fill="#EFDECE"/>
<path d="M116.641 151.768H13.2361L12.9264 141.437H116.585C116.914 141.437 117.197 141.167 117.187 140.837C117.177 140.487 116.89 140.205 116.537 140.205H12.8896H9.85687C9.1073 140.205 8.4118 140.605 8.0407 141.256C6.87456 143.3 4.98219 148.043 8.72883 152.999H8.79887H13.273H116.489C116.871 152.999 117.182 152.692 117.187 152.309C117.191 152.012 116.939 151.768 116.641 151.768Z" fill="#BFBA68"/>
<path d="M77.4267 151.767L10.8352 151.834C9.67273 151.836 8.729 150.892 8.729 149.729V142.708C8.729 142.005 9.29794 141.436 10.0008 141.436H77.4279V151.767H77.4267Z" fill="#FCECDB"/>
<path d="M57.542 146.99L77.4266 146.805V147.482L57.542 146.99Z" fill="#EFDECE"/>
<path d="M70.2642 149.4L77.4269 149.045V149.51L70.2642 149.4Z" fill="#EFDECE"/>
<path d="M8.02963 127.414H59.9136V115.851H8.02963V127.414Z" fill="#EFDECE"/>
<path d="M6.92844 126.182H85.0253L85.2588 115.851H6.97145C6.722 115.851 6.50941 115.581 6.51679 115.251C6.52416 114.901 6.74166 114.619 7.00831 114.619H85.287H87.5775C88.144 114.619 88.6687 115.019 88.9501 115.67C89.8299 117.714 91.2603 122.458 88.4303 127.413H88.3775H84.9983H7.04395C6.75518 127.413 6.52047 127.106 6.51679 126.723C6.5131 126.426 6.70357 126.182 6.92844 126.182Z" fill="#86A586"/>
<path d="M36.5449 126.185L86.8388 126.252C87.7174 126.254 88.4301 125.31 88.4301 124.147V117.126C88.4301 116.424 88 115.854 87.4692 115.854H36.5449V126.185Z" fill="#FCECDB"/>
<path d="M51.5634 121.406L36.5449 121.221V121.898L51.5634 121.406Z" fill="#EFDECE"/>
<path d="M41.9541 123.814L36.5449 123.457V123.923L41.9541 123.814Z" fill="#EFDECE"/>
<path d="M96.8674 128.645H36.168V140.208H96.8674V128.645Z" fill="#EFDECE"/>
<path d="M98.1539 138.975H6.78958L6.51679 128.644H98.1047C98.396 128.644 98.6454 128.374 98.6368 128.044C98.6282 127.694 98.3738 127.412 98.0617 127.412H6.48484H3.80604C3.14371 127.412 2.52931 127.812 2.20122 128.463C1.17148 130.507 -0.50093 135.25 2.80948 140.206H2.87092H6.82399H98.0212C98.3591 140.206 98.6331 139.899 98.638 139.516C98.6405 139.22 98.4181 138.975 98.1539 138.975Z" fill="#A9453D"/>
<path d="M63.5065 138.976L4.66877 139.043C3.64149 139.045 2.80713 138.101 2.80713 136.938V129.917C2.80713 129.215 3.30971 128.645 3.93026 128.645H63.5053V138.976H63.5065Z" fill="#FCECDB"/>
<path d="M45.937 134.198L63.5065 134.014V134.691L45.937 134.198Z" fill="#EFDECE"/>
<path d="M57.1782 136.605L63.5066 136.25V136.715L57.1782 136.605Z" fill="#EFDECE"/>
<path d="M59.5609 146.975C59.5609 146.975 58.5398 147.208 57.6304 147.792C56.8907 148.268 56.2247 148.979 56.2493 149.987C56.2542 150.177 56.2185 150.349 56.1559 150.502H50.6226C50.7921 150.19 50.9089 149.819 50.9089 149.39C50.9089 148.721 51.1767 148.186 51.4876 147.794C51.9116 147.252 52.4166 146.976 52.4166 146.976H59.5609V146.975Z" fill="#C94C43"/>
<path d="M56.1559 150.5C55.7382 151.514 54.0621 151.765 54.0621 151.765L52.1267 151.282L49.3164 151.765C49.3164 151.765 50.1631 151.344 50.6214 150.5H56.1559Z" fill="#A9453D"/>
<path d="M59.5608 146.975C59.5608 146.975 58.5397 147.208 57.6304 147.792H51.4863C51.9103 147.251 52.4153 146.975 52.4153 146.975H59.5608Z" fill="#A9453D"/>
<path d="M51.9448 123.81C51.9128 123.141 51.6769 122.606 51.366 122.214C50.9421 121.673 50.437 121.396 50.437 121.396H43.2915C43.2915 121.396 44.3126 121.63 45.222 122.214C45.9617 122.69 46.6277 123.401 46.6031 124.409C46.5982 124.598 46.6339 124.771 46.6965 124.924C47.1143 125.939 48.7904 126.19 48.7904 126.19L50.7258 125.706L54.0534 126.19C54.0534 126.188 51.9878 124.72 51.9448 123.81Z" fill="#86A586"/>
<circle cx="91" cy="40" r="2.75" fill="#E94D4C" stroke="#E4ECEF" stroke-width="0.5"/>
</svg>
